G04 Bottom_2 *
G04 Layout scart-mux.pcb *
G04 Designed with PCB elegance 3.51 *
G04 *
G04 *
%FSLAX34Y34*%
%MOMM*%
G75*
G01*
%IPPOS*%
%ADD100C,0.2000*%
%ADD101C,0.4000*%
%ADD102C,2.0000*%
%ADD103C,1.0000*%
%ADD104C,0.8000*%
%ADD105C,1.6000*%
%ADD200C,2.0000*%
%ADD201C,1.8000*%
%ADD202C,1.6000*%
%ADD203C,1.5000*%
%ADD204C,1.0000*%
%ADD400R,4.0000X1.8000*%
%LPD*%G36*
X236370Y393130D02*
X238337Y394913D01*
X240470Y396495D01*
X242747Y397860D01*
X245147Y398995D01*
X247647Y399889D01*
X250222Y400534D01*
X252848Y400924D01*
X255500Y401054D01*
X258152Y400924D01*
X260778Y400534D01*
X263353Y399889D01*
X265853Y398995D01*
X268253Y397860D01*
X270530Y396495D01*
X272663Y394913D01*
X274630Y393130D01*
X276413Y391163D01*
X277995Y389030D01*
X279360Y386753D01*
X280495Y384353D01*
X281389Y381853D01*
X282034Y379278D01*
X282424Y376652D01*
X282554Y374000D01*
X282424Y371348D01*
X282034Y368722D01*
X281389Y366147D01*
X280495Y363647D01*
X279360Y361247D01*
X277995Y358970D01*
X276413Y356837D01*
X274630Y354870D01*
X272663Y353087D01*
X270530Y351505D01*
X268253Y350140D01*
X265853Y349005D01*
X263353Y348111D01*
X260778Y347466D01*
X258152Y347076D01*
X255500Y346946D01*
X252848Y347076D01*
X250222Y347466D01*
X247647Y348111D01*
X245147Y349005D01*
X242747Y350140D01*
X240470Y351505D01*
X238337Y353087D01*
X236370Y354870D01*
X234587Y356837D01*
X233078Y356339D01*
Y327417D01*
X235248Y325248D01*
X237417Y323078D01*
X290000D01*
X292551Y322827D01*
X295005Y322083D01*
X297266Y320874D01*
X299248Y319248D01*
X321248Y297248D01*
X322874Y295266D01*
X324083Y293005D01*
X324827Y290551D01*
X325078Y288000D01*
Y247417D01*
X328248Y244248D01*
X331417Y241078D01*
X458583D01*
X461752Y244248D01*
X464922Y247417D01*
Y278000D01*
X465173Y280551D01*
X465917Y283005D01*
X467126Y285266D01*
X468752Y287248D01*
X498752Y317248D01*
X500734Y318874D01*
X502995Y320083D01*
X505449Y320827D01*
X508000Y321078D01*
X552000D01*
X554551Y320827D01*
X557005Y320083D01*
X559266Y318874D01*
X561248Y317248D01*
X591248Y287248D01*
X592874Y285266D01*
X594083Y283005D01*
X594827Y280551D01*
X595078Y278000D01*
Y247417D01*
X599248Y243248D01*
X603417Y239078D01*
X774000D01*
X776551Y238827D01*
X779005Y238083D01*
X780906Y237066D01*
X809832D01*
Y244000D01*
Y260000D01*
X810454Y263126D01*
X812224Y265776D01*
X814874Y267546D01*
X818000Y268168D01*
X821126Y267546D01*
X823776Y265776D01*
X825546Y263126D01*
X826168Y260000D01*
Y244000D01*
Y237066D01*
X898000D01*
X899832D01*
Y244000D01*
Y260000D01*
X900454Y263126D01*
X902224Y265776D01*
X904874Y267546D01*
X908000Y268168D01*
X911126Y267546D01*
X913776Y265776D01*
X915546Y263126D01*
X916168Y260000D01*
Y244000D01*
Y233407D01*
X917201Y232148D01*
X918224Y230235D01*
X918853Y228159D01*
X919066Y226000D01*
X918853Y223841D01*
X918224Y221765D01*
X917201Y219852D01*
X915825Y218175D01*
X914148Y216799D01*
X914348Y216000D01*
X1464000D01*
Y298000D01*
X1554000D01*
Y862000D01*
X1464000D01*
Y944000D01*
X296000D01*
Y862000D01*
X206000D01*
Y620363D01*
X206160Y620355D01*
X206847Y622620D01*
X207962Y624707D01*
X209464Y626536D01*
X211293Y628038D01*
X213380Y629153D01*
X215645Y629840D01*
X218000Y630072D01*
X220355Y629840D01*
X222620Y629153D01*
X224707Y628038D01*
X226536Y626536D01*
X228038Y624707D01*
X229153Y622620D01*
X229840Y620355D01*
X230072Y618000D01*
X229840Y615645D01*
X229153Y613380D01*
X228038Y611293D01*
X226536Y609464D01*
X224707Y607962D01*
X222620Y606847D01*
X220355Y606160D01*
X218000Y605928D01*
X215645Y606160D01*
X213380Y606847D01*
X211293Y607962D01*
X209464Y609464D01*
X207962Y611293D01*
X206847Y613380D01*
X206160Y615645D01*
Y594955D01*
X206847Y597220D01*
X207962Y599307D01*
X209464Y601136D01*
X211293Y602638D01*
X213380Y603753D01*
X215645Y604440D01*
X218000Y604672D01*
X220355Y604440D01*
X222620Y603753D01*
X224707Y602638D01*
X226536Y601136D01*
X228038Y599307D01*
X229153Y597220D01*
X229840Y594955D01*
X230072Y592600D01*
X229840Y590245D01*
X229313Y588507D01*
X231927Y585892D01*
X235000Y587165D01*
Y662000D01*
X284000D01*
Y627060D01*
X285464Y626536D01*
X287293Y628038D01*
X289380Y629153D01*
X291645Y629840D01*
X294000Y630072D01*
X296355Y629840D01*
X298620Y629153D01*
X300707Y628038D01*
X301916Y627045D01*
Y672213D01*
X300000Y671832D01*
X296874Y672454D01*
X294224Y674224D01*
X292454Y676874D01*
X291832Y680000D01*
X292454Y683126D01*
X294224Y685776D01*
X296874Y687546D01*
X300000Y688168D01*
X303126Y687546D01*
X305776Y685776D01*
X306000Y685440D01*
X306224Y685776D01*
X308874Y687546D01*
X312000Y688168D01*
X315126Y687546D01*
X317776Y685776D01*
X319546Y683126D01*
X320168Y680000D01*
X319546Y676874D01*
X317776Y674224D01*
X315126Y672454D01*
X314084Y672246D01*
X314175Y586089D01*
X315070Y592120D01*
X316551Y598034D01*
X318605Y603774D01*
X321211Y609285D01*
X324346Y614514D01*
X327977Y619411D01*
X332072Y623928D01*
X336589Y628023D01*
X341486Y631654D01*
X346715Y634789D01*
X352226Y637395D01*
X357966Y639449D01*
X363880Y640930D01*
X369911Y641825D01*
X376000Y642124D01*
X382089Y641825D01*
X388120Y640930D01*
X394034Y639449D01*
X399774Y637395D01*
X405285Y634789D01*
X410514Y631654D01*
X415411Y628023D01*
X419928Y623928D01*
X424023Y619411D01*
X427654Y614514D01*
X430789Y609285D01*
X433395Y603774D01*
X435449Y598034D01*
X436930Y592120D01*
X437825Y586089D01*
X438124Y580000D01*
X437825Y573911D01*
X436930Y567880D01*
X435449Y561966D01*
X433395Y556226D01*
X430789Y550715D01*
X427654Y545486D01*
X424023Y540589D01*
X419928Y536072D01*
X415411Y531977D01*
X410514Y528346D01*
X405285Y525211D01*
X399774Y522605D01*
X394034Y520551D01*
X388120Y519070D01*
X382089Y518175D01*
X376000Y517876D01*
X369911Y518175D01*
X363880Y519070D01*
X357966Y520551D01*
X352226Y522605D01*
X346715Y525211D01*
X341486Y528346D01*
X336589Y531977D01*
X332072Y536072D01*
X327977Y540589D01*
X324346Y545486D01*
X321211Y550715D01*
X318605Y556226D01*
X316551Y561966D01*
X315070Y567880D01*
X314175Y573911D01*
X314084Y520000D01*
X313773Y518437D01*
X312888Y517112D01*
X298264Y502488D01*
X299561Y502360D01*
X301542Y501759D01*
X303369Y500783D01*
X304969Y499469D01*
X306283Y497869D01*
X307259Y496042D01*
X307860Y494061D01*
X308063Y492000D01*
X307860Y489939D01*
X307259Y487958D01*
X306283Y486131D01*
X304969Y484531D01*
X303369Y483217D01*
X301542Y482241D01*
X299561Y481640D01*
X297500Y481437D01*
X295439Y481640D01*
X293458Y482241D01*
X291631Y483217D01*
X290031Y484531D01*
X288717Y486131D01*
X287741Y487958D01*
X287140Y489939D01*
X287012Y491236D01*
X283288Y487512D01*
X283546Y487126D01*
X284168Y484000D01*
X283546Y480874D01*
X281776Y478224D01*
X279126Y476454D01*
X276000Y475832D01*
X272874Y476454D01*
X270224Y478224D01*
X269000Y480057D01*
X267776Y478224D01*
X265126Y476454D01*
X262000Y475832D01*
X258874Y476454D01*
X256224Y478224D01*
X254454Y480874D01*
X253832Y484000D01*
X254454Y487126D01*
X256224Y489776D01*
X258874Y491546D01*
X262000Y492168D01*
X263995Y491771D01*
X267112Y494888D01*
X268437Y495773D01*
X268415Y496000D01*
X235000D01*
Y515701D01*
X232116Y516896D01*
X232827Y514551D01*
X233078Y512000D01*
Y391661D01*
X234587Y391163D01*
X236370Y393130D01*
G37*
%LPC*%G36*
X1488224Y670224D02*
X1490874Y668454D01*
X1494000Y667832D01*
X1497126Y668454D01*
X1499776Y670224D01*
X1501546Y672874D01*
X1502168Y676000D01*
X1501546Y679126D01*
X1499776Y681776D01*
X1497126Y683546D01*
X1494000Y684168D01*
X1490874Y683546D01*
X1488224Y681776D01*
X1487094Y680084D01*
X1484906D01*
X1483776Y681776D01*
X1481126Y683546D01*
X1478000Y684168D01*
X1474874Y683546D01*
X1472224Y681776D01*
X1470454Y679126D01*
X1469832Y676000D01*
X1470454Y672874D01*
X1472224Y670224D01*
X1474874Y668454D01*
X1478000Y667832D01*
X1481126Y668454D01*
X1483776Y670224D01*
X1484906Y671916D01*
X1487094D01*
X1488224Y670224D01*
G37*
%LPC*%G36*
X1484874Y455546D02*
X1482224Y453776D01*
X1481094Y452084D01*
X1466906D01*
X1465776Y453776D01*
X1463126Y455546D01*
X1460000Y456168D01*
X1456874Y455546D01*
X1454224Y453776D01*
X1452454Y451126D01*
X1451832Y448000D01*
X1452454Y444874D01*
X1454224Y442224D01*
X1456874Y440454D01*
X1460000Y439832D01*
X1463126Y440454D01*
X1465776Y442224D01*
X1466906Y443916D01*
X1481094D01*
X1482224Y442224D01*
X1484874Y440454D01*
X1488000Y439832D01*
X1491126Y440454D01*
X1493776Y442224D01*
X1495546Y444874D01*
X1496168Y448000D01*
X1495796Y449873D01*
X1496000Y449832D01*
X1499126Y450454D01*
X1501776Y452224D01*
X1503546Y454874D01*
X1504168Y458000D01*
X1503546Y461126D01*
X1501776Y463776D01*
X1499126Y465546D01*
X1496000Y466168D01*
X1494005Y465771D01*
X1491771Y468005D01*
X1492168Y470000D01*
X1491546Y473126D01*
X1489776Y475776D01*
X1487126Y477546D01*
X1484000Y478168D01*
X1480874Y477546D01*
X1478224Y475776D01*
X1476454Y473126D01*
X1475832Y470000D01*
X1476454Y466874D01*
X1478224Y464224D01*
X1480874Y462454D01*
X1484000Y461832D01*
X1485995Y462229D01*
X1488229Y459995D01*
X1487832Y458000D01*
X1488204Y456127D01*
X1488000Y456168D01*
X1484874Y455546D01*
G37*
%LPC*%G36*
X1488224Y526224D02*
X1490874Y524454D01*
X1494000Y523832D01*
X1497126Y524454D01*
X1499776Y526224D01*
X1501546Y528874D01*
X1502168Y532000D01*
X1501546Y535126D01*
X1499776Y537776D01*
X1497126Y539546D01*
X1494000Y540168D01*
X1490874Y539546D01*
X1488224Y537776D01*
X1487094Y536084D01*
X1476906D01*
X1475776Y537776D01*
X1473126Y539546D01*
X1470000Y540168D01*
X1466874Y539546D01*
X1464224Y537776D01*
X1462454Y535126D01*
X1461832Y532000D01*
X1462454Y528874D01*
X1464224Y526224D01*
X1466874Y524454D01*
X1470000Y523832D01*
X1473126Y524454D01*
X1475776Y526224D01*
X1476906Y527916D01*
X1487094D01*
X1488224Y526224D01*
G37*
%LPC*%G36*
X1443673Y633897D02*
X1444000Y633832D01*
X1447126Y634454D01*
X1448021Y635052D01*
X1448454Y632874D01*
X1450224Y630224D01*
X1452874Y628454D01*
X1456000Y627832D01*
X1459126Y628454D01*
X1461776Y630224D01*
X1461866Y630359D01*
X1475112Y617112D01*
X1476437Y616227D01*
X1478000Y615916D01*
X1494308D01*
X1497916Y612308D01*
Y596906D01*
X1496224Y595776D01*
X1494454Y593126D01*
X1493832Y590000D01*
X1494454Y586874D01*
X1496224Y584224D01*
X1498874Y582454D01*
X1502000Y581832D01*
X1505126Y582454D01*
X1507776Y584224D01*
X1509546Y586874D01*
X1510168Y590000D01*
X1509546Y593126D01*
X1507776Y595776D01*
X1506084Y596906D01*
Y614000D01*
X1505773Y615563D01*
X1504888Y616888D01*
X1506142Y619916D01*
X1518686D01*
X1520874Y618454D01*
X1524000Y617832D01*
X1527126Y618454D01*
X1529776Y620224D01*
X1531546Y622874D01*
X1532168Y626000D01*
X1531546Y629126D01*
X1529776Y631776D01*
X1527126Y633546D01*
X1524000Y634168D01*
X1520874Y633546D01*
X1519979Y632948D01*
X1519546Y635126D01*
X1518948Y636021D01*
X1521126Y636454D01*
X1523776Y638224D01*
X1524000Y638560D01*
X1524224Y638224D01*
X1526874Y636454D01*
X1530000Y635832D01*
X1533126Y636454D01*
X1535776Y638224D01*
X1537546Y640874D01*
X1538168Y644000D01*
X1537546Y647126D01*
X1535776Y649776D01*
X1534084Y650906D01*
Y663094D01*
X1535776Y664224D01*
X1537546Y666874D01*
X1538168Y670000D01*
X1537546Y673126D01*
X1535776Y675776D01*
X1533126Y677546D01*
X1530000Y678168D01*
X1526874Y677546D01*
X1524224Y675776D01*
X1524000Y675440D01*
X1523776Y675776D01*
X1521126Y677546D01*
X1518000Y678168D01*
X1514874Y677546D01*
X1512224Y675776D01*
X1510454Y673126D01*
X1509832Y670000D01*
X1510454Y666874D01*
X1512224Y664224D01*
X1513916Y663094D01*
Y650906D01*
X1512224Y649776D01*
X1510454Y647126D01*
X1509832Y644000D01*
X1510454Y640874D01*
X1511052Y639979D01*
X1508874Y639546D01*
X1506224Y637776D01*
X1504454Y635126D01*
X1503849Y632084D01*
X1483692D01*
X1468084Y647692D01*
Y652000D01*
X1467773Y653563D01*
X1466888Y654888D01*
X1463771Y658005D01*
X1464168Y660000D01*
X1463546Y663126D01*
X1461776Y665776D01*
X1459126Y667546D01*
X1456000Y668168D01*
X1452874Y667546D01*
X1450224Y665776D01*
X1448454Y663126D01*
X1447832Y660000D01*
X1448454Y656874D01*
X1450224Y654224D01*
X1450560Y654000D01*
X1450224Y653776D01*
X1448454Y651126D01*
X1448021Y648948D01*
X1447126Y649546D01*
X1444000Y650168D01*
X1440874Y649546D01*
X1438224Y647776D01*
X1436454Y645126D01*
X1435832Y642000D01*
X1436454Y638874D01*
X1436712Y638488D01*
X1435112Y636888D01*
X1434227Y635563D01*
X1433916Y634000D01*
Y626906D01*
X1432224Y625776D01*
X1430454Y623126D01*
X1429832Y620000D01*
X1430454Y616874D01*
X1432224Y614224D01*
X1434874Y612454D01*
X1438000Y611832D01*
X1441126Y612454D01*
X1443776Y614224D01*
X1445546Y616874D01*
X1446168Y620000D01*
X1445546Y623126D01*
X1443776Y625776D01*
X1442084Y626906D01*
Y632308D01*
X1443673Y633897D01*
G37*
%LPC*%G36*
X1459776Y732224D02*
X1457126Y730454D01*
X1454000Y729832D01*
X1450874Y730454D01*
X1448224Y732224D01*
X1446454Y734874D01*
X1445832Y738000D01*
X1446454Y741126D01*
X1448224Y743776D01*
X1450874Y745546D01*
X1451286Y745628D01*
X1450454Y746874D01*
X1449832Y750000D01*
X1450454Y753126D01*
X1452224Y755776D01*
X1454874Y757546D01*
X1458000Y758168D01*
X1461126Y757546D01*
X1463776Y755776D01*
X1464906Y754084D01*
X1473094D01*
X1474224Y755776D01*
X1476874Y757546D01*
X1480000Y758168D01*
X1483126Y757546D01*
X1485776Y755776D01*
X1487546Y753126D01*
X1488168Y750000D01*
X1487546Y746874D01*
X1485776Y744224D01*
X1485440Y744000D01*
X1485776Y743776D01*
X1487546Y741126D01*
X1488168Y738000D01*
X1487546Y734874D01*
X1485776Y732224D01*
X1483126Y730454D01*
X1480000Y729832D01*
X1476874Y730454D01*
X1474224Y732224D01*
X1473094Y733916D01*
X1460906D01*
X1459776Y732224D01*
G37*
%LPC*%G36*
X1354224Y423776D02*
X1352454Y421126D01*
X1351832Y418000D01*
X1352454Y414874D01*
X1354224Y412224D01*
X1356874Y410454D01*
X1360000Y409832D01*
X1363126Y410454D01*
X1365776Y412224D01*
X1367546Y414874D01*
X1368168Y418000D01*
X1367546Y421126D01*
X1365776Y423776D01*
X1364084Y424906D01*
Y435094D01*
X1365776Y436224D01*
X1367546Y438874D01*
X1368168Y442000D01*
X1367546Y445126D01*
X1365776Y447776D01*
X1363126Y449546D01*
X1360000Y450168D01*
X1356874Y449546D01*
X1354224Y447776D01*
X1352454Y445126D01*
X1351832Y442000D01*
X1352454Y438874D01*
X1354224Y436224D01*
X1355916Y435094D01*
Y424906D01*
X1354224Y423776D01*
G37*
%LPC*%G36*
X1125776Y720224D02*
X1123126Y718454D01*
X1120000Y717832D01*
X1116874Y718454D01*
X1114224Y720224D01*
X1112454Y722874D01*
X1111832Y726000D01*
X1112454Y729126D01*
X1114224Y731776D01*
X1114560Y732000D01*
X1114224Y732224D01*
X1112454Y734874D01*
X1111832Y738000D01*
X1112454Y741126D01*
X1114224Y743776D01*
X1116874Y745546D01*
X1120000Y746168D01*
X1123126Y745546D01*
X1125776Y743776D01*
X1126906Y742084D01*
X1133094D01*
X1134224Y743776D01*
X1136874Y745546D01*
X1140000Y746168D01*
X1143126Y745546D01*
X1145776Y743776D01*
X1147546Y741126D01*
X1148168Y738000D01*
X1147546Y734874D01*
X1145776Y732224D01*
X1145440Y732000D01*
X1145776Y731776D01*
X1147546Y729126D01*
X1148168Y726000D01*
X1147546Y722874D01*
X1145776Y720224D01*
X1143126Y718454D01*
X1140000Y717832D01*
X1136874Y718454D01*
X1134224Y720224D01*
X1133094Y721916D01*
X1126906D01*
X1125776Y720224D01*
G37*
%LPC*%G36*
X1373776Y732224D02*
X1371126Y730454D01*
X1368000Y729832D01*
X1364874Y730454D01*
X1362224Y732224D01*
X1360454Y734874D01*
X1359832Y738000D01*
X1360454Y741126D01*
X1362224Y743776D01*
X1364874Y745546D01*
X1368000Y746168D01*
X1371126Y745546D01*
X1373776Y743776D01*
X1374906Y742084D01*
X1381094D01*
X1382224Y743776D01*
X1384874Y745546D01*
X1388000Y746168D01*
X1391126Y745546D01*
X1393776Y743776D01*
X1395546Y741126D01*
X1396168Y738000D01*
X1395546Y734874D01*
X1393776Y732224D01*
X1391126Y730454D01*
X1388000Y729832D01*
X1384874Y730454D01*
X1382224Y732224D01*
X1381094Y733916D01*
X1374906D01*
X1373776Y732224D01*
G37*
%LPC*%G36*
X1299773Y650437D02*
X1298888Y649112D01*
X1276888Y627112D01*
X1275563Y626227D01*
X1274000Y625916D01*
X1266000D01*
X1264437Y626227D01*
X1263112Y627112D01*
X1259995Y630229D01*
X1258000Y629832D01*
X1254874Y630454D01*
X1252224Y632224D01*
X1250454Y634874D01*
X1249832Y638000D01*
X1250454Y641126D01*
X1252224Y643776D01*
X1254874Y645546D01*
X1258000Y646168D01*
X1261126Y645546D01*
X1263776Y643776D01*
X1264000Y643440D01*
X1264224Y643776D01*
X1266874Y645546D01*
X1267286Y645628D01*
X1266454Y646874D01*
X1265832Y650000D01*
X1266454Y653126D01*
X1268224Y655776D01*
X1268560Y656000D01*
X1268224Y656224D01*
X1266955Y658124D01*
X1266437Y658227D01*
X1265112Y659112D01*
X1251995Y672229D01*
X1250000Y671832D01*
X1246874Y672454D01*
X1244224Y674224D01*
X1242454Y676874D01*
X1241832Y680000D01*
X1242454Y683126D01*
X1244224Y685776D01*
X1246874Y687546D01*
X1250000Y688168D01*
X1253126Y687546D01*
X1255776Y685776D01*
X1257546Y683126D01*
X1258168Y680000D01*
X1257771Y678005D01*
X1268134Y667641D01*
X1268224Y667776D01*
X1270874Y669546D01*
X1274000Y670168D01*
X1277126Y669546D01*
X1277916Y669018D01*
Y672308D01*
X1275995Y674229D01*
X1274000Y673832D01*
X1270874Y674454D01*
X1268224Y676224D01*
X1266454Y678874D01*
X1265832Y682000D01*
X1266454Y685126D01*
X1268224Y687776D01*
X1270874Y689546D01*
X1274000Y690168D01*
X1277126Y689546D01*
X1279776Y687776D01*
X1281000Y685943D01*
X1282224Y687776D01*
X1284874Y689546D01*
X1288000Y690168D01*
X1291126Y689546D01*
X1293776Y687776D01*
X1295546Y685126D01*
X1296168Y682000D01*
X1295713Y679713D01*
X1298000Y680168D01*
X1301126Y679546D01*
X1303776Y677776D01*
X1305546Y675126D01*
X1306168Y672000D01*
X1305546Y668874D01*
X1303776Y666224D01*
X1301126Y664454D01*
X1300084Y664246D01*
Y652000D01*
D01*
X1299773Y650437D01*
G37*
%LPC*%G36*
X1364437Y596227D02*
X1366000Y595916D01*
X1367094D01*
X1368224Y594224D01*
X1370874Y592454D01*
X1374000Y591832D01*
X1377126Y592454D01*
X1379776Y594224D01*
X1381546Y596874D01*
X1382168Y600000D01*
X1381546Y603126D01*
X1379776Y605776D01*
X1377126Y607546D01*
X1374000Y608168D01*
X1370874Y607546D01*
X1368224Y605776D01*
X1367333Y604442D01*
X1343771Y628005D01*
X1344168Y630000D01*
X1343546Y633126D01*
X1341776Y635776D01*
X1339126Y637546D01*
X1336000Y638168D01*
X1332874Y637546D01*
X1330224Y635776D01*
X1328454Y633126D01*
X1327832Y630000D01*
X1328454Y626874D01*
X1330224Y624224D01*
X1332874Y622454D01*
X1336000Y621832D01*
X1337995Y622229D01*
X1363112Y597112D01*
X1364437Y596227D01*
G37*
%LPC*%G36*
X1208224Y709776D02*
X1206454Y707126D01*
X1205832Y704000D01*
X1206454Y700874D01*
X1207286Y699628D01*
X1206874Y699546D01*
X1204224Y697776D01*
X1202454Y695126D01*
X1201832Y692000D01*
X1202454Y688874D01*
X1204224Y686224D01*
X1204560Y686000D01*
X1204224Y685776D01*
X1202454Y683126D01*
X1201832Y680000D01*
X1202454Y676874D01*
X1204224Y674224D01*
X1206874Y672454D01*
X1210000Y671832D01*
X1213126Y672454D01*
X1215776Y674224D01*
X1217546Y676874D01*
X1217754Y677916D01*
X1222000D01*
X1223563Y678227D01*
X1224888Y679112D01*
X1250005Y704229D01*
X1252000Y703832D01*
X1255126Y704454D01*
X1257776Y706224D01*
X1259546Y708874D01*
X1260168Y712000D01*
X1259546Y715126D01*
X1257776Y717776D01*
X1255126Y719546D01*
X1252000Y720168D01*
X1249713Y719713D01*
X1250168Y722000D01*
X1249546Y725126D01*
X1247776Y727776D01*
X1245126Y729546D01*
X1242000Y730168D01*
X1238874Y729546D01*
X1236224Y727776D01*
X1234454Y725126D01*
X1233832Y722000D01*
X1234454Y718874D01*
X1236224Y716224D01*
X1237916Y715094D01*
Y709692D01*
X1232112Y703888D01*
X1226308Y698084D01*
X1219776Y698224D01*
X1221546Y700874D01*
X1222168Y704000D01*
X1221546Y707126D01*
X1219776Y709776D01*
X1219105Y710224D01*
Y725776D01*
X1219776Y726224D01*
X1221546Y728874D01*
X1222168Y732000D01*
X1221546Y735126D01*
X1219776Y737776D01*
X1217126Y739546D01*
X1214000Y740168D01*
X1210874Y739546D01*
X1208224Y737776D01*
X1206454Y735126D01*
X1205832Y732000D01*
X1206454Y728874D01*
X1208224Y726224D01*
X1208895Y725776D01*
Y710224D01*
X1208224Y709776D01*
G37*
%LPC*%G36*
X1248308Y521916D02*
X1251897Y518327D01*
X1251832Y518000D01*
X1252454Y514874D01*
X1254224Y512224D01*
X1256874Y510454D01*
X1260000Y509832D01*
X1263126Y510454D01*
X1265776Y512224D01*
X1267546Y514874D01*
X1268168Y518000D01*
X1267546Y521126D01*
X1265776Y523776D01*
X1264186Y524838D01*
X1265546Y526874D01*
X1266168Y530000D01*
X1265546Y533126D01*
X1263776Y535776D01*
X1261126Y537546D01*
X1258000Y538168D01*
X1254874Y537546D01*
X1252224Y535776D01*
X1251094Y534084D01*
X1241818D01*
X1241776Y534224D01*
X1243546Y536874D01*
X1244168Y540000D01*
X1243546Y543126D01*
X1241776Y545776D01*
X1239126Y547546D01*
X1236000Y548168D01*
X1232874Y547546D01*
X1230224Y545776D01*
X1229094Y544084D01*
X1220906D01*
X1219776Y545776D01*
X1217126Y547546D01*
X1214000Y548168D01*
X1210874Y547546D01*
X1208224Y545776D01*
X1206454Y543126D01*
X1205832Y540000D01*
X1206454Y536874D01*
X1208224Y534224D01*
X1208560Y534000D01*
X1208224Y533776D01*
X1206454Y531126D01*
X1205832Y528000D01*
X1206454Y524874D01*
X1208224Y522224D01*
X1208560Y522000D01*
X1208224Y521776D01*
X1206454Y519126D01*
X1205832Y516000D01*
X1206454Y512874D01*
X1208224Y510224D01*
X1210874Y508454D01*
X1214000Y507832D01*
X1217126Y508454D01*
X1219776Y510224D01*
X1221546Y512874D01*
X1222168Y516000D01*
X1221771Y517995D01*
X1225692Y521916D01*
X1248308D01*
G37*
%LPC*%G36*
X1194888Y640888D02*
X1195692Y640084D01*
X1208000D01*
X1209563Y639773D01*
X1210888Y638888D01*
X1242005Y607771D01*
X1244000Y608168D01*
X1247126Y607546D01*
X1249776Y605776D01*
X1251546Y603126D01*
X1252168Y600000D01*
X1251546Y596874D01*
X1249776Y594224D01*
X1247126Y592454D01*
X1244000Y591832D01*
X1240874Y592454D01*
X1238224Y594224D01*
X1236454Y596874D01*
X1235832Y600000D01*
X1236229Y601995D01*
X1206308Y631916D01*
X1201018D01*
X1201546Y631126D01*
X1202168Y628000D01*
X1201546Y624874D01*
X1199776Y622224D01*
X1197126Y620454D01*
X1194000Y619832D01*
X1190874Y620454D01*
X1188224Y622224D01*
X1186454Y624874D01*
X1185832Y628000D01*
X1186229Y629995D01*
X1181995Y634229D01*
X1180000Y633832D01*
X1176874Y634454D01*
X1174224Y636224D01*
X1172454Y638874D01*
X1171832Y642000D01*
X1172454Y645126D01*
X1174224Y647776D01*
X1176874Y649546D01*
X1180000Y650168D01*
X1181873Y649796D01*
X1181832Y650000D01*
X1182454Y653126D01*
X1184224Y655776D01*
X1186874Y657546D01*
X1190000Y658168D01*
X1193126Y657546D01*
X1195776Y655776D01*
X1197546Y653126D01*
X1198168Y650000D01*
X1197546Y646874D01*
X1195776Y644224D01*
X1194084Y643094D01*
Y641692D01*
X1194888Y640888D01*
G37*
%LPC*%G36*
X1088168Y694000D02*
X1087546Y690874D01*
X1085776Y688224D01*
X1083126Y686454D01*
X1080000Y685832D01*
X1076874Y686454D01*
X1074224Y688224D01*
X1072454Y690874D01*
X1071832Y694000D01*
X1072454Y697126D01*
X1074224Y699776D01*
X1076874Y701546D01*
X1080000Y702168D01*
X1081995Y701771D01*
X1092229Y712005D01*
X1091832Y714000D01*
X1092454Y717126D01*
X1094224Y719776D01*
X1096874Y721546D01*
X1100000Y722168D01*
X1103126Y721546D01*
X1105776Y719776D01*
X1107546Y717126D01*
X1108168Y714000D01*
X1107546Y710874D01*
X1105776Y708224D01*
X1103126Y706454D01*
X1100000Y705832D01*
X1098005Y706229D01*
X1087771Y695995D01*
X1088168Y694000D01*
G37*
%LPC*%G36*
X1016224Y844224D02*
X1018874Y842454D01*
X1022000Y841832D01*
X1025126Y842454D01*
X1027776Y844224D01*
X1029546Y846874D01*
X1030168Y850000D01*
X1029546Y853126D01*
X1027776Y855776D01*
X1025126Y857546D01*
X1022000Y858168D01*
X1018874Y857546D01*
X1016224Y855776D01*
X1015094Y854084D01*
X1004906D01*
X1003776Y855776D01*
X1001126Y857546D01*
X998000Y858168D01*
X994874Y857546D01*
X992224Y855776D01*
X990454Y853126D01*
X989832Y850000D01*
X990454Y846874D01*
X992224Y844224D01*
X994874Y842454D01*
X998000Y841832D01*
X1001126Y842454D01*
X1003776Y844224D01*
X1004906Y845916D01*
X1015094D01*
X1016224Y844224D01*
G37*
%LPC*%G36*
X958224Y700224D02*
X956454Y702874D01*
X955832Y706000D01*
X956454Y709126D01*
X958224Y711776D01*
X960874Y713546D01*
X964000Y714168D01*
X967126Y713546D01*
X969776Y711776D01*
X971546Y709126D01*
X972168Y706000D01*
X971546Y702874D01*
X969776Y700224D01*
X968084Y699094D01*
Y692906D01*
X969776Y691776D01*
X971546Y689126D01*
X972168Y686000D01*
X971546Y682874D01*
X969776Y680224D01*
X967126Y678454D01*
X964000Y677832D01*
X960874Y678454D01*
X958224Y680224D01*
X956454Y682874D01*
X955832Y686000D01*
X956454Y689126D01*
X958224Y691776D01*
X959916Y692906D01*
Y699094D01*
X958224Y700224D01*
G37*
%LPC*%G36*
X866224Y748224D02*
X864454Y750874D01*
X863832Y754000D01*
X864454Y757126D01*
X866224Y759776D01*
X868874Y761546D01*
X872000Y762168D01*
X875126Y761546D01*
X877776Y759776D01*
X879546Y757126D01*
X880168Y754000D01*
X879546Y750874D01*
X877776Y748224D01*
X876084Y747094D01*
Y728906D01*
X877776Y727776D01*
X879546Y725126D01*
X880168Y722000D01*
X879546Y718874D01*
X877776Y716224D01*
X875126Y714454D01*
X872000Y713832D01*
X868874Y714454D01*
X866224Y716224D01*
X864454Y718874D01*
X863832Y722000D01*
X864454Y725126D01*
X866224Y727776D01*
X867916Y728906D01*
Y747094D01*
X866224Y748224D01*
G37*
%LPC*%G36*
X691776Y848224D02*
X689126Y846454D01*
X686000Y845832D01*
X682874Y846454D01*
X680224Y848224D01*
X678454Y850874D01*
X677832Y854000D01*
X678454Y857126D01*
X680224Y859776D01*
X682874Y861546D01*
X686000Y862168D01*
X689126Y861546D01*
X691776Y859776D01*
X692906Y858084D01*
X707094D01*
X708224Y859776D01*
X710874Y861546D01*
X714000Y862168D01*
X717126Y861546D01*
X719776Y859776D01*
X721546Y857126D01*
X722168Y854000D01*
X721546Y850874D01*
X719776Y848224D01*
X717126Y846454D01*
X714000Y845832D01*
X710874Y846454D01*
X708224Y848224D01*
X707094Y849916D01*
X692906D01*
X691776Y848224D01*
G37*
%LPC*%G36*
X846437Y682227D02*
X848000Y681916D01*
X902000D01*
X903563Y682227D01*
X904888Y683112D01*
X906005Y684229D01*
X908000Y683832D01*
X911126Y684454D01*
X913776Y686224D01*
X915546Y688874D01*
X916168Y692000D01*
X915546Y695126D01*
X913776Y697776D01*
X911126Y699546D01*
X908000Y700168D01*
X904874Y699546D01*
X902224Y697776D01*
X900454Y695126D01*
X899832Y692000D01*
X900213Y690084D01*
X899018D01*
X899546Y690874D01*
X900168Y694000D01*
X899546Y697126D01*
X897776Y699776D01*
X897440Y700000D01*
X897776Y700224D01*
X899546Y702874D01*
X900168Y706000D01*
X899546Y709126D01*
X897776Y711776D01*
X895126Y713546D01*
X892000Y714168D01*
X888874Y713546D01*
X886224Y711776D01*
X885094Y710084D01*
X862906D01*
X861776Y711776D01*
X859126Y713546D01*
X856000Y714168D01*
X852874Y713546D01*
X850224Y711776D01*
X848454Y709126D01*
X847832Y706000D01*
X848454Y702874D01*
X850224Y700224D01*
X850560Y700000D01*
X850224Y699776D01*
X848454Y697126D01*
X847776Y697776D01*
X845126Y699546D01*
X842000Y700168D01*
X838874Y699546D01*
X836224Y697776D01*
X834454Y695126D01*
X833832Y692000D01*
X834454Y688874D01*
X836224Y686224D01*
X838874Y684454D01*
X842000Y683832D01*
X843995Y684229D01*
X845112Y683112D01*
X846437Y682227D01*
G37*
%LPC*%G36*
X859126Y618454D02*
X856000Y617832D01*
X852874Y618454D01*
X850224Y620224D01*
X848454Y622874D01*
X847832Y626000D01*
X848454Y629126D01*
X850224Y631776D01*
X852874Y633546D01*
X856000Y634168D01*
X859126Y633546D01*
X859723Y633147D01*
X912277D01*
X912874Y633546D01*
X916000Y634168D01*
X919126Y633546D01*
X921776Y631776D01*
X923546Y629126D01*
X924168Y626000D01*
X923546Y622874D01*
X921776Y620224D01*
X919126Y618454D01*
X916000Y617832D01*
X912874Y618454D01*
X912277Y618853D01*
X859723D01*
X859126Y618454D01*
G37*
%LPC*%G36*
X920168Y572000D02*
X919546Y568874D01*
X917776Y566224D01*
X915126Y564454D01*
X912000Y563832D01*
X908874Y564454D01*
X906224Y566224D01*
X904454Y568874D01*
X903832Y572000D01*
X904454Y575126D01*
X906224Y577776D01*
X908874Y579546D01*
X912000Y580168D01*
X913995Y579771D01*
X915112Y580888D01*
X916437Y581773D01*
X918000Y582084D01*
X943094D01*
X944224Y583776D01*
X946874Y585546D01*
X950000Y586168D01*
X953126Y585546D01*
X955776Y583776D01*
X957546Y581126D01*
X958168Y578000D01*
X957546Y574874D01*
X955776Y572224D01*
X953126Y570454D01*
X950000Y569832D01*
X946874Y570454D01*
X944224Y572224D01*
X943094Y573916D01*
X919787D01*
X920168Y572000D01*
G37*
%LPC*%G36*
X1038454Y552874D02*
X1037832Y556000D01*
X1037776Y556224D01*
X1035126Y554454D01*
X1032000Y553832D01*
X1028874Y554454D01*
X1026224Y556224D01*
X1024454Y558874D01*
X1023832Y562000D01*
X1024454Y565126D01*
X1026224Y567776D01*
X1027916Y568906D01*
Y579094D01*
X1026224Y580224D01*
X1024454Y582874D01*
X1023832Y586000D01*
X1024454Y589126D01*
X1026224Y591776D01*
X1028874Y593546D01*
X1032000Y594168D01*
X1035126Y593546D01*
X1037776Y591776D01*
X1039546Y589126D01*
X1040168Y586000D01*
X1039546Y582874D01*
X1037776Y580224D01*
X1036084Y579094D01*
Y568906D01*
X1037776Y567776D01*
X1039546Y565126D01*
X1040168Y562000D01*
X1040224Y561776D01*
X1042874Y563546D01*
X1046000Y564168D01*
X1049126Y563546D01*
X1051776Y561776D01*
X1053546Y559126D01*
X1054168Y556000D01*
X1053546Y552874D01*
X1051776Y550224D01*
X1049126Y548454D01*
X1046000Y547832D01*
X1045673Y547897D01*
X1035771Y537995D01*
X1036168Y536000D01*
X1035546Y532874D01*
X1033776Y530224D01*
X1031126Y528454D01*
X1028000Y527832D01*
X1024874Y528454D01*
X1022224Y530224D01*
X1020454Y532874D01*
X1019832Y536000D01*
X1020454Y539126D01*
X1022224Y541776D01*
X1024874Y543546D01*
X1028000Y544168D01*
X1029995Y543771D01*
X1038712Y552488D01*
X1038454Y552874D01*
G37*
%LPC*%G36*
X1361563Y553773D02*
X1362888Y552888D01*
X1368005Y547771D01*
X1370000Y548168D01*
X1373126Y547546D01*
X1375776Y545776D01*
X1377546Y543126D01*
X1378168Y540000D01*
X1377546Y536874D01*
X1375776Y534224D01*
X1373126Y532454D01*
X1370000Y531832D01*
X1366874Y532454D01*
X1364224Y534224D01*
X1362454Y536874D01*
X1361832Y540000D01*
X1362229Y541995D01*
X1358308Y545916D01*
X1354906D01*
X1353776Y544224D01*
X1351126Y542454D01*
X1348000Y541832D01*
X1344874Y542454D01*
X1342224Y544224D01*
X1340454Y546874D01*
X1339832Y550000D01*
X1340454Y553126D01*
X1342224Y555776D01*
X1344874Y557546D01*
X1348000Y558168D01*
X1351126Y557546D01*
X1353776Y555776D01*
X1354906Y554084D01*
X1360000D01*
D01*
X1361563Y553773D01*
G37*
%LPC*%G36*
X1328227Y705563D02*
X1329112Y706888D01*
X1333112Y710888D01*
X1334437Y711773D01*
X1336000Y712084D01*
X1344000D01*
X1345563Y711773D01*
X1346888Y710888D01*
X1353692Y704084D01*
X1361094D01*
X1362224Y705776D01*
X1364874Y707546D01*
X1368000Y708168D01*
X1371126Y707546D01*
X1373776Y705776D01*
X1374224Y705105D01*
X1377885D01*
X1387989Y715209D01*
X1387832Y716000D01*
X1388454Y719126D01*
X1390224Y721776D01*
X1392874Y723546D01*
X1396000Y724168D01*
X1399126Y723546D01*
X1401776Y721776D01*
X1403546Y719126D01*
X1404168Y716000D01*
X1403546Y712874D01*
X1403018Y712084D01*
X1408000D01*
X1409563Y711773D01*
X1410888Y710888D01*
X1414005Y707771D01*
X1416000Y708168D01*
X1419126Y707546D01*
X1421776Y705776D01*
X1423546Y703126D01*
X1424168Y700000D01*
X1423546Y696874D01*
X1422084Y694686D01*
Y652000D01*
X1421773Y650437D01*
X1420888Y649112D01*
X1416888Y645112D01*
X1415563Y644227D01*
X1414000Y643916D01*
X1411692D01*
X1409771Y641995D01*
X1410168Y640000D01*
X1409546Y636874D01*
X1407776Y634224D01*
X1405126Y632454D01*
X1402000Y631832D01*
X1398874Y632454D01*
X1396224Y634224D01*
X1396000Y634560D01*
X1395776Y634224D01*
X1393126Y632454D01*
X1390000Y631832D01*
X1386874Y632454D01*
X1384224Y634224D01*
X1382454Y636874D01*
X1381832Y640000D01*
X1382454Y643126D01*
X1384224Y645776D01*
X1385916Y646906D01*
Y683916D01*
X1346906D01*
X1345776Y682224D01*
X1343126Y680454D01*
X1340000Y679832D01*
X1336874Y680454D01*
X1334224Y682224D01*
X1334000Y682560D01*
X1333776Y682224D01*
X1331126Y680454D01*
X1328000Y679832D01*
X1324874Y680454D01*
X1322224Y682224D01*
X1320454Y684874D01*
X1319832Y688000D01*
X1320454Y691126D01*
X1322224Y693776D01*
X1324874Y695546D01*
X1327916Y696151D01*
Y704000D01*
D01*
X1328227Y705563D01*
G37*
%LPC*%G36*
X1365776Y472224D02*
X1363126Y470454D01*
X1360000Y469832D01*
X1356874Y470454D01*
X1354224Y472224D01*
X1352454Y474874D01*
X1351832Y478000D01*
X1352454Y481126D01*
X1354224Y483776D01*
X1356874Y485546D01*
X1360000Y486168D01*
X1363126Y485546D01*
X1365776Y483776D01*
X1366906Y482084D01*
X1373094D01*
X1374224Y483776D01*
X1376874Y485546D01*
X1380000Y486168D01*
X1383126Y485546D01*
X1385776Y483776D01*
X1387546Y481126D01*
X1388168Y478000D01*
X1387546Y474874D01*
X1385776Y472224D01*
X1383126Y470454D01*
X1380000Y469832D01*
X1376874Y470454D01*
X1374224Y472224D01*
X1373094Y473916D01*
X1366906D01*
X1365776Y472224D01*
G37*
%LPC*%G36*
X1443546Y508874D02*
X1444168Y512000D01*
X1443546Y515126D01*
X1441776Y517776D01*
X1439126Y519546D01*
X1436000Y520168D01*
X1432874Y519546D01*
X1430224Y517776D01*
X1429094Y516084D01*
X1420906D01*
X1419776Y517776D01*
X1417126Y519546D01*
X1414000Y520168D01*
X1410874Y519546D01*
X1408224Y517776D01*
X1406454Y515126D01*
X1405832Y512000D01*
X1406454Y508874D01*
X1408224Y506224D01*
X1410874Y504454D01*
X1413052Y504021D01*
X1412454Y503126D01*
X1411832Y500000D01*
X1412454Y496874D01*
X1414224Y494224D01*
X1416874Y492454D01*
X1420000Y491832D01*
X1423126Y492454D01*
X1425776Y494224D01*
X1426906Y495916D01*
X1429094D01*
X1430224Y494224D01*
X1432874Y492454D01*
X1436000Y491832D01*
X1439126Y492454D01*
X1441776Y494224D01*
X1443546Y496874D01*
X1444168Y500000D01*
X1443546Y503126D01*
X1441776Y505776D01*
X1441440Y506000D01*
X1441776Y506224D01*
X1443546Y508874D01*
G37*
%LPC*%G36*
X432224Y429776D02*
X430454Y427126D01*
X429832Y424000D01*
X430454Y420874D01*
X432224Y418224D01*
X434874Y416454D01*
X438000Y415832D01*
X441126Y416454D01*
X443776Y418224D01*
X445546Y420874D01*
X446168Y424000D01*
X445546Y427126D01*
X443776Y429776D01*
X442084Y430906D01*
Y437094D01*
X443776Y438224D01*
X445546Y440874D01*
X446168Y444000D01*
X445546Y447126D01*
X443776Y449776D01*
X441126Y451546D01*
X438000Y452168D01*
X434874Y451546D01*
X432224Y449776D01*
X430454Y447126D01*
X429832Y444000D01*
X430454Y440874D01*
X432224Y438224D01*
X433916Y437094D01*
Y430906D01*
X432224Y429776D01*
G37*
%LPC*%G36*
X324224Y408224D02*
X326874Y406454D01*
X330000Y405832D01*
X333126Y406454D01*
X335776Y408224D01*
X337546Y410874D01*
X338168Y414000D01*
X337546Y417126D01*
X335776Y419776D01*
X335440Y420000D01*
X335776Y420224D01*
X337546Y422874D01*
X338168Y426000D01*
X337546Y429126D01*
X335776Y431776D01*
X333126Y433546D01*
X330000Y434168D01*
X326874Y433546D01*
X324224Y431776D01*
X323094Y430084D01*
X300906D01*
X299776Y431776D01*
X297126Y433546D01*
X294000Y434168D01*
X290874Y433546D01*
X288224Y431776D01*
X286454Y429126D01*
X285832Y426000D01*
X286454Y422874D01*
X288224Y420224D01*
X288560Y420000D01*
X288224Y419776D01*
X286454Y417126D01*
X285832Y414000D01*
X286454Y410874D01*
X288224Y408224D01*
X290874Y406454D01*
X294000Y405832D01*
X297126Y406454D01*
X299776Y408224D01*
X300906Y409916D01*
X323094D01*
X324224Y408224D01*
G37*
%LPC*%G36*
X861832Y552000D02*
X862454Y555126D01*
X864224Y557776D01*
X866874Y559546D01*
X870000Y560168D01*
X873126Y559546D01*
X875776Y557776D01*
X877546Y555126D01*
X878168Y552000D01*
X877546Y548874D01*
X875776Y546224D01*
X873126Y544454D01*
X870000Y543832D01*
X868005Y544229D01*
X862103Y538327D01*
X862168Y538000D01*
X861546Y534874D01*
X859776Y532224D01*
X857126Y530454D01*
X854000Y529832D01*
X850874Y530454D01*
X848224Y532224D01*
X846454Y534874D01*
X845832Y538000D01*
X846454Y541126D01*
X848224Y543776D01*
X850874Y545546D01*
X854000Y546168D01*
X857126Y545546D01*
X857512Y545288D01*
X862229Y550005D01*
X861832Y552000D01*
G37*
%LPC*%G36*
X856000Y599832D02*
X859126Y600454D01*
X861776Y602224D01*
X863546Y604874D01*
X864168Y608000D01*
X863546Y611126D01*
X861776Y613776D01*
X859126Y615546D01*
X856000Y616168D01*
X852874Y615546D01*
X850224Y613776D01*
X848454Y611126D01*
X847832Y608000D01*
X848229Y606005D01*
X839995Y597771D01*
X838000Y598168D01*
X834874Y597546D01*
X832224Y595776D01*
X830454Y593126D01*
X829832Y590000D01*
X830454Y586874D01*
X832224Y584224D01*
X834874Y582454D01*
X838000Y581832D01*
X841126Y582454D01*
X843776Y584224D01*
X845546Y586874D01*
X846168Y590000D01*
X845771Y591995D01*
X854005Y600229D01*
X856000Y599832D01*
G37*
%LPC*%G36*
X762168Y662000D02*
X761546Y658874D01*
X759776Y656224D01*
X757126Y654454D01*
X754000Y653832D01*
X750874Y654454D01*
X748224Y656224D01*
X746454Y658874D01*
X745832Y662000D01*
X746287Y664287D01*
X744000Y663832D01*
X740874Y664454D01*
X738224Y666224D01*
X736454Y668874D01*
X735832Y672000D01*
X736454Y675126D01*
X738224Y677776D01*
X740874Y679546D01*
X744000Y680168D01*
X745995Y679771D01*
X766229Y700005D01*
X765832Y702000D01*
X766454Y705126D01*
X768224Y707776D01*
X770874Y709546D01*
X774000Y710168D01*
X777126Y709546D01*
X779776Y707776D01*
X781546Y705126D01*
X782168Y702000D01*
X781713Y699713D01*
X784000Y700168D01*
X787126Y699546D01*
X789776Y697776D01*
X791546Y695126D01*
X792168Y692000D01*
X791546Y688874D01*
X789776Y686224D01*
X787126Y684454D01*
X784000Y683832D01*
X782005Y684229D01*
X761771Y663995D01*
X762168Y662000D01*
G37*
%LPC*%G36*
X945776Y305776D02*
X943126Y307546D01*
X940000Y308168D01*
X936874Y307546D01*
X934224Y305776D01*
X932454Y303126D01*
X931832Y300000D01*
X932454Y296874D01*
X934224Y294224D01*
X934560Y294000D01*
X934224Y293776D01*
X932454Y291126D01*
X931832Y288000D01*
X932454Y284874D01*
X934224Y282224D01*
X936874Y280454D01*
X940000Y279832D01*
X943126Y280454D01*
X945776Y282224D01*
X946906Y283916D01*
X961094D01*
X962224Y282224D01*
X964874Y280454D01*
X968000Y279832D01*
X971126Y280454D01*
X973776Y282224D01*
X975546Y284874D01*
X976168Y288000D01*
X975546Y291126D01*
X973776Y293776D01*
X973440Y294000D01*
X973776Y294224D01*
X975546Y296874D01*
X976168Y300000D01*
X975546Y303126D01*
X973776Y305776D01*
X971126Y307546D01*
X968000Y308168D01*
X964874Y307546D01*
X962224Y305776D01*
X961094Y304084D01*
X946906D01*
X945776Y305776D01*
G37*
%LPC*%G36*
X1007126Y441546D02*
X1009776Y439776D01*
X1011546Y437126D01*
X1012168Y434000D01*
X1011546Y430874D01*
X1009776Y428224D01*
X1007126Y426454D01*
X1006714Y426372D01*
X1007546Y425126D01*
X1008168Y422000D01*
X1007546Y418874D01*
X1005776Y416224D01*
X1003126Y414454D01*
X1000000Y413832D01*
X999796Y413873D01*
X1000168Y412000D01*
X999796Y410127D01*
X1000000Y410168D01*
X1003126Y409546D01*
X1005776Y407776D01*
X1007546Y405126D01*
X1008168Y402000D01*
X1007546Y398874D01*
X1005776Y396224D01*
X1003126Y394454D01*
X1000000Y393832D01*
X996874Y394454D01*
X994686Y395916D01*
X954906D01*
X953776Y394224D01*
X951126Y392454D01*
X948000Y391832D01*
X944874Y392454D01*
X942224Y394224D01*
X940454Y396874D01*
X939832Y400000D01*
X940454Y403126D01*
X942224Y405776D01*
X942560Y406000D01*
X942224Y406224D01*
X940454Y408874D01*
X939832Y412000D01*
X940454Y415126D01*
X942224Y417776D01*
X942560Y418000D01*
X942224Y418224D01*
X940454Y420874D01*
X939832Y424000D01*
X940454Y427126D01*
X942224Y429776D01*
X944057Y431000D01*
X942224Y432224D01*
X940454Y434874D01*
X939832Y438000D01*
X940454Y441126D01*
X942224Y443776D01*
X944874Y445546D01*
X948000Y446168D01*
X951126Y445546D01*
X953776Y443776D01*
X954906Y442084D01*
X985094D01*
X986224Y443776D01*
X988874Y445546D01*
X992000Y446168D01*
X995126Y445546D01*
X995916Y445018D01*
Y459094D01*
X994224Y460224D01*
X992454Y462874D01*
X991832Y466000D01*
X992454Y469126D01*
X994224Y471776D01*
X996874Y473546D01*
X1000000Y474168D01*
X1003126Y473546D01*
X1005776Y471776D01*
X1007546Y469126D01*
X1008168Y466000D01*
X1007546Y462874D01*
X1005776Y460224D01*
X1004084Y459094D01*
Y442151D01*
X1007126Y441546D01*
G37*
%LPC*%G36*
X1235776Y442224D02*
X1237546Y444874D01*
X1238168Y448000D01*
X1238874Y448454D01*
X1242000Y447832D01*
X1245126Y448454D01*
X1247776Y450224D01*
X1249546Y452874D01*
X1250168Y456000D01*
X1249546Y459126D01*
X1247776Y461776D01*
X1245126Y463546D01*
X1242000Y464168D01*
X1240127Y463796D01*
X1240168Y464000D01*
X1239546Y467126D01*
X1237776Y469776D01*
X1235126Y471546D01*
X1232000Y472168D01*
X1228874Y471546D01*
X1226224Y469776D01*
X1225094Y468084D01*
X1218000D01*
X1212906D01*
X1211776Y469776D01*
X1209126Y471546D01*
X1206000Y472168D01*
X1202874Y471546D01*
X1200224Y469776D01*
X1198454Y467126D01*
X1197832Y464000D01*
X1198454Y460874D01*
X1198982Y460084D01*
X1195692D01*
X1193771Y462005D01*
X1194168Y464000D01*
X1193546Y467126D01*
X1191776Y469776D01*
X1189126Y471546D01*
X1186000Y472168D01*
X1182874Y471546D01*
X1180224Y469776D01*
X1178454Y467126D01*
X1177832Y464000D01*
X1178454Y460874D01*
X1180224Y458224D01*
X1182874Y456454D01*
X1186000Y455832D01*
X1187995Y456229D01*
X1191112Y453112D01*
X1192437Y452227D01*
X1194000Y451916D01*
X1206982D01*
X1206454Y451126D01*
X1205832Y448000D01*
X1206454Y444874D01*
X1208224Y442224D01*
X1209916Y441094D01*
Y424906D01*
X1208224Y423776D01*
X1206454Y421126D01*
X1205832Y418000D01*
X1206454Y414874D01*
X1208224Y412224D01*
X1210874Y410454D01*
X1214000Y409832D01*
X1217126Y410454D01*
X1219776Y412224D01*
X1221546Y414874D01*
X1222168Y418000D01*
X1221546Y421126D01*
X1219776Y423776D01*
X1218084Y424906D01*
Y441094D01*
X1219776Y442224D01*
X1221546Y444874D01*
X1222454D01*
X1224224Y442224D01*
X1225916Y441094D01*
Y428906D01*
X1224224Y427776D01*
X1222454Y425126D01*
X1221832Y422000D01*
X1222454Y418874D01*
X1224224Y416224D01*
X1226874Y414454D01*
X1230000Y413832D01*
X1233126Y414454D01*
X1235776Y416224D01*
X1237546Y418874D01*
X1238168Y422000D01*
X1237546Y425126D01*
X1235776Y427776D01*
X1234084Y428906D01*
Y441094D01*
X1235776Y442224D01*
G37*
%LPC*%G36*
X750583Y765605D02*
X749374Y767866D01*
X747748Y769848D01*
X745766Y771474D01*
X743505Y772683D01*
X741051Y773427D01*
X738500Y773678D01*
X735949Y773427D01*
X733495Y772683D01*
X731234Y771474D01*
X729252Y769848D01*
X727626Y767866D01*
X726417Y765605D01*
X725673Y763151D01*
X725422Y760600D01*
X725673Y758049D01*
X726417Y755595D01*
X727626Y753334D01*
X729252Y751352D01*
X731234Y749726D01*
X733495Y748517D01*
X735949Y747773D01*
X738500Y747522D01*
X741051Y747773D01*
X743505Y748517D01*
X745766Y749726D01*
X747748Y751352D01*
X749374Y753334D01*
X750583Y755595D01*
X751327Y758049D01*
X751578Y760600D01*
X751327Y763151D01*
X750583Y765605D01*
G37*
%LPC*%G36*
X731533Y816405D02*
X730324Y818666D01*
X728698Y820648D01*
X726716Y822274D01*
X724455Y823483D01*
X722001Y824227D01*
X719450Y824478D01*
X716899Y824227D01*
X714445Y823483D01*
X712184Y822274D01*
X710202Y820648D01*
X708576Y818666D01*
X707367Y816405D01*
X706623Y813951D01*
X706372Y811400D01*
X706623Y808849D01*
X707367Y806395D01*
X708576Y804134D01*
X710202Y802152D01*
X712184Y800526D01*
X714445Y799317D01*
X716899Y798573D01*
X719450Y798322D01*
X722001Y798573D01*
X724455Y799317D01*
X726716Y800526D01*
X728698Y802152D01*
X730324Y804134D01*
X731533Y806395D01*
X732277Y808849D01*
X732528Y811400D01*
X732277Y813951D01*
X731533Y816405D01*
G37*
%LPC*%G36*
X712483Y765605D02*
X711274Y767866D01*
X709648Y769848D01*
X707666Y771474D01*
X705405Y772683D01*
X702951Y773427D01*
X700400Y773678D01*
X697849Y773427D01*
X695395Y772683D01*
X693134Y771474D01*
X691152Y769848D01*
X689526Y767866D01*
X688317Y765605D01*
X687573Y763151D01*
X687322Y760600D01*
X687573Y758049D01*
X688317Y755595D01*
X689526Y753334D01*
X691152Y751352D01*
X693134Y749726D01*
X695395Y748517D01*
X697849Y747773D01*
X700400Y747522D01*
X702951Y747773D01*
X705405Y748517D01*
X707666Y749726D01*
X709648Y751352D01*
X711274Y753334D01*
X712483Y755595D01*
X713227Y758049D01*
X713478Y760600D01*
X713227Y763151D01*
X712483Y765605D01*
G37*
%LPC*%G36*
X690275Y815912D02*
X689450Y817265D01*
X688422Y818472D01*
X687215Y819500D01*
X685862Y820325D01*
X684395Y820926D01*
X682851Y821288D01*
Y824314D01*
X684982Y823883D01*
X687012Y823104D01*
X688883Y821997D01*
X690543Y820593D01*
X691947Y818933D01*
X693054Y817062D01*
X693833Y815032D01*
X694264Y812901D01*
X691238D01*
X690876Y814445D01*
X690275Y815912D01*
G37*
%LPC*%G36*
X672425Y815912D02*
X673250Y817265D01*
X674278Y818472D01*
X675485Y819500D01*
X676838Y820325D01*
X678305Y820926D01*
X679849Y821288D01*
Y824314D01*
X677718Y823883D01*
X675688Y823104D01*
X673817Y821997D01*
X672157Y820593D01*
X670753Y818933D01*
X669646Y817062D01*
X668867Y815032D01*
X668436Y812901D01*
X671462D01*
X671824Y814445D01*
X672425Y815912D01*
G37*
%LPC*%G36*
X672425Y806888D02*
X673250Y805535D01*
X674278Y804328D01*
X675485Y803300D01*
X676838Y802475D01*
X678305Y801874D01*
X679849Y801512D01*
Y798486D01*
X677718Y798917D01*
X675688Y799696D01*
X673817Y800803D01*
X672157Y802207D01*
X670753Y803867D01*
X669646Y805738D01*
X668867Y807768D01*
X668436Y809899D01*
X671462D01*
X671824Y808355D01*
X672425Y806888D01*
G37*
%LPC*%G36*
X690275Y806888D02*
X689450Y805535D01*
X688422Y804328D01*
X687215Y803300D01*
X685862Y802475D01*
X684395Y801874D01*
X682851Y801512D01*
Y798486D01*
X684982Y798917D01*
X687012Y799696D01*
X688883Y800803D01*
X690543Y802207D01*
X691947Y803867D01*
X693054Y805738D01*
X693833Y807768D01*
X694264Y809899D01*
X691238D01*
X690876Y808355D01*
X690275Y806888D01*
G37*
%LPC*%G36*
X671225Y765112D02*
X670400Y766465D01*
X669372Y767672D01*
X668165Y768700D01*
X666812Y769525D01*
X665345Y770126D01*
X663801Y770488D01*
Y773514D01*
X665932Y773083D01*
X667962Y772304D01*
X669833Y771197D01*
X671493Y769793D01*
X672897Y768133D01*
X674004Y766262D01*
X674783Y764232D01*
X675214Y762101D01*
X672188D01*
X671826Y763645D01*
X671225Y765112D01*
G37*
%LPC*%G36*
X653375Y765112D02*
X654200Y766465D01*
X655228Y767672D01*
X656435Y768700D01*
X657788Y769525D01*
X659255Y770126D01*
X660799Y770488D01*
Y773514D01*
X658668Y773083D01*
X656638Y772304D01*
X654767Y771197D01*
X653107Y769793D01*
X651703Y768133D01*
X650596Y766262D01*
X649817Y764232D01*
X649386Y762101D01*
X652412D01*
X652774Y763645D01*
X653375Y765112D01*
G37*
%LPC*%G36*
X653375Y756088D02*
X654200Y754735D01*
X655228Y753528D01*
X656435Y752500D01*
X657788Y751675D01*
X659255Y751074D01*
X660799Y750712D01*
Y747686D01*
X658668Y748117D01*
X656638Y748896D01*
X654767Y750003D01*
X653107Y751407D01*
X651703Y753067D01*
X650596Y754938D01*
X649817Y756968D01*
X649386Y759099D01*
X652412D01*
X652774Y757555D01*
X653375Y756088D01*
G37*
%LPC*%G36*
X671225Y756088D02*
X670400Y754735D01*
X669372Y753528D01*
X668165Y752500D01*
X666812Y751675D01*
X665345Y751074D01*
X663801Y750712D01*
Y747686D01*
X665932Y748117D01*
X667962Y748896D01*
X669833Y750003D01*
X671493Y751407D01*
X672897Y753067D01*
X674004Y754938D01*
X674783Y756968D01*
X675214Y759099D01*
X672188D01*
X671826Y757555D01*
X671225Y756088D01*
G37*
%LPC*%G36*
X655333Y816405D02*
X654124Y818666D01*
X652498Y820648D01*
X650516Y822274D01*
X648255Y823483D01*
X645801Y824227D01*
X643250Y824478D01*
X640699Y824227D01*
X638245Y823483D01*
X635984Y822274D01*
X634002Y820648D01*
X632376Y818666D01*
X631167Y816405D01*
X630423Y813951D01*
X630172Y811400D01*
X630423Y808849D01*
X631167Y806395D01*
X632376Y804134D01*
X634002Y802152D01*
X635984Y800526D01*
X638245Y799317D01*
X640699Y798573D01*
X643250Y798322D01*
X645801Y798573D01*
X648255Y799317D01*
X650516Y800526D01*
X652498Y802152D01*
X654124Y804134D01*
X655333Y806395D01*
X656077Y808849D01*
X656328Y811400D01*
X656077Y813951D01*
X655333Y816405D01*
G37*
%LPC*%G36*
X636283Y765605D02*
X635074Y767866D01*
X633448Y769848D01*
X631466Y771474D01*
X629205Y772683D01*
X626751Y773427D01*
X624200Y773678D01*
X621649Y773427D01*
X619195Y772683D01*
X616934Y771474D01*
X614952Y769848D01*
X613326Y767866D01*
X612117Y765605D01*
X611373Y763151D01*
X611122Y760600D01*
X611373Y758049D01*
X612117Y755595D01*
X613326Y753334D01*
X614952Y751352D01*
X616934Y749726D01*
X619195Y748517D01*
X621649Y747773D01*
X624200Y747522D01*
X626751Y747773D01*
X629205Y748517D01*
X631466Y749726D01*
X633448Y751352D01*
X635074Y753334D01*
X636283Y755595D01*
X637027Y758049D01*
X637278Y760600D01*
X637027Y763151D01*
X636283Y765605D01*
G37*
%LPC*%G36*
X617233Y816405D02*
X616024Y818666D01*
X614398Y820648D01*
X612416Y822274D01*
X610155Y823483D01*
X607701Y824227D01*
X605150Y824478D01*
X602599Y824227D01*
X600145Y823483D01*
X597884Y822274D01*
X595902Y820648D01*
X594276Y818666D01*
X593067Y816405D01*
X592323Y813951D01*
X592072Y811400D01*
X592323Y808849D01*
X593067Y806395D01*
X594276Y804134D01*
X595902Y802152D01*
X597884Y800526D01*
X600145Y799317D01*
X602599Y798573D01*
X605150Y798322D01*
X607701Y798573D01*
X610155Y799317D01*
X612416Y800526D01*
X614398Y802152D01*
X616024Y804134D01*
X617233Y806395D01*
X617977Y808849D01*
X618228Y811400D01*
X617977Y813951D01*
X617233Y816405D01*
G37*
%LPC*%G36*
X595025Y765112D02*
X594200Y766465D01*
X593172Y767672D01*
X591965Y768700D01*
X590612Y769525D01*
X589145Y770126D01*
X587601Y770488D01*
Y773514D01*
X589732Y773083D01*
X591762Y772304D01*
X593633Y771197D01*
X595293Y769793D01*
X596697Y768133D01*
X597804Y766262D01*
X598583Y764232D01*
X599014Y762101D01*
X595988D01*
X595626Y763645D01*
X595025Y765112D01*
G37*
%LPC*%G36*
X577175Y765112D02*
X578000Y766465D01*
X579028Y767672D01*
X580235Y768700D01*
X581588Y769525D01*
X583055Y770126D01*
X584599Y770488D01*
Y773514D01*
X582468Y773083D01*
X580438Y772304D01*
X578567Y771197D01*
X576907Y769793D01*
X575503Y768133D01*
X574396Y766262D01*
X573617Y764232D01*
X573186Y762101D01*
X576212D01*
X576574Y763645D01*
X577175Y765112D01*
G37*
%LPC*%G36*
X577175Y756088D02*
X578000Y754735D01*
X579028Y753528D01*
X580235Y752500D01*
X581588Y751675D01*
X583055Y751074D01*
X584599Y750712D01*
Y747686D01*
X582468Y748117D01*
X580438Y748896D01*
X578567Y750003D01*
X576907Y751407D01*
X575503Y753067D01*
X574396Y754938D01*
X573617Y756968D01*
X573186Y759099D01*
X576212D01*
X576574Y757555D01*
X577175Y756088D01*
G37*
%LPC*%G36*
X595025Y756088D02*
X594200Y754735D01*
X593172Y753528D01*
X591965Y752500D01*
X590612Y751675D01*
X589145Y751074D01*
X587601Y750712D01*
Y747686D01*
X589732Y748117D01*
X591762Y748896D01*
X593633Y750003D01*
X595293Y751407D01*
X596697Y753067D01*
X597804Y754938D01*
X598583Y756968D01*
X599014Y759099D01*
X595988D01*
X595626Y757555D01*
X595025Y756088D01*
G37*
%LPC*%G36*
X579133Y816405D02*
X577924Y818666D01*
X576298Y820648D01*
X574316Y822274D01*
X572055Y823483D01*
X569601Y824227D01*
X567050Y824478D01*
X564499Y824227D01*
X562045Y823483D01*
X559784Y822274D01*
X557802Y820648D01*
X556176Y818666D01*
X554967Y816405D01*
X554223Y813951D01*
X553972Y811400D01*
X554223Y808849D01*
X554967Y806395D01*
X556176Y804134D01*
X557802Y802152D01*
X559784Y800526D01*
X562045Y799317D01*
X564499Y798573D01*
X567050Y798322D01*
X569601Y798573D01*
X572055Y799317D01*
X574316Y800526D01*
X576298Y802152D01*
X577924Y804134D01*
X579133Y806395D01*
X579877Y808849D01*
X580128Y811400D01*
X579877Y813951D01*
X579133Y816405D01*
G37*
%LPC*%G36*
X560083Y765605D02*
X558874Y767866D01*
X557248Y769848D01*
X555266Y771474D01*
X553005Y772683D01*
X550551Y773427D01*
X548000Y773678D01*
X545449Y773427D01*
X542995Y772683D01*
X540734Y771474D01*
X538752Y769848D01*
X537126Y767866D01*
X535917Y765605D01*
X535173Y763151D01*
X534922Y760600D01*
X535173Y758049D01*
X535917Y755595D01*
X537126Y753334D01*
X538752Y751352D01*
X540734Y749726D01*
X542995Y748517D01*
X545449Y747773D01*
X548000Y747522D01*
X550551Y747773D01*
X553005Y748517D01*
X555266Y749726D01*
X557248Y751352D01*
X558874Y753334D01*
X560083Y755595D01*
X560827Y758049D01*
X561078Y760600D01*
X560827Y763151D01*
X560083Y765605D01*
G37*
%LPC*%G36*
X541033Y816405D02*
X539824Y818666D01*
X538198Y820648D01*
X536216Y822274D01*
X533955Y823483D01*
X531501Y824227D01*
X528950Y824478D01*
X526399Y824227D01*
X523945Y823483D01*
X521684Y822274D01*
X519702Y820648D01*
X518076Y818666D01*
X516867Y816405D01*
X516123Y813951D01*
X515872Y811400D01*
X516123Y808849D01*
X516867Y806395D01*
X518076Y804134D01*
X519702Y802152D01*
X521684Y800526D01*
X523945Y799317D01*
X526399Y798573D01*
X528950Y798322D01*
X531501Y798573D01*
X533955Y799317D01*
X536216Y800526D01*
X538198Y802152D01*
X539824Y804134D01*
X541033Y806395D01*
X541777Y808849D01*
X542028Y811400D01*
X541777Y813951D01*
X541033Y816405D01*
G37*
%LPC*%G36*
X518825Y765112D02*
X518000Y766465D01*
X516972Y767672D01*
X515765Y768700D01*
X514412Y769525D01*
X512945Y770126D01*
X511401Y770488D01*
Y773514D01*
X513532Y773083D01*
X515562Y772304D01*
X517433Y771197D01*
X519093Y769793D01*
X520497Y768133D01*
X521604Y766262D01*
X522383Y764232D01*
X522814Y762101D01*
X519788D01*
X519426Y763645D01*
X518825Y765112D01*
G37*
%LPC*%G36*
X500975Y765112D02*
X501800Y766465D01*
X502828Y767672D01*
X504035Y768700D01*
X505388Y769525D01*
X506855Y770126D01*
X508399Y770488D01*
Y773514D01*
X506268Y773083D01*
X504238Y772304D01*
X502367Y771197D01*
X500707Y769793D01*
X499303Y768133D01*
X498196Y766262D01*
X497417Y764232D01*
X496986Y762101D01*
X500012D01*
X500374Y763645D01*
X500975Y765112D01*
G37*
%LPC*%G36*
X500975Y756088D02*
X501800Y754735D01*
X502828Y753528D01*
X504035Y752500D01*
X505388Y751675D01*
X506855Y751074D01*
X508399Y750712D01*
Y747686D01*
X506268Y748117D01*
X504238Y748896D01*
X502367Y750003D01*
X500707Y751407D01*
X499303Y753067D01*
X498196Y754938D01*
X497417Y756968D01*
X496986Y759099D01*
X500012D01*
X500374Y757555D01*
X500975Y756088D01*
G37*
%LPC*%G36*
X518825Y756088D02*
X518000Y754735D01*
X516972Y753528D01*
X515765Y752500D01*
X514412Y751675D01*
X512945Y751074D01*
X511401Y750712D01*
Y747686D01*
X513532Y748117D01*
X515562Y748896D01*
X517433Y750003D01*
X519093Y751407D01*
X520497Y753067D01*
X521604Y754938D01*
X522383Y756968D01*
X522814Y759099D01*
X519788D01*
X519426Y757555D01*
X518825Y756088D01*
G37*
%LPC*%G36*
X502933Y816405D02*
X501724Y818666D01*
X500098Y820648D01*
X498116Y822274D01*
X495855Y823483D01*
X493401Y824227D01*
X490850Y824478D01*
X488299Y824227D01*
X485845Y823483D01*
X483584Y822274D01*
X481602Y820648D01*
X479976Y818666D01*
X478767Y816405D01*
X478023Y813951D01*
X477772Y811400D01*
X478023Y808849D01*
X478767Y806395D01*
X479976Y804134D01*
X481602Y802152D01*
X483584Y800526D01*
X485845Y799317D01*
X488299Y798573D01*
X490850Y798322D01*
X493401Y798573D01*
X495855Y799317D01*
X498116Y800526D01*
X500098Y802152D01*
X501724Y804134D01*
X502933Y806395D01*
X503677Y808849D01*
X503928Y811400D01*
X503677Y813951D01*
X502933Y816405D01*
G37*
%LPC*%G36*
X483883Y765605D02*
X482674Y767866D01*
X481048Y769848D01*
X479066Y771474D01*
X476805Y772683D01*
X474351Y773427D01*
X471800Y773678D01*
X469249Y773427D01*
X466795Y772683D01*
X464534Y771474D01*
X462552Y769848D01*
X460926Y767866D01*
X459717Y765605D01*
X458973Y763151D01*
X458722Y760600D01*
X458973Y758049D01*
X459717Y755595D01*
X460926Y753334D01*
X462552Y751352D01*
X464534Y749726D01*
X466795Y748517D01*
X469249Y747773D01*
X471800Y747522D01*
X474351Y747773D01*
X476805Y748517D01*
X479066Y749726D01*
X481048Y751352D01*
X482674Y753334D01*
X483883Y755595D01*
X484627Y758049D01*
X484878Y760600D01*
X484627Y763151D01*
X483883Y765605D01*
G37*
%LPC*%G36*
X464833Y816405D02*
X463624Y818666D01*
X461998Y820648D01*
X460016Y822274D01*
X457755Y823483D01*
X455301Y824227D01*
X452750Y824478D01*
X450199Y824227D01*
X447745Y823483D01*
X445484Y822274D01*
X443502Y820648D01*
X441876Y818666D01*
X440667Y816405D01*
X439923Y813951D01*
X439672Y811400D01*
X439923Y808849D01*
X440667Y806395D01*
X441876Y804134D01*
X443502Y802152D01*
X445484Y800526D01*
X447745Y799317D01*
X450199Y798573D01*
X452750Y798322D01*
X455301Y798573D01*
X457755Y799317D01*
X460016Y800526D01*
X461998Y802152D01*
X463624Y804134D01*
X464833Y806395D01*
X465577Y808849D01*
X465828Y811400D01*
X465577Y813951D01*
X464833Y816405D01*
G37*
%LPC*%G36*
X442625Y765112D02*
X441800Y766465D01*
X440772Y767672D01*
X439565Y768700D01*
X438212Y769525D01*
X436745Y770126D01*
X435201Y770488D01*
Y773514D01*
X437332Y773083D01*
X439362Y772304D01*
X441233Y771197D01*
X442893Y769793D01*
X444297Y768133D01*
X445404Y766262D01*
X446183Y764232D01*
X446614Y762101D01*
X443588D01*
X443226Y763645D01*
X442625Y765112D01*
G37*
%LPC*%G36*
X424775Y765112D02*
X425600Y766465D01*
X426628Y767672D01*
X427835Y768700D01*
X429188Y769525D01*
X430655Y770126D01*
X432199Y770488D01*
Y773514D01*
X430068Y773083D01*
X428038Y772304D01*
X426167Y771197D01*
X424507Y769793D01*
X423103Y768133D01*
X421996Y766262D01*
X421217Y764232D01*
X420786Y762101D01*
X423812D01*
X424174Y763645D01*
X424775Y765112D01*
G37*
%LPC*%G36*
X424775Y756088D02*
X425600Y754735D01*
X426628Y753528D01*
X427835Y752500D01*
X429188Y751675D01*
X430655Y751074D01*
X432199Y750712D01*
Y747686D01*
X430068Y748117D01*
X428038Y748896D01*
X426167Y750003D01*
X424507Y751407D01*
X423103Y753067D01*
X421996Y754938D01*
X421217Y756968D01*
X420786Y759099D01*
X423812D01*
X424174Y757555D01*
X424775Y756088D01*
G37*
%LPC*%G36*
X442625Y756088D02*
X441800Y754735D01*
X440772Y753528D01*
X439565Y752500D01*
X438212Y751675D01*
X436745Y751074D01*
X435201Y750712D01*
Y747686D01*
X437332Y748117D01*
X439362Y748896D01*
X441233Y750003D01*
X442893Y751407D01*
X444297Y753067D01*
X445404Y754938D01*
X446183Y756968D01*
X446614Y759099D01*
X443588D01*
X443226Y757555D01*
X442625Y756088D01*
G37*
%LPC*%G36*
X423575Y815912D02*
X422750Y817265D01*
X421722Y818472D01*
X420515Y819500D01*
X419162Y820325D01*
X417695Y820926D01*
X416151Y821288D01*
Y824314D01*
X418282Y823883D01*
X420312Y823104D01*
X422183Y821997D01*
X423843Y820593D01*
X425247Y818933D01*
X426354Y817062D01*
X427133Y815032D01*
X427564Y812901D01*
X424538D01*
X424176Y814445D01*
X423575Y815912D01*
G37*
%LPC*%G36*
X405725Y815912D02*
X406550Y817265D01*
X407578Y818472D01*
X408785Y819500D01*
X410138Y820325D01*
X411605Y820926D01*
X413149Y821288D01*
Y824314D01*
X411018Y823883D01*
X408988Y823104D01*
X407117Y821997D01*
X405457Y820593D01*
X404053Y818933D01*
X402946Y817062D01*
X402167Y815032D01*
X401736Y812901D01*
X404762D01*
X405124Y814445D01*
X405725Y815912D01*
G37*
%LPC*%G36*
X405725Y806888D02*
X406550Y805535D01*
X407578Y804328D01*
X408785Y803300D01*
X410138Y802475D01*
X411605Y801874D01*
X413149Y801512D01*
Y798486D01*
X411018Y798917D01*
X408988Y799696D01*
X407117Y800803D01*
X405457Y802207D01*
X404053Y803867D01*
X402946Y805738D01*
X402167Y807768D01*
X401736Y809899D01*
X404762D01*
X405124Y808355D01*
X405725Y806888D01*
G37*
%LPC*%G36*
X423575Y806888D02*
X422750Y805535D01*
X421722Y804328D01*
X420515Y803300D01*
X419162Y802475D01*
X417695Y801874D01*
X416151Y801512D01*
Y798486D01*
X418282Y798917D01*
X420312Y799696D01*
X422183Y800803D01*
X423843Y802207D01*
X425247Y803867D01*
X426354Y805738D01*
X427133Y807768D01*
X427564Y809899D01*
X424538D01*
X424176Y808355D01*
X423575Y806888D01*
G37*
%LPC*%G36*
X407683Y765605D02*
X406474Y767866D01*
X404848Y769848D01*
X402866Y771474D01*
X400605Y772683D01*
X398151Y773427D01*
X395600Y773678D01*
X393049Y773427D01*
X390595Y772683D01*
X388334Y771474D01*
X386352Y769848D01*
X384726Y767866D01*
X383517Y765605D01*
X382773Y763151D01*
X382522Y760600D01*
X382773Y758049D01*
X383517Y755595D01*
X384726Y753334D01*
X386352Y751352D01*
X388334Y749726D01*
X390595Y748517D01*
X393049Y747773D01*
X395600Y747522D01*
X398151Y747773D01*
X400605Y748517D01*
X402866Y749726D01*
X404848Y751352D01*
X406474Y753334D01*
X407683Y755595D01*
X408427Y758049D01*
X408678Y760600D01*
X408427Y763151D01*
X407683Y765605D01*
G37*
%LPC*%G36*
X388633Y816405D02*
X387424Y818666D01*
X385798Y820648D01*
X383816Y822274D01*
X381555Y823483D01*
X379101Y824227D01*
X376550Y824478D01*
X373999Y824227D01*
X371545Y823483D01*
X369284Y822274D01*
X367302Y820648D01*
X365676Y818666D01*
X364467Y816405D01*
X363723Y813951D01*
X363472Y811400D01*
X363723Y808849D01*
X364467Y806395D01*
X365676Y804134D01*
X367302Y802152D01*
X369284Y800526D01*
X371545Y799317D01*
X373999Y798573D01*
X376550Y798322D01*
X379101Y798573D01*
X381555Y799317D01*
X383816Y800526D01*
X385798Y802152D01*
X387424Y804134D01*
X388633Y806395D01*
X389377Y808849D01*
X389628Y811400D01*
X389377Y813951D01*
X388633Y816405D01*
G37*
%LPC*%G36*
X366425Y765112D02*
X365600Y766465D01*
X364572Y767672D01*
X363365Y768700D01*
X362012Y769525D01*
X360545Y770126D01*
X359001Y770488D01*
Y773514D01*
X361132Y773083D01*
X363162Y772304D01*
X365033Y771197D01*
X366693Y769793D01*
X368097Y768133D01*
X369204Y766262D01*
X369983Y764232D01*
X370414Y762101D01*
X367388D01*
X367026Y763645D01*
X366425Y765112D01*
G37*
%LPC*%G36*
X348575Y765112D02*
X349400Y766465D01*
X350428Y767672D01*
X351635Y768700D01*
X352988Y769525D01*
X354455Y770126D01*
X355999Y770488D01*
Y773514D01*
X353868Y773083D01*
X351838Y772304D01*
X349967Y771197D01*
X348307Y769793D01*
X346903Y768133D01*
X345796Y766262D01*
X345017Y764232D01*
X344586Y762101D01*
X347612D01*
X347974Y763645D01*
X348575Y765112D01*
G37*
%LPC*%G36*
X348575Y756088D02*
X349400Y754735D01*
X350428Y753528D01*
X351635Y752500D01*
X352988Y751675D01*
X354455Y751074D01*
X355999Y750712D01*
Y747686D01*
X353868Y748117D01*
X351838Y748896D01*
X349967Y750003D01*
X348307Y751407D01*
X346903Y753067D01*
X345796Y754938D01*
X345017Y756968D01*
X344586Y759099D01*
X347612D01*
X347974Y757555D01*
X348575Y756088D01*
G37*
%LPC*%G36*
X366425Y756088D02*
X365600Y754735D01*
X364572Y753528D01*
X363365Y752500D01*
X362012Y751675D01*
X360545Y751074D01*
X359001Y750712D01*
Y747686D01*
X361132Y748117D01*
X363162Y748896D01*
X365033Y750003D01*
X366693Y751407D01*
X368097Y753067D01*
X369204Y754938D01*
X369983Y756968D01*
X370414Y759099D01*
X367388D01*
X367026Y757555D01*
X366425Y756088D01*
G37*
%LPC*%G36*
X1414583Y765605D02*
X1413374Y767866D01*
X1411748Y769848D01*
X1409766Y771474D01*
X1407505Y772683D01*
X1405051Y773427D01*
X1402500Y773678D01*
X1399949Y773427D01*
X1397495Y772683D01*
X1395234Y771474D01*
X1393252Y769848D01*
X1391626Y767866D01*
X1390417Y765605D01*
X1389673Y763151D01*
X1389422Y760600D01*
X1389673Y758049D01*
X1390417Y755595D01*
X1391626Y753334D01*
X1393252Y751352D01*
X1395234Y749726D01*
X1397495Y748517D01*
X1399949Y747773D01*
X1402500Y747522D01*
X1405051Y747773D01*
X1407505Y748517D01*
X1409766Y749726D01*
X1411748Y751352D01*
X1413374Y753334D01*
X1414583Y755595D01*
X1415327Y758049D01*
X1415578Y760600D01*
X1415327Y763151D01*
X1414583Y765605D01*
G37*
%LPC*%G36*
X1395533Y816405D02*
X1394324Y818666D01*
X1392698Y820648D01*
X1390716Y822274D01*
X1388455Y823483D01*
X1386001Y824227D01*
X1383450Y824478D01*
X1380899Y824227D01*
X1378445Y823483D01*
X1376184Y822274D01*
X1374202Y820648D01*
X1372576Y818666D01*
X1371367Y816405D01*
X1370623Y813951D01*
X1370372Y811400D01*
X1370623Y808849D01*
X1371367Y806395D01*
X1372576Y804134D01*
X1374202Y802152D01*
X1376184Y800526D01*
X1378445Y799317D01*
X1380899Y798573D01*
X1383450Y798322D01*
X1386001Y798573D01*
X1388455Y799317D01*
X1390716Y800526D01*
X1392698Y802152D01*
X1394324Y804134D01*
X1395533Y806395D01*
X1396277Y808849D01*
X1396528Y811400D01*
X1396277Y813951D01*
X1395533Y816405D01*
G37*
%LPC*%G36*
X1376483Y765605D02*
X1375274Y767866D01*
X1373648Y769848D01*
X1371666Y771474D01*
X1369405Y772683D01*
X1366951Y773427D01*
X1364400Y773678D01*
X1361849Y773427D01*
X1359395Y772683D01*
X1357134Y771474D01*
X1355152Y769848D01*
X1353526Y767866D01*
X1352317Y765605D01*
X1351573Y763151D01*
X1351322Y760600D01*
X1351573Y758049D01*
X1352317Y755595D01*
X1353526Y753334D01*
X1355152Y751352D01*
X1357134Y749726D01*
X1359395Y748517D01*
X1361849Y747773D01*
X1364400Y747522D01*
X1366951Y747773D01*
X1369405Y748517D01*
X1371666Y749726D01*
X1373648Y751352D01*
X1375274Y753334D01*
X1376483Y755595D01*
X1377227Y758049D01*
X1377478Y760600D01*
X1377227Y763151D01*
X1376483Y765605D01*
G37*
%LPC*%G36*
X1354275Y815912D02*
X1353450Y817265D01*
X1352422Y818472D01*
X1351215Y819500D01*
X1349862Y820325D01*
X1348395Y820926D01*
X1346851Y821288D01*
Y824314D01*
X1348982Y823883D01*
X1351012Y823104D01*
X1352883Y821997D01*
X1354543Y820593D01*
X1355947Y818933D01*
X1357054Y817062D01*
X1357833Y815032D01*
X1358264Y812901D01*
X1355238D01*
X1354876Y814445D01*
X1354275Y815912D01*
G37*
%LPC*%G36*
X1336425Y815912D02*
X1337250Y817265D01*
X1338278Y818472D01*
X1339485Y819500D01*
X1340838Y820325D01*
X1342305Y820926D01*
X1343849Y821288D01*
Y824314D01*
X1341718Y823883D01*
X1339688Y823104D01*
X1337817Y821997D01*
X1336157Y820593D01*
X1334753Y818933D01*
X1333646Y817062D01*
X1332867Y815032D01*
X1332436Y812901D01*
X1335462D01*
X1335824Y814445D01*
X1336425Y815912D01*
G37*
%LPC*%G36*
X1336425Y806888D02*
X1337250Y805535D01*
X1338278Y804328D01*
X1339485Y803300D01*
X1340838Y802475D01*
X1342305Y801874D01*
X1343849Y801512D01*
Y798486D01*
X1341718Y798917D01*
X1339688Y799696D01*
X1337817Y800803D01*
X1336157Y802207D01*
X1334753Y803867D01*
X1333646Y805738D01*
X1332867Y807768D01*
X1332436Y809899D01*
X1335462D01*
X1335824Y808355D01*
X1336425Y806888D01*
G37*
%LPC*%G36*
X1354275Y806888D02*
X1353450Y805535D01*
X1352422Y804328D01*
X1351215Y803300D01*
X1349862Y802475D01*
X1348395Y801874D01*
X1346851Y801512D01*
Y798486D01*
X1348982Y798917D01*
X1351012Y799696D01*
X1352883Y800803D01*
X1354543Y802207D01*
X1355947Y803867D01*
X1357054Y805738D01*
X1357833Y807768D01*
X1358264Y809899D01*
X1355238D01*
X1354876Y808355D01*
X1354275Y806888D01*
G37*
%LPC*%G36*
X1335225Y765112D02*
X1334400Y766465D01*
X1333372Y767672D01*
X1332165Y768700D01*
X1330812Y769525D01*
X1329345Y770126D01*
X1327801Y770488D01*
Y773514D01*
X1329932Y773083D01*
X1331962Y772304D01*
X1333833Y771197D01*
X1335493Y769793D01*
X1336897Y768133D01*
X1338004Y766262D01*
X1338783Y764232D01*
X1339214Y762101D01*
X1336188D01*
X1335826Y763645D01*
X1335225Y765112D01*
G37*
%LPC*%G36*
X1317375Y765112D02*
X1318200Y766465D01*
X1319228Y767672D01*
X1320435Y768700D01*
X1321788Y769525D01*
X1323255Y770126D01*
X1324799Y770488D01*
Y773514D01*
X1322668Y773083D01*
X1320638Y772304D01*
X1318767Y771197D01*
X1317107Y769793D01*
X1315703Y768133D01*
X1314596Y766262D01*
X1313817Y764232D01*
X1313386Y762101D01*
X1316412D01*
X1316774Y763645D01*
X1317375Y765112D01*
G37*
%LPC*%G36*
X1317375Y756088D02*
X1318200Y754735D01*
X1319228Y753528D01*
X1320435Y752500D01*
X1321788Y751675D01*
X1323255Y751074D01*
X1324799Y750712D01*
Y747686D01*
X1322668Y748117D01*
X1320638Y748896D01*
X1318767Y750003D01*
X1317107Y751407D01*
X1315703Y753067D01*
X1314596Y754938D01*
X1313817Y756968D01*
X1313386Y759099D01*
X1316412D01*
X1316774Y757555D01*
X1317375Y756088D01*
G37*
%LPC*%G36*
X1335225Y756088D02*
X1334400Y754735D01*
X1333372Y753528D01*
X1332165Y752500D01*
X1330812Y751675D01*
X1329345Y751074D01*
X1327801Y750712D01*
Y747686D01*
X1329932Y748117D01*
X1331962Y748896D01*
X1333833Y750003D01*
X1335493Y751407D01*
X1336897Y753067D01*
X1338004Y754938D01*
X1338783Y756968D01*
X1339214Y759099D01*
X1336188D01*
X1335826Y757555D01*
X1335225Y756088D01*
G37*
%LPC*%G36*
X1319333Y816405D02*
X1318124Y818666D01*
X1316498Y820648D01*
X1314516Y822274D01*
X1312255Y823483D01*
X1309801Y824227D01*
X1307250Y824478D01*
X1304699Y824227D01*
X1302245Y823483D01*
X1299984Y822274D01*
X1298002Y820648D01*
X1296376Y818666D01*
X1295167Y816405D01*
X1294423Y813951D01*
X1294172Y811400D01*
X1294423Y808849D01*
X1295167Y806395D01*
X1296376Y804134D01*
X1298002Y802152D01*
X1299984Y800526D01*
X1302245Y799317D01*
X1304699Y798573D01*
X1307250Y798322D01*
X1309801Y798573D01*
X1312255Y799317D01*
X1314516Y800526D01*
X1316498Y802152D01*
X1318124Y804134D01*
X1319333Y806395D01*
X1320077Y808849D01*
X1320328Y811400D01*
X1320077Y813951D01*
X1319333Y816405D01*
G37*
%LPC*%G36*
X1300283Y765605D02*
X1299074Y767866D01*
X1297448Y769848D01*
X1295466Y771474D01*
X1293205Y772683D01*
X1290751Y773427D01*
X1288200Y773678D01*
X1285649Y773427D01*
X1283195Y772683D01*
X1280934Y771474D01*
X1278952Y769848D01*
X1277326Y767866D01*
X1276117Y765605D01*
X1275373Y763151D01*
X1275122Y760600D01*
X1275373Y758049D01*
X1276117Y755595D01*
X1277326Y753334D01*
X1278952Y751352D01*
X1280934Y749726D01*
X1283195Y748517D01*
X1285649Y747773D01*
X1288200Y747522D01*
X1290751Y747773D01*
X1293205Y748517D01*
X1295466Y749726D01*
X1297448Y751352D01*
X1299074Y753334D01*
X1300283Y755595D01*
X1301027Y758049D01*
X1301278Y760600D01*
X1301027Y763151D01*
X1300283Y765605D01*
G37*
%LPC*%G36*
X1281233Y816405D02*
X1280024Y818666D01*
X1278398Y820648D01*
X1276416Y822274D01*
X1274155Y823483D01*
X1271701Y824227D01*
X1269150Y824478D01*
X1266599Y824227D01*
X1264145Y823483D01*
X1261884Y822274D01*
X1259902Y820648D01*
X1258276Y818666D01*
X1257067Y816405D01*
X1256323Y813951D01*
X1256072Y811400D01*
X1256323Y808849D01*
X1257067Y806395D01*
X1258276Y804134D01*
X1259902Y802152D01*
X1261884Y800526D01*
X1264145Y799317D01*
X1266599Y798573D01*
X1269150Y798322D01*
X1271701Y798573D01*
X1274155Y799317D01*
X1276416Y800526D01*
X1278398Y802152D01*
X1280024Y804134D01*
X1281233Y806395D01*
X1281977Y808849D01*
X1282228Y811400D01*
X1281977Y813951D01*
X1281233Y816405D01*
G37*
%LPC*%G36*
X1259025Y765112D02*
X1258200Y766465D01*
X1257172Y767672D01*
X1255965Y768700D01*
X1254612Y769525D01*
X1253145Y770126D01*
X1251601Y770488D01*
Y773514D01*
X1253732Y773083D01*
X1255762Y772304D01*
X1257633Y771197D01*
X1259293Y769793D01*
X1260697Y768133D01*
X1261804Y766262D01*
X1262583Y764232D01*
X1263014Y762101D01*
X1259988D01*
X1259626Y763645D01*
X1259025Y765112D01*
G37*
%LPC*%G36*
X1241175Y765112D02*
X1242000Y766465D01*
X1243028Y767672D01*
X1244235Y768700D01*
X1245588Y769525D01*
X1247055Y770126D01*
X1248599Y770488D01*
Y773514D01*
X1246468Y773083D01*
X1244438Y772304D01*
X1242567Y771197D01*
X1240907Y769793D01*
X1239503Y768133D01*
X1238396Y766262D01*
X1237617Y764232D01*
X1237186Y762101D01*
X1240212D01*
X1240574Y763645D01*
X1241175Y765112D01*
G37*
%LPC*%G36*
X1241175Y756088D02*
X1242000Y754735D01*
X1243028Y753528D01*
X1244235Y752500D01*
X1245588Y751675D01*
X1247055Y751074D01*
X1248599Y750712D01*
Y747686D01*
X1246468Y748117D01*
X1244438Y748896D01*
X1242567Y750003D01*
X1240907Y751407D01*
X1239503Y753067D01*
X1238396Y754938D01*
X1237617Y756968D01*
X1237186Y759099D01*
X1240212D01*
X1240574Y757555D01*
X1241175Y756088D01*
G37*
%LPC*%G36*
X1259025Y756088D02*
X1258200Y754735D01*
X1257172Y753528D01*
X1255965Y752500D01*
X1254612Y751675D01*
X1253145Y751074D01*
X1251601Y750712D01*
Y747686D01*
X1253732Y748117D01*
X1255762Y748896D01*
X1257633Y750003D01*
X1259293Y751407D01*
X1260697Y753067D01*
X1261804Y754938D01*
X1262583Y756968D01*
X1263014Y759099D01*
X1259988D01*
X1259626Y757555D01*
X1259025Y756088D01*
G37*
%LPC*%G36*
X1243133Y816405D02*
X1241924Y818666D01*
X1240298Y820648D01*
X1238316Y822274D01*
X1236055Y823483D01*
X1233601Y824227D01*
X1231050Y824478D01*
X1228499Y824227D01*
X1226045Y823483D01*
X1223784Y822274D01*
X1221802Y820648D01*
X1220176Y818666D01*
X1218967Y816405D01*
X1218223Y813951D01*
X1217972Y811400D01*
X1218223Y808849D01*
X1218967Y806395D01*
X1220176Y804134D01*
X1221802Y802152D01*
X1223784Y800526D01*
X1226045Y799317D01*
X1228499Y798573D01*
X1231050Y798322D01*
X1233601Y798573D01*
X1236055Y799317D01*
X1238316Y800526D01*
X1240298Y802152D01*
X1241924Y804134D01*
X1243133Y806395D01*
X1243877Y808849D01*
X1244128Y811400D01*
X1243877Y813951D01*
X1243133Y816405D01*
G37*
%LPC*%G36*
X1224083Y765605D02*
X1222874Y767866D01*
X1221248Y769848D01*
X1219266Y771474D01*
X1217005Y772683D01*
X1214551Y773427D01*
X1212000Y773678D01*
X1209449Y773427D01*
X1206995Y772683D01*
X1204734Y771474D01*
X1202752Y769848D01*
X1201126Y767866D01*
X1199917Y765605D01*
X1199173Y763151D01*
X1198922Y760600D01*
X1199173Y758049D01*
X1199917Y755595D01*
X1201126Y753334D01*
X1202752Y751352D01*
X1204734Y749726D01*
X1206995Y748517D01*
X1209449Y747773D01*
X1212000Y747522D01*
X1214551Y747773D01*
X1217005Y748517D01*
X1219266Y749726D01*
X1221248Y751352D01*
X1222874Y753334D01*
X1224083Y755595D01*
X1224827Y758049D01*
X1225078Y760600D01*
X1224827Y763151D01*
X1224083Y765605D01*
G37*
%LPC*%G36*
X1205033Y816405D02*
X1203824Y818666D01*
X1202198Y820648D01*
X1200216Y822274D01*
X1197955Y823483D01*
X1195501Y824227D01*
X1192950Y824478D01*
X1190399Y824227D01*
X1187945Y823483D01*
X1185684Y822274D01*
X1183702Y820648D01*
X1182076Y818666D01*
X1180867Y816405D01*
X1180123Y813951D01*
X1179872Y811400D01*
X1180123Y808849D01*
X1180867Y806395D01*
X1182076Y804134D01*
X1183702Y802152D01*
X1185684Y800526D01*
X1187945Y799317D01*
X1190399Y798573D01*
X1192950Y798322D01*
X1195501Y798573D01*
X1197955Y799317D01*
X1200216Y800526D01*
X1202198Y802152D01*
X1203824Y804134D01*
X1205033Y806395D01*
X1205777Y808849D01*
X1206028Y811400D01*
X1205777Y813951D01*
X1205033Y816405D01*
G37*
%LPC*%G36*
X1182825Y765112D02*
X1182000Y766465D01*
X1180972Y767672D01*
X1179765Y768700D01*
X1178412Y769525D01*
X1176945Y770126D01*
X1175401Y770488D01*
Y773514D01*
X1177532Y773083D01*
X1179562Y772304D01*
X1181433Y771197D01*
X1183093Y769793D01*
X1184497Y768133D01*
X1185604Y766262D01*
X1186383Y764232D01*
X1186814Y762101D01*
X1183788D01*
X1183426Y763645D01*
X1182825Y765112D01*
G37*
%LPC*%G36*
X1164975Y765112D02*
X1165800Y766465D01*
X1166828Y767672D01*
X1168035Y768700D01*
X1169388Y769525D01*
X1170855Y770126D01*
X1172399Y770488D01*
Y773514D01*
X1170268Y773083D01*
X1168238Y772304D01*
X1166367Y771197D01*
X1164707Y769793D01*
X1163303Y768133D01*
X1162196Y766262D01*
X1161417Y764232D01*
X1160986Y762101D01*
X1164012D01*
X1164374Y763645D01*
X1164975Y765112D01*
G37*
%LPC*%G36*
X1164975Y756088D02*
X1165800Y754735D01*
X1166828Y753528D01*
X1168035Y752500D01*
X1169388Y751675D01*
X1170855Y751074D01*
X1172399Y750712D01*
Y747686D01*
X1170268Y748117D01*
X1168238Y748896D01*
X1166367Y750003D01*
X1164707Y751407D01*
X1163303Y753067D01*
X1162196Y754938D01*
X1161417Y756968D01*
X1160986Y759099D01*
X1164012D01*
X1164374Y757555D01*
X1164975Y756088D01*
G37*
%LPC*%G36*
X1182825Y756088D02*
X1182000Y754735D01*
X1180972Y753528D01*
X1179765Y752500D01*
X1178412Y751675D01*
X1176945Y751074D01*
X1175401Y750712D01*
Y747686D01*
X1177532Y748117D01*
X1179562Y748896D01*
X1181433Y750003D01*
X1183093Y751407D01*
X1184497Y753067D01*
X1185604Y754938D01*
X1186383Y756968D01*
X1186814Y759099D01*
X1183788D01*
X1183426Y757555D01*
X1182825Y756088D01*
G37*
%LPC*%G36*
X1166933Y816405D02*
X1165724Y818666D01*
X1164098Y820648D01*
X1162116Y822274D01*
X1159855Y823483D01*
X1157401Y824227D01*
X1154850Y824478D01*
X1152299Y824227D01*
X1149845Y823483D01*
X1147584Y822274D01*
X1145602Y820648D01*
X1143976Y818666D01*
X1142767Y816405D01*
X1142023Y813951D01*
X1141772Y811400D01*
X1142023Y808849D01*
X1142767Y806395D01*
X1143976Y804134D01*
X1145602Y802152D01*
X1147584Y800526D01*
X1149845Y799317D01*
X1152299Y798573D01*
X1154850Y798322D01*
X1157401Y798573D01*
X1159855Y799317D01*
X1162116Y800526D01*
X1164098Y802152D01*
X1165724Y804134D01*
X1166933Y806395D01*
X1167677Y808849D01*
X1167928Y811400D01*
X1167677Y813951D01*
X1166933Y816405D01*
G37*
%LPC*%G36*
X1147883Y765605D02*
X1146674Y767866D01*
X1145048Y769848D01*
X1143066Y771474D01*
X1140805Y772683D01*
X1138351Y773427D01*
X1135800Y773678D01*
X1133249Y773427D01*
X1130795Y772683D01*
X1128534Y771474D01*
X1126552Y769848D01*
X1124926Y767866D01*
X1123717Y765605D01*
X1122973Y763151D01*
X1122722Y760600D01*
X1122973Y758049D01*
X1123717Y755595D01*
X1124926Y753334D01*
X1126552Y751352D01*
X1128534Y749726D01*
X1130795Y748517D01*
X1133249Y747773D01*
X1135800Y747522D01*
X1138351Y747773D01*
X1140805Y748517D01*
X1143066Y749726D01*
X1145048Y751352D01*
X1146674Y753334D01*
X1147883Y755595D01*
X1148627Y758049D01*
X1148878Y760600D01*
X1148627Y763151D01*
X1147883Y765605D01*
G37*
%LPC*%G36*
X1128833Y816405D02*
X1127624Y818666D01*
X1125998Y820648D01*
X1124016Y822274D01*
X1121755Y823483D01*
X1119301Y824227D01*
X1116750Y824478D01*
X1114199Y824227D01*
X1111745Y823483D01*
X1109484Y822274D01*
X1107502Y820648D01*
X1105876Y818666D01*
X1104667Y816405D01*
X1103923Y813951D01*
X1103672Y811400D01*
X1103923Y808849D01*
X1104667Y806395D01*
X1105876Y804134D01*
X1107502Y802152D01*
X1109484Y800526D01*
X1111745Y799317D01*
X1114199Y798573D01*
X1116750Y798322D01*
X1119301Y798573D01*
X1121755Y799317D01*
X1124016Y800526D01*
X1125998Y802152D01*
X1127624Y804134D01*
X1128833Y806395D01*
X1129577Y808849D01*
X1129828Y811400D01*
X1129577Y813951D01*
X1128833Y816405D01*
G37*
%LPC*%G36*
X1106625Y765112D02*
X1105800Y766465D01*
X1104772Y767672D01*
X1103565Y768700D01*
X1102212Y769525D01*
X1100745Y770126D01*
X1099201Y770488D01*
Y773514D01*
X1101332Y773083D01*
X1103362Y772304D01*
X1105233Y771197D01*
X1106893Y769793D01*
X1108297Y768133D01*
X1109404Y766262D01*
X1110183Y764232D01*
X1110614Y762101D01*
X1107588D01*
X1107226Y763645D01*
X1106625Y765112D01*
G37*
%LPC*%G36*
X1088775Y765112D02*
X1089600Y766465D01*
X1090628Y767672D01*
X1091835Y768700D01*
X1093188Y769525D01*
X1094655Y770126D01*
X1096199Y770488D01*
Y773514D01*
X1094068Y773083D01*
X1092038Y772304D01*
X1090167Y771197D01*
X1088507Y769793D01*
X1087103Y768133D01*
X1085996Y766262D01*
X1085217Y764232D01*
X1084786Y762101D01*
X1087812D01*
X1088174Y763645D01*
X1088775Y765112D01*
G37*
%LPC*%G36*
X1088775Y756088D02*
X1089600Y754735D01*
X1090628Y753528D01*
X1091835Y752500D01*
X1093188Y751675D01*
X1094655Y751074D01*
X1096199Y750712D01*
Y747686D01*
X1094068Y748117D01*
X1092038Y748896D01*
X1090167Y750003D01*
X1088507Y751407D01*
X1087103Y753067D01*
X1085996Y754938D01*
X1085217Y756968D01*
X1084786Y759099D01*
X1087812D01*
X1088174Y757555D01*
X1088775Y756088D01*
G37*
%LPC*%G36*
X1106625Y756088D02*
X1105800Y754735D01*
X1104772Y753528D01*
X1103565Y752500D01*
X1102212Y751675D01*
X1100745Y751074D01*
X1099201Y750712D01*
Y747686D01*
X1101332Y748117D01*
X1103362Y748896D01*
X1105233Y750003D01*
X1106893Y751407D01*
X1108297Y753067D01*
X1109404Y754938D01*
X1110183Y756968D01*
X1110614Y759099D01*
X1107588D01*
X1107226Y757555D01*
X1106625Y756088D01*
G37*
%LPC*%G36*
X1087575Y815912D02*
X1086750Y817265D01*
X1085722Y818472D01*
X1084515Y819500D01*
X1083162Y820325D01*
X1081695Y820926D01*
X1080151Y821288D01*
Y824314D01*
X1082282Y823883D01*
X1084312Y823104D01*
X1086183Y821997D01*
X1087843Y820593D01*
X1089247Y818933D01*
X1090354Y817062D01*
X1091133Y815032D01*
X1091564Y812901D01*
X1088538D01*
X1088176Y814445D01*
X1087575Y815912D01*
G37*
%LPC*%G36*
X1069725Y815912D02*
X1070550Y817265D01*
X1071578Y818472D01*
X1072785Y819500D01*
X1074138Y820325D01*
X1075605Y820926D01*
X1077149Y821288D01*
Y824314D01*
X1075018Y823883D01*
X1072988Y823104D01*
X1071117Y821997D01*
X1069457Y820593D01*
X1068053Y818933D01*
X1066946Y817062D01*
X1066167Y815032D01*
X1065736Y812901D01*
X1068762D01*
X1069124Y814445D01*
X1069725Y815912D01*
G37*
%LPC*%G36*
X1069725Y806888D02*
X1070550Y805535D01*
X1071578Y804328D01*
X1072785Y803300D01*
X1074138Y802475D01*
X1075605Y801874D01*
X1077149Y801512D01*
Y798486D01*
X1075018Y798917D01*
X1072988Y799696D01*
X1071117Y800803D01*
X1069457Y802207D01*
X1068053Y803867D01*
X1066946Y805738D01*
X1066167Y807768D01*
X1065736Y809899D01*
X1068762D01*
X1069124Y808355D01*
X1069725Y806888D01*
G37*
%LPC*%G36*
X1087575Y806888D02*
X1086750Y805535D01*
X1085722Y804328D01*
X1084515Y803300D01*
X1083162Y802475D01*
X1081695Y801874D01*
X1080151Y801512D01*
Y798486D01*
X1082282Y798917D01*
X1084312Y799696D01*
X1086183Y800803D01*
X1087843Y802207D01*
X1089247Y803867D01*
X1090354Y805738D01*
X1091133Y807768D01*
X1091564Y809899D01*
X1088538D01*
X1088176Y808355D01*
X1087575Y806888D01*
G37*
%LPC*%G36*
X1071683Y765605D02*
X1070474Y767866D01*
X1068848Y769848D01*
X1066866Y771474D01*
X1064605Y772683D01*
X1062151Y773427D01*
X1059600Y773678D01*
X1057049Y773427D01*
X1054595Y772683D01*
X1052334Y771474D01*
X1050352Y769848D01*
X1048726Y767866D01*
X1047517Y765605D01*
X1046773Y763151D01*
X1046522Y760600D01*
X1046773Y758049D01*
X1047517Y755595D01*
X1048726Y753334D01*
X1050352Y751352D01*
X1052334Y749726D01*
X1054595Y748517D01*
X1057049Y747773D01*
X1059600Y747522D01*
X1062151Y747773D01*
X1064605Y748517D01*
X1066866Y749726D01*
X1068848Y751352D01*
X1070474Y753334D01*
X1071683Y755595D01*
X1072427Y758049D01*
X1072678Y760600D01*
X1072427Y763151D01*
X1071683Y765605D01*
G37*
%LPC*%G36*
X1052633Y816405D02*
X1051424Y818666D01*
X1049798Y820648D01*
X1047816Y822274D01*
X1045555Y823483D01*
X1043101Y824227D01*
X1040550Y824478D01*
X1037999Y824227D01*
X1035545Y823483D01*
X1033284Y822274D01*
X1031302Y820648D01*
X1029676Y818666D01*
X1028467Y816405D01*
X1027723Y813951D01*
X1027472Y811400D01*
X1027723Y808849D01*
X1028467Y806395D01*
X1029676Y804134D01*
X1031302Y802152D01*
X1033284Y800526D01*
X1035545Y799317D01*
X1037999Y798573D01*
X1040550Y798322D01*
X1043101Y798573D01*
X1045555Y799317D01*
X1047816Y800526D01*
X1049798Y802152D01*
X1051424Y804134D01*
X1052633Y806395D01*
X1053377Y808849D01*
X1053628Y811400D01*
X1053377Y813951D01*
X1052633Y816405D01*
G37*
%LPC*%G36*
X1030425Y765112D02*
X1029600Y766465D01*
X1028572Y767672D01*
X1027365Y768700D01*
X1026012Y769525D01*
X1024545Y770126D01*
X1023001Y770488D01*
Y773514D01*
X1025132Y773083D01*
X1027162Y772304D01*
X1029033Y771197D01*
X1030693Y769793D01*
X1032097Y768133D01*
X1033204Y766262D01*
X1033983Y764232D01*
X1034414Y762101D01*
X1031388D01*
X1031026Y763645D01*
X1030425Y765112D01*
G37*
%LPC*%G36*
X1012575Y765112D02*
X1013400Y766465D01*
X1014428Y767672D01*
X1015635Y768700D01*
X1016988Y769525D01*
X1018455Y770126D01*
X1019999Y770488D01*
Y773514D01*
X1017868Y773083D01*
X1015838Y772304D01*
X1013967Y771197D01*
X1012307Y769793D01*
X1010903Y768133D01*
X1009796Y766262D01*
X1009017Y764232D01*
X1008586Y762101D01*
X1011612D01*
X1011974Y763645D01*
X1012575Y765112D01*
G37*
%LPC*%G36*
X1009776Y748224D02*
X1008084Y747094D01*
Y704906D01*
X1009776Y703776D01*
X1011546Y701126D01*
X1012168Y698000D01*
X1011546Y694874D01*
X1009776Y692224D01*
X1007126Y690454D01*
X1004000Y689832D01*
X1000874Y690454D01*
X998224Y692224D01*
X996454Y694874D01*
X995776Y696224D01*
X993126Y694454D01*
X990000Y693832D01*
X986874Y694454D01*
X984224Y696224D01*
X982454Y698874D01*
X981832Y702000D01*
X982454Y705126D01*
X984224Y707776D01*
X985916Y708906D01*
Y747094D01*
X984224Y748224D01*
X982454Y750874D01*
X981832Y754000D01*
X982454Y757126D01*
X984224Y759776D01*
X986874Y761546D01*
X990000Y762168D01*
X993126Y761546D01*
X995776Y759776D01*
X997000Y757943D01*
X998224Y759776D01*
X1000874Y761546D01*
X1004000Y762168D01*
X1007126Y761546D01*
X1009776Y759776D01*
X1010228Y759099D01*
X1011612D01*
X1011974Y757555D01*
X1012575Y756088D01*
X1013400Y754735D01*
X1014428Y753528D01*
X1015635Y752500D01*
X1016988Y751675D01*
X1018455Y751074D01*
X1019999Y750712D01*
Y747686D01*
X1017868Y748117D01*
X1015838Y748896D01*
X1013967Y750003D01*
X1012307Y751407D01*
X1011777Y752034D01*
X1011546Y750874D01*
X1009776Y748224D01*
G37*
%LPC*%G36*
X1030425Y756088D02*
X1029600Y754735D01*
X1028572Y753528D01*
X1027365Y752500D01*
X1026012Y751675D01*
X1024545Y751074D01*
X1023001Y750712D01*
Y747686D01*
X1025132Y748117D01*
X1027162Y748896D01*
X1029033Y750003D01*
X1030693Y751407D01*
X1032097Y753067D01*
X1033204Y754938D01*
X1033983Y756968D01*
X1034414Y759099D01*
X1031388D01*
X1031026Y757555D01*
X1030425Y756088D01*
G37*
%LPC*%G36*
X750583Y353605D02*
X749374Y355866D01*
X747748Y357848D01*
X745766Y359474D01*
X743505Y360683D01*
X741051Y361427D01*
X738500Y361678D01*
X735949Y361427D01*
X733495Y360683D01*
X731234Y359474D01*
X729252Y357848D01*
X727626Y355866D01*
X726417Y353605D01*
X725673Y351151D01*
X725422Y348600D01*
X725673Y346049D01*
X726417Y343595D01*
X727626Y341334D01*
X729252Y339352D01*
X731234Y337726D01*
X733495Y336517D01*
X735949Y335773D01*
X738500Y335522D01*
X741051Y335773D01*
X743505Y336517D01*
X745766Y337726D01*
X747748Y339352D01*
X749374Y341334D01*
X750583Y343595D01*
X751327Y346049D01*
X751578Y348600D01*
X751327Y351151D01*
X750583Y353605D01*
G37*
%LPC*%G36*
X731533Y404405D02*
X730324Y406666D01*
X728698Y408648D01*
X726716Y410274D01*
X724455Y411483D01*
X722001Y412227D01*
X719450Y412478D01*
X716899Y412227D01*
X714445Y411483D01*
X712184Y410274D01*
X710202Y408648D01*
X708576Y406666D01*
X707367Y404405D01*
X706623Y401951D01*
X706372Y399400D01*
X706623Y396849D01*
X707367Y394395D01*
X708576Y392134D01*
X710202Y390152D01*
X712184Y388526D01*
X714445Y387317D01*
X716899Y386573D01*
X719450Y386322D01*
X722001Y386573D01*
X724455Y387317D01*
X726716Y388526D01*
X728698Y390152D01*
X730324Y392134D01*
X731533Y394395D01*
X732277Y396849D01*
X732528Y399400D01*
X732277Y401951D01*
X731533Y404405D01*
G37*
%LPC*%G36*
X712483Y353605D02*
X711274Y355866D01*
X709648Y357848D01*
X707666Y359474D01*
X705405Y360683D01*
X702951Y361427D01*
X700400Y361678D01*
X697849Y361427D01*
X695395Y360683D01*
X693134Y359474D01*
X691152Y357848D01*
X689526Y355866D01*
X688317Y353605D01*
X687573Y351151D01*
X687322Y348600D01*
X687573Y346049D01*
X688317Y343595D01*
X689526Y341334D01*
X691152Y339352D01*
X693134Y337726D01*
X695395Y336517D01*
X697849Y335773D01*
X700400Y335522D01*
X702951Y335773D01*
X705405Y336517D01*
X707666Y337726D01*
X709648Y339352D01*
X711274Y341334D01*
X712483Y343595D01*
X713227Y346049D01*
X713478Y348600D01*
X713227Y351151D01*
X712483Y353605D01*
G37*
%LPC*%G36*
X690275Y403912D02*
X689450Y405265D01*
X688422Y406472D01*
X687215Y407500D01*
X685862Y408325D01*
X684395Y408926D01*
X682851Y409288D01*
Y412314D01*
X684982Y411883D01*
X687012Y411104D01*
X688883Y409997D01*
X690543Y408593D01*
X691947Y406933D01*
X693054Y405062D01*
X693833Y403032D01*
X694264Y400901D01*
X691238D01*
X690876Y402445D01*
X690275Y403912D01*
G37*
%LPC*%G36*
X672425Y403912D02*
X673250Y405265D01*
X674278Y406472D01*
X675485Y407500D01*
X676838Y408325D01*
X678305Y408926D01*
X679849Y409288D01*
Y412314D01*
X677718Y411883D01*
X675688Y411104D01*
X673817Y409997D01*
X672157Y408593D01*
X670753Y406933D01*
X669646Y405062D01*
X668867Y403032D01*
X668436Y400901D01*
X671462D01*
X671824Y402445D01*
X672425Y403912D01*
G37*
%LPC*%G36*
X672425Y394888D02*
X673250Y393535D01*
X674278Y392328D01*
X675485Y391300D01*
X676838Y390475D01*
X678305Y389874D01*
X679849Y389512D01*
Y386486D01*
X677718Y386917D01*
X675688Y387696D01*
X673817Y388803D01*
X672157Y390207D01*
X670753Y391867D01*
X669646Y393738D01*
X668867Y395768D01*
X668436Y397899D01*
X671462D01*
X671824Y396355D01*
X672425Y394888D01*
G37*
%LPC*%G36*
X690275Y394888D02*
X689450Y393535D01*
X688422Y392328D01*
X687215Y391300D01*
X685862Y390475D01*
X684395Y389874D01*
X682851Y389512D01*
Y386486D01*
X684982Y386917D01*
X687012Y387696D01*
X688883Y388803D01*
X690543Y390207D01*
X691947Y391867D01*
X693054Y393738D01*
X693833Y395768D01*
X694264Y397899D01*
X691238D01*
X690876Y396355D01*
X690275Y394888D01*
G37*
%LPC*%G36*
X671225Y353112D02*
X670400Y354465D01*
X669372Y355672D01*
X668165Y356700D01*
X666812Y357525D01*
X665345Y358126D01*
X663801Y358488D01*
Y361514D01*
X665932Y361083D01*
X667962Y360304D01*
X669833Y359197D01*
X671493Y357793D01*
X672897Y356133D01*
X674004Y354262D01*
X674783Y352232D01*
X675214Y350101D01*
X672188D01*
X671826Y351645D01*
X671225Y353112D01*
G37*
%LPC*%G36*
X653375Y353112D02*
X654200Y354465D01*
X655228Y355672D01*
X656435Y356700D01*
X657788Y357525D01*
X659255Y358126D01*
X660799Y358488D01*
Y361514D01*
X658668Y361083D01*
X656638Y360304D01*
X654767Y359197D01*
X653107Y357793D01*
X651703Y356133D01*
X650596Y354262D01*
X649817Y352232D01*
X649386Y350101D01*
X652412D01*
X652774Y351645D01*
X653375Y353112D01*
G37*
%LPC*%G36*
X653375Y344088D02*
X654200Y342735D01*
X655228Y341528D01*
X656435Y340500D01*
X657788Y339675D01*
X659255Y339074D01*
X660799Y338712D01*
Y335686D01*
X658668Y336117D01*
X656638Y336896D01*
X654767Y338003D01*
X653107Y339407D01*
X651703Y341067D01*
X650596Y342938D01*
X649817Y344968D01*
X649386Y347099D01*
X652412D01*
X652774Y345555D01*
X653375Y344088D01*
G37*
%LPC*%G36*
X671225Y344088D02*
X670400Y342735D01*
X669372Y341528D01*
X668165Y340500D01*
X666812Y339675D01*
X665345Y339074D01*
X663801Y338712D01*
Y335686D01*
X665932Y336117D01*
X667962Y336896D01*
X669833Y338003D01*
X671493Y339407D01*
X672897Y341067D01*
X674004Y342938D01*
X674783Y344968D01*
X675214Y347099D01*
X672188D01*
X671826Y345555D01*
X671225Y344088D01*
G37*
%LPC*%G36*
X655333Y404405D02*
X654124Y406666D01*
X652498Y408648D01*
X650516Y410274D01*
X648255Y411483D01*
X645801Y412227D01*
X643250Y412478D01*
X640699Y412227D01*
X638245Y411483D01*
X635984Y410274D01*
X634002Y408648D01*
X632376Y406666D01*
X631167Y404405D01*
X630423Y401951D01*
X630172Y399400D01*
X630423Y396849D01*
X631167Y394395D01*
X632376Y392134D01*
X634002Y390152D01*
X635984Y388526D01*
X638245Y387317D01*
X640699Y386573D01*
X643250Y386322D01*
X645801Y386573D01*
X648255Y387317D01*
X650516Y388526D01*
X652498Y390152D01*
X654124Y392134D01*
X655333Y394395D01*
X656077Y396849D01*
X656328Y399400D01*
X656077Y401951D01*
X655333Y404405D01*
G37*
%LPC*%G36*
X636283Y353605D02*
X635074Y355866D01*
X633448Y357848D01*
X631466Y359474D01*
X629205Y360683D01*
X626751Y361427D01*
X624200Y361678D01*
X621649Y361427D01*
X619195Y360683D01*
X616934Y359474D01*
X614952Y357848D01*
X613326Y355866D01*
X612117Y353605D01*
X611373Y351151D01*
X611122Y348600D01*
X611373Y346049D01*
X612117Y343595D01*
X613326Y341334D01*
X614952Y339352D01*
X616934Y337726D01*
X619195Y336517D01*
X621649Y335773D01*
X624200Y335522D01*
X626751Y335773D01*
X629205Y336517D01*
X631466Y337726D01*
X633448Y339352D01*
X635074Y341334D01*
X636283Y343595D01*
X637027Y346049D01*
X637278Y348600D01*
X637027Y351151D01*
X636283Y353605D01*
G37*
%LPC*%G36*
X617233Y404405D02*
X616024Y406666D01*
X614398Y408648D01*
X612416Y410274D01*
X610155Y411483D01*
X607701Y412227D01*
X605150Y412478D01*
X602599Y412227D01*
X600145Y411483D01*
X597884Y410274D01*
X595902Y408648D01*
X594276Y406666D01*
X593067Y404405D01*
X592323Y401951D01*
X592072Y399400D01*
X592323Y396849D01*
X593067Y394395D01*
X594276Y392134D01*
X595902Y390152D01*
X597884Y388526D01*
X600145Y387317D01*
X602599Y386573D01*
X605150Y386322D01*
X607701Y386573D01*
X610155Y387317D01*
X612416Y388526D01*
X614398Y390152D01*
X616024Y392134D01*
X617233Y394395D01*
X617977Y396849D01*
X618228Y399400D01*
X617977Y401951D01*
X617233Y404405D01*
G37*
%LPC*%G36*
X595025Y353112D02*
X594200Y354465D01*
X593172Y355672D01*
X591965Y356700D01*
X590612Y357525D01*
X589145Y358126D01*
X587601Y358488D01*
Y361514D01*
X589732Y361083D01*
X591762Y360304D01*
X593633Y359197D01*
X595293Y357793D01*
X596697Y356133D01*
X597804Y354262D01*
X598583Y352232D01*
X599014Y350101D01*
X595988D01*
X595626Y351645D01*
X595025Y353112D01*
G37*
%LPC*%G36*
X577175Y353112D02*
X578000Y354465D01*
X579028Y355672D01*
X580235Y356700D01*
X581588Y357525D01*
X583055Y358126D01*
X584599Y358488D01*
Y361514D01*
X582468Y361083D01*
X580438Y360304D01*
X578567Y359197D01*
X576907Y357793D01*
X575503Y356133D01*
X574396Y354262D01*
X573617Y352232D01*
X573186Y350101D01*
X576212D01*
X576574Y351645D01*
X577175Y353112D01*
G37*
%LPC*%G36*
X577175Y344088D02*
X578000Y342735D01*
X579028Y341528D01*
X580235Y340500D01*
X581588Y339675D01*
X583055Y339074D01*
X584599Y338712D01*
Y335686D01*
X582468Y336117D01*
X580438Y336896D01*
X578567Y338003D01*
X576907Y339407D01*
X575503Y341067D01*
X574396Y342938D01*
X573617Y344968D01*
X573186Y347099D01*
X576212D01*
X576574Y345555D01*
X577175Y344088D01*
G37*
%LPC*%G36*
X595025Y344088D02*
X594200Y342735D01*
X593172Y341528D01*
X591965Y340500D01*
X590612Y339675D01*
X589145Y339074D01*
X587601Y338712D01*
Y335686D01*
X589732Y336117D01*
X591762Y336896D01*
X593633Y338003D01*
X595293Y339407D01*
X596697Y341067D01*
X597804Y342938D01*
X598583Y344968D01*
X599014Y347099D01*
X595988D01*
X595626Y345555D01*
X595025Y344088D01*
G37*
%LPC*%G36*
X579133Y404405D02*
X577924Y406666D01*
X576298Y408648D01*
X574316Y410274D01*
X572055Y411483D01*
X569601Y412227D01*
X567050Y412478D01*
X564499Y412227D01*
X562045Y411483D01*
X559784Y410274D01*
X557802Y408648D01*
X556176Y406666D01*
X554967Y404405D01*
X554223Y401951D01*
X553972Y399400D01*
X554223Y396849D01*
X554967Y394395D01*
X556176Y392134D01*
X557802Y390152D01*
X559784Y388526D01*
X562045Y387317D01*
X564499Y386573D01*
X567050Y386322D01*
X569601Y386573D01*
X572055Y387317D01*
X574316Y388526D01*
X576298Y390152D01*
X577924Y392134D01*
X579133Y394395D01*
X579877Y396849D01*
X580128Y399400D01*
X579877Y401951D01*
X579133Y404405D01*
G37*
%LPC*%G36*
X560083Y353605D02*
X558874Y355866D01*
X557248Y357848D01*
X555266Y359474D01*
X553005Y360683D01*
X550551Y361427D01*
X548000Y361678D01*
X545449Y361427D01*
X542995Y360683D01*
X540734Y359474D01*
X538752Y357848D01*
X537126Y355866D01*
X535917Y353605D01*
X535173Y351151D01*
X534922Y348600D01*
X535173Y346049D01*
X535917Y343595D01*
X537126Y341334D01*
X538752Y339352D01*
X540734Y337726D01*
X542995Y336517D01*
X545449Y335773D01*
X548000Y335522D01*
X550551Y335773D01*
X553005Y336517D01*
X555266Y337726D01*
X557248Y339352D01*
X558874Y341334D01*
X560083Y343595D01*
X560827Y346049D01*
X561078Y348600D01*
X560827Y351151D01*
X560083Y353605D01*
G37*
%LPC*%G36*
X541033Y404405D02*
X539824Y406666D01*
X538198Y408648D01*
X536216Y410274D01*
X533955Y411483D01*
X531501Y412227D01*
X528950Y412478D01*
X526399Y412227D01*
X523945Y411483D01*
X521684Y410274D01*
X519702Y408648D01*
X518076Y406666D01*
X516867Y404405D01*
X516123Y401951D01*
X515872Y399400D01*
X516123Y396849D01*
X516867Y394395D01*
X518076Y392134D01*
X519702Y390152D01*
X521684Y388526D01*
X523945Y387317D01*
X526399Y386573D01*
X528950Y386322D01*
X531501Y386573D01*
X533955Y387317D01*
X536216Y388526D01*
X538198Y390152D01*
X539824Y392134D01*
X541033Y394395D01*
X541777Y396849D01*
X542028Y399400D01*
X541777Y401951D01*
X541033Y404405D01*
G37*
%LPC*%G36*
X518825Y353112D02*
X518000Y354465D01*
X516972Y355672D01*
X515765Y356700D01*
X514412Y357525D01*
X512945Y358126D01*
X511401Y358488D01*
Y361514D01*
X513532Y361083D01*
X515562Y360304D01*
X517433Y359197D01*
X519093Y357793D01*
X520497Y356133D01*
X521604Y354262D01*
X522383Y352232D01*
X522814Y350101D01*
X519788D01*
X519426Y351645D01*
X518825Y353112D01*
G37*
%LPC*%G36*
X500975Y353112D02*
X501800Y354465D01*
X502828Y355672D01*
X504035Y356700D01*
X505388Y357525D01*
X506855Y358126D01*
X508399Y358488D01*
Y361514D01*
X506268Y361083D01*
X504238Y360304D01*
X502367Y359197D01*
X500707Y357793D01*
X499303Y356133D01*
X498196Y354262D01*
X497417Y352232D01*
X496986Y350101D01*
X500012D01*
X500374Y351645D01*
X500975Y353112D01*
G37*
%LPC*%G36*
X500975Y344088D02*
X501800Y342735D01*
X502828Y341528D01*
X504035Y340500D01*
X505388Y339675D01*
X506855Y339074D01*
X508399Y338712D01*
Y335686D01*
X506268Y336117D01*
X504238Y336896D01*
X502367Y338003D01*
X500707Y339407D01*
X499303Y341067D01*
X498196Y342938D01*
X497417Y344968D01*
X496986Y347099D01*
X500012D01*
X500374Y345555D01*
X500975Y344088D01*
G37*
%LPC*%G36*
X518825Y344088D02*
X518000Y342735D01*
X516972Y341528D01*
X515765Y340500D01*
X514412Y339675D01*
X512945Y339074D01*
X511401Y338712D01*
Y335686D01*
X513532Y336117D01*
X515562Y336896D01*
X517433Y338003D01*
X519093Y339407D01*
X520497Y341067D01*
X521604Y342938D01*
X522383Y344968D01*
X522814Y347099D01*
X519788D01*
X519426Y345555D01*
X518825Y344088D01*
G37*
%LPC*%G36*
X502933Y404405D02*
X501724Y406666D01*
X500098Y408648D01*
X498116Y410274D01*
X495855Y411483D01*
X493401Y412227D01*
X490850Y412478D01*
X488299Y412227D01*
X485845Y411483D01*
X483584Y410274D01*
X481602Y408648D01*
X479976Y406666D01*
X478767Y404405D01*
X478023Y401951D01*
X477772Y399400D01*
X478023Y396849D01*
X478767Y394395D01*
X479976Y392134D01*
X481602Y390152D01*
X483584Y388526D01*
X485845Y387317D01*
X488299Y386573D01*
X490850Y386322D01*
X493401Y386573D01*
X495855Y387317D01*
X498116Y388526D01*
X500098Y390152D01*
X501724Y392134D01*
X502933Y394395D01*
X503677Y396849D01*
X503928Y399400D01*
X503677Y401951D01*
X502933Y404405D01*
G37*
%LPC*%G36*
X483883Y353605D02*
X482674Y355866D01*
X481048Y357848D01*
X479066Y359474D01*
X476805Y360683D01*
X474351Y361427D01*
X471800Y361678D01*
X469249Y361427D01*
X466795Y360683D01*
X464534Y359474D01*
X462552Y357848D01*
X460926Y355866D01*
X459717Y353605D01*
X458973Y351151D01*
X458722Y348600D01*
X458973Y346049D01*
X459717Y343595D01*
X460926Y341334D01*
X462552Y339352D01*
X464534Y337726D01*
X466795Y336517D01*
X469249Y335773D01*
X471800Y335522D01*
X474351Y335773D01*
X476805Y336517D01*
X479066Y337726D01*
X481048Y339352D01*
X482674Y341334D01*
X483883Y343595D01*
X484627Y346049D01*
X484878Y348600D01*
X484627Y351151D01*
X483883Y353605D01*
G37*
%LPC*%G36*
X464833Y404405D02*
X463624Y406666D01*
X461998Y408648D01*
X460016Y410274D01*
X457755Y411483D01*
X455301Y412227D01*
X452750Y412478D01*
X450199Y412227D01*
X447745Y411483D01*
X445484Y410274D01*
X443502Y408648D01*
X441876Y406666D01*
X440667Y404405D01*
X439923Y401951D01*
X439672Y399400D01*
X439923Y396849D01*
X440667Y394395D01*
X441876Y392134D01*
X443502Y390152D01*
X445484Y388526D01*
X447745Y387317D01*
X450199Y386573D01*
X452750Y386322D01*
X455301Y386573D01*
X457755Y387317D01*
X460016Y388526D01*
X461998Y390152D01*
X463624Y392134D01*
X464833Y394395D01*
X465577Y396849D01*
X465828Y399400D01*
X465577Y401951D01*
X464833Y404405D01*
G37*
%LPC*%G36*
X442625Y353112D02*
X441800Y354465D01*
X440772Y355672D01*
X439565Y356700D01*
X438212Y357525D01*
X436745Y358126D01*
X435201Y358488D01*
Y361514D01*
X437332Y361083D01*
X439362Y360304D01*
X441233Y359197D01*
X442893Y357793D01*
X444297Y356133D01*
X445404Y354262D01*
X446183Y352232D01*
X446614Y350101D01*
X443588D01*
X443226Y351645D01*
X442625Y353112D01*
G37*
%LPC*%G36*
X424775Y353112D02*
X425600Y354465D01*
X426628Y355672D01*
X427835Y356700D01*
X429188Y357525D01*
X430655Y358126D01*
X432199Y358488D01*
Y361514D01*
X430068Y361083D01*
X428038Y360304D01*
X426167Y359197D01*
X424507Y357793D01*
X423103Y356133D01*
X421996Y354262D01*
X421217Y352232D01*
X420786Y350101D01*
X423812D01*
X424174Y351645D01*
X424775Y353112D01*
G37*
%LPC*%G36*
X424775Y344088D02*
X425600Y342735D01*
X426628Y341528D01*
X427835Y340500D01*
X429188Y339675D01*
X430655Y339074D01*
X432199Y338712D01*
Y335686D01*
X430068Y336117D01*
X428038Y336896D01*
X426167Y338003D01*
X424507Y339407D01*
X423103Y341067D01*
X421996Y342938D01*
X421217Y344968D01*
X420786Y347099D01*
X423812D01*
X424174Y345555D01*
X424775Y344088D01*
G37*
%LPC*%G36*
X442625Y344088D02*
X441800Y342735D01*
X440772Y341528D01*
X439565Y340500D01*
X438212Y339675D01*
X436745Y339074D01*
X435201Y338712D01*
Y335686D01*
X437332Y336117D01*
X439362Y336896D01*
X441233Y338003D01*
X442893Y339407D01*
X444297Y341067D01*
X445404Y342938D01*
X446183Y344968D01*
X446614Y347099D01*
X443588D01*
X443226Y345555D01*
X442625Y344088D01*
G37*
%LPC*%G36*
X423575Y403912D02*
X422750Y405265D01*
X421722Y406472D01*
X420515Y407500D01*
X419162Y408325D01*
X417695Y408926D01*
X416151Y409288D01*
Y412314D01*
X418282Y411883D01*
X420312Y411104D01*
X422183Y409997D01*
X423843Y408593D01*
X425247Y406933D01*
X426354Y405062D01*
X427133Y403032D01*
X427564Y400901D01*
X424538D01*
X424176Y402445D01*
X423575Y403912D01*
G37*
%LPC*%G36*
X405725Y403912D02*
X406550Y405265D01*
X407578Y406472D01*
X408785Y407500D01*
X410138Y408325D01*
X411605Y408926D01*
X413149Y409288D01*
Y412314D01*
X411018Y411883D01*
X408988Y411104D01*
X407117Y409997D01*
X405457Y408593D01*
X404053Y406933D01*
X402946Y405062D01*
X402167Y403032D01*
X401736Y400901D01*
X404762D01*
X405124Y402445D01*
X405725Y403912D01*
G37*
%LPC*%G36*
X405725Y394888D02*
X406550Y393535D01*
X407578Y392328D01*
X408785Y391300D01*
X410138Y390475D01*
X411605Y389874D01*
X413149Y389512D01*
Y386486D01*
X411018Y386917D01*
X408988Y387696D01*
X407117Y388803D01*
X405457Y390207D01*
X404053Y391867D01*
X402946Y393738D01*
X402167Y395768D01*
X401736Y397899D01*
X404762D01*
X405124Y396355D01*
X405725Y394888D01*
G37*
%LPC*%G36*
X423575Y394888D02*
X422750Y393535D01*
X421722Y392328D01*
X420515Y391300D01*
X419162Y390475D01*
X417695Y389874D01*
X416151Y389512D01*
Y386486D01*
X418282Y386917D01*
X420312Y387696D01*
X422183Y388803D01*
X423843Y390207D01*
X425247Y391867D01*
X426354Y393738D01*
X427133Y395768D01*
X427564Y397899D01*
X424538D01*
X424176Y396355D01*
X423575Y394888D01*
G37*
%LPC*%G36*
X407683Y353605D02*
X406474Y355866D01*
X404848Y357848D01*
X402866Y359474D01*
X400605Y360683D01*
X398151Y361427D01*
X395600Y361678D01*
X393049Y361427D01*
X390595Y360683D01*
X388334Y359474D01*
X386352Y357848D01*
X384726Y355866D01*
X383517Y353605D01*
X382773Y351151D01*
X382522Y348600D01*
X382773Y346049D01*
X383517Y343595D01*
X384726Y341334D01*
X386352Y339352D01*
X388334Y337726D01*
X390595Y336517D01*
X393049Y335773D01*
X395600Y335522D01*
X398151Y335773D01*
X400605Y336517D01*
X402866Y337726D01*
X404848Y339352D01*
X406474Y341334D01*
X407683Y343595D01*
X408427Y346049D01*
X408678Y348600D01*
X408427Y351151D01*
X407683Y353605D01*
G37*
%LPC*%G36*
X388633Y404405D02*
X387424Y406666D01*
X385798Y408648D01*
X383816Y410274D01*
X381555Y411483D01*
X379101Y412227D01*
X376550Y412478D01*
X373999Y412227D01*
X371545Y411483D01*
X369284Y410274D01*
X367302Y408648D01*
X365676Y406666D01*
X364467Y404405D01*
X363723Y401951D01*
X363472Y399400D01*
X363723Y396849D01*
X364467Y394395D01*
X365676Y392134D01*
X367302Y390152D01*
X369284Y388526D01*
X371545Y387317D01*
X373999Y386573D01*
X376550Y386322D01*
X379101Y386573D01*
X381555Y387317D01*
X383816Y388526D01*
X385798Y390152D01*
X387424Y392134D01*
X388633Y394395D01*
X389377Y396849D01*
X389628Y399400D01*
X389377Y401951D01*
X388633Y404405D01*
G37*
%LPC*%G36*
X366425Y353112D02*
X365600Y354465D01*
X364572Y355672D01*
X363365Y356700D01*
X362012Y357525D01*
X360545Y358126D01*
X359001Y358488D01*
Y361514D01*
X361132Y361083D01*
X363162Y360304D01*
X365033Y359197D01*
X366693Y357793D01*
X368097Y356133D01*
X369204Y354262D01*
X369983Y352232D01*
X370414Y350101D01*
X367388D01*
X367026Y351645D01*
X366425Y353112D01*
G37*
%LPC*%G36*
X348575Y353112D02*
X349400Y354465D01*
X350428Y355672D01*
X351635Y356700D01*
X352988Y357525D01*
X354455Y358126D01*
X355999Y358488D01*
Y361514D01*
X353868Y361083D01*
X351838Y360304D01*
X349967Y359197D01*
X348307Y357793D01*
X346903Y356133D01*
X345796Y354262D01*
X345017Y352232D01*
X344586Y350101D01*
X347612D01*
X347974Y351645D01*
X348575Y353112D01*
G37*
%LPC*%G36*
X348575Y344088D02*
X349400Y342735D01*
X350428Y341528D01*
X351635Y340500D01*
X352988Y339675D01*
X354455Y339074D01*
X355999Y338712D01*
Y335686D01*
X353868Y336117D01*
X351838Y336896D01*
X349967Y338003D01*
X348307Y339407D01*
X346903Y341067D01*
X345796Y342938D01*
X345017Y344968D01*
X344586Y347099D01*
X347612D01*
X347974Y345555D01*
X348575Y344088D01*
G37*
%LPC*%G36*
X366425Y344088D02*
X365600Y342735D01*
X364572Y341528D01*
X363365Y340500D01*
X362012Y339675D01*
X360545Y339074D01*
X359001Y338712D01*
Y335686D01*
X361132Y336117D01*
X363162Y336896D01*
X365033Y338003D01*
X366693Y339407D01*
X368097Y341067D01*
X369204Y342938D01*
X369983Y344968D01*
X370414Y347099D01*
X367388D01*
X367026Y345555D01*
X366425Y344088D01*
G37*
%LPC*%G36*
X1414583Y353605D02*
X1413374Y355866D01*
X1411748Y357848D01*
X1409766Y359474D01*
X1407505Y360683D01*
X1405051Y361427D01*
X1402500Y361678D01*
X1399949Y361427D01*
X1397495Y360683D01*
X1395234Y359474D01*
X1393252Y357848D01*
X1391626Y355866D01*
X1390417Y353605D01*
X1389673Y351151D01*
X1389422Y348600D01*
X1389673Y346049D01*
X1390417Y343595D01*
X1391626Y341334D01*
X1393252Y339352D01*
X1395234Y337726D01*
X1397495Y336517D01*
X1399949Y335773D01*
X1402500Y335522D01*
X1405051Y335773D01*
X1407505Y336517D01*
X1409766Y337726D01*
X1411748Y339352D01*
X1413374Y341334D01*
X1414583Y343595D01*
X1415327Y346049D01*
X1415578Y348600D01*
X1415327Y351151D01*
X1414583Y353605D01*
G37*
%LPC*%G36*
X1395533Y404405D02*
X1394324Y406666D01*
X1392698Y408648D01*
X1390716Y410274D01*
X1388455Y411483D01*
X1386001Y412227D01*
X1383450Y412478D01*
X1380899Y412227D01*
X1378445Y411483D01*
X1376184Y410274D01*
X1374202Y408648D01*
X1372576Y406666D01*
X1371367Y404405D01*
X1370623Y401951D01*
X1370372Y399400D01*
X1370623Y396849D01*
X1371367Y394395D01*
X1372576Y392134D01*
X1374202Y390152D01*
X1376184Y388526D01*
X1378445Y387317D01*
X1380899Y386573D01*
X1383450Y386322D01*
X1386001Y386573D01*
X1388455Y387317D01*
X1390716Y388526D01*
X1392698Y390152D01*
X1394324Y392134D01*
X1395533Y394395D01*
X1396277Y396849D01*
X1396528Y399400D01*
X1396277Y401951D01*
X1395533Y404405D01*
G37*
%LPC*%G36*
X1376483Y353605D02*
X1375274Y355866D01*
X1373648Y357848D01*
X1371666Y359474D01*
X1369405Y360683D01*
X1366951Y361427D01*
X1364400Y361678D01*
X1361849Y361427D01*
X1359395Y360683D01*
X1357134Y359474D01*
X1355152Y357848D01*
X1353526Y355866D01*
X1352317Y353605D01*
X1351573Y351151D01*
X1351322Y348600D01*
X1351573Y346049D01*
X1352317Y343595D01*
X1353526Y341334D01*
X1355152Y339352D01*
X1357134Y337726D01*
X1359395Y336517D01*
X1361849Y335773D01*
X1364400Y335522D01*
X1366951Y335773D01*
X1369405Y336517D01*
X1371666Y337726D01*
X1373648Y339352D01*
X1375274Y341334D01*
X1376483Y343595D01*
X1377227Y346049D01*
X1377478Y348600D01*
X1377227Y351151D01*
X1376483Y353605D01*
G37*
%LPC*%G36*
X1354275Y403912D02*
X1353450Y405265D01*
X1352422Y406472D01*
X1351215Y407500D01*
X1349862Y408325D01*
X1348395Y408926D01*
X1346851Y409288D01*
Y412314D01*
X1348982Y411883D01*
X1351012Y411104D01*
X1352883Y409997D01*
X1354543Y408593D01*
X1355947Y406933D01*
X1357054Y405062D01*
X1357833Y403032D01*
X1358264Y400901D01*
X1355238D01*
X1354876Y402445D01*
X1354275Y403912D01*
G37*
%LPC*%G36*
X1336425Y403912D02*
X1337250Y405265D01*
X1338278Y406472D01*
X1339485Y407500D01*
X1340838Y408325D01*
X1342305Y408926D01*
X1343849Y409288D01*
Y412314D01*
X1341718Y411883D01*
X1339688Y411104D01*
X1337817Y409997D01*
X1336157Y408593D01*
X1334753Y406933D01*
X1333646Y405062D01*
X1332867Y403032D01*
X1332436Y400901D01*
X1335462D01*
X1335824Y402445D01*
X1336425Y403912D01*
G37*
%LPC*%G36*
X1336425Y394888D02*
X1337250Y393535D01*
X1338278Y392328D01*
X1339485Y391300D01*
X1340838Y390475D01*
X1342305Y389874D01*
X1343849Y389512D01*
Y386486D01*
X1341718Y386917D01*
X1339688Y387696D01*
X1337817Y388803D01*
X1336157Y390207D01*
X1334753Y391867D01*
X1333646Y393738D01*
X1332867Y395768D01*
X1332436Y397899D01*
X1335462D01*
X1335824Y396355D01*
X1336425Y394888D01*
G37*
%LPC*%G36*
X1354275Y394888D02*
X1353450Y393535D01*
X1352422Y392328D01*
X1351215Y391300D01*
X1349862Y390475D01*
X1348395Y389874D01*
X1346851Y389512D01*
Y386486D01*
X1348982Y386917D01*
X1351012Y387696D01*
X1352883Y388803D01*
X1354543Y390207D01*
X1355947Y391867D01*
X1357054Y393738D01*
X1357833Y395768D01*
X1358264Y397899D01*
X1355238D01*
X1354876Y396355D01*
X1354275Y394888D01*
G37*
%LPC*%G36*
X1335225Y353112D02*
X1334400Y354465D01*
X1333372Y355672D01*
X1332165Y356700D01*
X1330812Y357525D01*
X1329345Y358126D01*
X1327801Y358488D01*
Y361514D01*
X1329932Y361083D01*
X1331962Y360304D01*
X1333833Y359197D01*
X1335493Y357793D01*
X1336897Y356133D01*
X1338004Y354262D01*
X1338783Y352232D01*
X1339214Y350101D01*
X1336188D01*
X1335826Y351645D01*
X1335225Y353112D01*
G37*
%LPC*%G36*
X1317375Y353112D02*
X1318200Y354465D01*
X1319228Y355672D01*
X1320435Y356700D01*
X1321788Y357525D01*
X1323255Y358126D01*
X1324799Y358488D01*
Y361514D01*
X1322668Y361083D01*
X1320638Y360304D01*
X1318767Y359197D01*
X1317107Y357793D01*
X1315703Y356133D01*
X1314596Y354262D01*
X1313817Y352232D01*
X1313386Y350101D01*
X1316412D01*
X1316774Y351645D01*
X1317375Y353112D01*
G37*
%LPC*%G36*
X1317375Y344088D02*
X1318200Y342735D01*
X1319228Y341528D01*
X1320435Y340500D01*
X1321788Y339675D01*
X1323255Y339074D01*
X1324799Y338712D01*
Y335686D01*
X1322668Y336117D01*
X1320638Y336896D01*
X1318767Y338003D01*
X1317107Y339407D01*
X1315703Y341067D01*
X1314596Y342938D01*
X1313817Y344968D01*
X1313386Y347099D01*
X1316412D01*
X1316774Y345555D01*
X1317375Y344088D01*
G37*
%LPC*%G36*
X1335225Y344088D02*
X1334400Y342735D01*
X1333372Y341528D01*
X1332165Y340500D01*
X1330812Y339675D01*
X1329345Y339074D01*
X1327801Y338712D01*
Y335686D01*
X1329932Y336117D01*
X1331962Y336896D01*
X1333833Y338003D01*
X1335493Y339407D01*
X1336897Y341067D01*
X1338004Y342938D01*
X1338783Y344968D01*
X1339214Y347099D01*
X1336188D01*
X1335826Y345555D01*
X1335225Y344088D01*
G37*
%LPC*%G36*
X1319333Y404405D02*
X1318124Y406666D01*
X1316498Y408648D01*
X1314516Y410274D01*
X1312255Y411483D01*
X1309801Y412227D01*
X1307250Y412478D01*
X1304699Y412227D01*
X1302245Y411483D01*
X1299984Y410274D01*
X1298002Y408648D01*
X1296376Y406666D01*
X1295167Y404405D01*
X1294423Y401951D01*
X1294172Y399400D01*
X1294423Y396849D01*
X1295167Y394395D01*
X1296376Y392134D01*
X1298002Y390152D01*
X1299984Y388526D01*
X1302245Y387317D01*
X1304699Y386573D01*
X1307250Y386322D01*
X1309801Y386573D01*
X1312255Y387317D01*
X1314516Y388526D01*
X1316498Y390152D01*
X1318124Y392134D01*
X1319333Y394395D01*
X1320077Y396849D01*
X1320328Y399400D01*
X1320077Y401951D01*
X1319333Y404405D01*
G37*
%LPC*%G36*
X1300283Y353605D02*
X1299074Y355866D01*
X1297448Y357848D01*
X1295466Y359474D01*
X1293205Y360683D01*
X1290751Y361427D01*
X1288200Y361678D01*
X1285649Y361427D01*
X1283195Y360683D01*
X1280934Y359474D01*
X1278952Y357848D01*
X1277326Y355866D01*
X1276117Y353605D01*
X1275373Y351151D01*
X1275122Y348600D01*
X1275373Y346049D01*
X1276117Y343595D01*
X1277326Y341334D01*
X1278952Y339352D01*
X1280934Y337726D01*
X1283195Y336517D01*
X1285649Y335773D01*
X1288200Y335522D01*
X1290751Y335773D01*
X1293205Y336517D01*
X1295466Y337726D01*
X1297448Y339352D01*
X1299074Y341334D01*
X1300283Y343595D01*
X1301027Y346049D01*
X1301278Y348600D01*
X1301027Y351151D01*
X1300283Y353605D01*
G37*
%LPC*%G36*
X1281233Y404405D02*
X1280024Y406666D01*
X1278398Y408648D01*
X1276416Y410274D01*
X1274155Y411483D01*
X1271701Y412227D01*
X1269150Y412478D01*
X1266599Y412227D01*
X1264145Y411483D01*
X1261884Y410274D01*
X1259902Y408648D01*
X1258276Y406666D01*
X1257067Y404405D01*
X1256323Y401951D01*
X1256072Y399400D01*
X1256323Y396849D01*
X1257067Y394395D01*
X1258276Y392134D01*
X1259902Y390152D01*
X1261884Y388526D01*
X1264145Y387317D01*
X1266599Y386573D01*
X1269150Y386322D01*
X1271701Y386573D01*
X1274155Y387317D01*
X1276416Y388526D01*
X1278398Y390152D01*
X1280024Y392134D01*
X1281233Y394395D01*
X1281977Y396849D01*
X1282228Y399400D01*
X1281977Y401951D01*
X1281233Y404405D01*
G37*
%LPC*%G36*
X1259025Y353112D02*
X1258200Y354465D01*
X1257172Y355672D01*
X1255965Y356700D01*
X1254612Y357525D01*
X1253145Y358126D01*
X1251601Y358488D01*
Y361514D01*
X1253732Y361083D01*
X1255762Y360304D01*
X1257633Y359197D01*
X1259293Y357793D01*
X1260697Y356133D01*
X1261804Y354262D01*
X1262583Y352232D01*
X1263014Y350101D01*
X1259988D01*
X1259626Y351645D01*
X1259025Y353112D01*
G37*
%LPC*%G36*
X1241175Y353112D02*
X1242000Y354465D01*
X1243028Y355672D01*
X1244235Y356700D01*
X1245588Y357525D01*
X1247055Y358126D01*
X1248599Y358488D01*
Y361514D01*
X1246468Y361083D01*
X1244438Y360304D01*
X1242567Y359197D01*
X1240907Y357793D01*
X1239503Y356133D01*
X1238396Y354262D01*
X1237617Y352232D01*
X1237186Y350101D01*
X1240212D01*
X1240574Y351645D01*
X1241175Y353112D01*
G37*
%LPC*%G36*
X1241175Y344088D02*
X1242000Y342735D01*
X1243028Y341528D01*
X1244235Y340500D01*
X1245588Y339675D01*
X1247055Y339074D01*
X1248599Y338712D01*
Y335686D01*
X1246468Y336117D01*
X1244438Y336896D01*
X1242567Y338003D01*
X1240907Y339407D01*
X1239503Y341067D01*
X1238396Y342938D01*
X1237617Y344968D01*
X1237186Y347099D01*
X1240212D01*
X1240574Y345555D01*
X1241175Y344088D01*
G37*
%LPC*%G36*
X1259025Y344088D02*
X1258200Y342735D01*
X1257172Y341528D01*
X1255965Y340500D01*
X1254612Y339675D01*
X1253145Y339074D01*
X1251601Y338712D01*
Y335686D01*
X1253732Y336117D01*
X1255762Y336896D01*
X1257633Y338003D01*
X1259293Y339407D01*
X1260697Y341067D01*
X1261804Y342938D01*
X1262583Y344968D01*
X1263014Y347099D01*
X1259988D01*
X1259626Y345555D01*
X1259025Y344088D01*
G37*
%LPC*%G36*
X1243133Y404405D02*
X1241924Y406666D01*
X1240298Y408648D01*
X1238316Y410274D01*
X1236055Y411483D01*
X1233601Y412227D01*
X1231050Y412478D01*
X1228499Y412227D01*
X1226045Y411483D01*
X1223784Y410274D01*
X1221802Y408648D01*
X1220176Y406666D01*
X1218967Y404405D01*
X1218223Y401951D01*
X1217972Y399400D01*
X1218223Y396849D01*
X1218967Y394395D01*
X1220176Y392134D01*
X1221802Y390152D01*
X1223784Y388526D01*
X1226045Y387317D01*
X1228499Y386573D01*
X1231050Y386322D01*
X1233601Y386573D01*
X1236055Y387317D01*
X1238316Y388526D01*
X1240298Y390152D01*
X1241924Y392134D01*
X1243133Y394395D01*
X1243877Y396849D01*
X1244128Y399400D01*
X1243877Y401951D01*
X1243133Y404405D01*
G37*
%LPC*%G36*
X1224083Y353605D02*
X1222874Y355866D01*
X1221248Y357848D01*
X1219266Y359474D01*
X1217005Y360683D01*
X1214551Y361427D01*
X1212000Y361678D01*
X1209449Y361427D01*
X1206995Y360683D01*
X1204734Y359474D01*
X1202752Y357848D01*
X1201126Y355866D01*
X1199917Y353605D01*
X1199173Y351151D01*
X1198922Y348600D01*
X1199173Y346049D01*
X1199917Y343595D01*
X1201126Y341334D01*
X1202752Y339352D01*
X1204734Y337726D01*
X1206995Y336517D01*
X1209449Y335773D01*
X1212000Y335522D01*
X1214551Y335773D01*
X1217005Y336517D01*
X1219266Y337726D01*
X1221248Y339352D01*
X1222874Y341334D01*
X1224083Y343595D01*
X1224827Y346049D01*
X1225078Y348600D01*
X1224827Y351151D01*
X1224083Y353605D01*
G37*
%LPC*%G36*
X1205033Y404405D02*
X1203824Y406666D01*
X1202198Y408648D01*
X1200216Y410274D01*
X1197955Y411483D01*
X1195501Y412227D01*
X1192950Y412478D01*
X1190399Y412227D01*
X1187945Y411483D01*
X1185684Y410274D01*
X1183702Y408648D01*
X1182076Y406666D01*
X1180867Y404405D01*
X1180123Y401951D01*
X1179872Y399400D01*
X1180123Y396849D01*
X1180867Y394395D01*
X1182076Y392134D01*
X1183702Y390152D01*
X1185684Y388526D01*
X1187945Y387317D01*
X1190399Y386573D01*
X1192950Y386322D01*
X1195501Y386573D01*
X1197955Y387317D01*
X1200216Y388526D01*
X1202198Y390152D01*
X1203824Y392134D01*
X1205033Y394395D01*
X1205777Y396849D01*
X1206028Y399400D01*
X1205777Y401951D01*
X1205033Y404405D01*
G37*
%LPC*%G36*
X1182825Y353112D02*
X1182000Y354465D01*
X1180972Y355672D01*
X1179765Y356700D01*
X1178412Y357525D01*
X1176945Y358126D01*
X1175401Y358488D01*
Y361514D01*
X1177532Y361083D01*
X1179562Y360304D01*
X1181433Y359197D01*
X1183093Y357793D01*
X1184497Y356133D01*
X1185604Y354262D01*
X1186383Y352232D01*
X1186814Y350101D01*
X1183788D01*
X1183426Y351645D01*
X1182825Y353112D01*
G37*
%LPC*%G36*
X1164975Y353112D02*
X1165800Y354465D01*
X1166828Y355672D01*
X1168035Y356700D01*
X1169388Y357525D01*
X1170855Y358126D01*
X1172399Y358488D01*
Y361514D01*
X1170268Y361083D01*
X1168238Y360304D01*
X1166367Y359197D01*
X1164707Y357793D01*
X1163303Y356133D01*
X1162196Y354262D01*
X1161417Y352232D01*
X1160986Y350101D01*
X1164012D01*
X1164374Y351645D01*
X1164975Y353112D01*
G37*
%LPC*%G36*
X1164975Y344088D02*
X1165800Y342735D01*
X1166828Y341528D01*
X1168035Y340500D01*
X1169388Y339675D01*
X1170855Y339074D01*
X1172399Y338712D01*
Y335686D01*
X1170268Y336117D01*
X1168238Y336896D01*
X1166367Y338003D01*
X1164707Y339407D01*
X1163303Y341067D01*
X1162196Y342938D01*
X1161417Y344968D01*
X1160986Y347099D01*
X1164012D01*
X1164374Y345555D01*
X1164975Y344088D01*
G37*
%LPC*%G36*
X1182825Y344088D02*
X1182000Y342735D01*
X1180972Y341528D01*
X1179765Y340500D01*
X1178412Y339675D01*
X1176945Y339074D01*
X1175401Y338712D01*
Y335686D01*
X1177532Y336117D01*
X1179562Y336896D01*
X1181433Y338003D01*
X1183093Y339407D01*
X1184497Y341067D01*
X1185604Y342938D01*
X1186383Y344968D01*
X1186814Y347099D01*
X1183788D01*
X1183426Y345555D01*
X1182825Y344088D01*
G37*
%LPC*%G36*
X1166933Y404405D02*
X1165724Y406666D01*
X1164098Y408648D01*
X1162116Y410274D01*
X1159855Y411483D01*
X1157401Y412227D01*
X1154850Y412478D01*
X1152299Y412227D01*
X1149845Y411483D01*
X1147584Y410274D01*
X1145602Y408648D01*
X1143976Y406666D01*
X1142767Y404405D01*
X1142023Y401951D01*
X1141772Y399400D01*
X1142023Y396849D01*
X1142767Y394395D01*
X1143976Y392134D01*
X1145602Y390152D01*
X1147584Y388526D01*
X1149845Y387317D01*
X1152299Y386573D01*
X1154850Y386322D01*
X1157401Y386573D01*
X1159855Y387317D01*
X1162116Y388526D01*
X1164098Y390152D01*
X1165724Y392134D01*
X1166933Y394395D01*
X1167677Y396849D01*
X1167928Y399400D01*
X1167677Y401951D01*
X1166933Y404405D01*
G37*
%LPC*%G36*
X1147883Y353605D02*
X1146674Y355866D01*
X1145048Y357848D01*
X1143066Y359474D01*
X1140805Y360683D01*
X1138351Y361427D01*
X1135800Y361678D01*
X1133249Y361427D01*
X1130795Y360683D01*
X1128534Y359474D01*
X1126552Y357848D01*
X1124926Y355866D01*
X1123717Y353605D01*
X1122973Y351151D01*
X1122722Y348600D01*
X1122973Y346049D01*
X1123717Y343595D01*
X1124926Y341334D01*
X1126552Y339352D01*
X1128534Y337726D01*
X1130795Y336517D01*
X1133249Y335773D01*
X1135800Y335522D01*
X1138351Y335773D01*
X1140805Y336517D01*
X1143066Y337726D01*
X1145048Y339352D01*
X1146674Y341334D01*
X1147883Y343595D01*
X1148627Y346049D01*
X1148878Y348600D01*
X1148627Y351151D01*
X1147883Y353605D01*
G37*
%LPC*%G36*
X1128833Y404405D02*
X1127624Y406666D01*
X1125998Y408648D01*
X1124016Y410274D01*
X1121755Y411483D01*
X1119301Y412227D01*
X1116750Y412478D01*
X1114199Y412227D01*
X1111745Y411483D01*
X1109484Y410274D01*
X1107502Y408648D01*
X1105876Y406666D01*
X1104667Y404405D01*
X1103923Y401951D01*
X1103672Y399400D01*
X1103923Y396849D01*
X1104667Y394395D01*
X1105876Y392134D01*
X1107502Y390152D01*
X1109484Y388526D01*
X1111745Y387317D01*
X1114199Y386573D01*
X1116750Y386322D01*
X1119301Y386573D01*
X1121755Y387317D01*
X1124016Y388526D01*
X1125998Y390152D01*
X1127624Y392134D01*
X1128833Y394395D01*
X1129577Y396849D01*
X1129828Y399400D01*
X1129577Y401951D01*
X1128833Y404405D01*
G37*
%LPC*%G36*
X1106625Y353112D02*
X1105800Y354465D01*
X1104772Y355672D01*
X1103565Y356700D01*
X1102212Y357525D01*
X1100745Y358126D01*
X1099201Y358488D01*
Y361514D01*
X1101332Y361083D01*
X1103362Y360304D01*
X1105233Y359197D01*
X1106893Y357793D01*
X1108297Y356133D01*
X1109404Y354262D01*
X1110183Y352232D01*
X1110614Y350101D01*
X1107588D01*
X1107226Y351645D01*
X1106625Y353112D01*
G37*
%LPC*%G36*
X1088775Y353112D02*
X1089600Y354465D01*
X1090628Y355672D01*
X1091835Y356700D01*
X1093188Y357525D01*
X1094655Y358126D01*
X1096199Y358488D01*
Y361514D01*
X1094068Y361083D01*
X1092038Y360304D01*
X1090167Y359197D01*
X1088507Y357793D01*
X1087103Y356133D01*
X1085996Y354262D01*
X1085217Y352232D01*
X1084786Y350101D01*
X1087812D01*
X1088174Y351645D01*
X1088775Y353112D01*
G37*
%LPC*%G36*
X1088775Y344088D02*
X1089600Y342735D01*
X1090628Y341528D01*
X1091835Y340500D01*
X1093188Y339675D01*
X1094655Y339074D01*
X1096199Y338712D01*
Y335686D01*
X1094068Y336117D01*
X1092038Y336896D01*
X1090167Y338003D01*
X1088507Y339407D01*
X1087103Y341067D01*
X1085996Y342938D01*
X1085217Y344968D01*
X1084786Y347099D01*
X1087812D01*
X1088174Y345555D01*
X1088775Y344088D01*
G37*
%LPC*%G36*
X1106625Y344088D02*
X1105800Y342735D01*
X1104772Y341528D01*
X1103565Y340500D01*
X1102212Y339675D01*
X1100745Y339074D01*
X1099201Y338712D01*
Y335686D01*
X1101332Y336117D01*
X1103362Y336896D01*
X1105233Y338003D01*
X1106893Y339407D01*
X1108297Y341067D01*
X1109404Y342938D01*
X1110183Y344968D01*
X1110614Y347099D01*
X1107588D01*
X1107226Y345555D01*
X1106625Y344088D01*
G37*
%LPC*%G36*
X1087575Y403912D02*
X1086750Y405265D01*
X1085722Y406472D01*
X1084515Y407500D01*
X1083162Y408325D01*
X1081695Y408926D01*
X1080151Y409288D01*
Y412314D01*
X1082282Y411883D01*
X1084312Y411104D01*
X1086183Y409997D01*
X1087843Y408593D01*
X1089247Y406933D01*
X1090354Y405062D01*
X1091133Y403032D01*
X1091564Y400901D01*
X1088538D01*
X1088176Y402445D01*
X1087575Y403912D01*
G37*
%LPC*%G36*
X1069725Y403912D02*
X1070550Y405265D01*
X1071578Y406472D01*
X1072785Y407500D01*
X1074138Y408325D01*
X1075605Y408926D01*
X1077149Y409288D01*
Y412314D01*
X1075018Y411883D01*
X1072988Y411104D01*
X1071117Y409997D01*
X1069457Y408593D01*
X1068053Y406933D01*
X1066946Y405062D01*
X1066167Y403032D01*
X1065736Y400901D01*
X1068762D01*
X1069124Y402445D01*
X1069725Y403912D01*
G37*
%LPC*%G36*
X1069725Y394888D02*
X1070550Y393535D01*
X1071578Y392328D01*
X1072785Y391300D01*
X1074138Y390475D01*
X1075605Y389874D01*
X1077149Y389512D01*
Y386486D01*
X1075018Y386917D01*
X1072988Y387696D01*
X1071117Y388803D01*
X1069457Y390207D01*
X1068053Y391867D01*
X1066946Y393738D01*
X1066167Y395768D01*
X1065736Y397899D01*
X1068762D01*
X1069124Y396355D01*
X1069725Y394888D01*
G37*
%LPC*%G36*
X1087575Y394888D02*
X1086750Y393535D01*
X1085722Y392328D01*
X1084515Y391300D01*
X1083162Y390475D01*
X1081695Y389874D01*
X1080151Y389512D01*
Y386486D01*
X1082282Y386917D01*
X1084312Y387696D01*
X1086183Y388803D01*
X1087843Y390207D01*
X1089247Y391867D01*
X1090354Y393738D01*
X1091133Y395768D01*
X1091564Y397899D01*
X1088538D01*
X1088176Y396355D01*
X1087575Y394888D01*
G37*
%LPC*%G36*
X1071683Y353605D02*
X1070474Y355866D01*
X1068848Y357848D01*
X1066866Y359474D01*
X1064605Y360683D01*
X1062151Y361427D01*
X1059600Y361678D01*
X1057049Y361427D01*
X1054595Y360683D01*
X1052334Y359474D01*
X1050352Y357848D01*
X1048726Y355866D01*
X1047517Y353605D01*
X1046773Y351151D01*
X1046522Y348600D01*
X1046773Y346049D01*
X1047517Y343595D01*
X1048726Y341334D01*
X1050352Y339352D01*
X1052334Y337726D01*
X1054595Y336517D01*
X1057049Y335773D01*
X1059600Y335522D01*
X1062151Y335773D01*
X1064605Y336517D01*
X1066866Y337726D01*
X1068848Y339352D01*
X1070474Y341334D01*
X1071683Y343595D01*
X1072427Y346049D01*
X1072678Y348600D01*
X1072427Y351151D01*
X1071683Y353605D01*
G37*
%LPC*%G36*
X1052633Y404405D02*
X1051424Y406666D01*
X1049798Y408648D01*
X1047816Y410274D01*
X1045555Y411483D01*
X1043101Y412227D01*
X1040550Y412478D01*
X1037999Y412227D01*
X1035545Y411483D01*
X1033284Y410274D01*
X1031302Y408648D01*
X1029676Y406666D01*
X1028467Y404405D01*
X1027723Y401951D01*
X1027472Y399400D01*
X1027723Y396849D01*
X1028467Y394395D01*
X1029676Y392134D01*
X1031302Y390152D01*
X1033284Y388526D01*
X1035545Y387317D01*
X1037999Y386573D01*
X1040550Y386322D01*
X1043101Y386573D01*
X1045555Y387317D01*
X1047816Y388526D01*
X1049798Y390152D01*
X1051424Y392134D01*
X1052633Y394395D01*
X1053377Y396849D01*
X1053628Y399400D01*
X1053377Y401951D01*
X1052633Y404405D01*
G37*
%LPC*%G36*
X1030425Y353112D02*
X1029600Y354465D01*
X1028572Y355672D01*
X1027365Y356700D01*
X1026012Y357525D01*
X1024545Y358126D01*
X1023001Y358488D01*
Y361514D01*
X1025132Y361083D01*
X1027162Y360304D01*
X1029033Y359197D01*
X1030693Y357793D01*
X1032097Y356133D01*
X1033204Y354262D01*
X1033983Y352232D01*
X1034414Y350101D01*
X1031388D01*
X1031026Y351645D01*
X1030425Y353112D01*
G37*
%LPC*%G36*
X1012575Y353112D02*
X1013400Y354465D01*
X1014428Y355672D01*
X1015635Y356700D01*
X1016988Y357525D01*
X1018455Y358126D01*
X1019999Y358488D01*
Y361514D01*
X1017868Y361083D01*
X1015838Y360304D01*
X1013967Y359197D01*
X1012307Y357793D01*
X1010903Y356133D01*
X1009796Y354262D01*
X1009017Y352232D01*
X1008586Y350101D01*
X1011612D01*
X1011974Y351645D01*
X1012575Y353112D01*
G37*
%LPC*%G36*
X1012575Y344088D02*
X1013400Y342735D01*
X1014428Y341528D01*
X1015635Y340500D01*
X1016988Y339675D01*
X1018455Y339074D01*
X1019999Y338712D01*
Y335686D01*
X1017868Y336117D01*
X1015838Y336896D01*
X1013967Y338003D01*
X1012307Y339407D01*
X1010903Y341067D01*
X1009796Y342938D01*
X1009017Y344968D01*
X1008586Y347099D01*
X1011612D01*
X1011974Y345555D01*
X1012575Y344088D01*
G37*
%LPC*%G36*
X1030425Y344088D02*
X1029600Y342735D01*
X1028572Y341528D01*
X1027365Y340500D01*
X1026012Y339675D01*
X1024545Y339074D01*
X1023001Y338712D01*
Y335686D01*
X1025132Y336117D01*
X1027162Y336896D01*
X1029033Y338003D01*
X1030693Y339407D01*
X1032097Y341067D01*
X1033204Y342938D01*
X1033983Y344968D01*
X1034414Y347099D01*
X1031388D01*
X1031026Y345555D01*
X1030425Y344088D01*
G37*
%LPC*%G36*
X766583Y545005D02*
X765374Y547266D01*
X763748Y549248D01*
X761766Y550874D01*
X759505Y552083D01*
X757051Y552827D01*
X754500Y553078D01*
X751949Y552827D01*
X749495Y552083D01*
X747234Y550874D01*
X745252Y549248D01*
X743626Y547266D01*
X742417Y545005D01*
X741673Y542551D01*
X741422Y540000D01*
X741673Y537449D01*
X742417Y534995D01*
X743626Y532734D01*
X745252Y530752D01*
X747234Y529126D01*
X749495Y527917D01*
X751949Y527173D01*
X754500Y526922D01*
X757051Y527173D01*
X759505Y527917D01*
X761766Y529126D01*
X763748Y530752D01*
X765374Y532734D01*
X766583Y534995D01*
X767327Y537449D01*
X767578Y540000D01*
X767327Y542551D01*
X766583Y545005D01*
G37*
%LPC*%G36*
X766583Y625005D02*
X765374Y627266D01*
X763748Y629248D01*
X761766Y630874D01*
X759505Y632083D01*
X757051Y632827D01*
X754500Y633078D01*
X751949Y632827D01*
X749495Y632083D01*
X747234Y630874D01*
X745252Y629248D01*
X743626Y627266D01*
X742417Y625005D01*
X741673Y622551D01*
X741422Y620000D01*
X741673Y617449D01*
X742417Y614995D01*
X743626Y612734D01*
X745252Y610752D01*
X747234Y609126D01*
X749495Y607917D01*
X751949Y607173D01*
X754500Y606922D01*
X757051Y607173D01*
X759505Y607917D01*
X761766Y609126D01*
X763748Y610752D01*
X765374Y612734D01*
X766583Y614995D01*
X767327Y617449D01*
X767578Y620000D01*
X767327Y622551D01*
X766583Y625005D01*
G37*
%LPC*%G36*
X801583Y560005D02*
X800374Y562266D01*
X798748Y564248D01*
X796766Y565874D01*
X794505Y567083D01*
X792051Y567827D01*
X789500Y568078D01*
X786949Y567827D01*
X784495Y567083D01*
X782234Y565874D01*
X780252Y564248D01*
X778626Y562266D01*
X777417Y560005D01*
X776673Y557551D01*
X776422Y555000D01*
X776673Y552449D01*
X777417Y549995D01*
X778626Y547734D01*
X780252Y545752D01*
X782234Y544126D01*
X784495Y542917D01*
X786949Y542173D01*
X789500Y541922D01*
X792051Y542173D01*
X794505Y542917D01*
X796766Y544126D01*
X798748Y545752D01*
X800374Y547734D01*
X801583Y549995D01*
X802327Y552449D01*
X802578Y555000D01*
X802327Y557551D01*
X801583Y560005D01*
G37*
%LPC*%G36*
X801583Y610005D02*
X800374Y612266D01*
X798748Y614248D01*
X796766Y615874D01*
X794505Y617083D01*
X792051Y617827D01*
X789500Y618078D01*
X786949Y617827D01*
X784495Y617083D01*
X782234Y615874D01*
X780252Y614248D01*
X778626Y612266D01*
X777417Y610005D01*
X776673Y607551D01*
X776422Y605000D01*
X776673Y602449D01*
X777417Y599995D01*
X778626Y597734D01*
X780252Y595752D01*
X782234Y594126D01*
X784495Y592917D01*
X786949Y592173D01*
X789500Y591922D01*
X792051Y592173D01*
X794505Y592917D01*
X796766Y594126D01*
X798748Y595752D01*
X800374Y597734D01*
X801583Y599995D01*
X802327Y602449D01*
X802578Y605000D01*
X802327Y607551D01*
X801583Y610005D01*
G37*
%LPC*%G36*
X755425Y584512D02*
X754600Y585865D01*
X753572Y587072D01*
X752365Y588100D01*
X751012Y588925D01*
X749545Y589526D01*
X748001Y589888D01*
Y592914D01*
X750132Y592483D01*
X752162Y591704D01*
X754033Y590597D01*
X755693Y589193D01*
X757097Y587533D01*
X758204Y585662D01*
X758983Y583632D01*
X759414Y581501D01*
X756388D01*
X756026Y583045D01*
X755425Y584512D01*
G37*
%LPC*%G36*
X737575Y584512D02*
X738400Y585865D01*
X739428Y587072D01*
X740635Y588100D01*
X741988Y588925D01*
X743455Y589526D01*
X744999Y589888D01*
Y592914D01*
X742868Y592483D01*
X740838Y591704D01*
X738967Y590597D01*
X737307Y589193D01*
X735903Y587533D01*
X734796Y585662D01*
X734017Y583632D01*
X733586Y581501D01*
X736612D01*
X736974Y583045D01*
X737575Y584512D01*
G37*
%LPC*%G36*
X737575Y575488D02*
X738400Y574135D01*
X739428Y572928D01*
X740635Y571900D01*
X741988Y571075D01*
X743455Y570474D01*
X744999Y570112D01*
Y567086D01*
X742868Y567517D01*
X740838Y568296D01*
X738967Y569403D01*
X737307Y570807D01*
X735903Y572467D01*
X734796Y574338D01*
X734017Y576368D01*
X733586Y578499D01*
X736612D01*
X736974Y576955D01*
X737575Y575488D01*
G37*
%LPC*%G36*
X755425Y575488D02*
X754600Y574135D01*
X753572Y572928D01*
X752365Y571900D01*
X751012Y571075D01*
X749545Y570474D01*
X748001Y570112D01*
Y567086D01*
X750132Y567517D01*
X752162Y568296D01*
X754033Y569403D01*
X755693Y570807D01*
X757097Y572467D01*
X758204Y574338D01*
X758983Y576368D01*
X759414Y578499D01*
X756388D01*
X756026Y576955D01*
X755425Y575488D01*
G37*
%LPC*%G36*
X803998Y586498D02*
X801017Y588490D01*
X797500Y589189D01*
X793983Y588490D01*
X791002Y586498D01*
X789010Y583517D01*
X788311Y580000D01*
X789010Y576483D01*
X791002Y573502D01*
X793983Y571510D01*
X797500Y570811D01*
X801017Y571510D01*
X803998Y573502D01*
X805990Y576483D01*
X806689Y580000D01*
X805990Y583517D01*
X803998Y586498D01*
G37*
%LPC*%G36*
X502583Y545005D02*
X501374Y547266D01*
X499748Y549248D01*
X497766Y550874D01*
X495505Y552083D01*
X493051Y552827D01*
X490500Y553078D01*
X487949Y552827D01*
X485495Y552083D01*
X483234Y550874D01*
X481252Y549248D01*
X479626Y547266D01*
X478417Y545005D01*
X477673Y542551D01*
X477422Y540000D01*
X477673Y537449D01*
X478417Y534995D01*
X479626Y532734D01*
X481252Y530752D01*
X483234Y529126D01*
X485495Y527917D01*
X487949Y527173D01*
X490500Y526922D01*
X493051Y527173D01*
X495505Y527917D01*
X497766Y529126D01*
X499748Y530752D01*
X501374Y532734D01*
X502583Y534995D01*
X503327Y537449D01*
X503578Y540000D01*
X503327Y542551D01*
X502583Y545005D01*
G37*
%LPC*%G36*
X502583Y625005D02*
X501374Y627266D01*
X499748Y629248D01*
X497766Y630874D01*
X495505Y632083D01*
X493051Y632827D01*
X490500Y633078D01*
X487949Y632827D01*
X485495Y632083D01*
X483234Y630874D01*
X481252Y629248D01*
X479626Y627266D01*
X478417Y625005D01*
X477673Y622551D01*
X477422Y620000D01*
X477673Y617449D01*
X478417Y614995D01*
X479626Y612734D01*
X481252Y610752D01*
X483234Y609126D01*
X485495Y607917D01*
X487949Y607173D01*
X490500Y606922D01*
X493051Y607173D01*
X495505Y607917D01*
X497766Y609126D01*
X499748Y610752D01*
X501374Y612734D01*
X502583Y614995D01*
X503327Y617449D01*
X503578Y620000D01*
X503327Y622551D01*
X502583Y625005D01*
G37*
%LPC*%G36*
X537583Y560005D02*
X536374Y562266D01*
X534748Y564248D01*
X532766Y565874D01*
X530505Y567083D01*
X528051Y567827D01*
X525500Y568078D01*
X522949Y567827D01*
X520495Y567083D01*
X518234Y565874D01*
X516252Y564248D01*
X514626Y562266D01*
X513417Y560005D01*
X512673Y557551D01*
X512422Y555000D01*
X512673Y552449D01*
X513417Y549995D01*
X514626Y547734D01*
X516252Y545752D01*
X518234Y544126D01*
X520495Y542917D01*
X522949Y542173D01*
X525500Y541922D01*
X528051Y542173D01*
X530505Y542917D01*
X532766Y544126D01*
X534748Y545752D01*
X536374Y547734D01*
X537583Y549995D01*
X538327Y552449D01*
X538578Y555000D01*
X538327Y557551D01*
X537583Y560005D01*
G37*
%LPC*%G36*
X537583Y610005D02*
X536374Y612266D01*
X534748Y614248D01*
X532766Y615874D01*
X530505Y617083D01*
X528051Y617827D01*
X525500Y618078D01*
X522949Y617827D01*
X520495Y617083D01*
X518234Y615874D01*
X516252Y614248D01*
X514626Y612266D01*
X513417Y610005D01*
X512673Y607551D01*
X512422Y605000D01*
X512673Y602449D01*
X513417Y599995D01*
X514626Y597734D01*
X516252Y595752D01*
X518234Y594126D01*
X520495Y592917D01*
X522949Y592173D01*
X525500Y591922D01*
X528051Y592173D01*
X530505Y592917D01*
X532766Y594126D01*
X534748Y595752D01*
X536374Y597734D01*
X537583Y599995D01*
X538327Y602449D01*
X538578Y605000D01*
X538327Y607551D01*
X537583Y610005D01*
G37*
%LPC*%G36*
X491425Y584512D02*
X490600Y585865D01*
X489572Y587072D01*
X488365Y588100D01*
X487012Y588925D01*
X485545Y589526D01*
X484001Y589888D01*
Y592914D01*
X486132Y592483D01*
X488162Y591704D01*
X490033Y590597D01*
X491693Y589193D01*
X493097Y587533D01*
X494204Y585662D01*
X494983Y583632D01*
X495414Y581501D01*
X492388D01*
X492026Y583045D01*
X491425Y584512D01*
G37*
%LPC*%G36*
X473575Y584512D02*
X474400Y585865D01*
X475428Y587072D01*
X476635Y588100D01*
X477988Y588925D01*
X479455Y589526D01*
X480999Y589888D01*
Y592914D01*
X478868Y592483D01*
X476838Y591704D01*
X474967Y590597D01*
X473307Y589193D01*
X471903Y587533D01*
X470796Y585662D01*
X470017Y583632D01*
X469586Y581501D01*
X472612D01*
X472974Y583045D01*
X473575Y584512D01*
G37*
%LPC*%G36*
X473575Y575488D02*
X474400Y574135D01*
X475428Y572928D01*
X476635Y571900D01*
X477988Y571075D01*
X479455Y570474D01*
X480999Y570112D01*
Y567086D01*
X478868Y567517D01*
X476838Y568296D01*
X474967Y569403D01*
X473307Y570807D01*
X471903Y572467D01*
X470796Y574338D01*
X470017Y576368D01*
X469586Y578499D01*
X472612D01*
X472974Y576955D01*
X473575Y575488D01*
G37*
%LPC*%G36*
X491425Y575488D02*
X490600Y574135D01*
X489572Y572928D01*
X488365Y571900D01*
X487012Y571075D01*
X485545Y570474D01*
X484001Y570112D01*
Y567086D01*
X486132Y567517D01*
X488162Y568296D01*
X490033Y569403D01*
X491693Y570807D01*
X493097Y572467D01*
X494204Y574338D01*
X494983Y576368D01*
X495414Y578499D01*
X492388D01*
X492026Y576955D01*
X491425Y575488D01*
G37*
%LPC*%G36*
X539998Y586498D02*
X537017Y588490D01*
X533500Y589189D01*
X529983Y588490D01*
X527002Y586498D01*
X525010Y583517D01*
X524311Y580000D01*
X525010Y576483D01*
X527002Y573502D01*
X529983Y571510D01*
X533500Y570811D01*
X537017Y571510D01*
X539998Y573502D01*
X541990Y576483D01*
X542689Y580000D01*
X541990Y583517D01*
X539998Y586498D01*
G37*
%LPC*%G36*
X731153Y546620D02*
X730038Y548707D01*
X728536Y550536D01*
X726707Y552038D01*
X724620Y553153D01*
X722355Y553840D01*
X720000Y554072D01*
X717645Y553840D01*
X715380Y553153D01*
X713293Y552038D01*
X711464Y550536D01*
X709962Y548707D01*
X708847Y546620D01*
X708160Y544355D01*
X707928Y542000D01*
X708160Y539645D01*
X708847Y537380D01*
X709962Y535293D01*
X711464Y533464D01*
X713293Y531962D01*
X715380Y530847D01*
X717645Y530160D01*
X720000Y529928D01*
X722355Y530160D01*
X724620Y530847D01*
X726707Y531962D01*
X728536Y533464D01*
X730038Y535293D01*
X731153Y537380D01*
X731840Y539645D01*
X732072Y542000D01*
X731840Y544355D01*
X731153Y546620D01*
G37*
%LPC*%G36*
X731153Y572020D02*
X730038Y574107D01*
X728536Y575936D01*
X726707Y577438D01*
X724620Y578553D01*
X722355Y579240D01*
X720000Y579472D01*
X717645Y579240D01*
X715380Y578553D01*
X713293Y577438D01*
X711464Y575936D01*
X709962Y574107D01*
X708847Y572020D01*
X708160Y569755D01*
X707928Y567400D01*
X708160Y565045D01*
X708847Y562780D01*
X709962Y560693D01*
X711464Y558864D01*
X713293Y557362D01*
X715380Y556247D01*
X717645Y555560D01*
X720000Y555328D01*
X722355Y555560D01*
X724620Y556247D01*
X726707Y557362D01*
X728536Y558864D01*
X730038Y560693D01*
X731153Y562780D01*
X731840Y565045D01*
X732072Y567400D01*
X731840Y569755D01*
X731153Y572020D01*
G37*
%LPC*%G36*
X731153Y597420D02*
X730038Y599507D01*
X728536Y601336D01*
X726707Y602838D01*
X724620Y603953D01*
X722355Y604640D01*
X720000Y604872D01*
X717645Y604640D01*
X715380Y603953D01*
X713293Y602838D01*
X711464Y601336D01*
X709962Y599507D01*
X708847Y597420D01*
X708160Y595155D01*
X707928Y592800D01*
X708160Y590445D01*
X708847Y588180D01*
X709962Y586093D01*
X711464Y584264D01*
X713293Y582762D01*
X715380Y581647D01*
X717645Y580960D01*
X720000Y580728D01*
X722355Y580960D01*
X724620Y581647D01*
X726707Y582762D01*
X728536Y584264D01*
X730038Y586093D01*
X731153Y588180D01*
X731840Y590445D01*
X732072Y592800D01*
X731840Y595155D01*
X731153Y597420D01*
G37*
%LPC*%G36*
X726365Y624565D02*
X724128Y626198D01*
X721501Y627075D01*
Y630107D01*
X725278Y628978D01*
X728486Y626686D01*
X730778Y623478D01*
X731907Y619701D01*
X728875D01*
X727998Y622328D01*
X726365Y624565D01*
G37*
%LPC*%G36*
X713635Y624565D02*
X715872Y626198D01*
X718499Y627075D01*
Y630107D01*
X714722Y628978D01*
X711514Y626686D01*
X709222Y623478D01*
X708093Y619701D01*
X711125D01*
X712002Y622328D01*
X713635Y624565D01*
G37*
%LPC*%G36*
X713635Y611835D02*
X715872Y610202D01*
X718499Y609325D01*
Y606293D01*
X714722Y607422D01*
X711514Y609714D01*
X709222Y612922D01*
X708093Y616699D01*
X711125D01*
X712002Y614072D01*
X713635Y611835D01*
G37*
%LPC*%G36*
X726365Y611835D02*
X724128Y610202D01*
X721501Y609325D01*
Y606293D01*
X725278Y607422D01*
X728486Y609714D01*
X730778Y612922D01*
X731907Y616699D01*
X728875D01*
X727998Y614072D01*
X726365Y611835D01*
G37*
%LPC*%G36*
X463153Y546620D02*
X462038Y548707D01*
X460536Y550536D01*
X458707Y552038D01*
X456620Y553153D01*
X454355Y553840D01*
X452000Y554072D01*
X449645Y553840D01*
X447380Y553153D01*
X445293Y552038D01*
X443464Y550536D01*
X441962Y548707D01*
X440847Y546620D01*
X440160Y544355D01*
X439928Y542000D01*
X440160Y539645D01*
X440847Y537380D01*
X441962Y535293D01*
X443464Y533464D01*
X445293Y531962D01*
X447380Y530847D01*
X449645Y530160D01*
X452000Y529928D01*
X454355Y530160D01*
X456620Y530847D01*
X458707Y531962D01*
X460536Y533464D01*
X462038Y535293D01*
X463153Y537380D01*
X463840Y539645D01*
X464072Y542000D01*
X463840Y544355D01*
X463153Y546620D01*
G37*
%LPC*%G36*
X463153Y572020D02*
X462038Y574107D01*
X460536Y575936D01*
X458707Y577438D01*
X456620Y578553D01*
X454355Y579240D01*
X452000Y579472D01*
X449645Y579240D01*
X447380Y578553D01*
X445293Y577438D01*
X443464Y575936D01*
X441962Y574107D01*
X440847Y572020D01*
X440160Y569755D01*
X439928Y567400D01*
X440160Y565045D01*
X440847Y562780D01*
X441962Y560693D01*
X443464Y558864D01*
X445293Y557362D01*
X447380Y556247D01*
X449645Y555560D01*
X452000Y555328D01*
X454355Y555560D01*
X456620Y556247D01*
X458707Y557362D01*
X460536Y558864D01*
X462038Y560693D01*
X463153Y562780D01*
X463840Y565045D01*
X464072Y567400D01*
X463840Y569755D01*
X463153Y572020D01*
G37*
%LPC*%G36*
X463153Y597420D02*
X462038Y599507D01*
X460536Y601336D01*
X458707Y602838D01*
X456620Y603953D01*
X454355Y604640D01*
X452000Y604872D01*
X449645Y604640D01*
X447380Y603953D01*
X445293Y602838D01*
X443464Y601336D01*
X441962Y599507D01*
X440847Y597420D01*
X440160Y595155D01*
X439928Y592800D01*
X440160Y590445D01*
X440847Y588180D01*
X441962Y586093D01*
X443464Y584264D01*
X445293Y582762D01*
X447380Y581647D01*
X449645Y580960D01*
X452000Y580728D01*
X454355Y580960D01*
X456620Y581647D01*
X458707Y582762D01*
X460536Y584264D01*
X462038Y586093D01*
X463153Y588180D01*
X463840Y590445D01*
X464072Y592800D01*
X463840Y595155D01*
X463153Y597420D01*
G37*
%LPC*%G36*
X458365Y624565D02*
X456128Y626198D01*
X453501Y627075D01*
Y630107D01*
X457278Y628978D01*
X460486Y626686D01*
X462778Y623478D01*
X463907Y619701D01*
X460875D01*
X459998Y622328D01*
X458365Y624565D01*
G37*
%LPC*%G36*
X445635Y624565D02*
X447872Y626198D01*
X450499Y627075D01*
Y630107D01*
X446722Y628978D01*
X443514Y626686D01*
X441222Y623478D01*
X440093Y619701D01*
X443125D01*
X444002Y622328D01*
X445635Y624565D01*
G37*
%LPC*%G36*
X445635Y611835D02*
X447872Y610202D01*
X450499Y609325D01*
Y606293D01*
X446722Y607422D01*
X443514Y609714D01*
X441222Y612922D01*
X440093Y616699D01*
X443125D01*
X444002Y614072D01*
X445635Y611835D01*
G37*
%LPC*%G36*
X458365Y611835D02*
X456128Y610202D01*
X453501Y609325D01*
Y606293D01*
X457278Y607422D01*
X460486Y609714D01*
X462778Y612922D01*
X463907Y616699D01*
X460875D01*
X459998Y614072D01*
X458365Y611835D01*
G37*
%LPC*%G36*
X575153Y622620D02*
X574038Y624707D01*
X572536Y626536D01*
X570707Y628038D01*
X568620Y629153D01*
X566355Y629840D01*
X564000Y630072D01*
X561645Y629840D01*
X559380Y629153D01*
X557293Y628038D01*
X555464Y626536D01*
X553962Y624707D01*
X552847Y622620D01*
X552160Y620355D01*
X551928Y618000D01*
X552160Y615645D01*
X552847Y613380D01*
X553962Y611293D01*
X555464Y609464D01*
X557293Y607962D01*
X559380Y606847D01*
X561645Y606160D01*
X564000Y605928D01*
X566355Y606160D01*
X568620Y606847D01*
X570707Y607962D01*
X572536Y609464D01*
X574038Y611293D01*
X575153Y613380D01*
X575840Y615645D01*
X576072Y618000D01*
X575840Y620355D01*
X575153Y622620D01*
G37*
%LPC*%G36*
X575153Y597220D02*
X574038Y599307D01*
X572536Y601136D01*
X570707Y602638D01*
X568620Y603753D01*
X566355Y604440D01*
X564000Y604672D01*
X561645Y604440D01*
X559380Y603753D01*
X557293Y602638D01*
X555464Y601136D01*
X553962Y599307D01*
X552847Y597220D01*
X552160Y594955D01*
X551928Y592600D01*
X552160Y590245D01*
X552847Y587980D01*
X553962Y585893D01*
X555464Y584064D01*
X557293Y582562D01*
X559380Y581447D01*
X561645Y580760D01*
X564000Y580528D01*
X566355Y580760D01*
X568620Y581447D01*
X570707Y582562D01*
X572536Y584064D01*
X574038Y585893D01*
X575153Y587980D01*
X575840Y590245D01*
X576072Y592600D01*
X575840Y594955D01*
X575153Y597220D01*
G37*
%LPC*%G36*
X575153Y571820D02*
X574038Y573907D01*
X572536Y575736D01*
X570707Y577238D01*
X568620Y578353D01*
X566355Y579040D01*
X564000Y579272D01*
X561645Y579040D01*
X559380Y578353D01*
X557293Y577238D01*
X555464Y575736D01*
X553962Y573907D01*
X552847Y571820D01*
X552160Y569555D01*
X551928Y567200D01*
X552160Y564845D01*
X552847Y562580D01*
X553962Y560493D01*
X555464Y558664D01*
X557293Y557162D01*
X559380Y556047D01*
X561645Y555360D01*
X564000Y555128D01*
X566355Y555360D01*
X568620Y556047D01*
X570707Y557162D01*
X572536Y558664D01*
X574038Y560493D01*
X575153Y562580D01*
X575840Y564845D01*
X576072Y567200D01*
X575840Y569555D01*
X575153Y571820D01*
G37*
%LPC*%G36*
X575153Y546420D02*
X574038Y548507D01*
X572536Y550336D01*
X570707Y551838D01*
X568620Y552953D01*
X566355Y553640D01*
X564000Y553872D01*
X561645Y553640D01*
X559380Y552953D01*
X557293Y551838D01*
X555464Y550336D01*
X553962Y548507D01*
X552847Y546420D01*
X552160Y544155D01*
X551928Y541800D01*
X552160Y539445D01*
X552847Y537180D01*
X553962Y535093D01*
X555464Y533264D01*
X557293Y531762D01*
X559380Y530647D01*
X561645Y529960D01*
X564000Y529728D01*
X566355Y529960D01*
X568620Y530647D01*
X570707Y531762D01*
X572536Y533264D01*
X574038Y535093D01*
X575153Y537180D01*
X575840Y539445D01*
X576072Y541800D01*
X575840Y544155D01*
X575153Y546420D01*
G37*
%LPC*%G36*
X913658Y910158D02*
X911745Y911571D01*
X909501Y912359D01*
Y915398D01*
X912895Y914352D01*
X915779Y912279D01*
X917852Y909395D01*
X918898Y906001D01*
X915859D01*
X915071Y908245D01*
X913658Y910158D01*
G37*
%LPC*%G36*
X902342Y910158D02*
X904255Y911571D01*
X906499Y912359D01*
Y915398D01*
X903105Y914352D01*
X900221Y912279D01*
X898148Y909395D01*
X897102Y906001D01*
X900141D01*
X900929Y908245D01*
X902342Y910158D01*
G37*
%LPC*%G36*
X902342Y898842D02*
X904255Y897429D01*
X906499Y896641D01*
Y893602D01*
X903105Y894648D01*
X900221Y896721D01*
X898148Y899605D01*
X897102Y902999D01*
X900141D01*
X900929Y900755D01*
X902342Y898842D01*
G37*
%LPC*%G36*
X913658Y898842D02*
X911745Y897429D01*
X909501Y896641D01*
Y893602D01*
X912895Y894648D01*
X915779Y896721D01*
X917852Y899605D01*
X918898Y902999D01*
X915859D01*
X915071Y900755D01*
X913658Y898842D01*
G37*
%LPC*%G36*
X918224Y883735D02*
X917201Y885648D01*
X915825Y887325D01*
X914148Y888701D01*
X912235Y889724D01*
X910159Y890353D01*
X908000Y890566D01*
X905841Y890353D01*
X903765Y889724D01*
X901852Y888701D01*
X900175Y887325D01*
X898799Y885648D01*
X897776Y883735D01*
X897147Y881659D01*
X896934Y879500D01*
X897147Y877341D01*
X897776Y875265D01*
X898799Y873352D01*
X900175Y871675D01*
X901852Y870299D01*
X903765Y869276D01*
X905841Y868647D01*
X908000Y868434D01*
X910159Y868647D01*
X912235Y869276D01*
X914148Y870299D01*
X915825Y871675D01*
X917201Y873352D01*
X918224Y875265D01*
X918853Y877341D01*
X919066Y879500D01*
X918853Y881659D01*
X918224Y883735D01*
G37*
%LPC*%G36*
X857658Y910158D02*
X855745Y911571D01*
X853501Y912359D01*
Y915398D01*
X856895Y914352D01*
X859779Y912279D01*
X861852Y909395D01*
X862898Y906001D01*
X859859D01*
X859071Y908245D01*
X857658Y910158D01*
G37*
%LPC*%G36*
X846342Y910158D02*
X848255Y911571D01*
X850499Y912359D01*
Y915398D01*
X847105Y914352D01*
X844221Y912279D01*
X842148Y909395D01*
X841102Y906001D01*
X844141D01*
X844929Y908245D01*
X846342Y910158D01*
G37*
%LPC*%G36*
X846342Y898842D02*
X848255Y897429D01*
X850499Y896641D01*
Y893602D01*
X847105Y894648D01*
X844221Y896721D01*
X842148Y899605D01*
X841102Y902999D01*
X844141D01*
X844929Y900755D01*
X846342Y898842D01*
G37*
%LPC*%G36*
X857658Y898842D02*
X855745Y897429D01*
X853501Y896641D01*
Y893602D01*
X856895Y894648D01*
X859779Y896721D01*
X861852Y899605D01*
X862898Y902999D01*
X859859D01*
X859071Y900755D01*
X857658Y898842D01*
G37*
%LPC*%G36*
X862224Y883735D02*
X861201Y885648D01*
X859825Y887325D01*
X858148Y888701D01*
X856235Y889724D01*
X854159Y890353D01*
X852000Y890566D01*
X849841Y890353D01*
X847765Y889724D01*
X845852Y888701D01*
X844175Y887325D01*
X842799Y885648D01*
X841776Y883735D01*
X841147Y881659D01*
X840934Y879500D01*
X841147Y877341D01*
X841776Y875265D01*
X842799Y873352D01*
X844175Y871675D01*
X845852Y870299D01*
X847765Y869276D01*
X849841Y868647D01*
X852000Y868434D01*
X854159Y868647D01*
X856235Y869276D01*
X858148Y870299D01*
X859825Y871675D01*
X861201Y873352D01*
X862224Y875265D01*
X862853Y877341D01*
X863066Y879500D01*
X862853Y881659D01*
X862224Y883735D01*
G37*
%LPC*%G36*
X929153Y324620D02*
X928038Y326707D01*
X926536Y328536D01*
X924707Y330038D01*
X922620Y331153D01*
X920355Y331840D01*
X918000Y332072D01*
X915645Y331840D01*
X913380Y331153D01*
X911293Y330038D01*
X909464Y328536D01*
X907962Y326707D01*
X906847Y324620D01*
X906160Y322355D01*
X905928Y320000D01*
X906160Y317645D01*
X906847Y315380D01*
X907962Y313293D01*
X909464Y311464D01*
X911293Y309962D01*
X913380Y308847D01*
X915645Y308160D01*
X918000Y307928D01*
X920355Y308160D01*
X922620Y308847D01*
X924707Y309962D01*
X926536Y311464D01*
X928038Y313293D01*
X929153Y315380D01*
X929840Y317645D01*
X930072Y320000D01*
X929840Y322355D01*
X929153Y324620D01*
G37*
%LPC*%G36*
X898965Y326365D02*
X896728Y327998D01*
X894101Y328875D01*
Y331907D01*
X897878Y330778D01*
X901086Y328486D01*
X903378Y325278D01*
X904507Y321501D01*
X901475D01*
X900598Y324128D01*
X898965Y326365D01*
G37*
%LPC*%G36*
X886235Y326365D02*
X888472Y327998D01*
X891099Y328875D01*
Y331907D01*
X887322Y330778D01*
X884114Y328486D01*
X881822Y325278D01*
X880693Y321501D01*
X883725D01*
X884602Y324128D01*
X886235Y326365D01*
G37*
%LPC*%G36*
X886235Y313635D02*
X888472Y312002D01*
X891099Y311125D01*
Y308093D01*
X887322Y309222D01*
X884114Y311514D01*
X881822Y314722D01*
X880693Y318499D01*
X883725D01*
X884602Y315872D01*
X886235Y313635D01*
G37*
%LPC*%G36*
X898965Y313635D02*
X896728Y312002D01*
X894101Y311125D01*
Y308093D01*
X897878Y309222D01*
X901086Y311514D01*
X903378Y314722D01*
X904507Y318499D01*
X901475D01*
X900598Y315872D01*
X898965Y313635D01*
G37*
%LPC*%G36*
X878353Y324620D02*
X877238Y326707D01*
X875736Y328536D01*
X873907Y330038D01*
X871820Y331153D01*
X869555Y331840D01*
X867200Y332072D01*
X864845Y331840D01*
X862580Y331153D01*
X860493Y330038D01*
X858664Y328536D01*
X857162Y326707D01*
X856047Y324620D01*
X855360Y322355D01*
X855128Y320000D01*
X855360Y317645D01*
X856047Y315380D01*
X857162Y313293D01*
X858664Y311464D01*
X860493Y309962D01*
X862580Y308847D01*
X864845Y308160D01*
X867200Y307928D01*
X869555Y308160D01*
X871820Y308847D01*
X873907Y309962D01*
X875736Y311464D01*
X877238Y313293D01*
X878353Y315380D01*
X879040Y317645D01*
X879272Y320000D01*
X879040Y322355D01*
X878353Y324620D01*
G37*
%LPC*%G36*
X852953Y324620D02*
X851838Y326707D01*
X850336Y328536D01*
X848507Y330038D01*
X846420Y331153D01*
X844155Y331840D01*
X841800Y332072D01*
X839445Y331840D01*
X837180Y331153D01*
X835093Y330038D01*
X833264Y328536D01*
X831762Y326707D01*
X830647Y324620D01*
X829960Y322355D01*
X829728Y320000D01*
X829960Y317645D01*
X830647Y315380D01*
X831762Y313293D01*
X833264Y311464D01*
X835093Y309962D01*
X837180Y308847D01*
X839445Y308160D01*
X841800Y307928D01*
X844155Y308160D01*
X846420Y308847D01*
X848507Y309962D01*
X850336Y311464D01*
X851838Y313293D01*
X852953Y315380D01*
X853640Y317645D01*
X853872Y320000D01*
X853640Y322355D01*
X852953Y324620D01*
G37*
%LPC*%G36*
X827553Y324620D02*
X826438Y326707D01*
X824936Y328536D01*
X823107Y330038D01*
X821020Y331153D01*
X818755Y331840D01*
X816400Y332072D01*
X814045Y331840D01*
X811780Y331153D01*
X809693Y330038D01*
X807864Y328536D01*
X806362Y326707D01*
X805247Y324620D01*
X804560Y322355D01*
X804328Y320000D01*
X804560Y317645D01*
X805247Y315380D01*
X806362Y313293D01*
X807864Y311464D01*
X809693Y309962D01*
X811780Y308847D01*
X814045Y308160D01*
X816400Y307928D01*
X818755Y308160D01*
X821020Y308847D01*
X823107Y309962D01*
X824936Y311464D01*
X826438Y313293D01*
X827553Y315380D01*
X828240Y317645D01*
X828472Y320000D01*
X828240Y322355D01*
X827553Y324620D01*
G37*
%LPC*%G36*
X752259Y496042D02*
X751283Y497869D01*
X749969Y499469D01*
X748369Y500783D01*
X746542Y501759D01*
X744561Y502360D01*
X742500Y502563D01*
X740439Y502360D01*
X738458Y501759D01*
X736631Y500783D01*
X735031Y499469D01*
X733717Y497869D01*
X732741Y496042D01*
X732140Y494061D01*
X731937Y492000D01*
X732140Y489939D01*
X732741Y487958D01*
X733717Y486131D01*
X735031Y484531D01*
X736631Y483217D01*
X738458Y482241D01*
X740439Y481640D01*
X742500Y481437D01*
X744561Y481640D01*
X746542Y482241D01*
X748369Y483217D01*
X749969Y484531D01*
X751283Y486131D01*
X752259Y487958D01*
X752860Y489939D01*
X753063Y492000D01*
X752860Y494061D01*
X752259Y496042D01*
G37*
%LPC*%G36*
X727259Y496042D02*
X726283Y497869D01*
X724969Y499469D01*
X723369Y500783D01*
X721542Y501759D01*
X719561Y502360D01*
X717500Y502563D01*
X715439Y502360D01*
X713458Y501759D01*
X711631Y500783D01*
X710031Y499469D01*
X708717Y497869D01*
X707741Y496042D01*
X707140Y494061D01*
X706937Y492000D01*
X707140Y489939D01*
X707741Y487958D01*
X708717Y486131D01*
X710031Y484531D01*
X711631Y483217D01*
X713458Y482241D01*
X715439Y481640D01*
X717500Y481437D01*
X719561Y481640D01*
X721542Y482241D01*
X723369Y483217D01*
X724969Y484531D01*
X726283Y486131D01*
X727259Y487958D01*
X727860Y489939D01*
X728063Y492000D01*
X727860Y494061D01*
X727259Y496042D01*
G37*
%LPC*%G36*
X822259Y496042D02*
X821283Y497869D01*
X819969Y499469D01*
X818369Y500783D01*
X816542Y501759D01*
X814561Y502360D01*
X812500Y502563D01*
X810439Y502360D01*
X808458Y501759D01*
X806631Y500783D01*
X805031Y499469D01*
X803717Y497869D01*
X802741Y496042D01*
X802140Y494061D01*
X801937Y492000D01*
X802140Y489939D01*
X802741Y487958D01*
X803717Y486131D01*
X805031Y484531D01*
X806631Y483217D01*
X808458Y482241D01*
X810439Y481640D01*
X812500Y481437D01*
X814561Y481640D01*
X816542Y482241D01*
X818369Y483217D01*
X819969Y484531D01*
X821283Y486131D01*
X822259Y487958D01*
X822860Y489939D01*
X823063Y492000D01*
X822860Y494061D01*
X822259Y496042D01*
G37*
%LPC*%G36*
X778084Y470906D02*
X779776Y469776D01*
X781546Y467126D01*
X782168Y464000D01*
X781546Y460874D01*
X779776Y458224D01*
X777126Y456454D01*
X774000Y455832D01*
X770874Y456454D01*
X768224Y458224D01*
X768000Y458560D01*
X767776Y458224D01*
X765126Y456454D01*
X762000Y455832D01*
X758874Y456454D01*
X756224Y458224D01*
X754454Y460874D01*
X753832Y464000D01*
Y484000D01*
X754454Y487126D01*
X756224Y489776D01*
X764224Y497776D01*
X766874Y499546D01*
X770000Y500168D01*
X773126Y499546D01*
X775776Y497776D01*
X777489Y495212D01*
X777741Y496042D01*
X778717Y497869D01*
X780031Y499469D01*
X781631Y500783D01*
X783458Y501759D01*
X785439Y502360D01*
X787500Y502563D01*
X789561Y502360D01*
X791542Y501759D01*
X793369Y500783D01*
X794969Y499469D01*
X796283Y497869D01*
X797259Y496042D01*
X797860Y494061D01*
X798063Y492000D01*
X797860Y489939D01*
X797259Y487958D01*
X796283Y486131D01*
X794969Y484531D01*
X793369Y483217D01*
X791542Y482241D01*
X789561Y481640D01*
X787500Y481437D01*
X785439Y481640D01*
X783458Y482241D01*
X781631Y483217D01*
X780182Y484406D01*
X778084Y482308D01*
Y470906D01*
G37*
%LPC*%G36*
X332259Y496042D02*
X331283Y497869D01*
X329969Y499469D01*
X328369Y500783D01*
X326542Y501759D01*
X324561Y502360D01*
X322500Y502563D01*
X320439Y502360D01*
X318458Y501759D01*
X316631Y500783D01*
X315031Y499469D01*
X313717Y497869D01*
X312741Y496042D01*
X312140Y494061D01*
X311937Y492000D01*
X312140Y489939D01*
X312741Y487958D01*
X313717Y486131D01*
X315031Y484531D01*
X316631Y483217D01*
X318458Y482241D01*
X320439Y481640D01*
X322500Y481437D01*
X324561Y481640D01*
X326542Y482241D01*
X328369Y483217D01*
X329969Y484531D01*
X331283Y486131D01*
X332259Y487958D01*
X332860Y489939D01*
X333063Y492000D01*
X332860Y494061D01*
X332259Y496042D01*
G37*
%LPC*%G36*
X460259Y496042D02*
X459283Y497869D01*
X457969Y499469D01*
X456369Y500783D01*
X454542Y501759D01*
X452561Y502360D01*
X450500Y502563D01*
X448439Y502360D01*
X446458Y501759D01*
X444631Y500783D01*
X443031Y499469D01*
X441717Y497869D01*
X440741Y496042D01*
X440140Y494061D01*
X439937Y492000D01*
X440140Y489939D01*
X440741Y487958D01*
X441717Y486131D01*
X443031Y484531D01*
X444631Y483217D01*
X446458Y482241D01*
X448439Y481640D01*
X450500Y481437D01*
X452561Y481640D01*
X454542Y482241D01*
X456369Y483217D01*
X457969Y484531D01*
X459283Y486131D01*
X460259Y487958D01*
X460860Y489939D01*
X461063Y492000D01*
X460860Y494061D01*
X460259Y496042D01*
G37*
%LPC*%G36*
X435259Y496042D02*
X434283Y497869D01*
X432969Y499469D01*
X431369Y500783D01*
X429542Y501759D01*
X427561Y502360D01*
X425500Y502563D01*
X423439Y502360D01*
X421458Y501759D01*
X419631Y500783D01*
X418031Y499469D01*
X416717Y497869D01*
X415741Y496042D01*
X415140Y494061D01*
X414937Y492000D01*
X415140Y489939D01*
X415741Y487958D01*
X416717Y486131D01*
X418031Y484531D01*
X419631Y483217D01*
X421458Y482241D01*
X423439Y481640D01*
X425500Y481437D01*
X427561Y481640D01*
X429542Y482241D01*
X431369Y483217D01*
X432969Y484531D01*
X434283Y486131D01*
X435259Y487958D01*
X435860Y489939D01*
X436063Y492000D01*
X435860Y494061D01*
X435259Y496042D01*
G37*
%LPC*%G36*
X530259Y496042D02*
X529283Y497869D01*
X527969Y499469D01*
X526369Y500783D01*
X524542Y501759D01*
X522561Y502360D01*
X520500Y502563D01*
X518439Y502360D01*
X516458Y501759D01*
X514631Y500783D01*
X513031Y499469D01*
X511717Y497869D01*
X510741Y496042D01*
X510140Y494061D01*
X509937Y492000D01*
X510140Y489939D01*
X510741Y487958D01*
X511717Y486131D01*
X513031Y484531D01*
X514631Y483217D01*
X516458Y482241D01*
X518439Y481640D01*
X520500Y481437D01*
X522561Y481640D01*
X524542Y482241D01*
X526369Y483217D01*
X527969Y484531D01*
X529283Y486131D01*
X530259Y487958D01*
X530860Y489939D01*
X531063Y492000D01*
X530860Y494061D01*
X530259Y496042D01*
G37*
%LPC*%G36*
X505259Y496042D02*
X504283Y497869D01*
X502969Y499469D01*
X501369Y500783D01*
X499542Y501759D01*
X497561Y502360D01*
X495500Y502563D01*
X493439Y502360D01*
X491458Y501759D01*
X489631Y500783D01*
X488031Y499469D01*
X486717Y497869D01*
X485741Y496042D01*
X485140Y494061D01*
X484937Y492000D01*
X485140Y489939D01*
X485741Y487958D01*
X486717Y486131D01*
X488031Y484531D01*
X489631Y483217D01*
X491458Y482241D01*
X493439Y481640D01*
X495500Y481437D01*
X497561Y481640D01*
X499542Y482241D01*
X501369Y483217D01*
X502969Y484531D01*
X504283Y486131D01*
X505259Y487958D01*
X505860Y489939D01*
X506063Y492000D01*
X505860Y494061D01*
X505259Y496042D01*
G37*
%LPC*%G36*
X600259Y496042D02*
X599283Y497869D01*
X597969Y499469D01*
X596369Y500783D01*
X594542Y501759D01*
X592561Y502360D01*
X590500Y502563D01*
X588439Y502360D01*
X586458Y501759D01*
X584631Y500783D01*
X583031Y499469D01*
X581717Y497869D01*
X580741Y496042D01*
X580140Y494061D01*
X579937Y492000D01*
X580140Y489939D01*
X580741Y487958D01*
X581717Y486131D01*
X583031Y484531D01*
X584631Y483217D01*
X586458Y482241D01*
X588439Y481640D01*
X590500Y481437D01*
X592561Y481640D01*
X594542Y482241D01*
X596369Y483217D01*
X597969Y484531D01*
X599283Y486131D01*
X600259Y487958D01*
X600860Y489939D01*
X601063Y492000D01*
X600860Y494061D01*
X600259Y496042D01*
G37*
%LPC*%G36*
X575259Y496042D02*
X574283Y497869D01*
X572969Y499469D01*
X571369Y500783D01*
X569542Y501759D01*
X567561Y502360D01*
X565500Y502563D01*
X563439Y502360D01*
X561458Y501759D01*
X559631Y500783D01*
X558031Y499469D01*
X556717Y497869D01*
X555741Y496042D01*
X555140Y494061D01*
X554937Y492000D01*
X555140Y489939D01*
X555741Y487958D01*
X556717Y486131D01*
X558031Y484531D01*
X559631Y483217D01*
X561458Y482241D01*
X563439Y481640D01*
X565500Y481437D01*
X567561Y481640D01*
X569542Y482241D01*
X571369Y483217D01*
X572969Y484531D01*
X574283Y486131D01*
X575259Y487958D01*
X575860Y489939D01*
X576063Y492000D01*
X575860Y494061D01*
X575259Y496042D01*
G37*
%LPC*%G36*
X560259Y672042D02*
X559283Y673869D01*
X557969Y675469D01*
X556369Y676783D01*
X554542Y677759D01*
X552561Y678360D01*
X550500Y678563D01*
X548439Y678360D01*
X546458Y677759D01*
X544631Y676783D01*
X543031Y675469D01*
X541717Y673869D01*
X540741Y672042D01*
X540140Y670061D01*
X539937Y668000D01*
X540140Y665939D01*
X540741Y663958D01*
X541717Y662131D01*
X543031Y660531D01*
X544631Y659217D01*
X546458Y658241D01*
X548439Y657640D01*
X550500Y657437D01*
X552561Y657640D01*
X554542Y658241D01*
X556369Y659217D01*
X557969Y660531D01*
X559283Y662131D01*
X560259Y663958D01*
X560860Y665939D01*
X561063Y668000D01*
X560860Y670061D01*
X560259Y672042D01*
G37*
%LPC*%G36*
X535259Y672042D02*
X534283Y673869D01*
X532969Y675469D01*
X531369Y676783D01*
X529542Y677759D01*
X527561Y678360D01*
X525500Y678563D01*
X523439Y678360D01*
X521458Y677759D01*
X519631Y676783D01*
X518031Y675469D01*
X516717Y673869D01*
X515741Y672042D01*
X515140Y670061D01*
X514937Y668000D01*
X515140Y665939D01*
X515741Y663958D01*
X516717Y662131D01*
X518031Y660531D01*
X519631Y659217D01*
X521458Y658241D01*
X523439Y657640D01*
X525500Y657437D01*
X527561Y657640D01*
X529542Y658241D01*
X531369Y659217D01*
X532969Y660531D01*
X534283Y662131D01*
X535259Y663958D01*
X535860Y665939D01*
X536063Y668000D01*
X535860Y670061D01*
X535259Y672042D01*
G37*
%LPC*%G36*
X490259Y672042D02*
X489283Y673869D01*
X487969Y675469D01*
X486369Y676783D01*
X484542Y677759D01*
X482561Y678360D01*
X480500Y678563D01*
X478439Y678360D01*
X476458Y677759D01*
X474631Y676783D01*
X473031Y675469D01*
X471717Y673869D01*
X470741Y672042D01*
X470140Y670061D01*
X469937Y668000D01*
X470140Y665939D01*
X470741Y663958D01*
X471717Y662131D01*
X473031Y660531D01*
X474631Y659217D01*
X476458Y658241D01*
X478439Y657640D01*
X480500Y657437D01*
X482561Y657640D01*
X484542Y658241D01*
X486369Y659217D01*
X487969Y660531D01*
X489283Y662131D01*
X490259Y663958D01*
X490860Y665939D01*
X491063Y668000D01*
X490860Y670061D01*
X490259Y672042D01*
G37*
%LPC*%G36*
X465259Y672042D02*
X464283Y673869D01*
X462969Y675469D01*
X461369Y676783D01*
X459542Y677759D01*
X457561Y678360D01*
X455500Y678563D01*
X453439Y678360D01*
X451458Y677759D01*
X449631Y676783D01*
X448031Y675469D01*
X446717Y673869D01*
X445741Y672042D01*
X445140Y670061D01*
X444937Y668000D01*
X445140Y665939D01*
X445741Y663958D01*
X446717Y662131D01*
X448031Y660531D01*
X449631Y659217D01*
X451458Y658241D01*
X453439Y657640D01*
X455500Y657437D01*
X457561Y657640D01*
X459542Y658241D01*
X461369Y659217D01*
X462969Y660531D01*
X464283Y662131D01*
X465259Y663958D01*
X465860Y665939D01*
X466063Y668000D01*
X465860Y670061D01*
X465259Y672042D01*
G37*
%LPC*%G36*
X962999Y602001D02*
X984499D01*
Y599001D01*
X965999D01*
Y591501D01*
X962999D01*
Y602001D01*
G37*
%LPC*%G36*
X1009001Y602001D02*
X987501D01*
Y599001D01*
X1006001D01*
Y591501D01*
X1009001D01*
Y602001D01*
G37*
%LPC*%G36*
X1009001Y577999D02*
X987501D01*
Y580999D01*
X1006001D01*
Y588499D01*
X1009001D01*
Y577999D01*
G37*
%LPC*%G36*
X962999Y577999D02*
X984499D01*
Y580999D01*
X965999D01*
Y588499D01*
X962999D01*
Y577999D01*
G37*
%LPC*%G36*
X963000Y552000D02*
X1009000D01*
Y576000D01*
X963000D01*
Y552000D01*
G37*
%LPC*%G36*
X565379Y910037D02*
X564519Y913471D01*
X563326Y916804D01*
X561813Y920004D01*
X559993Y923041D01*
X557884Y925884D01*
X555507Y928507D01*
X552884Y930884D01*
X550041Y932993D01*
X547004Y934813D01*
X543804Y936326D01*
X540471Y937519D01*
X537037Y938379D01*
X533536Y938898D01*
X530000Y939072D01*
X526464Y938898D01*
X522963Y938379D01*
X519529Y937519D01*
X516196Y936326D01*
X512996Y934813D01*
X509959Y932993D01*
X507116Y930884D01*
X504493Y928507D01*
X502116Y925884D01*
X500007Y923041D01*
X498187Y920004D01*
X496674Y916804D01*
X495481Y913471D01*
X494621Y910037D01*
X494102Y906536D01*
X493928Y903000D01*
X494102Y899464D01*
X494621Y895963D01*
X495481Y892529D01*
X496674Y889196D01*
X498187Y885996D01*
X500007Y882959D01*
X502116Y880116D01*
X504493Y877493D01*
X507116Y875116D01*
X509959Y873007D01*
X512996Y871187D01*
X516196Y869674D01*
X519529Y868481D01*
X522963Y867621D01*
X526464Y867102D01*
X530000Y866928D01*
X533536Y867102D01*
X537037Y867621D01*
X540471Y868481D01*
X543804Y869674D01*
X547004Y871187D01*
X550041Y873007D01*
X552884Y875116D01*
X555507Y877493D01*
X557884Y880116D01*
X559993Y882959D01*
X561813Y885996D01*
X563326Y889196D01*
X564519Y892529D01*
X565379Y895963D01*
X565898Y899464D01*
X566072Y903000D01*
X565898Y906536D01*
X565379Y910037D01*
G37*
%LPC*%G36*
X1265379Y910037D02*
X1264519Y913471D01*
X1263326Y916804D01*
X1261813Y920004D01*
X1259993Y923041D01*
X1257884Y925884D01*
X1255507Y928507D01*
X1252884Y930884D01*
X1250041Y932993D01*
X1247004Y934813D01*
X1243804Y936326D01*
X1240471Y937519D01*
X1237037Y938379D01*
X1233536Y938898D01*
X1230000Y939072D01*
X1226464Y938898D01*
X1222963Y938379D01*
X1219529Y937519D01*
X1216196Y936326D01*
X1212996Y934813D01*
X1209959Y932993D01*
X1207116Y930884D01*
X1204493Y928507D01*
X1202116Y925884D01*
X1200007Y923041D01*
X1198187Y920004D01*
X1196674Y916804D01*
X1195481Y913471D01*
X1194621Y910037D01*
X1194102Y906536D01*
X1193928Y903000D01*
X1194102Y899464D01*
X1194621Y895963D01*
X1195481Y892529D01*
X1196674Y889196D01*
X1198187Y885996D01*
X1200007Y882959D01*
X1202116Y880116D01*
X1204493Y877493D01*
X1207116Y875116D01*
X1209959Y873007D01*
X1212996Y871187D01*
X1216196Y869674D01*
X1219529Y868481D01*
X1222963Y867621D01*
X1226464Y867102D01*
X1230000Y866928D01*
X1233536Y867102D01*
X1237037Y867621D01*
X1240471Y868481D01*
X1243804Y869674D01*
X1247004Y871187D01*
X1250041Y873007D01*
X1252884Y875116D01*
X1255507Y877493D01*
X1257884Y880116D01*
X1259993Y882959D01*
X1261813Y885996D01*
X1263326Y889196D01*
X1264519Y892529D01*
X1265379Y895963D01*
X1265898Y899464D01*
X1266072Y903000D01*
X1265898Y906536D01*
X1265379Y910037D01*
G37*
%LPC*%G36*
X1265379Y264037D02*
X1264519Y267471D01*
X1263326Y270804D01*
X1261813Y274004D01*
X1259993Y277041D01*
X1257884Y279884D01*
X1255507Y282507D01*
X1252884Y284884D01*
X1250041Y286993D01*
X1247004Y288813D01*
X1243804Y290326D01*
X1240471Y291519D01*
X1237037Y292379D01*
X1233536Y292898D01*
X1230000Y293072D01*
X1226464Y292898D01*
X1222963Y292379D01*
X1219529Y291519D01*
X1216196Y290326D01*
X1212996Y288813D01*
X1209959Y286993D01*
X1207116Y284884D01*
X1204493Y282507D01*
X1202116Y279884D01*
X1200007Y277041D01*
X1198187Y274004D01*
X1196674Y270804D01*
X1195481Y267471D01*
X1194621Y264037D01*
X1194102Y260536D01*
X1193928Y257000D01*
X1194102Y253464D01*
X1194621Y249963D01*
X1195481Y246529D01*
X1196674Y243196D01*
X1198187Y239996D01*
X1200007Y236959D01*
X1202116Y234116D01*
X1204493Y231493D01*
X1207116Y229116D01*
X1209959Y227007D01*
X1212996Y225187D01*
X1216196Y223674D01*
X1219529Y222481D01*
X1222963Y221621D01*
X1226464Y221102D01*
X1230000Y220928D01*
X1233536Y221102D01*
X1237037Y221621D01*
X1240471Y222481D01*
X1243804Y223674D01*
X1247004Y225187D01*
X1250041Y227007D01*
X1252884Y229116D01*
X1255507Y231493D01*
X1257884Y234116D01*
X1259993Y236959D01*
X1261813Y239996D01*
X1263326Y243196D01*
X1264519Y246529D01*
X1265379Y249963D01*
X1265898Y253464D01*
X1266072Y257000D01*
X1265898Y260536D01*
X1265379Y264037D01*
G37*
%LPC*%G36*
X700930Y592120D02*
X699449Y598034D01*
X697395Y603774D01*
X694789Y609285D01*
X691654Y614514D01*
X688023Y619411D01*
X683928Y623928D01*
X679411Y628023D01*
X674514Y631654D01*
X669285Y634789D01*
X663774Y637395D01*
X658034Y639449D01*
X652120Y640930D01*
X646089Y641825D01*
X640000Y642124D01*
X633911Y641825D01*
X627880Y640930D01*
X621966Y639449D01*
X616226Y637395D01*
X610715Y634789D01*
X605486Y631654D01*
X600589Y628023D01*
X596072Y623928D01*
X591977Y619411D01*
X588346Y614514D01*
X585211Y609285D01*
X582605Y603774D01*
X580551Y598034D01*
X579070Y592120D01*
X578175Y586089D01*
X577876Y580000D01*
X578175Y573911D01*
X579070Y567880D01*
X580551Y561966D01*
X582605Y556226D01*
X585211Y550715D01*
X588346Y545486D01*
X591977Y540589D01*
X596072Y536072D01*
X600589Y531977D01*
X605486Y528346D01*
X610715Y525211D01*
X616226Y522605D01*
X621966Y520551D01*
X627880Y519070D01*
X633911Y518175D01*
X640000Y517876D01*
X646089Y518175D01*
X652120Y519070D01*
X658034Y520551D01*
X663774Y522605D01*
X669285Y525211D01*
X674514Y528346D01*
X679411Y531977D01*
X683928Y536072D01*
X688023Y540589D01*
X691654Y545486D01*
X694789Y550715D01*
X697395Y556226D01*
X699449Y561966D01*
X700930Y567880D01*
X701825Y573911D01*
X702124Y580000D01*
X701825Y586089D01*
X700930Y592120D01*
G37*
%LPC*%G36*
X867034Y379278D02*
X866389Y381853D01*
X865495Y384353D01*
X864360Y386753D01*
X862995Y389030D01*
X861413Y391163D01*
X859630Y393130D01*
X857663Y394913D01*
X855530Y396495D01*
X853253Y397860D01*
X850853Y398995D01*
X848353Y399889D01*
X845778Y400534D01*
X843152Y400924D01*
X840500Y401054D01*
X837848Y400924D01*
X835222Y400534D01*
X832647Y399889D01*
X830147Y398995D01*
X827747Y397860D01*
X825470Y396495D01*
X823337Y394913D01*
X821370Y393130D01*
X819587Y391163D01*
X818005Y389030D01*
X816640Y386753D01*
X815505Y384353D01*
X814611Y381853D01*
X813966Y379278D01*
X813576Y376652D01*
X813446Y374000D01*
X813576Y371348D01*
X813966Y368722D01*
X814611Y366147D01*
X815505Y363647D01*
X816640Y361247D01*
X818005Y358970D01*
X819587Y356837D01*
X821370Y354870D01*
X823337Y353087D01*
X825470Y351505D01*
X827747Y350140D01*
X830147Y349005D01*
X832647Y348111D01*
X835222Y347466D01*
X837848Y347076D01*
X840500Y346946D01*
X843152Y347076D01*
X845778Y347466D01*
X848353Y348111D01*
X850853Y349005D01*
X853253Y350140D01*
X855530Y351505D01*
X857663Y353087D01*
X859630Y354870D01*
X861413Y356837D01*
X862995Y358970D01*
X864360Y361247D01*
X865495Y363647D01*
X866389Y366147D01*
X867034Y368722D01*
X867424Y371348D01*
X867554Y374000D01*
X867424Y376652D01*
X867034Y379278D01*
G37*
%LPC*%G36*
X946034Y379278D02*
X945389Y381853D01*
X944495Y384353D01*
X943360Y386753D01*
X941995Y389030D01*
X940413Y391163D01*
X938630Y393130D01*
X936663Y394913D01*
X934530Y396495D01*
X932253Y397860D01*
X929853Y398995D01*
X927353Y399889D01*
X924778Y400534D01*
X922152Y400924D01*
X919500Y401054D01*
X916848Y400924D01*
X914222Y400534D01*
X911647Y399889D01*
X909147Y398995D01*
X906747Y397860D01*
X904470Y396495D01*
X902337Y394913D01*
X900370Y393130D01*
X898587Y391163D01*
X897005Y389030D01*
X895640Y386753D01*
X894505Y384353D01*
X893611Y381853D01*
X892966Y379278D01*
X892576Y376652D01*
X892446Y374000D01*
X892576Y371348D01*
X892966Y368722D01*
X893611Y366147D01*
X894505Y363647D01*
X895640Y361247D01*
X897005Y358970D01*
X898587Y356837D01*
X900370Y354870D01*
X902337Y353087D01*
X904470Y351505D01*
X906747Y350140D01*
X909147Y349005D01*
X911647Y348111D01*
X914222Y347466D01*
X916848Y347076D01*
X919500Y346946D01*
X922152Y347076D01*
X924778Y347466D01*
X927353Y348111D01*
X929853Y349005D01*
X932253Y350140D01*
X934530Y351505D01*
X936663Y353087D01*
X938630Y354870D01*
X940413Y356837D01*
X941995Y358970D01*
X943360Y361247D01*
X944495Y363647D01*
X945389Y366147D01*
X946034Y368722D01*
X946424Y371348D01*
X946554Y374000D01*
X946424Y376652D01*
X946034Y379278D01*
G37*
%LPC*%G36*
X1531034Y379278D02*
X1530389Y381853D01*
X1529495Y384353D01*
X1528360Y386753D01*
X1526995Y389030D01*
X1525413Y391163D01*
X1523630Y393130D01*
X1521663Y394913D01*
X1519530Y396495D01*
X1517253Y397860D01*
X1514853Y398995D01*
X1512353Y399889D01*
X1509778Y400534D01*
X1507152Y400924D01*
X1504500Y401054D01*
X1501848Y400924D01*
X1499222Y400534D01*
X1496647Y399889D01*
X1494147Y398995D01*
X1491747Y397860D01*
X1489470Y396495D01*
X1487337Y394913D01*
X1485370Y393130D01*
X1483587Y391163D01*
X1482005Y389030D01*
X1480640Y386753D01*
X1479505Y384353D01*
X1478611Y381853D01*
X1477966Y379278D01*
X1477576Y376652D01*
X1477446Y374000D01*
X1477576Y371348D01*
X1477966Y368722D01*
X1478611Y366147D01*
X1479505Y363647D01*
X1480640Y361247D01*
X1482005Y358970D01*
X1483587Y356837D01*
X1485370Y354870D01*
X1487337Y353087D01*
X1489470Y351505D01*
X1491747Y350140D01*
X1494147Y349005D01*
X1496647Y348111D01*
X1499222Y347466D01*
X1501848Y347076D01*
X1504500Y346946D01*
X1507152Y347076D01*
X1509778Y347466D01*
X1512353Y348111D01*
X1514853Y349005D01*
X1517253Y350140D01*
X1519530Y351505D01*
X1521663Y353087D01*
X1523630Y354870D01*
X1525413Y356837D01*
X1526995Y358970D01*
X1528360Y361247D01*
X1529495Y363647D01*
X1530389Y366147D01*
X1531034Y368722D01*
X1531424Y371348D01*
X1531554Y374000D01*
X1531424Y376652D01*
X1531034Y379278D01*
G37*
%LPC*%G36*
X1531034Y791278D02*
X1530389Y793853D01*
X1529495Y796353D01*
X1528360Y798753D01*
X1526995Y801030D01*
X1525413Y803163D01*
X1523630Y805130D01*
X1521663Y806913D01*
X1519530Y808495D01*
X1517253Y809860D01*
X1514853Y810995D01*
X1512353Y811889D01*
X1509778Y812534D01*
X1507152Y812924D01*
X1504500Y813054D01*
X1501848Y812924D01*
X1499222Y812534D01*
X1496647Y811889D01*
X1494147Y810995D01*
X1491747Y809860D01*
X1489470Y808495D01*
X1487337Y806913D01*
X1485370Y805130D01*
X1483587Y803163D01*
X1482005Y801030D01*
X1480640Y798753D01*
X1479505Y796353D01*
X1478611Y793853D01*
X1477966Y791278D01*
X1477576Y788652D01*
X1477446Y786000D01*
X1477576Y783348D01*
X1477966Y780722D01*
X1478611Y778147D01*
X1479505Y775647D01*
X1480640Y773247D01*
X1482005Y770970D01*
X1483587Y768837D01*
X1485370Y766870D01*
X1487337Y765087D01*
X1489470Y763505D01*
X1491747Y762140D01*
X1494147Y761005D01*
X1496647Y760111D01*
X1499222Y759466D01*
X1501848Y759076D01*
X1504500Y758946D01*
X1507152Y759076D01*
X1509778Y759466D01*
X1512353Y760111D01*
X1514853Y761005D01*
X1517253Y762140D01*
X1519530Y763505D01*
X1521663Y765087D01*
X1523630Y766870D01*
X1525413Y768837D01*
X1526995Y770970D01*
X1528360Y773247D01*
X1529495Y775647D01*
X1530389Y778147D01*
X1531034Y780722D01*
X1531424Y783348D01*
X1531554Y786000D01*
X1531424Y788652D01*
X1531034Y791278D01*
G37*
%LPC*%G36*
X946034Y791278D02*
X945389Y793853D01*
X944495Y796353D01*
X943360Y798753D01*
X941995Y801030D01*
X940413Y803163D01*
X938630Y805130D01*
X936663Y806913D01*
X934530Y808495D01*
X932253Y809860D01*
X929853Y810995D01*
X927353Y811889D01*
X924778Y812534D01*
X922152Y812924D01*
X919500Y813054D01*
X916848Y812924D01*
X914222Y812534D01*
X911647Y811889D01*
X909147Y810995D01*
X906747Y809860D01*
X904470Y808495D01*
X902337Y806913D01*
X900370Y805130D01*
X898587Y803163D01*
X897005Y801030D01*
X895640Y798753D01*
X894505Y796353D01*
X893611Y793853D01*
X892966Y791278D01*
X892576Y788652D01*
X892446Y786000D01*
X892576Y783348D01*
X892966Y780722D01*
X893611Y778147D01*
X894505Y775647D01*
X895640Y773247D01*
X897005Y770970D01*
X898587Y768837D01*
X900370Y766870D01*
X902337Y765087D01*
X904470Y763505D01*
X906747Y762140D01*
X909147Y761005D01*
X911647Y760111D01*
X914222Y759466D01*
X916848Y759076D01*
X919500Y758946D01*
X922152Y759076D01*
X924778Y759466D01*
X927353Y760111D01*
X929853Y761005D01*
X932253Y762140D01*
X934530Y763505D01*
X936663Y765087D01*
X938630Y766870D01*
X940413Y768837D01*
X941995Y770970D01*
X943360Y773247D01*
X944495Y775647D01*
X945389Y778147D01*
X946034Y780722D01*
X946424Y783348D01*
X946554Y786000D01*
X946424Y788652D01*
X946034Y791278D01*
G37*
%LPC*%G36*
X867034Y791278D02*
X866389Y793853D01*
X865495Y796353D01*
X864360Y798753D01*
X862995Y801030D01*
X861413Y803163D01*
X859630Y805130D01*
X857663Y806913D01*
X855530Y808495D01*
X853253Y809860D01*
X850853Y810995D01*
X848353Y811889D01*
X845778Y812534D01*
X843152Y812924D01*
X840500Y813054D01*
X837848Y812924D01*
X835222Y812534D01*
X832647Y811889D01*
X830147Y810995D01*
X827747Y809860D01*
X825470Y808495D01*
X823337Y806913D01*
X821370Y805130D01*
X819587Y803163D01*
X818005Y801030D01*
X816640Y798753D01*
X815505Y796353D01*
X814611Y793853D01*
X813966Y791278D01*
X813576Y788652D01*
X813446Y786000D01*
X813576Y783348D01*
X813966Y780722D01*
X814611Y778147D01*
X815505Y775647D01*
X816640Y773247D01*
X818005Y770970D01*
X819587Y768837D01*
X821370Y766870D01*
X823337Y765087D01*
X825470Y763505D01*
X827747Y762140D01*
X830147Y761005D01*
X832647Y760111D01*
X835222Y759466D01*
X837848Y759076D01*
X840500Y758946D01*
X843152Y759076D01*
X845778Y759466D01*
X848353Y760111D01*
X850853Y761005D01*
X853253Y762140D01*
X855530Y763505D01*
X857663Y765087D01*
X859630Y766870D01*
X861413Y768837D01*
X862995Y770970D01*
X864360Y773247D01*
X865495Y775647D01*
X866389Y778147D01*
X867034Y780722D01*
X867424Y783348D01*
X867554Y786000D01*
X867424Y788652D01*
X867034Y791278D01*
G37*
%LPC*%G36*
X282034Y791278D02*
X281389Y793853D01*
X280495Y796353D01*
X279360Y798753D01*
X277995Y801030D01*
X276413Y803163D01*
X274630Y805130D01*
X272663Y806913D01*
X270530Y808495D01*
X268253Y809860D01*
X265853Y810995D01*
X263353Y811889D01*
X260778Y812534D01*
X258152Y812924D01*
X255500Y813054D01*
X252848Y812924D01*
X250222Y812534D01*
X247647Y811889D01*
X245147Y810995D01*
X242747Y809860D01*
X240470Y808495D01*
X238337Y806913D01*
X236370Y805130D01*
X234587Y803163D01*
X233005Y801030D01*
X231640Y798753D01*
X230505Y796353D01*
X229611Y793853D01*
X228966Y791278D01*
X228576Y788652D01*
X228446Y786000D01*
X228576Y783348D01*
X228966Y780722D01*
X229611Y778147D01*
X230505Y775647D01*
X231640Y773247D01*
X233005Y770970D01*
X234587Y768837D01*
X236370Y766870D01*
X238337Y765087D01*
X240470Y763505D01*
X242747Y762140D01*
X245147Y761005D01*
X247647Y760111D01*
X250222Y759466D01*
X252848Y759076D01*
X255500Y758946D01*
X258152Y759076D01*
X260778Y759466D01*
X263353Y760111D01*
X265853Y761005D01*
X268253Y762140D01*
X270530Y763505D01*
X272663Y765087D01*
X274630Y766870D01*
X276413Y768837D01*
X277995Y770970D01*
X279360Y773247D01*
X280495Y775647D01*
X281389Y778147D01*
X282034Y780722D01*
X282424Y783348D01*
X282554Y786000D01*
X282424Y788652D01*
X282034Y791278D01*
G37*
%LPD*%
G54D200*
X414650Y399400D03*
X395600Y348600D03*
X376550Y399400D03*
X357500Y348600D03*
X414650Y811400D03*
X395600Y760600D03*
X376550Y811400D03*
X357500Y760600D03*
X643250Y811400D03*
X624200Y760600D03*
X605150Y811400D03*
X586100Y760600D03*
X567050Y811400D03*
X548000Y760600D03*
X528950Y811400D03*
X509900Y760600D03*
X490850Y811400D03*
X471800Y760600D03*
X452750Y811400D03*
X433700Y760600D03*
X490500Y620000D03*
X525500Y605000D03*
X482500Y580000D03*
X490500Y540000D03*
X525500Y555000D03*
X643250Y399400D03*
X624200Y348600D03*
X605150Y399400D03*
X586100Y348600D03*
X567050Y399400D03*
X548000Y348600D03*
X528950Y399400D03*
X509900Y348600D03*
X490850Y399400D03*
X471800Y348600D03*
X452750Y399400D03*
X433700Y348600D03*
X738500D03*
X719450Y399400D03*
X700400Y348600D03*
X681350Y399400D03*
X662300Y348600D03*
X754500Y540000D03*
X789500Y555000D03*
X746500Y580000D03*
X754500Y620000D03*
X789500Y605000D03*
X738500Y760600D03*
X719450Y811400D03*
X700400Y760600D03*
X681350Y811400D03*
X662300Y760600D03*
X1116750Y811400D03*
X1097700Y760600D03*
X1078650Y811400D03*
X1059600Y760600D03*
X1040550Y811400D03*
X1021500Y760600D03*
X1116750Y399400D03*
X1097700Y348600D03*
X1078650Y399400D03*
X1059600Y348600D03*
X1040550Y399400D03*
X1021500Y348600D03*
X1345350Y399400D03*
X1326300Y348600D03*
X1307250Y399400D03*
X1288200Y348600D03*
X1269150Y399400D03*
X1250100Y348600D03*
X1231050Y399400D03*
X1212000Y348600D03*
X1192950Y399400D03*
X1173900Y348600D03*
X1154850Y399400D03*
X1135800Y348600D03*
X1345350Y811400D03*
X1326300Y760600D03*
X1307250Y811400D03*
X1288200Y760600D03*
X1269150Y811400D03*
X1250100Y760600D03*
X1231050Y811400D03*
X1212000Y760600D03*
X1192950Y811400D03*
X1173900Y760600D03*
X1154850Y811400D03*
X1135800Y760600D03*
X1402500D03*
X1383450Y811400D03*
X1364400Y760600D03*
X1402500Y348600D03*
X1383450Y399400D03*
X1364400Y348600D03*
G54D201*
X218000Y567200D03*
Y541800D03*
X294000Y567200D03*
Y541800D03*
X218000Y618000D03*
Y592600D03*
X294000Y618000D03*
Y592600D03*
X452000Y592800D03*
Y618200D03*
X564000Y618000D03*
Y592600D03*
X452000Y542000D03*
Y567400D03*
X564000Y567200D03*
Y541800D03*
X867200Y320000D03*
X841800D03*
X816400D03*
X720000Y542000D03*
Y567400D03*
Y592800D03*
Y618200D03*
X918000Y320000D03*
X892600D03*
G54D202*
X852000Y904500D03*
Y879500D03*
X908000Y904500D03*
Y879500D03*
G54D203*
X322500Y492000D03*
X297500D03*
X550500Y668000D03*
X525500D03*
X480500D03*
X455500D03*
X450500Y492000D03*
X425500D03*
X520500D03*
X495500D03*
X590500D03*
X565500D03*
X742500D03*
X717500D03*
X812500D03*
X787500D03*
G54D400*
X986000Y590000D03*
Y564000D03*
G54D100*
X294000Y426000D02*
X330000D01*
X294000Y414000D02*
X330000D01*
X306000Y522000D02*
Y674000D01*
X310000Y520000D02*
Y678000D01*
X270000Y492000D02*
X276000D01*
Y486000D02*
X310000Y520000D01*
X262000Y484000D02*
X270000Y492000D01*
X276000D02*
X306000Y522000D01*
X300000Y680000D02*
X306000Y674000D01*
X310000Y678000D02*
X312000Y680000D01*
X438000Y424000D02*
Y444000D01*
X774000Y464000D02*
Y484000D01*
X854000Y538000D02*
X856000D01*
X782000Y492000D02*
X787500D01*
X856000Y538000D02*
X870000Y552000D01*
X774000Y484000D02*
X782000Y492000D01*
X856000Y694000D02*
X892000D01*
X856000Y706000D02*
X892000D01*
X848000Y686000D02*
X902000D01*
X842000Y692000D02*
X848000Y686000D01*
X744000Y672000D02*
X772000Y700000D01*
X754000Y662000D02*
X782000Y690000D01*
X838000Y590000D02*
X856000Y608000D01*
X872000Y722000D02*
Y754000D01*
X686000Y854000D02*
X714000D01*
X998000Y850000D02*
X1022000D01*
X1004000Y698000D02*
Y754000D01*
X990000Y702000D02*
Y754000D01*
X1080000Y694000D02*
X1100000Y714000D01*
X964000Y686000D02*
Y706000D01*
X1032000Y562000D02*
Y586000D01*
X902000Y686000D02*
X908000Y692000D01*
X1046000Y554000D02*
Y556000D01*
X1000000Y436000D02*
Y462000D01*
X918000Y578000D02*
X950000D01*
X912000Y572000D02*
X918000Y578000D01*
X1028000Y536000D02*
X1046000Y554000D01*
X948000Y412000D02*
X992000D01*
X948000Y438000D02*
X992000D01*
X948000Y424000D02*
X998000D01*
X948000Y400000D02*
X998000D01*
X1000000Y436000D02*
X1004000Y432000D01*
X998000Y424000D02*
X1000000Y422000D01*
X998000Y400000D02*
X1000000Y402000D01*
X940000Y288000D02*
X968000D01*
X940000Y300000D02*
X968000D01*
X1214000Y418000D02*
Y448000D01*
X1230000Y422000D02*
Y448000D01*
X1214000Y540000D02*
X1236000D01*
X1216000Y530000D02*
X1258000D01*
Y518000D02*
X1260000D01*
X1224000Y526000D02*
X1250000D01*
X1206000Y464000D02*
X1218000D01*
X1232000D01*
X1194000Y456000D02*
X1242000D01*
X1348000Y550000D02*
X1360000D01*
X1250000Y526000D02*
X1258000Y518000D01*
X1186000Y464000D02*
X1194000Y456000D01*
X1214000Y528000D02*
X1216000Y530000D01*
X1214000Y516000D02*
X1224000Y526000D01*
X1282000Y658000D02*
Y674000D01*
X1288000Y652000D02*
Y682000D01*
X1296000Y652000D02*
Y672000D01*
X1242000Y708000D02*
Y722000D01*
X1190000Y640000D02*
Y650000D01*
X1332000Y692000D02*
Y704000D01*
X1268000Y662000D02*
X1274000D01*
X1270000Y638000D02*
X1274000D01*
X1266000Y630000D02*
X1274000D01*
X1296000Y672000D02*
X1298000D01*
X1340000Y688000D02*
X1388000D01*
X1348000Y692000D02*
X1384000D01*
X1210000Y682000D02*
X1222000D01*
X1210000Y694000D02*
X1228000D01*
X1194000Y636000D02*
X1208000D01*
X1336000Y708000D02*
X1344000D01*
X1250000Y680000D02*
X1268000Y662000D01*
X1274000Y682000D02*
X1282000Y674000D01*
X1258000Y638000D02*
X1266000Y630000D01*
X1336000D02*
X1366000Y600000D01*
X1340000Y700000D02*
X1348000Y692000D01*
X1180000Y642000D02*
X1194000Y628000D01*
X1208000Y636000D02*
X1244000Y600000D01*
X1190000Y640000D02*
X1194000Y636000D01*
X1344000Y708000D02*
X1352000Y700000D01*
X1274000Y650000D02*
X1282000Y658000D01*
X1274000Y638000D02*
X1288000Y652000D01*
X1274000Y630000D02*
X1296000Y652000D01*
X1222000Y682000D02*
X1252000Y712000D01*
X1228000Y694000D02*
X1242000Y708000D01*
X1328000Y688000D02*
X1332000Y692000D01*
Y704000D02*
X1336000Y708000D01*
X1120000Y738000D02*
X1140000D01*
X1120000Y726000D02*
X1140000D01*
X1458000Y750000D02*
X1480000D01*
X1454000Y738000D02*
X1480000D01*
X1368000D02*
X1388000D01*
X1400000Y708000D02*
X1408000D01*
X1418000Y698000D01*
X1384000Y692000D02*
X1400000Y708000D01*
X1518000Y644000D02*
Y672000D01*
X1530000Y644000D02*
Y670000D01*
X1502000Y590000D02*
Y614000D01*
X1464000Y646000D02*
Y652000D01*
X1438000Y622000D02*
Y634000D01*
X1398000Y652000D02*
Y676000D01*
X1410000Y656000D02*
Y676000D01*
X1418000Y652000D02*
Y698000D01*
X1390000Y640000D02*
Y686000D01*
X1478000Y676000D02*
X1494000D01*
X1482000Y628000D02*
X1508000D01*
X1478000Y620000D02*
X1496000D01*
X1456000Y636000D02*
X1462000D01*
X1444000Y642000D02*
X1446000D01*
X1480000Y624000D02*
X1522000D01*
X1410000Y648000D02*
X1414000D01*
X1366000Y600000D02*
X1374000D01*
X1352000Y700000D02*
X1368000D01*
X1496000Y620000D02*
X1502000Y614000D01*
X1464000Y646000D02*
X1482000Y628000D01*
X1456000Y660000D02*
X1464000Y652000D01*
Y640000D02*
X1480000Y624000D01*
X1456000Y648000D02*
X1464000Y640000D01*
X1462000Y636000D02*
X1478000Y620000D01*
X1388000Y688000D02*
X1390000Y686000D01*
X1508000Y628000D02*
X1512000Y632000D01*
X1438000Y634000D02*
X1446000Y642000D01*
X1522000Y624000D02*
X1524000Y626000D01*
X1390000Y686000D02*
X1404000Y700000D01*
X1402000Y640000D02*
X1410000Y648000D01*
X1414000D02*
X1418000Y652000D01*
X1470000Y532000D02*
X1494000D01*
X1360000Y478000D02*
X1380000D01*
X1414000Y512000D02*
X1436000D01*
X1420000Y500000D02*
X1436000D01*
X1484000Y470000D02*
X1494000Y460000D01*
X1360000Y550000D02*
X1370000Y540000D01*
X1360000Y418000D02*
Y442000D01*
X1460000Y448000D02*
X1488000D01*
G54D101*
X232000Y524000D02*
Y578600D01*
X218000Y592600D02*
X232000Y578600D01*
X220000Y512000D02*
X232000Y524000D01*
X1214000Y704000D02*
Y732000D01*
X1380000Y700000D02*
X1396000Y716000D01*
X1368000Y700000D02*
X1380000D01*
G54D102*
X220000Y322000D02*
Y512000D01*
X312000Y242000D02*
Y288000D01*
X326000Y228000D02*
X464000D01*
X232000Y310000D02*
X290000D01*
X312000Y242000D02*
X326000Y228000D01*
X220000Y322000D02*
X232000Y310000D01*
X290000D02*
X312000Y288000D01*
X582000Y242000D02*
Y278000D01*
X478000Y242000D02*
Y278000D01*
X598000Y226000D02*
X774000D01*
X508000Y308000D02*
X552000D01*
X582000Y242000D02*
X598000Y226000D01*
X552000Y308000D02*
X582000Y278000D01*
X478000D02*
X508000Y308000D01*
X464000Y228000D02*
X478000Y242000D01*
G54D103*
X818000Y226000D02*
Y260000D01*
X762000Y464000D02*
Y484000D01*
X770000Y492000D01*
X908000Y228000D02*
Y260000D01*
G54D104*
X856000Y626000D02*
X916000D01*
G54D105*
X774000Y226000D02*
X898000D01*
X908000D01*
G54D204*
X348000Y280000D03*
X410000Y262000D03*
X330000Y414000D03*
Y426000D03*
X294000D03*
Y414000D03*
X276000Y484000D03*
X262000D03*
X216000Y708000D03*
X228000D03*
Y646000D03*
Y636000D03*
X312000Y680000D03*
X300000D03*
X344000Y882000D03*
X404000Y924000D03*
X444000D03*
X638000D03*
X438000Y424000D03*
Y444000D03*
X452000Y262000D03*
X634000Y264000D03*
X676000D03*
X860000Y272000D03*
X794000Y242000D03*
X814000Y272000D03*
X818000Y244000D03*
Y260000D03*
X736000Y282000D03*
X704000D03*
X770000Y492000D03*
X870000Y552000D03*
X854000Y538000D03*
X762000Y464000D03*
X774000D03*
X856000Y694000D03*
Y706000D03*
X842000Y692000D03*
X744000Y672000D03*
X754000Y662000D03*
X856000Y626000D03*
Y608000D03*
X838000Y590000D03*
X774000Y702000D03*
X784000Y692000D03*
X872000Y754000D03*
Y722000D03*
X680000Y924000D03*
X686000Y854000D03*
X714000D03*
X756000Y922000D03*
X1022000Y850000D03*
X998000D03*
X1060000Y880000D03*
X1100000Y714000D03*
X1004000Y754000D03*
X990000D03*
X964000Y706000D03*
X892000D03*
X1080000Y694000D03*
X990000Y702000D03*
X1004000Y698000D03*
X964000Y686000D03*
X892000Y694000D03*
X908000Y692000D03*
X1096000Y610000D03*
X1048000D03*
X1000000Y612000D03*
X986000Y644000D03*
X1060000Y640000D03*
X1084000Y634000D03*
X936000Y662000D03*
X928000Y684000D03*
X916000Y626000D03*
X1032000Y586000D03*
X1082000Y578000D03*
X950000D03*
X936000Y626000D03*
X1032000Y562000D03*
X912000Y572000D03*
X1046000Y556000D03*
X1028000Y536000D03*
X1000000Y466000D03*
X972000Y564000D03*
X992000Y412000D03*
Y438000D03*
X1004000Y434000D03*
X1000000Y422000D03*
Y402000D03*
X948000Y412000D03*
Y424000D03*
Y438000D03*
Y400000D03*
X886000Y242000D03*
X908000Y244000D03*
X940000Y288000D03*
Y300000D03*
X894000Y284000D03*
X1106000Y234000D03*
X1054000Y280000D03*
X908000Y260000D03*
X986000Y280000D03*
X968000Y288000D03*
Y300000D03*
X1332000Y234000D03*
X1150000D03*
X1214000Y418000D03*
Y448000D03*
X1230000D03*
X1242000Y456000D03*
X1230000Y422000D03*
X1236000Y540000D03*
X1214000D03*
X1258000Y530000D03*
X1214000Y528000D03*
X1260000Y518000D03*
X1214000Y516000D03*
X1232000Y464000D03*
X1206000D03*
X1268000Y580000D03*
X1186000Y464000D03*
X1348000Y550000D03*
X1346000Y536000D03*
X1138000Y492000D03*
X1178000Y484000D03*
X1322000Y478000D03*
X1258000Y638000D03*
X1270000D03*
X1274000Y650000D03*
Y662000D03*
Y682000D03*
X1250000Y680000D03*
X1288000Y682000D03*
X1298000Y672000D03*
X1336000Y630000D03*
X1244000Y600000D03*
X1340000Y688000D03*
Y700000D03*
X1252000Y712000D03*
X1210000Y680000D03*
Y692000D03*
X1214000Y704000D03*
X1194000Y628000D03*
X1204000Y668000D03*
X1180000Y642000D03*
X1190000Y650000D03*
X1162000Y642000D03*
X1318000Y672000D03*
X1328000Y688000D03*
X1120000Y738000D03*
X1140000D03*
X1120000Y726000D03*
X1140000D03*
X1242000Y722000D03*
X1214000Y732000D03*
X1120000Y898000D03*
X1160000D03*
X1378000D03*
X1380000Y920000D03*
X1458000Y750000D03*
X1480000D03*
X1454000Y738000D03*
X1480000D03*
X1368000D03*
X1388000D03*
X1396000Y716000D03*
X1494000Y676000D03*
X1478000D03*
X1518000Y644000D03*
X1530000D03*
Y670000D03*
X1518000D03*
X1502000Y590000D03*
X1512000Y632000D03*
X1524000Y626000D03*
X1456000Y660000D03*
Y648000D03*
Y636000D03*
X1444000Y642000D03*
X1438000Y620000D03*
X1390000Y640000D03*
X1402000D03*
X1398000Y652000D03*
X1410000Y656000D03*
Y676000D03*
X1398000D03*
X1440000Y680000D03*
X1404000Y700000D03*
X1416000D03*
X1374000Y600000D03*
X1368000Y700000D03*
X1402000Y580000D03*
X1484000Y470000D03*
X1460000Y448000D03*
X1488000D03*
X1496000Y458000D03*
X1494000Y532000D03*
X1470000D03*
X1370000Y540000D03*
X1524000Y570000D03*
X1360000Y478000D03*
X1380000D03*
X1414000Y512000D03*
X1436000D03*
X1420000Y500000D03*
X1436000D03*
X1452000Y480000D03*
X1360000Y418000D03*
Y442000D03*
X1368000Y234000D03*
X1406000Y238000D03*
G54D100*
X172000Y124187D02*
X175387Y120800D01*
X188933D01*
X192320Y124187D01*
Y127573D01*
X188933Y130960D01*
X175387D01*
X172000Y134347D01*
Y137733D01*
X175387Y141120D01*
X188933D01*
X192320Y137733D01*
X222800D02*
X219413Y141120D01*
X209253D01*
X205867Y137733D01*
Y124187D01*
X209253Y120800D01*
X219413D01*
X222800Y124187D01*
X253280Y141120D02*
Y120800D01*
Y124187D01*
X249893Y120800D01*
X239733D01*
X236347Y124187D01*
Y137733D01*
X239733Y141120D01*
X249893D01*
X253280Y137733D01*
X266827Y120800D02*
Y141120D01*
Y137733D01*
X270213Y141120D01*
X280373D01*
X283760Y137733D01*
X304080Y147893D02*
Y124187D01*
X307467Y120800D01*
X297307Y141120D02*
X310853D01*
X327787Y134347D02*
X344720D01*
X354880Y120800D02*
Y141120D01*
X361653D01*
X365040Y137733D01*
X368427Y141120D01*
X371813D01*
X375200Y137733D01*
Y120800D01*
X365040Y137733D02*
Y124187D01*
X402293Y141120D02*
Y120800D01*
Y124187D01*
X398907Y120800D01*
X392133D01*
X388747Y124187D01*
Y141120D01*
X415840D02*
X436160Y120800D01*
X415840D02*
X436160Y141120D01*
X172000Y100480D02*
Y70000D01*
X192320D01*
X222800Y90320D02*
Y70000D01*
Y73387D01*
X219413Y70000D01*
X209253D01*
X205867Y73387D01*
Y86933D01*
X209253Y90320D01*
X219413D01*
X222800Y86933D01*
X236347Y90320D02*
Y73387D01*
X239733Y70000D01*
X253280D01*
Y90320D01*
Y63227D01*
X249893Y59840D01*
X239733D01*
X283760Y73387D02*
X280373Y70000D01*
X270213D01*
X266827Y73387D01*
Y86933D01*
X270213Y90320D01*
X280373D01*
X283760Y86933D01*
Y83547D01*
X280373Y80160D01*
X266827D01*
X297307Y70000D02*
Y90320D01*
Y86933D01*
X300693Y90320D01*
X310853D01*
X314240Y86933D01*
X354880Y97093D02*
X358267Y100480D01*
X368427D01*
X371813Y97093D01*
Y93707D01*
X354880Y76773D01*
Y70000D01*
X371813D01*
X429387Y100480D02*
X422613Y93707D01*
Y76773D01*
X429387Y70000D01*
X446320Y100480D02*
X463253D01*
X466640Y97093D01*
Y90320D01*
X463253Y86933D01*
X449707D01*
X463253D01*
X466640Y83547D01*
Y73387D01*
X463253Y70000D01*
X446320D01*
X449707D02*
Y100480D01*
X480187Y73387D02*
Y86933D01*
X483573Y90320D01*
X493733D01*
X497120Y86933D01*
Y73387D01*
X493733Y70000D01*
X483573D01*
X480187Y73387D01*
X517440Y97093D02*
Y73387D01*
X520827Y70000D01*
X510667Y90320D02*
X524213D01*
X547920Y97093D02*
Y73387D01*
X551307Y70000D01*
X541147Y90320D02*
X554693D01*
X571627Y73387D02*
Y86933D01*
X575013Y90320D01*
X585173D01*
X588560Y86933D01*
Y73387D01*
X585173Y70000D01*
X575013D01*
X571627Y73387D01*
X598720Y70000D02*
Y90320D01*
X605493D01*
X608880Y86933D01*
X612267Y90320D01*
X615653D01*
X619040Y86933D01*
Y70000D01*
X608880Y86933D02*
Y73387D01*
X639360Y100480D02*
X646133Y93707D01*
Y76773D01*
X639360Y70000D01*
X172000Y25973D02*
Y22587D01*
X175387Y19200D01*
X182160D01*
X188933D01*
Y49680D01*
X182160D02*
X188933D01*
X219413Y39520D02*
Y19200D01*
Y22587D01*
X216027Y19200D01*
X209253D01*
X205867Y22587D01*
Y39520D01*
X243120Y49680D02*
Y19200D01*
X239733D02*
X246507D01*
X266827Y39520D02*
Y22587D01*
X270213Y19200D01*
X283760D01*
Y39520D01*
Y12427D01*
X280373Y9040D01*
X270213D01*
X327787Y42907D02*
X334560Y49680D01*
Y19200D01*
X327787D01*
X341333D01*
X358267Y42907D02*
X365040Y49680D01*
Y19200D01*
X358267D01*
X371813D01*
X395520Y12427D02*
X398907Y15813D01*
Y22587D01*
X395520D01*
Y19200D01*
X398907D01*
X446320Y46293D02*
X449707Y49680D01*
X459867D01*
X463253Y46293D01*
Y42907D01*
X446320Y25973D01*
Y19200D01*
X463253D01*
X497120Y46293D02*
Y22587D01*
X493733Y19200D01*
X480187D01*
X476800Y22587D01*
Y46293D01*
X480187Y49680D01*
X493733D01*
X497120Y46293D01*
Y42907D01*
X476800Y22587D01*
X510667Y42907D02*
X517440Y49680D01*
Y19200D01*
X510667D01*
X524213D01*
X551307Y49680D02*
X544533D01*
X537760Y42907D01*
Y22587D01*
X541147Y19200D01*
X551307D01*
X554693Y22587D01*
Y32747D01*
X551307Y36133D01*
X537760D01*
X598720Y46293D02*
X602107Y49680D01*
X612267D01*
X615653Y46293D01*
Y42907D01*
X598720Y25973D01*
Y19200D01*
X615653D01*
X632587Y42907D02*
X639360Y49680D01*
Y19200D01*
X632587D01*
X646133D01*
X673227Y39520D02*
Y42907D01*
X669840D01*
Y39520D01*
X673227D01*
Y25973D02*
Y29360D01*
X669840D01*
Y25973D01*
X673227D01*
X710480Y46293D02*
Y22587D01*
X707093Y19200D01*
X693547D01*
X690160Y22587D01*
Y46293D01*
X693547Y49680D01*
X707093D01*
X710480Y46293D01*
Y42907D01*
X690160Y22587D01*
X737573Y32747D02*
X720640D01*
Y36133D01*
X734187Y49680D01*
Y19200D01*
X764667Y39520D02*
Y42907D01*
X761280D01*
Y39520D01*
X764667D01*
Y25973D02*
Y29360D01*
X761280D01*
Y25973D01*
X764667D01*
X798533Y32747D02*
X781600D01*
Y36133D01*
X795147Y49680D01*
Y19200D01*
X832400Y46293D02*
Y22587D01*
X829013Y19200D01*
X815467D01*
X812080Y22587D01*
Y46293D01*
X815467Y49680D01*
X829013D01*
X832400Y46293D01*
Y42907D01*
X812080Y22587D01*
M02*
