G04 Bottom_4 *
G04 Layout testing.pcb *
G04 Designed with PCB elegance 3.51 *
G04 *
G04 *
%FSLAX34Y34*%
%MOMM*%
G75*
G01*
%IPPOS*%
%ADD100C,0.2000*%
%ADD101C,0.1000*%
%ADD200C,1.5240*%
%ADD201C,1.0000*%
%ADD202C,1.2700*%
%ADD400R,1.5240X1.5240*%
%LPD*%G36*
X446500Y1206500D02*
X445864Y1203305D01*
X444054Y1200596D01*
X441345Y1198786D01*
X438150Y1198150D01*
X434955Y1198786D01*
X432246Y1200596D01*
X430436Y1203305D01*
X429800Y1206500D01*
X430436Y1209695D01*
X432246Y1212404D01*
X434955Y1214214D01*
X438150Y1214850D01*
X441345Y1214214D01*
X441511Y1214104D01*
X447246Y1219838D01*
X435800Y1250707D01*
X412943Y1227850D01*
X413400Y1225550D01*
X412867Y1222871D01*
X411350Y1220600D01*
X409079Y1219083D01*
X406400Y1218550D01*
X403721Y1219083D01*
X401450Y1220600D01*
X399933Y1222871D01*
X399400Y1225550D01*
X399933Y1228229D01*
X401450Y1230500D01*
X403721Y1232017D01*
X406400Y1232550D01*
X408700Y1232093D01*
X433505Y1256897D01*
X430530Y1264920D01*
X247650Y1261110D01*
X203200Y1188720D01*
X281940Y1083310D01*
X404359Y1088358D01*
X402563Y1091046D01*
X401828Y1094740D01*
X402563Y1098434D01*
X404655Y1101565D01*
X407786Y1103657D01*
X411480Y1104392D01*
X415174Y1103657D01*
X418305Y1101565D01*
X418611Y1101108D01*
X472440Y1151890D01*
X449541Y1213648D01*
X445754Y1209861D01*
X445864Y1209695D01*
X446500Y1206500D01*
G37*
%LPC*%G36*
X371971Y1200267D02*
X369700Y1198750D01*
X368183Y1196479D01*
X367650Y1193800D01*
X368183Y1191121D01*
X369700Y1188850D01*
X371971Y1187333D01*
X374650Y1186800D01*
X376950Y1187257D01*
X390700Y1173507D01*
Y1168400D01*
X390928Y1167252D01*
X391579Y1166279D01*
X392552Y1165628D01*
X393700Y1165400D01*
X394848Y1165628D01*
X395821Y1166279D01*
X396472Y1167252D01*
X396700Y1168400D01*
Y1174750D01*
X396472Y1175898D01*
X395821Y1176871D01*
X381193Y1191500D01*
X381650Y1193800D01*
X381117Y1196479D01*
X379600Y1198750D01*
X377329Y1200267D01*
X374650Y1200800D01*
X371971Y1200267D01*
G37*
%LPC*%G36*
X421132Y1155192D02*
X401828D01*
Y1135888D01*
X421132D01*
Y1155192D01*
G37*
%LPD*%
G54D400*
X-10160Y1789430D03*
X411480Y1145540D03*
G54D200*
X-10160Y1738630D03*
Y1713230D03*
Y1687830D03*
Y1662430D03*
Y1637030D03*
Y1611630D03*
Y1586230D03*
Y1560830D03*
X66040D03*
Y1586230D03*
Y1611630D03*
Y1637030D03*
Y1662430D03*
Y1687830D03*
Y1713230D03*
Y1738630D03*
Y1764030D03*
Y1789430D03*
X411480Y1094740D03*
Y1069340D03*
Y1043940D03*
Y1018540D03*
Y993140D03*
Y967740D03*
X487680D03*
Y993140D03*
Y1018540D03*
Y1043940D03*
Y1069340D03*
Y1094740D03*
Y1120140D03*
Y1145540D03*
X411480Y942340D03*
Y916940D03*
X487680D03*
Y942340D03*
G54D100*
X463550Y146050D02*
X355600Y419100D01*
X393700Y908050D01*
X482600Y1250950D02*
Y1349600D01*
X457200Y1276350D02*
X482600D01*
X396000Y1436200D02*
X482600Y1349600D01*
X406400Y1225550D02*
X457200Y1276350D01*
X438150Y1206500D02*
X482600Y1250950D01*
Y984250D02*
X1174750Y1352550D01*
X393700Y1168400D02*
Y1174750D01*
X482600D02*
X704850Y952500D01*
X374650Y1193800D02*
X393700Y1174750D01*
Y908050D02*
X482600Y984250D01*
X704850Y908050D02*
Y952500D01*
Y939800D02*
X723900D01*
Y908050D02*
X736600D01*
X2139950Y127000D02*
X463550Y146050D01*
X1174750Y1352550D02*
X1631950Y1333500D01*
X1930400Y1219200D01*
X2171700Y1016000D01*
X2317750Y552450D01*
X2298700Y165100D01*
X2139950Y127000D01*
G54D201*
X374650Y1193800D03*
X396000Y1514000D03*
X406400Y1225550D03*
X704850Y908050D03*
X698500Y876300D03*
X673100Y895350D03*
X654050Y927100D03*
X723900Y939800D03*
Y908050D03*
G54D202*
X438150Y1206500D03*
X736600Y908050D03*
Y927100D03*
G54D101*
X396000Y1436200D02*
X392000Y1506000D01*
D01*
X392500Y1510500D01*
G54D100*
X-9652Y77893D02*
Y54187D01*
X-6265Y50800D01*
X-16425Y71120D02*
X-2879D01*
X30988Y54187D02*
X27601Y50800D01*
X17441D01*
X14055Y54187D01*
Y67733D01*
X17441Y71120D01*
X27601D01*
X30988Y67733D01*
Y64347D01*
X27601Y60960D01*
X14055D01*
X41148Y54187D02*
X44535Y50800D01*
X58081D01*
X61468Y54187D01*
Y57573D01*
X58081Y60960D01*
X44535D01*
X41148Y64347D01*
Y67733D01*
X44535Y71120D01*
X58081D01*
X61468Y67733D01*
X81788Y77893D02*
Y54187D01*
X85175Y50800D01*
X75015Y71120D02*
X88561D01*
X112268Y77893D02*
D01*
Y71120D02*
Y50800D01*
X135975D02*
Y71120D01*
Y67733D01*
X139361Y71120D01*
X149521D01*
X152908Y67733D01*
Y50800D01*
X166455Y44027D02*
X169841Y40640D01*
X180001D01*
X183388Y44027D01*
Y71120D01*
X169841D01*
X166455Y67733D01*
Y54187D01*
X169841Y50800D01*
X183388D01*
X-19812Y30480D02*
Y0D01*
X508D01*
X30988Y20320D02*
Y0D01*
Y3387D01*
X27601Y0D01*
X17441D01*
X14055Y3387D01*
Y16933D01*
X17441Y20320D01*
X27601D01*
X30988Y16933D01*
X44535Y20320D02*
Y3387D01*
X47921Y0D01*
X61468D01*
Y20320D01*
Y-6773D01*
X58081Y-10160D01*
X47921D01*
X91948Y3387D02*
X88561Y0D01*
X78401D01*
X75015Y3387D01*
Y16933D01*
X78401Y20320D01*
X88561D01*
X91948Y16933D01*
Y13547D01*
X88561Y10160D01*
X75015D01*
X105495Y0D02*
Y20320D01*
Y16933D01*
X108881Y20320D01*
X119041D01*
X122428Y16933D01*
X180001Y13547D02*
X163068D01*
Y16933D01*
X176615Y30480D01*
Y0D01*
X237575Y30480D02*
X230801Y23707D01*
Y6773D01*
X237575Y0D01*
X254508Y30480D02*
X271441D01*
X274828Y27093D01*
Y20320D01*
X271441Y16933D01*
X257895D01*
X271441D01*
X274828Y13547D01*
Y3387D01*
X271441Y0D01*
X254508D01*
X257895D02*
Y30480D01*
X288375Y3387D02*
Y16933D01*
X291761Y20320D01*
X301921D01*
X305308Y16933D01*
Y3387D01*
X301921Y0D01*
X291761D01*
X288375Y3387D01*
X325628Y27093D02*
Y3387D01*
X329015Y0D01*
X318855Y20320D02*
X332401D01*
X356108Y27093D02*
Y3387D01*
X359495Y0D01*
X349335Y20320D02*
X362881D01*
X379815Y3387D02*
Y16933D01*
X383201Y20320D01*
X393361D01*
X396748Y16933D01*
Y3387D01*
X393361Y0D01*
X383201D01*
X379815Y3387D01*
X406908Y0D02*
Y20320D01*
X413681D01*
X417068Y16933D01*
X420455Y20320D01*
X423841D01*
X427228Y16933D01*
Y0D01*
X417068Y16933D02*
Y3387D01*
X447548Y30480D02*
X454321Y23707D01*
Y6773D01*
X447548Y0D01*
X-19812Y-44027D02*
Y-47413D01*
X-16425Y-50800D01*
X-9652D01*
X-2879D01*
Y-20320D01*
X-9652D02*
X-2879D01*
X27601Y-30480D02*
Y-50800D01*
Y-47413D01*
X24215Y-50800D01*
X17441D01*
X14055Y-47413D01*
Y-30480D01*
X44535Y-50800D02*
Y-30480D01*
Y-33867D01*
X47921Y-30480D01*
X58081D01*
X61468Y-33867D01*
Y-50800D01*
X91948Y-47413D02*
X88561Y-50800D01*
X78401D01*
X75015Y-47413D01*
Y-33867D01*
X78401Y-30480D01*
X88561D01*
X91948Y-33867D01*
Y-37253D01*
X88561Y-40640D01*
X75015D01*
X132588Y-23707D02*
X135975Y-20320D01*
X146135D01*
X149521Y-23707D01*
Y-27093D01*
X132588Y-44027D01*
Y-50800D01*
X149521D01*
X176615Y-20320D02*
X169841D01*
X163068Y-27093D01*
Y-47413D01*
X166455Y-50800D01*
X176615D01*
X180001Y-47413D01*
Y-37253D01*
X176615Y-33867D01*
X163068D01*
X203708Y-57573D02*
X207095Y-54187D01*
Y-47413D01*
X203708D01*
Y-50800D01*
X207095D01*
X254508Y-23707D02*
X257895Y-20320D01*
X268055D01*
X271441Y-23707D01*
Y-27093D01*
X254508Y-44027D01*
Y-50800D01*
X271441D01*
X305308Y-23707D02*
Y-47413D01*
X301921Y-50800D01*
X288375D01*
X284988Y-47413D01*
Y-23707D01*
X288375Y-20320D01*
X301921D01*
X305308Y-23707D01*
Y-27093D01*
X284988Y-47413D01*
X318855Y-27093D02*
X325628Y-20320D01*
Y-50800D01*
X318855D01*
X332401D01*
X359495Y-20320D02*
X352721D01*
X345948Y-27093D01*
Y-47413D01*
X349335Y-50800D01*
X359495D01*
X362881Y-47413D01*
Y-37253D01*
X359495Y-33867D01*
X345948D01*
X410295Y-27093D02*
X417068Y-20320D01*
Y-50800D01*
X410295D01*
X423841D01*
X454321Y-20320D02*
X437388D01*
Y-33867D01*
X450935D01*
X454321Y-37253D01*
Y-47413D01*
X450935Y-50800D01*
X440775D01*
X437388Y-47413D01*
X481415Y-30480D02*
Y-27093D01*
X478028D01*
Y-30480D01*
X481415D01*
Y-44027D02*
Y-40640D01*
X478028D01*
Y-44027D01*
X481415D01*
X518668Y-23707D02*
Y-47413D01*
X515281Y-50800D01*
X501735D01*
X498348Y-47413D01*
Y-23707D01*
X501735Y-20320D01*
X515281D01*
X518668Y-23707D01*
Y-27093D01*
X498348Y-47413D01*
X532215Y-27093D02*
X538988Y-20320D01*
Y-50800D01*
X532215D01*
X545761D01*
X572855Y-30480D02*
Y-27093D01*
X569468D01*
Y-30480D01*
X572855D01*
Y-44027D02*
Y-40640D01*
X569468D01*
Y-44027D01*
X572855D01*
X589788Y-23707D02*
X593175Y-20320D01*
X603335D01*
X606721Y-23707D01*
Y-27093D01*
X589788Y-44027D01*
Y-50800D01*
X606721D01*
X623655D02*
X630428D01*
X637201Y-44027D01*
Y-23707D01*
X633815Y-20320D01*
X623655D01*
X620268Y-23707D01*
Y-30480D01*
X623655Y-33867D01*
X637201D01*
M02*
