G04 ComponentOutlineTop *
G04 Layout scart-mux.pcb *
G04 Designed with PCB elegance 3.51 *
G04 *
G04 *
%FSLAX34Y34*%
%MOMM*%
G75*
G01*
%IPPOS*%
%ADD100C,0.2000*%
%ADD200C,0.2032*%
%ADD201C,0.2000*%
%ADD202C,0.6000*%
G54D200*
X340445Y307298D02*
G03X363000Y291500I22555J8202D01*
G01X316000Y426000D02*
X340500Y307000D01*
X218000Y315500D02*
G03X242000Y291500I24000J0D01*
G01X363000Y291500D02*
X762000D01*
X339000Y456500D02*
G03X316232Y424911I0J-24000D01*
X242000Y456500D02*
G03X218000Y432500I0J-24000D01*
G01X762000Y456500D02*
X339000D01*
X205300Y529100D02*
X230700D01*
Y630700D01*
X205300D01*
Y529100D01*
X281300D02*
X306700D01*
Y630700D01*
X281300D01*
Y529100D01*
X340445Y719298D02*
G03X363000Y703500I22555J8202D01*
X218000Y727500D02*
G03X242000Y703500I24000J0D01*
G01X363000Y703500D02*
X762000D01*
X339000Y868500D02*
G03X316232Y836911I0J-24000D01*
G01X316000Y838000D02*
X340500Y719000D01*
X242000Y868500D02*
G03X218000Y844500I0J-24000D01*
G01X762000Y868500D02*
X339000D01*
X538000Y530000D02*
Y630000D01*
X478000D01*
Y595000D01*
Y580000D02*
G03Y580052I30000J0D01*
G01X439300Y529300D02*
X464700D01*
Y630900D01*
X439300D01*
Y529300D01*
X551300Y529100D02*
X576700D01*
Y630700D01*
X551300D01*
Y529100D01*
X478000Y530000D02*
X538000D01*
X478000Y565000D02*
Y530000D01*
X762000Y291500D02*
G03X786000Y315500I0J24000D01*
X854000Y291500D02*
G03X878000Y315500I0J24000D01*
G01X786000Y316000D02*
Y432500D01*
X803700Y307300D02*
X930700D01*
Y332700D01*
X803700D01*
Y307300D01*
X823000Y226000D02*
Y262000D01*
X857000D02*
Y226000D01*
X823000D01*
Y262000D02*
X857000D01*
X790000Y227000D02*
X798000D01*
Y257000D01*
X790000D01*
Y227000D01*
Y251000D02*
X798000D01*
X786000Y432500D02*
G03X762000Y456500I-24000J0D01*
X878000Y432500D02*
G03X854000Y456500I-24000J0D01*
G01X742000Y530000D02*
X802000D01*
Y630000D01*
X742000Y565000D02*
Y530000D01*
Y580000D02*
G03Y580052I30000J0D01*
G01X707300Y529300D02*
X732700D01*
Y630900D01*
X707300D01*
Y529300D01*
X762000Y703500D02*
G03X786000Y727500I0J24000D01*
X854000Y703500D02*
G03X878000Y727500I0J24000D01*
G01X802000Y630000D02*
X742000D01*
Y595000D01*
X786000Y844500D02*
G03X762000Y868500I-24000J0D01*
X878000Y844500D02*
G03X854000Y868500I-24000J0D01*
G01X786000Y728000D02*
Y844500D01*
X832920Y903925D02*
G03X871080I19080J-11925D01*
G01X833500Y904500D02*
X841000D01*
X870500D02*
X863000D01*
X841393Y902607D02*
G03Y881393I10607J-10607D01*
X862607Y881393D02*
G03Y902607I-10607J10607D01*
X1003000Y868500D02*
G03X980232Y836911I0J-24000D01*
G01X980000Y838000D02*
X1004500Y719000D01*
X906000Y868500D02*
G03X882000Y844500I0J-24000D01*
G01X1426000Y868500D02*
X1003000D01*
X888920Y903925D02*
G03X927080I19080J-11925D01*
G01X889500Y904500D02*
X897000D01*
X926500D02*
X919000D01*
X897393Y902607D02*
G03Y881393I10607J-10607D01*
X918607Y881393D02*
G03Y902607I-10607J10607D01*
X1004445Y719298D02*
G03X1027000Y703500I22555J8202D01*
X882000Y727500D02*
G03X906000Y703500I24000J0D01*
G01X1027000Y703500D02*
X1426000D01*
X932000Y638000D02*
X940000D01*
Y658000D02*
X932000D01*
Y655000D01*
Y638000D02*
Y641000D01*
Y664000D02*
X940000D01*
Y684000D02*
X932000D01*
Y681000D01*
Y664000D02*
Y667000D01*
X1024000Y582000D02*
G03X1040000I8000J0D01*
G01X1024000Y582000D02*
X1010000D01*
X1040000D02*
X1054000D01*
X1010000D02*
Y478000D01*
X1054000D02*
Y582000D01*
X1003000Y456500D02*
G03X980232Y424911I0J-24000D01*
X906000Y456500D02*
G03X882000Y432500I0J-24000D01*
G01X1426000Y456500D02*
X1003000D01*
X1010000Y478000D02*
X1054000D01*
X1004445Y307298D02*
G03X1027000Y291500I22555J8202D01*
G01X980000Y426000D02*
X1004500Y307000D01*
X882000Y315500D02*
G03X906000Y291500I24000J0D01*
G01X1027000Y291500D02*
X1426000D01*
X986000Y218000D02*
Y286000D01*
X934000D01*
Y218000D01*
X986000D01*
X882000Y227000D02*
X890000D01*
Y257000D01*
X882000D01*
Y227000D01*
Y251000D02*
X890000D01*
X1345000Y590000D02*
Y554000D01*
X1311000D02*
Y590000D01*
X1345000Y554000D02*
X1311000D01*
X1211000Y588000D02*
Y552000D01*
X1177000D02*
Y588000D01*
X1211000Y552000D02*
X1177000D01*
X1220000Y527000D02*
X1256000D01*
Y493000D02*
X1220000D01*
Y527000D01*
X1256000D02*
Y493000D01*
X1347240Y529300D02*
Y536920D01*
X1339620D01*
X1324380D02*
X1316760D01*
Y529300D02*
Y536920D01*
X1334540Y526760D02*
X1329460D01*
X1162760Y508700D02*
Y501080D01*
X1170380D01*
X1185620D02*
X1193240D01*
Y508700D02*
Y501080D01*
X1175460Y511240D02*
X1180540D01*
X1311000Y590000D02*
X1345000D01*
X1211000Y624000D02*
Y588000D01*
X1177000D02*
Y624000D01*
X1211000D01*
Y588000D02*
X1177000D01*
X1211000D01*
X1386000Y635000D02*
X1350000D01*
Y669000D02*
X1386000D01*
X1350000Y635000D02*
Y669000D01*
X1252000Y635000D02*
X1216000D01*
Y669000D02*
X1252000D01*
Y635000D01*
X1216000D02*
Y669000D01*
X1345000Y626000D02*
Y590000D01*
X1311000D02*
Y626000D01*
X1345000D01*
Y590000D02*
X1311000D01*
X1450000Y844500D02*
G03X1426000Y868500I-24000J0D01*
X1542000Y844500D02*
G03X1518000Y868500I-24000J0D01*
G01X1450000Y728000D02*
Y844500D01*
X1426000Y703500D02*
G03X1450000Y727500I0J24000D01*
X1518000Y703500D02*
G03X1542000Y727500I0J24000D01*
G01X1386000Y669000D02*
Y635000D01*
X1508000Y627000D02*
X1472000D01*
Y661000D02*
X1508000D01*
Y627000D01*
X1472000D02*
Y661000D01*
X1467000Y616000D02*
Y580000D01*
X1433000D02*
Y616000D01*
X1467000D01*
Y580000D02*
X1433000D01*
X1467000D02*
Y544000D01*
X1433000D02*
Y580000D01*
X1467000D01*
X1450000Y432500D02*
G03X1426000Y456500I-24000J0D01*
X1542000Y432500D02*
G03X1518000Y456500I-24000J0D01*
G01X1472000Y519000D02*
X1508000D01*
Y485000D02*
X1472000D01*
Y519000D01*
X1508000D02*
Y485000D01*
X1467000Y544000D02*
X1433000D01*
X1358000Y529000D02*
X1394000D01*
Y495000D02*
X1358000D01*
Y529000D01*
X1394000D02*
Y495000D01*
X1426000Y291500D02*
G03X1450000Y315500I0J24000D01*
X1518000Y291500D02*
G03X1542000Y315500I0J24000D01*
G01X1450000Y316000D02*
Y432500D01*
G54D201*
X372000Y238000D02*
X408000D01*
Y258000D01*
X372000D01*
Y238000D01*
Y259000D02*
X404000D01*
Y277000D01*
X372000D01*
Y259000D01*
X340000D02*
X372000D01*
Y277000D01*
X340000D01*
Y259000D01*
Y241000D02*
X372000D01*
Y259000D01*
X340000D01*
Y241000D01*
X321000Y244000D02*
X339000D01*
Y276000D01*
X321000D01*
Y244000D01*
X341500Y492000D02*
G03Y491945I-31500J0D01*
G01X322500Y479500D02*
Y469500D01*
X327500Y474500D02*
X317500D01*
X469500Y492000D02*
G03Y491945I-31500J0D01*
G01X212000Y666000D02*
X232000D01*
Y702000D01*
X212000D01*
Y666000D01*
X344000Y901000D02*
X376000D01*
Y919000D01*
X344000D01*
Y901000D01*
Y883000D02*
X376000D01*
Y901000D01*
X344000D01*
Y883000D01*
X376000D02*
X408000D01*
Y901000D01*
X376000D01*
Y883000D01*
Y902000D02*
X412000D01*
Y922000D01*
X376000D01*
Y902000D01*
X325000Y886000D02*
X343000D01*
Y918000D01*
X325000D01*
Y886000D01*
X610000Y902000D02*
X646000D01*
Y922000D01*
X610000D01*
Y902000D01*
Y883000D02*
X642000D01*
Y901000D01*
X610000D01*
Y883000D01*
X416000Y902000D02*
X452000D01*
Y922000D01*
X416000D01*
Y902000D01*
Y883000D02*
X448000D01*
Y901000D01*
X416000D01*
Y883000D01*
X569500Y668000D02*
G03Y667945I-31500J0D01*
G01X550500Y655500D02*
Y645500D01*
X555500Y650500D02*
X545500D01*
X499500Y668000D02*
G03Y667945I-31500J0D01*
G01X480500Y655500D02*
Y645500D01*
X485500Y650500D02*
X475500D01*
X450500Y479500D02*
Y469500D01*
X455500Y474500D02*
X445500D01*
X539500Y492000D02*
G03Y491945I-31500J0D01*
G01X520500Y479500D02*
Y469500D01*
X525500Y474500D02*
X515500D01*
X609500Y492000D02*
G03Y491945I-31500J0D01*
G01X590500Y479500D02*
Y469500D01*
X595500Y474500D02*
X585500D01*
X416000Y259000D02*
X448000D01*
Y277000D01*
X416000D01*
Y259000D01*
Y238000D02*
X452000D01*
Y258000D01*
X416000D01*
Y238000D01*
X598000Y240000D02*
X634000D01*
Y260000D01*
X598000D01*
Y240000D01*
X640000D02*
X676000D01*
Y260000D01*
X640000D01*
Y240000D01*
X598000Y261000D02*
X630000D01*
Y279000D01*
X598000D01*
Y261000D01*
X640000D02*
X672000D01*
Y279000D01*
X640000D01*
Y261000D01*
X680000Y243000D02*
X712000D01*
Y261000D01*
X680000D01*
Y243000D01*
Y261000D02*
X712000D01*
Y279000D01*
X680000D01*
Y261000D01*
X712000Y243000D02*
X744000D01*
Y261000D01*
X712000D01*
Y243000D01*
Y261000D02*
X744000D01*
Y279000D01*
X712000D01*
Y261000D01*
X778000Y263000D02*
X810000D01*
Y281000D01*
X778000D01*
Y263000D01*
X824000D02*
X856000D01*
Y281000D01*
X824000D01*
Y263000D01*
X870000D02*
X902000D01*
Y281000D01*
X870000D01*
Y263000D01*
X860000Y555000D02*
X892000D01*
Y573000D01*
X860000D01*
Y555000D01*
Y573000D02*
X892000D01*
Y591000D01*
X860000D01*
Y573000D01*
X761500Y492000D02*
G03Y491945I-31500J0D01*
G01X742500Y479500D02*
Y469500D01*
X747500Y474500D02*
X737500D01*
X831500Y492000D02*
G03Y491945I-31500J0D01*
G01X812500Y479500D02*
Y469500D01*
X817500Y474500D02*
X807500D01*
X672000Y647000D02*
X704000D01*
Y665000D01*
X672000D01*
Y647000D01*
Y665000D02*
X704000D01*
Y683000D01*
X672000D01*
Y665000D01*
X704000Y647000D02*
X736000D01*
Y665000D01*
X704000D01*
Y647000D01*
Y665000D02*
X736000D01*
Y683000D01*
X704000D01*
Y665000D01*
X798000Y675000D02*
X830000D01*
Y693000D01*
X798000D01*
Y675000D01*
Y657000D02*
X830000D01*
Y675000D01*
X798000D01*
Y657000D01*
X864000Y636000D02*
Y688000D01*
X896000D02*
X864000D01*
Y636000D02*
X874000D01*
X886000D02*
G03X874000I-6000J0D01*
G01X860000Y591000D02*
X892000D01*
Y609000D01*
X860000D01*
Y591000D01*
Y609000D02*
X892000D01*
Y627000D01*
X860000D01*
Y609000D01*
X652000Y902000D02*
X688000D01*
Y922000D01*
X652000D01*
Y902000D01*
Y883000D02*
X684000D01*
Y901000D01*
X652000D01*
Y883000D01*
X748000Y901000D02*
X780000D01*
Y919000D01*
X748000D01*
Y901000D01*
X716000Y883000D02*
X748000D01*
Y901000D01*
X716000D01*
Y883000D01*
X748000D02*
X780000D01*
Y901000D01*
X748000D01*
Y883000D01*
X716000Y901000D02*
X748000D01*
Y919000D01*
X716000D01*
Y901000D01*
X1052000D02*
X1084000D01*
Y919000D01*
X1052000D01*
Y901000D01*
X1084000Y902000D02*
X1120000D01*
Y922000D01*
X1084000D01*
Y902000D01*
X1052000Y883000D02*
X1084000D01*
Y901000D01*
X1052000D01*
Y883000D01*
X1084000D02*
X1116000D01*
Y901000D01*
X1084000D01*
Y883000D01*
X1033000Y884000D02*
X1051000D01*
Y916000D01*
X1033000D01*
Y884000D01*
X971000Y648000D02*
X989000D01*
Y680000D01*
X971000D01*
Y648000D01*
X989000D02*
X1007000D01*
Y680000D01*
X989000D01*
Y648000D01*
X1007000Y616000D02*
X1025000D01*
Y648000D01*
X1007000D01*
Y616000D01*
Y648000D02*
X1025000D01*
Y680000D01*
X1007000D01*
Y648000D01*
X989000Y616000D02*
X1007000D01*
Y648000D01*
X989000D01*
Y616000D01*
X992000Y591000D02*
X1024000D01*
Y609000D01*
X992000D01*
Y591000D01*
X1056000Y666000D02*
Y614000D01*
X1088000Y666000D02*
Y614000D01*
X1056000D02*
X1088000D01*
Y666000D02*
X1078000D01*
X1066000D02*
X1056000D01*
X1066000D02*
G03X1078000I6000J0D01*
G01X1024000Y591000D02*
X1056000D01*
Y609000D01*
X1024000D01*
Y591000D01*
X1056000D02*
X1088000D01*
Y609000D01*
X1056000D01*
Y591000D01*
X1088000D02*
X1120000D01*
Y609000D01*
X1088000D01*
Y591000D01*
X896000Y636000D02*
Y688000D01*
X886000Y636000D02*
X896000D01*
X1087000Y548000D02*
X1105000D01*
Y580000D01*
X1087000D01*
Y548000D01*
X946000Y601000D02*
X978000D01*
Y619000D01*
X946000D01*
Y601000D01*
X908000Y600000D02*
X944000D01*
Y620000D01*
X908000D01*
Y600000D01*
X1105000Y548000D02*
X1123000D01*
Y580000D01*
X1105000D01*
Y548000D01*
X914000Y501000D02*
X946000D01*
Y519000D01*
X914000D01*
Y501000D01*
Y555000D02*
X946000D01*
Y573000D01*
X914000D01*
Y555000D01*
Y537000D02*
X946000D01*
Y555000D01*
X914000D01*
Y537000D01*
Y519000D02*
X946000D01*
Y537000D01*
X914000D01*
Y519000D01*
X882000Y483000D02*
X914000D01*
Y501000D01*
X882000D01*
Y483000D01*
Y501000D02*
X914000D01*
Y519000D01*
X882000D01*
Y501000D01*
Y519000D02*
X914000D01*
Y537000D01*
X882000D01*
Y519000D01*
Y537000D02*
X914000D01*
Y555000D01*
X882000D01*
Y537000D01*
X914000Y483000D02*
X946000D01*
Y501000D01*
X914000D01*
Y483000D01*
X1091000Y496000D02*
X1109000D01*
Y528000D01*
X1091000D01*
Y496000D01*
X1092000Y529000D02*
X1124000D01*
Y547000D01*
X1092000D01*
Y529000D01*
X1109000Y496000D02*
X1127000D01*
Y528000D01*
X1109000D01*
Y496000D01*
X946000Y483000D02*
X978000D01*
Y501000D01*
X946000D01*
Y483000D01*
X1046000Y241000D02*
X1078000D01*
Y259000D01*
X1046000D01*
Y241000D01*
Y259000D02*
X1078000D01*
Y277000D01*
X1046000D01*
Y259000D01*
X1078000Y238000D02*
X1114000D01*
Y258000D01*
X1078000D01*
Y238000D01*
Y259000D02*
X1110000D01*
Y277000D01*
X1078000D01*
Y259000D01*
X1027000Y242000D02*
X1045000D01*
Y274000D01*
X1027000D01*
Y242000D01*
X1304000Y238000D02*
X1340000D01*
Y258000D01*
X1304000D01*
Y238000D01*
X1340000D02*
X1376000D01*
Y258000D01*
X1340000D01*
Y238000D01*
X1304000Y259000D02*
X1336000D01*
Y277000D01*
X1304000D01*
Y259000D01*
X1340000D02*
X1372000D01*
Y277000D01*
X1340000D01*
Y259000D01*
X1122000Y238000D02*
X1158000D01*
Y258000D01*
X1122000D01*
Y238000D01*
Y259000D02*
X1154000D01*
Y277000D01*
X1122000D01*
Y259000D01*
X1220000Y574000D02*
X1272000D01*
Y606000D01*
X1220000Y584000D02*
Y574000D01*
X1133000Y548000D02*
X1151000D01*
Y580000D01*
X1133000D01*
Y548000D01*
X1128000Y496000D02*
X1148000D01*
Y532000D01*
X1128000D01*
Y496000D01*
X1285000Y480000D02*
X1303000D01*
Y512000D01*
X1285000D01*
Y480000D01*
X1339000D02*
X1357000D01*
Y512000D01*
X1339000D01*
Y480000D01*
X1321000D02*
X1339000D01*
Y512000D01*
X1321000D01*
Y480000D01*
X1303000D02*
X1321000D01*
Y512000D01*
X1303000D01*
Y480000D01*
X1354000Y584000D02*
G03Y596000I0J6000D01*
G01X1220000Y606000D02*
X1272000D01*
X1220000D02*
Y596000D01*
Y584000D02*
G03Y596000I0J6000D01*
G01X1120000Y591000D02*
X1152000D01*
Y609000D01*
X1120000D01*
Y591000D01*
X1139000Y618000D02*
X1157000D01*
Y650000D01*
X1139000D01*
Y618000D01*
X1121000Y650000D02*
X1139000D01*
Y682000D01*
X1121000D01*
Y650000D01*
X1157000D02*
X1175000D01*
Y682000D01*
X1157000D01*
Y650000D01*
X1139000D02*
X1157000D01*
Y682000D01*
X1139000D01*
Y650000D01*
X1121000Y618000D02*
X1139000D01*
Y650000D01*
X1121000D01*
Y618000D01*
X1195000Y632000D02*
X1213000D01*
Y664000D01*
X1195000D01*
Y632000D01*
X1309000Y636000D02*
X1327000D01*
Y668000D01*
X1309000D01*
Y636000D01*
X1124000Y902000D02*
X1160000D01*
Y922000D01*
X1124000D01*
Y902000D01*
Y883000D02*
X1156000D01*
Y901000D01*
X1124000D01*
Y883000D01*
X1336000Y902000D02*
X1372000D01*
Y922000D01*
X1336000D01*
Y902000D01*
X1300000D02*
X1336000D01*
Y922000D01*
X1300000D01*
Y902000D01*
X1336000Y883000D02*
X1368000D01*
Y901000D01*
X1336000D01*
Y883000D01*
X1300000D02*
X1332000D01*
Y901000D01*
X1300000D01*
Y883000D01*
X1418000Y903000D02*
X1450000D01*
Y921000D01*
X1418000D01*
Y903000D01*
X1386000Y885000D02*
X1418000D01*
Y903000D01*
X1386000D01*
Y885000D01*
X1418000D02*
X1450000D01*
Y903000D01*
X1418000D01*
Y885000D01*
X1386000Y903000D02*
X1418000D01*
Y921000D01*
X1386000D01*
Y903000D01*
X1476000Y596000D02*
X1528000D01*
Y564000D02*
Y596000D01*
X1476000D02*
Y586000D01*
Y574000D02*
G03Y586000I0J6000D01*
G01X1354000Y606000D02*
X1406000D01*
Y574000D02*
Y606000D01*
X1354000D02*
Y596000D01*
Y584000D02*
Y574000D01*
X1431000Y646000D02*
X1449000D01*
Y678000D01*
X1431000D01*
Y646000D01*
X1476000Y564000D02*
X1528000D01*
X1476000Y574000D02*
Y564000D01*
X1354000Y574000D02*
X1406000D01*
X1442000Y486000D02*
X1462000D01*
Y522000D01*
X1442000D01*
Y486000D01*
X1414000Y259000D02*
X1446000D01*
Y277000D01*
X1414000D01*
Y259000D01*
X1382000Y241000D02*
X1414000D01*
Y259000D01*
X1382000D01*
Y241000D01*
X1414000D02*
X1446000D01*
Y259000D01*
X1414000D01*
Y241000D01*
X1382000Y259000D02*
X1414000D01*
Y277000D01*
X1382000D01*
Y259000D01*
G54D202*
X310000Y523500D02*
G03Y460500I0J-31500D01*
X438000Y523500D02*
G03Y460500I0J-31500D01*
X538000Y699500D02*
G03Y636500I0J-31500D01*
X468000Y699500D02*
G03Y636500I0J-31500D01*
X508000Y523500D02*
G03Y460500I0J-31500D01*
X578000Y523500D02*
G03Y460500I0J-31500D01*
X730000Y523500D02*
G03Y460500I0J-31500D01*
X800000Y523500D02*
G03Y460500I0J-31500D01*
G54D100*
G01X172000Y124187D02*
X175387Y120800D01*
X188933D01*
X192320Y124187D01*
Y127573D01*
X188933Y130960D01*
X175387D01*
X172000Y134347D01*
Y137733D01*
X175387Y141120D01*
X188933D01*
X192320Y137733D01*
X222800D02*
X219413Y141120D01*
X209253D01*
X205867Y137733D01*
Y124187D01*
X209253Y120800D01*
X219413D01*
X222800Y124187D01*
X253280Y141120D02*
Y120800D01*
Y124187D01*
X249893Y120800D01*
X239733D01*
X236347Y124187D01*
Y137733D01*
X239733Y141120D01*
X249893D01*
X253280Y137733D01*
X266827Y120800D02*
Y141120D01*
Y137733D01*
X270213Y141120D01*
X280373D01*
X283760Y137733D01*
X304080Y147893D02*
Y124187D01*
X307467Y120800D01*
X297307Y141120D02*
X310853D01*
X327787Y134347D02*
X344720D01*
X354880Y120800D02*
Y141120D01*
X361653D01*
X365040Y137733D01*
X368427Y141120D01*
X371813D01*
X375200Y137733D01*
Y120800D01*
X365040Y137733D02*
Y124187D01*
X402293Y141120D02*
Y120800D01*
Y124187D01*
X398907Y120800D01*
X392133D01*
X388747Y124187D01*
Y141120D01*
X415840D02*
X436160Y120800D01*
X415840D02*
X436160Y141120D01*
X192320Y93707D02*
X185547Y100480D01*
X178773D01*
X172000Y93707D01*
Y76773D01*
X178773Y70000D01*
X185547D01*
X192320Y76773D01*
X205867Y73387D02*
Y86933D01*
X209253Y90320D01*
X219413D01*
X222800Y86933D01*
Y73387D01*
X219413Y70000D01*
X209253D01*
X205867Y73387D01*
X232960Y70000D02*
Y90320D01*
X239733D01*
X243120Y86933D01*
X246507Y90320D01*
X249893D01*
X253280Y86933D01*
Y70000D01*
X243120Y86933D02*
Y73387D01*
X266827Y59840D02*
Y90320D01*
Y86933D01*
X270213Y90320D01*
X280373D01*
X283760Y86933D01*
Y73387D01*
X280373Y70000D01*
X270213D01*
X266827Y73387D01*
X297307D02*
Y86933D01*
X300693Y90320D01*
X310853D01*
X314240Y86933D01*
Y73387D01*
X310853Y70000D01*
X300693D01*
X297307Y73387D01*
X327787Y70000D02*
Y90320D01*
Y86933D01*
X331173Y90320D01*
X341333D01*
X344720Y86933D01*
Y70000D01*
X375200Y73387D02*
X371813Y70000D01*
X361653D01*
X358267Y73387D01*
Y86933D01*
X361653Y90320D01*
X371813D01*
X375200Y86933D01*
Y83547D01*
X371813Y80160D01*
X358267D01*
X388747Y70000D02*
Y90320D01*
Y86933D01*
X392133Y90320D01*
X402293D01*
X405680Y86933D01*
Y70000D01*
X426000Y97093D02*
Y73387D01*
X429387Y70000D01*
X419227Y90320D02*
X432773D01*
X480187Y73387D02*
Y86933D01*
X483573Y90320D01*
X493733D01*
X497120Y86933D01*
Y73387D01*
X493733Y70000D01*
X483573D01*
X480187Y73387D01*
X524213Y90320D02*
Y70000D01*
Y73387D01*
X520827Y70000D01*
X514053D01*
X510667Y73387D01*
Y90320D01*
X547920Y97093D02*
Y73387D01*
X551307Y70000D01*
X541147Y90320D02*
X554693D01*
X578400Y100480D02*
Y70000D01*
X575013D02*
X581787D01*
X608880Y97093D02*
D01*
Y90320D02*
Y70000D01*
X632587D02*
Y90320D01*
Y86933D01*
X635973Y90320D01*
X646133D01*
X649520Y86933D01*
Y70000D01*
X680000Y73387D02*
X676613Y70000D01*
X666453D01*
X663067Y73387D01*
Y86933D01*
X666453Y90320D01*
X676613D01*
X680000Y86933D01*
Y83547D01*
X676613Y80160D01*
X663067D01*
X730800Y97093D02*
Y73387D01*
X734187Y70000D01*
X724027Y90320D02*
X737573D01*
X754507Y73387D02*
Y86933D01*
X757893Y90320D01*
X768053D01*
X771440Y86933D01*
Y73387D01*
X768053Y70000D01*
X757893D01*
X754507Y73387D01*
X784987Y59840D02*
Y90320D01*
Y86933D01*
X788373Y90320D01*
X798533D01*
X801920Y86933D01*
Y73387D01*
X798533Y70000D01*
X788373D01*
X784987Y73387D01*
X172000Y25973D02*
Y22587D01*
X175387Y19200D01*
X182160D01*
X188933D01*
Y49680D01*
X182160D02*
X188933D01*
X219413Y39520D02*
Y19200D01*
Y22587D01*
X216027Y19200D01*
X209253D01*
X205867Y22587D01*
Y39520D01*
X243120Y49680D02*
Y19200D01*
X239733D02*
X246507D01*
X266827Y39520D02*
Y22587D01*
X270213Y19200D01*
X283760D01*
Y39520D01*
Y12427D01*
X280373Y9040D01*
X270213D01*
X327787Y42907D02*
X334560Y49680D01*
Y19200D01*
X327787D01*
X341333D01*
X358267Y42907D02*
X365040Y49680D01*
Y19200D01*
X358267D01*
X371813D01*
X395520Y12427D02*
X398907Y15813D01*
Y22587D01*
X395520D01*
Y19200D01*
X398907D01*
X446320Y46293D02*
X449707Y49680D01*
X459867D01*
X463253Y46293D01*
Y42907D01*
X446320Y25973D01*
Y19200D01*
X463253D01*
X497120Y46293D02*
Y22587D01*
X493733Y19200D01*
X480187D01*
X476800Y22587D01*
Y46293D01*
X480187Y49680D01*
X493733D01*
X497120Y46293D01*
Y42907D01*
X476800Y22587D01*
X510667Y42907D02*
X517440Y49680D01*
Y19200D01*
X510667D01*
X524213D01*
X551307Y49680D02*
X544533D01*
X537760Y42907D01*
Y22587D01*
X541147Y19200D01*
X551307D01*
X554693Y22587D01*
Y32747D01*
X551307Y36133D01*
X537760D01*
X598720Y46293D02*
X602107Y49680D01*
X612267D01*
X615653Y46293D01*
Y42907D01*
X598720Y25973D01*
Y19200D01*
X615653D01*
X632587Y42907D02*
X639360Y49680D01*
Y19200D01*
X632587D01*
X646133D01*
X673227Y39520D02*
Y42907D01*
X669840D01*
Y39520D01*
X673227D01*
Y25973D02*
Y29360D01*
X669840D01*
Y25973D01*
X673227D01*
X710480Y46293D02*
Y22587D01*
X707093Y19200D01*
X693547D01*
X690160Y22587D01*
Y46293D01*
X693547Y49680D01*
X707093D01*
X710480Y46293D01*
Y42907D01*
X690160Y22587D01*
X737573Y32747D02*
X720640D01*
Y36133D01*
X734187Y49680D01*
Y19200D01*
X764667Y39520D02*
Y42907D01*
X761280D01*
Y39520D01*
X764667D01*
Y25973D02*
Y29360D01*
X761280D01*
Y25973D01*
X764667D01*
X798533Y32747D02*
X781600D01*
Y36133D01*
X795147Y49680D01*
Y19200D01*
X815467Y42907D02*
X822240Y49680D01*
Y19200D01*
X815467D01*
X829013D01*
M02*
