G04 Drill *
G04 Layout scart-mux.pcb *
G04 Designed with PCB elegance 3.51 *
G04 *
G04 *
%FSLAX34Y34*%
%MOMM*%
G75*
G01*
%IPPOS*%
%ADD100C,0.2000*%
%ADD200C,1.2000*%
%ADD201C,3.2000*%
%ADD202C,1.0000*%
%ADD203C,0.8000*%
%ADD204C,0.7000*%
%ADD205C,0.4000*%
G54D200*
X395600Y348600D03*
X376550Y399400D03*
X357500Y348600D03*
X395600Y760600D03*
X376550Y811400D03*
X357500Y760600D03*
X643250Y811400D03*
X624200Y760600D03*
X605150Y811400D03*
X586100Y760600D03*
X567050Y811400D03*
X548000Y760600D03*
X528950Y811400D03*
X509900Y760600D03*
X490850Y811400D03*
X471800Y760600D03*
X452750Y811400D03*
X433700Y760600D03*
X414650Y811400D03*
X490500Y620000D03*
X525500Y605000D03*
X482500Y580000D03*
X533500D03*
X490500Y540000D03*
X525500Y555000D03*
X643250Y399400D03*
X624200Y348600D03*
X605150Y399400D03*
X586100Y348600D03*
X567050Y399400D03*
X548000Y348600D03*
X528950Y399400D03*
X509900Y348600D03*
X490850Y399400D03*
X471800Y348600D03*
X452750Y399400D03*
X433700Y348600D03*
X414650Y399400D03*
X738500Y348600D03*
X719450Y399400D03*
X700400Y348600D03*
X681350Y399400D03*
X662300Y348600D03*
X754500Y540000D03*
X789500Y555000D03*
X746500Y580000D03*
X797500D03*
X754500Y620000D03*
X789500Y605000D03*
X738500Y760600D03*
X719450Y811400D03*
X700400Y760600D03*
X681350Y811400D03*
X662300Y760600D03*
X1116750Y811400D03*
X1097700Y760600D03*
X1078650Y811400D03*
X1059600Y760600D03*
X1040550Y811400D03*
X1021500Y760600D03*
X1116750Y399400D03*
X1097700Y348600D03*
X1078650Y399400D03*
X1059600Y348600D03*
X1040550Y399400D03*
X1021500Y348600D03*
X1345350Y399400D03*
X1326300Y348600D03*
X1307250Y399400D03*
X1288200Y348600D03*
X1269150Y399400D03*
X1250100Y348600D03*
X1231050Y399400D03*
X1212000Y348600D03*
X1192950Y399400D03*
X1173900Y348600D03*
X1154850Y399400D03*
X1135800Y348600D03*
X1345350Y811400D03*
X1326300Y760600D03*
X1307250Y811400D03*
X1288200Y760600D03*
X1269150Y811400D03*
X1250100Y760600D03*
X1231050Y811400D03*
X1212000Y760600D03*
X1192950Y811400D03*
X1173900Y760600D03*
X1154850Y811400D03*
X1135800Y760600D03*
X1402500D03*
X1383450Y811400D03*
X1364400Y760600D03*
X1402500Y348600D03*
X1383450Y399400D03*
X1364400Y348600D03*
G54D201*
X255500Y374000D03*
Y786000D03*
X840500Y374000D03*
Y786000D03*
X919500D03*
Y374000D03*
X1504500Y786000D03*
Y374000D03*
G54D202*
X218000Y567200D03*
Y541800D03*
X294000Y567200D03*
Y541800D03*
X218000Y618000D03*
Y592600D03*
X294000Y618000D03*
Y592600D03*
X452000Y592800D03*
Y618200D03*
X564000Y618000D03*
Y592600D03*
X452000Y542000D03*
Y567400D03*
X564000Y567200D03*
Y541800D03*
X867200Y320000D03*
X841800D03*
X816400D03*
X720000Y542000D03*
Y567400D03*
Y592800D03*
Y618200D03*
X918000Y320000D03*
X892600D03*
G54D203*
X852000Y904500D03*
Y879500D03*
X908000Y904500D03*
Y879500D03*
G54D204*
X322500Y492000D03*
X297500D03*
X550500Y668000D03*
X525500D03*
X480500D03*
X455500D03*
X450500Y492000D03*
X425500D03*
X520500D03*
X495500D03*
X590500D03*
X565500D03*
X742500D03*
X717500D03*
X812500D03*
X787500D03*
G54D205*
X348000Y280000D03*
X330000Y414000D03*
Y426000D03*
X294000D03*
Y414000D03*
X276000Y484000D03*
X262000D03*
X216000Y708000D03*
X228000D03*
Y646000D03*
Y636000D03*
X312000Y680000D03*
X300000D03*
X344000Y882000D03*
X404000Y924000D03*
X444000D03*
X638000D03*
X438000Y424000D03*
Y444000D03*
X410000Y262000D03*
X452000D03*
X634000Y264000D03*
X676000D03*
X860000Y272000D03*
X794000Y242000D03*
X814000Y272000D03*
X818000Y244000D03*
Y260000D03*
X736000Y282000D03*
X704000D03*
X770000Y492000D03*
X870000Y552000D03*
X854000Y538000D03*
X762000Y464000D03*
X774000D03*
X856000Y694000D03*
Y706000D03*
X842000Y692000D03*
X744000Y672000D03*
X754000Y662000D03*
X856000Y626000D03*
Y608000D03*
X838000Y590000D03*
X774000Y702000D03*
X784000Y692000D03*
X872000Y754000D03*
Y722000D03*
X680000Y924000D03*
X686000Y854000D03*
X714000D03*
X756000Y922000D03*
X1022000Y850000D03*
X998000D03*
X1060000Y880000D03*
X1100000Y714000D03*
X1004000Y754000D03*
X990000D03*
X1080000Y694000D03*
X990000Y702000D03*
X1004000Y698000D03*
X964000Y706000D03*
Y686000D03*
X892000Y694000D03*
Y706000D03*
X908000Y692000D03*
X1096000Y610000D03*
X1048000D03*
X1000000Y612000D03*
X986000Y644000D03*
X1060000Y640000D03*
X1084000Y634000D03*
X936000Y662000D03*
X928000Y684000D03*
X916000Y626000D03*
X1032000Y586000D03*
X936000Y626000D03*
X1032000Y562000D03*
X1082000Y578000D03*
X912000Y572000D03*
X950000Y578000D03*
X1046000Y556000D03*
X1028000Y536000D03*
X1000000Y466000D03*
X972000Y564000D03*
X992000Y412000D03*
Y438000D03*
X1004000Y434000D03*
X1000000Y422000D03*
Y402000D03*
X948000Y412000D03*
Y424000D03*
Y438000D03*
Y400000D03*
X886000Y242000D03*
X908000Y244000D03*
X940000Y288000D03*
Y300000D03*
X894000Y284000D03*
X1106000Y234000D03*
X1054000Y280000D03*
X908000Y260000D03*
X986000Y280000D03*
X968000Y288000D03*
Y300000D03*
X1332000Y234000D03*
X1150000D03*
X1214000Y418000D03*
Y448000D03*
X1230000D03*
Y422000D03*
X1236000Y540000D03*
X1214000D03*
X1258000Y530000D03*
X1214000Y528000D03*
X1260000Y518000D03*
X1214000Y516000D03*
X1232000Y464000D03*
X1206000D03*
X1268000Y580000D03*
X1186000Y464000D03*
X1242000Y456000D03*
X1348000Y550000D03*
X1346000Y536000D03*
X1138000Y492000D03*
X1178000Y484000D03*
X1322000Y478000D03*
X1258000Y638000D03*
X1270000D03*
X1274000Y650000D03*
Y662000D03*
Y682000D03*
X1250000Y680000D03*
X1288000Y682000D03*
X1298000Y672000D03*
X1336000Y630000D03*
X1244000Y600000D03*
X1340000Y688000D03*
Y700000D03*
X1210000Y680000D03*
Y692000D03*
X1214000Y704000D03*
X1194000Y628000D03*
X1204000Y668000D03*
X1180000Y642000D03*
X1190000Y650000D03*
X1162000Y642000D03*
X1318000Y672000D03*
X1328000Y688000D03*
X1120000Y738000D03*
X1140000D03*
X1120000Y726000D03*
X1140000D03*
X1252000Y712000D03*
X1242000Y722000D03*
X1214000Y732000D03*
X1120000Y898000D03*
X1160000D03*
X1378000D03*
X1380000Y920000D03*
X1458000Y750000D03*
X1480000D03*
X1454000Y738000D03*
X1480000D03*
X1368000D03*
X1388000D03*
X1396000Y716000D03*
X1494000Y676000D03*
X1478000D03*
X1518000Y644000D03*
X1530000D03*
Y670000D03*
X1518000D03*
X1502000Y590000D03*
X1512000Y632000D03*
X1524000Y626000D03*
X1456000Y660000D03*
Y648000D03*
Y636000D03*
X1444000Y642000D03*
X1438000Y620000D03*
X1390000Y640000D03*
X1402000D03*
X1398000Y652000D03*
X1410000Y656000D03*
Y676000D03*
X1398000D03*
X1440000Y680000D03*
X1404000Y700000D03*
X1416000D03*
X1374000Y600000D03*
X1368000Y700000D03*
X1402000Y580000D03*
X1484000Y470000D03*
X1496000Y458000D03*
X1494000Y532000D03*
X1470000D03*
X1370000Y540000D03*
X1524000Y570000D03*
X1360000Y478000D03*
X1380000D03*
X1414000Y512000D03*
X1436000D03*
X1420000Y500000D03*
X1436000D03*
X1452000Y480000D03*
X1460000Y448000D03*
X1488000D03*
X1360000Y418000D03*
Y442000D03*
X1368000Y234000D03*
X1406000Y238000D03*
G54D100*
X172000Y124187D02*
X175387Y120800D01*
X188933D01*
X192320Y124187D01*
Y127573D01*
X188933Y130960D01*
X175387D01*
X172000Y134347D01*
Y137733D01*
X175387Y141120D01*
X188933D01*
X192320Y137733D01*
X222800D02*
X219413Y141120D01*
X209253D01*
X205867Y137733D01*
Y124187D01*
X209253Y120800D01*
X219413D01*
X222800Y124187D01*
X253280Y141120D02*
Y120800D01*
Y124187D01*
X249893Y120800D01*
X239733D01*
X236347Y124187D01*
Y137733D01*
X239733Y141120D01*
X249893D01*
X253280Y137733D01*
X266827Y120800D02*
Y141120D01*
Y137733D01*
X270213Y141120D01*
X280373D01*
X283760Y137733D01*
X304080Y147893D02*
Y124187D01*
X307467Y120800D01*
X297307Y141120D02*
X310853D01*
X327787Y134347D02*
X344720D01*
X354880Y120800D02*
Y141120D01*
X361653D01*
X365040Y137733D01*
X368427Y141120D01*
X371813D01*
X375200Y137733D01*
Y120800D01*
X365040Y137733D02*
Y124187D01*
X402293Y141120D02*
Y120800D01*
Y124187D01*
X398907Y120800D01*
X392133D01*
X388747Y124187D01*
Y141120D01*
X415840D02*
X436160Y120800D01*
X415840D02*
X436160Y141120D01*
X172000Y100480D02*
X185547D01*
X192320Y93707D01*
Y76773D01*
X185547Y70000D01*
X172000D01*
X175387Y100480D02*
Y70000D01*
X205867D02*
Y90320D01*
Y86933D01*
X209253Y90320D01*
X219413D01*
X222800Y86933D01*
X243120Y97093D02*
D01*
Y90320D02*
Y70000D01*
X273600Y100480D02*
Y70000D01*
X270213D02*
X276987D01*
X304080Y100480D02*
Y70000D01*
X300693D02*
X307467D01*
X324400Y73387D02*
X327787Y70000D01*
X341333D01*
X344720Y73387D01*
Y76773D01*
X341333Y80160D01*
X327787D01*
X324400Y83547D01*
Y86933D01*
X327787Y90320D01*
X341333D01*
X344720Y86933D01*
X172000Y25973D02*
Y22587D01*
X175387Y19200D01*
X182160D01*
X188933D01*
Y49680D01*
X182160D02*
X188933D01*
X219413Y39520D02*
Y19200D01*
Y22587D01*
X216027Y19200D01*
X209253D01*
X205867Y22587D01*
Y39520D01*
X243120Y49680D02*
Y19200D01*
X239733D02*
X246507D01*
X266827Y39520D02*
Y22587D01*
X270213Y19200D01*
X283760D01*
Y39520D01*
Y12427D01*
X280373Y9040D01*
X270213D01*
X327787Y42907D02*
X334560Y49680D01*
Y19200D01*
X327787D01*
X341333D01*
X358267Y42907D02*
X365040Y49680D01*
Y19200D01*
X358267D01*
X371813D01*
X395520Y12427D02*
X398907Y15813D01*
Y22587D01*
X395520D01*
Y19200D01*
X398907D01*
X446320Y46293D02*
X449707Y49680D01*
X459867D01*
X463253Y46293D01*
Y42907D01*
X446320Y25973D01*
Y19200D01*
X463253D01*
X497120Y46293D02*
Y22587D01*
X493733Y19200D01*
X480187D01*
X476800Y22587D01*
Y46293D01*
X480187Y49680D01*
X493733D01*
X497120Y46293D01*
Y42907D01*
X476800Y22587D01*
X510667Y42907D02*
X517440Y49680D01*
Y19200D01*
X510667D01*
X524213D01*
X551307Y49680D02*
X544533D01*
X537760Y42907D01*
Y22587D01*
X541147Y19200D01*
X551307D01*
X554693Y22587D01*
Y32747D01*
X551307Y36133D01*
X537760D01*
X598720Y46293D02*
X602107Y49680D01*
X612267D01*
X615653Y46293D01*
Y42907D01*
X598720Y25973D01*
Y19200D01*
X615653D01*
X632587Y42907D02*
X639360Y49680D01*
Y19200D01*
X632587D01*
X646133D01*
X673227Y39520D02*
Y42907D01*
X669840D01*
Y39520D01*
X673227D01*
Y25973D02*
Y29360D01*
X669840D01*
Y25973D01*
X673227D01*
X710480Y46293D02*
Y22587D01*
X707093Y19200D01*
X693547D01*
X690160Y22587D01*
Y46293D01*
X693547Y49680D01*
X707093D01*
X710480Y46293D01*
Y42907D01*
X690160Y22587D01*
X737573Y32747D02*
X720640D01*
Y36133D01*
X734187Y49680D01*
Y19200D01*
X764667Y39520D02*
Y42907D01*
X761280D01*
Y39520D01*
X764667D01*
Y25973D02*
Y29360D01*
X761280D01*
Y25973D01*
X764667D01*
X798533Y32747D02*
X781600D01*
Y36133D01*
X795147Y49680D01*
Y19200D01*
X812080Y46293D02*
X815467Y49680D01*
X825627D01*
X829013Y46293D01*
Y42907D01*
X812080Y25973D01*
Y19200D01*
X829013D01*
M02*
