G04 Info3 *
G04 Layout scart-mux.pcb *
G04 Designed with PCB elegance 3.51 *
G04 *
G04 *
%FSLAX34Y34*%
%MOMM*%
G75*
G01*
%IPPOS*%
%ADD100C,0.2000*%
G54D100*
X255500Y390000D02*
G03X255528I0J-16000D01*
X376000Y642000D02*
G03X376108I0J-62000D01*
X255500Y802000D02*
G03X255528I0J-16000D01*
X508000Y612000D02*
G03X508056I0J-32000D01*
X640000Y638000D02*
G03X640101I0J-58000D01*
X840500Y390000D02*
G03X840528I0J-16000D01*
X772000Y612000D02*
G03X772056I0J-32000D01*
X840500Y802000D02*
G03X840528I0J-16000D01*
X852000Y908000D02*
G03X852028I0J-16000D01*
X908000Y908000D02*
G03X908028I0J-16000D01*
X919500Y802000D02*
G03X919528I0J-16000D01*
X919500Y390000D02*
G03X919528I0J-16000D01*
X1504500Y802000D02*
G03X1504528I0J-16000D01*
X1504500Y390000D02*
G03X1504528I0J-16000D01*
G54D100*
G01X172000Y124187D02*
X175387Y120800D01*
X188933D01*
X192320Y124187D01*
Y127573D01*
X188933Y130960D01*
X175387D01*
X172000Y134347D01*
Y137733D01*
X175387Y141120D01*
X188933D01*
X192320Y137733D01*
X222800D02*
X219413Y141120D01*
X209253D01*
X205867Y137733D01*
Y124187D01*
X209253Y120800D01*
X219413D01*
X222800Y124187D01*
X253280Y141120D02*
Y120800D01*
Y124187D01*
X249893Y120800D01*
X239733D01*
X236347Y124187D01*
Y137733D01*
X239733Y141120D01*
X249893D01*
X253280Y137733D01*
X266827Y120800D02*
Y141120D01*
Y137733D01*
X270213Y141120D01*
X280373D01*
X283760Y137733D01*
X304080Y147893D02*
Y124187D01*
X307467Y120800D01*
X297307Y141120D02*
X310853D01*
X327787Y134347D02*
X344720D01*
X354880Y120800D02*
Y141120D01*
X361653D01*
X365040Y137733D01*
X368427Y141120D01*
X371813D01*
X375200Y137733D01*
Y120800D01*
X365040Y137733D02*
Y124187D01*
X402293Y141120D02*
Y120800D01*
Y124187D01*
X398907Y120800D01*
X392133D01*
X388747Y124187D01*
Y141120D01*
X415840D02*
X436160Y120800D01*
X415840D02*
X436160Y141120D01*
X178773Y70000D02*
X185547D01*
X182160D02*
Y100480D01*
X178773D02*
X185547D01*
X205867Y70000D02*
Y90320D01*
Y86933D01*
X209253Y90320D01*
X219413D01*
X222800Y86933D01*
Y70000D01*
X249893Y97093D02*
X246507Y100480D01*
X239733D01*
X236347Y97093D01*
Y70000D01*
X232960Y86933D02*
X239733D01*
X232960Y70000D02*
X239733D01*
X266827Y73387D02*
Y86933D01*
X270213Y90320D01*
X280373D01*
X283760Y86933D01*
Y73387D01*
X280373Y70000D01*
X270213D01*
X266827Y73387D01*
X293920Y97093D02*
X297307Y100480D01*
X307467D01*
X310853Y97093D01*
Y86933D01*
X300693D01*
X310853D01*
Y73387D01*
X307467Y70000D01*
X297307D01*
X293920Y73387D01*
X172000Y25973D02*
Y22587D01*
X175387Y19200D01*
X182160D01*
X188933D01*
Y49680D01*
X182160D02*
X188933D01*
X219413Y39520D02*
Y19200D01*
Y22587D01*
X216027Y19200D01*
X209253D01*
X205867Y22587D01*
Y39520D01*
X243120Y49680D02*
Y19200D01*
X239733D02*
X246507D01*
X266827Y39520D02*
Y22587D01*
X270213Y19200D01*
X283760D01*
Y39520D01*
Y12427D01*
X280373Y9040D01*
X270213D01*
X327787Y42907D02*
X334560Y49680D01*
Y19200D01*
X327787D01*
X341333D01*
X358267Y42907D02*
X365040Y49680D01*
Y19200D01*
X358267D01*
X371813D01*
X395520Y12427D02*
X398907Y15813D01*
Y22587D01*
X395520D01*
Y19200D01*
X398907D01*
X446320Y46293D02*
X449707Y49680D01*
X459867D01*
X463253Y46293D01*
Y42907D01*
X446320Y25973D01*
Y19200D01*
X463253D01*
X497120Y46293D02*
Y22587D01*
X493733Y19200D01*
X480187D01*
X476800Y22587D01*
Y46293D01*
X480187Y49680D01*
X493733D01*
X497120Y46293D01*
Y42907D01*
X476800Y22587D01*
X510667Y42907D02*
X517440Y49680D01*
Y19200D01*
X510667D01*
X524213D01*
X551307Y49680D02*
X544533D01*
X537760Y42907D01*
Y22587D01*
X541147Y19200D01*
X551307D01*
X554693Y22587D01*
Y32747D01*
X551307Y36133D01*
X537760D01*
X598720Y46293D02*
X602107Y49680D01*
X612267D01*
X615653Y46293D01*
Y42907D01*
X598720Y25973D01*
Y19200D01*
X615653D01*
X632587Y42907D02*
X639360Y49680D01*
Y19200D01*
X632587D01*
X646133D01*
X673227Y39520D02*
Y42907D01*
X669840D01*
Y39520D01*
X673227D01*
Y25973D02*
Y29360D01*
X669840D01*
Y25973D01*
X673227D01*
X710480Y46293D02*
Y22587D01*
X707093Y19200D01*
X693547D01*
X690160Y22587D01*
Y46293D01*
X693547Y49680D01*
X707093D01*
X710480Y46293D01*
Y42907D01*
X690160Y22587D01*
X737573Y32747D02*
X720640D01*
Y36133D01*
X734187Y49680D01*
Y19200D01*
X764667Y39520D02*
Y42907D01*
X761280D01*
Y39520D01*
X764667D01*
Y25973D02*
Y29360D01*
X761280D01*
Y25973D01*
X764667D01*
X798533Y32747D02*
X781600D01*
Y36133D01*
X795147Y49680D01*
Y19200D01*
X812080Y46293D02*
X815467Y49680D01*
X825627D01*
X829013Y46293D01*
Y42907D01*
X812080Y25973D01*
Y19200D01*
X829013D01*
M02*
