M48
METRIC,TZ
T1C.400
T2C3.000
T3C1.000
%
M47, File: n64rgb.ncd
M71
G90
G05
T1
X158000Y298000
X126000Y210000
X134000Y122000
X126000Y170000
X314000Y60000
X268000Y160000
X242000Y168000
X282000Y174000
X246000Y200000
X234000Y204000
X276000Y218000
X264000Y226000
X290000Y228000
X294000Y260000
X458000Y354000
X360000
X368000Y340000
X406000Y226000
X428000
X358000
X342000Y174000
X340000Y154000
X464000
X352000Y102000
X412000
X422000
X528000Y66000
Y56000
X566000Y182000
X510000Y124000
X488000Y244000
X586000Y230000
X520000Y364000
X690000Y310000
X632000Y182000
X654000Y218000
T2
X128000Y74000
X402000Y380000
X646000Y108000
T3
X469900Y381000
X647700
M30
