M48
METRIC,TZ
T1C1.200
T2C3.200
T3C1.200
T4C1.000
T5C.800
T6C.700
T7C.400
%
M47, File: scart-mux.ncd
M71
G90
G05
T1
X414650Y399400
X395600Y348600
X376550Y399400
X357500Y348600
X414650Y811400
X395600Y760600
X376550Y811400
X357500Y760600
X643250Y811400
X624200Y760600
X605150Y811400
X586100Y760600
X567050Y811400
X548000Y760600
X528950Y811400
X509900Y760600
X490850Y811400
X471800Y760600
X452750Y811400
X433700Y760600
X490500Y620000
X525500Y605000
X482500Y580000
X490500Y540000
X525500Y555000
X643250Y399400
X624200Y348600
X605150Y399400
X586100Y348600
X567050Y399400
X548000Y348600
X528950Y399400
X509900Y348600
X490850Y399400
X471800Y348600
X452750Y399400
X433700Y348600
X738500
X719450Y399400
X700400Y348600
X681350Y399400
X662300Y348600
X754500Y540000
X789500Y555000
X746500Y580000
X754500Y620000
X789500Y605000
X738500Y760600
X719450Y811400
X700400Y760600
X681350Y811400
X662300Y760600
X1116750Y811400
X1097700Y760600
X1078650Y811400
X1059600Y760600
X1040550Y811400
X1021500Y760600
X1116750Y399400
X1097700Y348600
X1078650Y399400
X1059600Y348600
X1040550Y399400
X1021500Y348600
X1345350Y399400
X1326300Y348600
X1307250Y399400
X1288200Y348600
X1269150Y399400
X1250100Y348600
X1231050Y399400
X1212000Y348600
X1192950Y399400
X1173900Y348600
X1154850Y399400
X1135800Y348600
X1345350Y811400
X1326300Y760600
X1307250Y811400
X1288200Y760600
X1269150Y811400
X1250100Y760600
X1231050Y811400
X1212000Y760600
X1192950Y811400
X1173900Y760600
X1154850Y811400
X1135800Y760600
X1402500
X1383450Y811400
X1364400Y760600
X1402500Y348600
X1383450Y399400
X1364400Y348600
T2
X255500Y374000
Y786000
X840500Y374000
Y786000
X919500
Y374000
X1504500Y786000
Y374000
T3
X533500Y580000
X797500
T4
X218000Y567200
Y541800
X294000Y567200
Y541800
X218000Y618000
Y592600
X294000Y618000
Y592600
X452000Y592800
Y618200
X564000Y618000
Y592600
X452000Y542000
Y567400
X564000Y567200
Y541800
X867200Y320000
X841800
X816400
X720000Y542000
Y567400
Y592800
Y618200
X918000Y320000
X892600
T5
X852000Y904500
Y879500
X908000Y904500
Y879500
T6
X322500Y492000
X297500
X550500Y668000
X525500
X480500
X455500
X450500Y492000
X425500
X520500
X495500
X590500
X565500
X742500
X717500
X812500
X787500
T7
X348000Y280000
X410000Y262000
X330000Y414000
Y426000
X294000
Y414000
X276000Y484000
X262000
X216000Y708000
X228000
Y646000
Y636000
X312000Y680000
X300000
X344000Y882000
X404000Y924000
X444000
X638000
X438000Y424000
Y444000
X452000Y262000
X634000Y264000
X676000
X860000Y272000
X794000Y242000
X814000Y272000
X818000Y244000
Y260000
X736000Y282000
X704000
X770000Y492000
X870000Y552000
X854000Y538000
X762000Y464000
X774000
X856000Y694000
Y706000
X842000Y692000
X744000Y672000
X754000Y662000
X856000Y626000
Y608000
X838000Y590000
X774000Y702000
X784000Y692000
X872000Y754000
Y722000
X680000Y924000
X686000Y854000
X714000
X756000Y922000
X1022000Y850000
X998000
X1060000Y880000
X1100000Y714000
X1004000Y754000
X990000
X964000Y706000
X892000
X1080000Y694000
X990000Y702000
X1004000Y698000
X964000Y686000
X892000Y694000
X908000Y692000
X1096000Y610000
X1048000
X1000000Y612000
X986000Y644000
X1060000Y640000
X1084000Y634000
X936000Y662000
X928000Y684000
X916000Y626000
X1032000Y586000
X1082000Y578000
X950000
X936000Y626000
X1032000Y562000
X912000Y572000
X1046000Y556000
X1028000Y536000
X1000000Y466000
X972000Y564000
X992000Y412000
Y438000
X1004000Y434000
X1000000Y422000
Y402000
X948000Y412000
Y424000
Y438000
Y400000
X886000Y242000
X908000Y244000
X940000Y288000
Y300000
X894000Y284000
X1106000Y234000
X1054000Y280000
X908000Y260000
X986000Y280000
X968000Y288000
Y300000
X1332000Y234000
X1150000
X1214000Y418000
Y448000
X1230000
X1242000Y456000
X1230000Y422000
X1236000Y540000
X1214000
X1258000Y530000
X1214000Y528000
X1260000Y518000
X1214000Y516000
X1232000Y464000
X1206000
X1268000Y580000
X1186000Y464000
X1348000Y550000
X1346000Y536000
X1138000Y492000
X1178000Y484000
X1322000Y478000
X1258000Y638000
X1270000
X1274000Y650000
Y662000
Y682000
X1250000Y680000
X1288000Y682000
X1298000Y672000
X1336000Y630000
X1244000Y600000
X1340000Y688000
Y700000
X1252000Y712000
X1210000Y680000
Y692000
X1214000Y704000
X1194000Y628000
X1204000Y668000
X1180000Y642000
X1190000Y650000
X1162000Y642000
X1318000Y672000
X1328000Y688000
X1120000Y738000
X1140000
X1120000Y726000
X1140000
X1242000Y722000
X1214000Y732000
X1120000Y898000
X1160000
X1378000
X1380000Y920000
X1458000Y750000
X1480000
X1454000Y738000
X1480000
X1368000
X1388000
X1396000Y716000
X1494000Y676000
X1478000
X1518000Y644000
X1530000
Y670000
X1518000
X1502000Y590000
X1512000Y632000
X1524000Y626000
X1456000Y660000
Y648000
Y636000
X1444000Y642000
X1438000Y620000
X1390000Y640000
X1402000
X1398000Y652000
X1410000Y656000
Y676000
X1398000
X1440000Y680000
X1404000Y700000
X1416000
X1374000Y600000
X1368000Y700000
X1402000Y580000
X1484000Y470000
X1460000Y448000
X1488000
X1496000Y458000
X1494000Y532000
X1470000
X1370000Y540000
X1524000Y570000
X1360000Y478000
X1380000
X1414000Y512000
X1436000
X1420000Y500000
X1436000
X1452000Y480000
X1360000Y418000
Y442000
X1368000Y234000
X1406000Y238000
M30
