G04 SilkscreenTop *
G04 Layout testing.pcb *
G04 Designed with PCB elegance 3.51 *
G04 *
G04 *
%FSLAX34Y34*%
%MOMM*%
G75*
G01*
%IPPOS*%
%ADD100C,0.2000*%
%ADD101C,0.3000*%
%ADD200C,0.2032*%
G54D200*
X15240Y1789430D02*
G03X40640I12700J0D01*
G01X21590Y1567180D02*
X10340D01*
X15340D02*
Y1574680D01*
X21590D02*
X10340D01*
X20340Y1585930D02*
X21590Y1584680D01*
Y1580930D01*
X20340Y1579680D01*
X15340D01*
X14090Y1580930D01*
Y1584680D01*
X15340Y1585930D01*
X16590D01*
X17840Y1584680D01*
Y1579680D01*
X10340Y1593430D02*
X21590D01*
Y1592180D02*
Y1594680D01*
X10340Y1604680D02*
X21590D01*
Y1603430D02*
Y1605930D01*
X20340Y1613430D02*
X15340D01*
X14090Y1614680D01*
Y1618430D01*
X15340Y1619680D01*
X20340D01*
X21590Y1618430D01*
Y1614680D01*
X20340Y1613430D01*
X24090Y1627180D02*
X22840Y1628430D01*
X20340D01*
Y1627180D01*
X21590D01*
Y1628430D01*
X11590Y1649680D02*
X20340D01*
X21590Y1650930D01*
X14090Y1647180D02*
Y1652180D01*
X20340Y1664680D02*
X21590Y1663430D01*
Y1659680D01*
X20340Y1658430D01*
X15340D01*
X14090Y1659680D01*
Y1663430D01*
X15340Y1664680D01*
X16590D01*
X17840Y1663430D01*
Y1658430D01*
X14090Y1668430D02*
X21590Y1675930D01*
Y1668430D02*
X14090Y1675930D01*
X11590Y1683430D02*
X20340D01*
X21590Y1684680D01*
X14090Y1680930D02*
Y1685930D01*
X2540Y1560830D02*
Y1789430D01*
X53340D01*
Y1560830D01*
X2540D01*
X436880Y1145540D02*
G03X462280I12700J0D01*
G01X443230Y923290D02*
X431980D01*
X436980D02*
Y930790D01*
X443230D02*
X431980D01*
X441980Y942040D02*
X443230Y940790D01*
Y937040D01*
X441980Y935790D01*
X436980D01*
X435730Y937040D01*
Y940790D01*
X436980Y942040D01*
X438230D01*
X439480Y940790D01*
Y935790D01*
X431980Y949540D02*
X443230D01*
Y948290D02*
Y950790D01*
X431980Y960790D02*
X443230D01*
Y959540D02*
Y962040D01*
X441980Y969540D02*
X436980D01*
X435730Y970790D01*
Y974540D01*
X436980Y975790D01*
X441980D01*
X443230Y974540D01*
Y970790D01*
X441980Y969540D01*
X445730Y983290D02*
X444480Y984540D01*
X441980D01*
Y983290D01*
X443230D01*
Y984540D01*
X433230Y1005790D02*
X441980D01*
X443230Y1007040D01*
X435730Y1003290D02*
Y1008290D01*
X441980Y1020790D02*
X443230Y1019540D01*
Y1015790D01*
X441980Y1014540D01*
X436980D01*
X435730Y1015790D01*
Y1019540D01*
X436980Y1020790D01*
X438230D01*
X439480Y1019540D01*
Y1014540D01*
X435730Y1024540D02*
X443230Y1032040D01*
Y1024540D02*
X435730Y1032040D01*
X433230Y1039540D02*
X441980D01*
X443230Y1040790D01*
X435730Y1037040D02*
Y1042040D01*
X424180Y916940D02*
Y1145540D01*
X474980D01*
Y916940D01*
X424180D01*
G54D100*
X463550Y146050D02*
X355600Y419100D01*
X393700Y908050D01*
%LPD*%G36*
X2064500Y682375D02*
X2065250Y682125D01*
X2066000Y681750D01*
X2066875Y681500D01*
X2067750Y681250D01*
X2068625Y681000D01*
X2069500Y680750D01*
X2070500Y680625D01*
X2071000Y680500D01*
X2071500Y680375D01*
X2072000Y680250D01*
X2072500D01*
X2073125Y680125D01*
X2073750Y680000D01*
X2074250D01*
X2074875Y679875D01*
X2075625D01*
X2076250D01*
X2077000Y679750D01*
X2077625D01*
X2078375D01*
X2079125D01*
X2079875D01*
X2080750D01*
X2082000D01*
X2083250D01*
X2084500Y679875D01*
X2085750Y680125D01*
X2086875Y680250D01*
X2088000Y680500D01*
X2089125Y680875D01*
X2090250Y681125D01*
X2091250Y681500D01*
X2092250Y682000D01*
X2093250Y682500D01*
X2094250Y683000D01*
X2095125Y683625D01*
X2096000Y684250D01*
X2096875Y684875D01*
X2097750Y685500D01*
X2098125Y685875D01*
X2098500Y686250D01*
X2098875Y686750D01*
X2099250Y687125D01*
X2099625Y687500D01*
X2099875Y687875D01*
X2100250Y688375D01*
X2100500Y688750D01*
X2100875Y689250D01*
X2101125Y689625D01*
X2101375Y690125D01*
X2101625Y690625D01*
X2101875Y691125D01*
X2102125Y691625D01*
X2102375Y692125D01*
X2102500Y692625D01*
X2102750Y693125D01*
X2102875Y693625D01*
X2103125Y694125D01*
X2103250Y694750D01*
X2103375Y695250D01*
X2103500Y695875D01*
X2103625Y696375D01*
X2103750Y697000D01*
X2103875Y697625D01*
Y698125D01*
X2104000Y698750D01*
Y699375D01*
X2104125Y700000D01*
Y700625D01*
Y701375D01*
Y702000D01*
Y737125D01*
X2124000D01*
Y746500D01*
X2104125D01*
Y769375D01*
X2092375D01*
Y746500D01*
X2068375D01*
Y737125D01*
X2092375D01*
Y701500D01*
Y700750D01*
Y700250D01*
Y699625D01*
X2092250Y699125D01*
Y698625D01*
X2092125Y698125D01*
X2092000Y697500D01*
X2091875Y697000D01*
X2091750Y696625D01*
X2091500Y696125D01*
X2091375Y695625D01*
X2091125Y695125D01*
X2090875Y694750D01*
X2090625Y694250D01*
X2090375Y693875D01*
X2090125Y693500D01*
X2089750Y693125D01*
X2089500Y692750D01*
X2089125Y692375D01*
X2088625Y692000D01*
X2088250Y691750D01*
X2087750Y691500D01*
X2087250Y691250D01*
X2086750Y691000D01*
X2086125Y690875D01*
X2085625Y690750D01*
X2084875Y690625D01*
X2084250Y690500D01*
X2083625Y690375D01*
X2082875Y690250D01*
X2082125D01*
X2081250D01*
X2080500D01*
X2079750D01*
X2079000D01*
X2078250Y690375D01*
X2077500D01*
X2076750D01*
X2076125Y690500D01*
X2075500D01*
X2074750Y690625D01*
X2074125Y690750D01*
X2073500D01*
X2073000Y690875D01*
X2072375Y691000D01*
X2071875Y691125D01*
X2071250Y691250D01*
X2070750Y691375D01*
X2069750Y691750D01*
X2068750Y692000D01*
X2067875Y692375D01*
X2067000Y692750D01*
X2066125Y693125D01*
X2065250Y693500D01*
X2064500Y693875D01*
X2063750Y694375D01*
Y682625D01*
X2064500Y682375D01*
G37*
%LPD*%
%LPD*%G36*
X1998125Y680875D02*
Y723125D01*
Y723875D01*
X1998250Y724750D01*
Y725625D01*
X1998375Y726375D01*
X1998500Y727125D01*
X1998625Y727875D01*
X1998875Y728625D01*
X1999000Y729375D01*
X1999250Y730000D01*
X1999500Y730750D01*
X1999750Y731375D01*
X2000125Y732000D01*
X2000500Y732500D01*
X2000875Y733125D01*
X2001250Y733625D01*
X2001625Y734250D01*
X2002125Y734750D01*
X2002625Y735125D01*
X2003125Y735625D01*
X2003625Y736000D01*
X2004125Y736375D01*
X2004625Y736750D01*
X2005250Y737000D01*
X2005750Y737250D01*
X2006375Y737500D01*
X2007000Y737750D01*
X2007625Y737875D01*
X2008250Y738000D01*
X2008875Y738125D01*
X2009625Y738250D01*
X2010375D01*
X2011000D01*
X2011500D01*
X2012000D01*
X2012500D01*
X2012875Y738125D01*
X2013375D01*
X2013875Y738000D01*
X2014375Y737875D01*
X2014750Y737750D01*
X2015250Y737625D01*
X2015750Y737500D01*
X2016125Y737375D01*
X2016625Y737125D01*
X2017125Y737000D01*
X2017500Y736750D01*
X2018000Y736500D01*
X2018375Y736375D01*
X2018875Y736125D01*
X2019375Y735750D01*
X2019750Y735500D01*
X2020250Y735250D01*
X2020625Y734875D01*
X2021125Y734500D01*
X2021500Y734250D01*
X2022000Y733875D01*
X2022375Y733500D01*
X2022875Y733125D01*
X2023250Y732625D01*
X2023750Y732250D01*
X2024125Y731750D01*
X2024500Y731375D01*
X2025000Y730875D01*
X2025375Y730375D01*
X2025750Y729875D01*
X2026250Y729375D01*
X2026625Y728875D01*
X2027000Y728375D01*
X2027375Y727875D01*
X2027625Y727250D01*
X2028000Y726750D01*
X2028375Y726250D01*
X2028625Y725625D01*
X2029000Y725125D01*
X2029250Y724500D01*
X2029500Y723875D01*
X2029750Y723375D01*
X2030000Y722750D01*
X2030250Y722125D01*
X2030500Y721500D01*
X2030625Y720875D01*
X2030875Y720250D01*
X2031000Y719625D01*
X2031125Y719000D01*
X2031375Y718375D01*
X2031500Y717750D01*
X2031625Y717000D01*
X2031750Y716375D01*
Y715750D01*
X2031875Y715000D01*
X2032000Y714375D01*
Y713625D01*
X2032125Y712875D01*
Y712250D01*
Y711500D01*
Y710750D01*
Y680875D01*
X2043750D01*
Y781125D01*
X2032125D01*
Y734250D01*
X2031500Y735000D01*
X2031000Y735750D01*
X2030375Y736500D01*
X2029750Y737250D01*
X2029125Y737875D01*
X2028500Y738625D01*
X2027875Y739250D01*
X2027250Y739875D01*
X2026625Y740500D01*
X2025875Y741125D01*
X2025250Y741625D01*
X2024625Y742250D01*
X2023875Y742750D01*
X2023250Y743250D01*
X2022625Y743750D01*
X2021875Y744125D01*
X2021125Y744625D01*
X2020500Y745000D01*
X2019625Y745375D01*
X2018875Y745750D01*
X2018125Y746000D01*
X2017250Y746250D01*
X2016375Y746500D01*
X2015500Y746750D01*
X2014625Y747000D01*
X2013625Y747125D01*
X2012750Y747375D01*
X2011750Y747500D01*
X2010750D01*
X2009625Y747625D01*
X2008625D01*
X2007500D01*
X2006875D01*
X2006250D01*
X2005625D01*
X2005000D01*
X2004375Y747500D01*
X2003750D01*
X2003125Y747375D01*
X2002625Y747250D01*
X2002000D01*
X2001500Y747125D01*
X2000875Y747000D01*
X2000375Y746875D01*
X1999875Y746750D01*
X1999250Y746500D01*
X1998750Y746375D01*
X1998250Y746250D01*
X1997750Y746000D01*
X1997375Y745875D01*
X1996875Y745625D01*
X1996375Y745375D01*
X1996000Y745125D01*
X1995500Y744875D01*
X1995125Y744625D01*
X1994625Y744375D01*
X1994250Y744125D01*
X1993875Y743750D01*
X1993500Y743500D01*
X1993125Y743125D01*
X1992750Y742875D01*
X1992375Y742500D01*
X1992000Y742125D01*
X1991750Y741750D01*
X1991125Y741125D01*
X1990500Y740250D01*
X1989875Y739500D01*
X1989375Y738750D01*
X1988875Y737875D01*
X1988500Y737000D01*
X1988125Y736125D01*
X1987750Y735250D01*
X1987500Y734250D01*
X1987125Y733375D01*
X1987000Y732375D01*
X1986750Y731375D01*
X1986625Y730375D01*
X1986500Y729375D01*
Y728250D01*
X1986375Y727125D01*
Y680875D01*
X1998125D01*
G37*
%LPD*%
%LPD*%G36*
X1966375Y765250D02*
Y780500D01*
X1954625D01*
X1954750Y765250D01*
X1966375D01*
G37*
%LPD*%
%LPD*%G36*
X1966375Y680875D02*
Y746500D01*
X1954625D01*
X1954750Y680875D01*
X1966375D01*
G37*
%LPD*%
%LPD*%G36*
X1879625Y698500D02*
Y697875D01*
Y697375D01*
X1879750Y696750D01*
Y696250D01*
X1879875Y695625D01*
X1880000Y695125D01*
Y694625D01*
X1880125Y694125D01*
X1880375Y693625D01*
X1880500Y693125D01*
X1880625Y692625D01*
X1880750Y692125D01*
X1881000Y691625D01*
X1881250Y691250D01*
X1881375Y690750D01*
X1881625Y690375D01*
X1881875Y689875D01*
X1882125Y689500D01*
X1882500Y689000D01*
X1882750Y688625D01*
X1883125Y688250D01*
X1883375Y687875D01*
X1883750Y687500D01*
X1884125Y687125D01*
X1884500Y686750D01*
X1884875Y686375D01*
X1885250Y686000D01*
X1885625Y685625D01*
X1886000Y685375D01*
X1886500Y685000D01*
X1886875Y684625D01*
X1887875Y684125D01*
X1888875Y683500D01*
X1889750Y683000D01*
X1890875Y682500D01*
X1891875Y682000D01*
X1893000Y681625D01*
X1894125Y681250D01*
X1895250Y681000D01*
X1896375Y680625D01*
X1897625Y680375D01*
X1898750Y680250D01*
X1900000Y680000D01*
X1901375Y679875D01*
X1902625Y679750D01*
X1904000D01*
X1905375D01*
X1906250D01*
X1907125D01*
X1908000D01*
X1908750D01*
X1909625Y679875D01*
X1910375D01*
X1911250Y680000D01*
X1912000D01*
X1912750Y680125D01*
X1913500Y680250D01*
X1914250Y680375D01*
X1915000Y680500D01*
X1915750Y680625D01*
X1916500Y680750D01*
X1917125Y680875D01*
X1917875Y681125D01*
X1918500Y681250D01*
X1919125Y681500D01*
X1919750Y681625D01*
X1920500Y681875D01*
X1921125Y682125D01*
X1921625Y682375D01*
X1922250Y682625D01*
X1922875Y682875D01*
X1923375Y683125D01*
X1924000Y683375D01*
X1924500Y683625D01*
X1925000Y684000D01*
X1925625Y684250D01*
X1926125Y684625D01*
X1926625Y684875D01*
X1927125Y685250D01*
X1927500Y685625D01*
X1928000Y686000D01*
X1928375Y686375D01*
X1928875Y686750D01*
X1929250Y687125D01*
X1929625Y687500D01*
X1930000Y688000D01*
X1930375Y688375D01*
X1930750Y688750D01*
X1931125Y689250D01*
X1931375Y689625D01*
X1931750Y690125D01*
X1932000Y690625D01*
X1932250Y691125D01*
X1932500Y691625D01*
X1932750Y692125D01*
X1933000Y692625D01*
X1933250Y693125D01*
X1933375Y693625D01*
X1933625Y694125D01*
X1933750Y694750D01*
X1933875Y695250D01*
X1934125Y695875D01*
X1934250Y696375D01*
X1934375Y697000D01*
Y697625D01*
X1934500Y698250D01*
Y698875D01*
X1934625Y699500D01*
Y700125D01*
Y700750D01*
Y701375D01*
X1922875Y701500D01*
X1923000Y700500D01*
X1922875Y699750D01*
X1922750Y698875D01*
X1922625Y698125D01*
X1922500Y697500D01*
X1922250Y696750D01*
X1922000Y696125D01*
X1921750Y695500D01*
X1921375Y695000D01*
X1921000Y694375D01*
X1920625Y693875D01*
X1920125Y693500D01*
X1919625Y693000D01*
X1919125Y692625D01*
X1918625Y692375D01*
X1918000Y692000D01*
X1917375Y691750D01*
X1916750Y691500D01*
X1916000Y691250D01*
X1915375Y691000D01*
X1914625Y690750D01*
X1914000Y690625D01*
X1913250Y690375D01*
X1912500Y690250D01*
X1911750Y690125D01*
X1911000Y690000D01*
X1910125Y689875D01*
X1909375Y689750D01*
X1908500D01*
X1907750D01*
X1906875Y689625D01*
X1906000D01*
X1905125D01*
X1904250Y689750D01*
X1903500D01*
X1902625Y689875D01*
X1901875D01*
X1901250Y690000D01*
X1900500Y690125D01*
X1899875Y690375D01*
X1899125Y690500D01*
X1898500Y690750D01*
X1898000Y690875D01*
X1897375Y691125D01*
X1896875Y691375D01*
X1896375Y691625D01*
X1895875Y692000D01*
X1895375Y692250D01*
X1895000Y692625D01*
X1894625Y693000D01*
X1894250Y693375D01*
X1893875Y693750D01*
X1893625Y694125D01*
X1893250Y694500D01*
X1893000Y694875D01*
X1892750Y695250D01*
X1892625Y695750D01*
X1892375Y696125D01*
X1892250Y696625D01*
X1892125Y697125D01*
X1892000Y697500D01*
Y698000D01*
X1891875Y698500D01*
Y699000D01*
Y699375D01*
X1892000Y699750D01*
Y700125D01*
X1892125Y700500D01*
X1892250Y700875D01*
X1892375Y701250D01*
X1892500Y701625D01*
X1892625Y702000D01*
X1892875Y702375D01*
X1893000Y702750D01*
X1893250Y703125D01*
X1893500Y703375D01*
X1893875Y703750D01*
X1894125Y704125D01*
X1894500Y704500D01*
X1894875Y704875D01*
X1895000Y705125D01*
X1895250Y705250D01*
X1895500Y705375D01*
X1895750Y705625D01*
X1896000Y705750D01*
X1896250Y706000D01*
X1896500Y706125D01*
X1896875Y706250D01*
X1897125Y706500D01*
X1897500Y706625D01*
X1897875Y706750D01*
X1898250Y706875D01*
X1898625Y707125D01*
X1899125Y707250D01*
X1899500Y707375D01*
X1900000Y707500D01*
X1900375Y707625D01*
X1900875Y707875D01*
X1901375Y708000D01*
X1901875Y708125D01*
X1902500Y708250D01*
X1903000Y708375D01*
X1903625Y708500D01*
X1904125Y708625D01*
X1904750Y708750D01*
X1905375Y708875D01*
X1906000Y709000D01*
X1906750Y709125D01*
X1907375Y709250D01*
X1908000Y709375D01*
X1908750Y709500D01*
X1909500Y709625D01*
X1910375Y709750D01*
X1911125Y709875D01*
X1912000Y710000D01*
X1912750Y710125D01*
X1913500Y710250D01*
X1914250Y710375D01*
X1915000Y710500D01*
X1915750Y710625D01*
X1916375Y710875D01*
X1917125Y711000D01*
X1917750Y711125D01*
X1918375Y711375D01*
X1919000Y711500D01*
X1919625Y711750D01*
X1920250Y712000D01*
X1920875Y712125D01*
X1921375Y712375D01*
X1922000Y712625D01*
X1922500Y712750D01*
X1923000Y713000D01*
X1923500Y713250D01*
X1924000Y713500D01*
X1924500Y713750D01*
X1924875Y714000D01*
X1925375Y714250D01*
X1925750Y714625D01*
X1926125Y714875D01*
X1926625Y715125D01*
X1926875Y715375D01*
X1927250Y715750D01*
X1927625Y716000D01*
X1928000Y716375D01*
X1928500Y717000D01*
X1929125Y717625D01*
X1929625Y718250D01*
X1930125Y719000D01*
X1930625Y719750D01*
X1931000Y720500D01*
X1931375Y721250D01*
X1931625Y722125D01*
X1932000Y723000D01*
X1932250Y723750D01*
X1932375Y724750D01*
X1932625Y725625D01*
X1932750Y726500D01*
X1932875Y727500D01*
Y728500D01*
Y729500D01*
Y730375D01*
Y731250D01*
X1932625Y732125D01*
X1932500Y732875D01*
X1932250Y733750D01*
X1932000Y734625D01*
X1931625Y735375D01*
X1931250Y736125D01*
X1930750Y737000D01*
X1930250Y737750D01*
X1929750Y738500D01*
X1929125Y739250D01*
X1928500Y740000D01*
X1927750Y740750D01*
X1927000Y741375D01*
X1926125Y742125D01*
X1925750Y742500D01*
X1925375Y742750D01*
X1924875Y743125D01*
X1924375Y743375D01*
X1923875Y743750D01*
X1923500Y744000D01*
X1923000Y744250D01*
X1922375Y744500D01*
X1921875Y744750D01*
X1921375Y745000D01*
X1920875Y745250D01*
X1920250Y745500D01*
X1919750Y745750D01*
X1919125Y745875D01*
X1918500Y746125D01*
X1917875Y746250D01*
X1917250Y746500D01*
X1916625Y746625D01*
X1916000Y746750D01*
X1915375Y746875D01*
X1914750Y747000D01*
X1914000Y747125D01*
X1913375Y747250D01*
X1912625Y747375D01*
X1911875D01*
X1911125Y747500D01*
X1910375D01*
X1909625Y747625D01*
X1908875D01*
X1908125D01*
X1907375D01*
X1906500D01*
X1905125D01*
X1903750D01*
X1902375Y747500D01*
X1901000Y747375D01*
X1899750Y747125D01*
X1898500Y746875D01*
X1897250Y746625D01*
X1896125Y746375D01*
X1895000Y746000D01*
X1893875Y745625D01*
X1892750Y745125D01*
X1891750Y744750D01*
X1890750Y744250D01*
X1889875Y743625D01*
X1889000Y743000D01*
X1888125Y742375D01*
X1887625Y742125D01*
X1887250Y741750D01*
X1886875Y741375D01*
X1886500Y741000D01*
X1886125Y740625D01*
X1885750Y740250D01*
X1885500Y739875D01*
X1885125Y739500D01*
X1884875Y739125D01*
X1884500Y738750D01*
X1884250Y738375D01*
X1884000Y738000D01*
X1883750Y737500D01*
X1883500Y737125D01*
X1883250Y736625D01*
X1883000Y736250D01*
X1882875Y735750D01*
X1882625Y735375D01*
X1882500Y734875D01*
X1882250Y734375D01*
X1882125Y734000D01*
X1882000Y733500D01*
X1881875Y733000D01*
X1881750Y732500D01*
X1881625Y732000D01*
Y731500D01*
X1881500Y731000D01*
Y730500D01*
X1881375Y730000D01*
Y729375D01*
Y728875D01*
Y728375D01*
X1893000D01*
X1893125Y729000D01*
Y729625D01*
X1893250Y730250D01*
X1893375Y730750D01*
X1893500Y731375D01*
X1893625Y731875D01*
X1893750Y732375D01*
X1894000Y732750D01*
X1894250Y733250D01*
X1894625Y733625D01*
X1894875Y734125D01*
X1895250Y734375D01*
X1895625Y734750D01*
X1896000Y735125D01*
X1896375Y735375D01*
X1896875Y735625D01*
X1897375Y735875D01*
X1897875Y736125D01*
X1898375Y736375D01*
X1898875Y736500D01*
X1899500Y736750D01*
X1900000Y736875D01*
X1900625Y737000D01*
X1901250Y737250D01*
X1901875Y737375D01*
X1902500D01*
X1903125Y737500D01*
X1903750Y737625D01*
X1904375D01*
X1905125D01*
X1905875Y737750D01*
X1906500D01*
X1907500D01*
X1908375Y737625D01*
X1909250D01*
X1910125Y737500D01*
X1910875D01*
X1911625Y737375D01*
X1912375Y737250D01*
X1913125Y737000D01*
X1913750Y736875D01*
X1914375Y736625D01*
X1915000Y736500D01*
X1915500Y736250D01*
X1916000Y736000D01*
X1916500Y735750D01*
X1917000Y735375D01*
X1917375Y735125D01*
X1917750Y734750D01*
X1918125Y734375D01*
X1918500Y734000D01*
X1918750Y733750D01*
X1919125Y733375D01*
X1919375Y733000D01*
X1919625Y732625D01*
X1919750Y732250D01*
X1920000Y731875D01*
X1920125Y731375D01*
X1920250Y731000D01*
X1920375Y730625D01*
X1920500Y730250D01*
X1920625Y729750D01*
Y729375D01*
Y728875D01*
Y728375D01*
Y727875D01*
X1920500Y727500D01*
X1920375Y727000D01*
Y726500D01*
X1920250Y726125D01*
X1920000Y725625D01*
X1919875Y725250D01*
X1919750Y724875D01*
X1919500Y724500D01*
X1919250Y724125D01*
X1919000Y723750D01*
X1918625Y723375D01*
X1918375Y723125D01*
X1918000Y722750D01*
X1917750Y722500D01*
X1917250Y722125D01*
X1916875Y721875D01*
X1916375Y721625D01*
X1915875Y721375D01*
X1915250Y721125D01*
X1914625Y720875D01*
X1913875Y720625D01*
X1913125Y720375D01*
X1912375Y720250D01*
X1911500Y720000D01*
X1910625Y719750D01*
X1909625Y719625D01*
X1908625Y719500D01*
X1907625Y719250D01*
X1906500Y719125D01*
X1905375Y719000D01*
X1904500Y718750D01*
X1903500Y718625D01*
X1902625Y718500D01*
X1901750Y718375D01*
X1900875Y718125D01*
X1900000Y718000D01*
X1899250Y717750D01*
X1898375Y717625D01*
X1897625Y717375D01*
X1896875Y717250D01*
X1896125Y717000D01*
X1895375Y716875D01*
X1894625Y716625D01*
X1894000Y716375D01*
X1893250Y716125D01*
X1892625Y716000D01*
X1892000Y715750D01*
X1891375Y715500D01*
X1890750Y715250D01*
X1890250Y715000D01*
X1889625Y714750D01*
X1889125Y714500D01*
X1888625Y714250D01*
X1888125Y714000D01*
X1887625Y713750D01*
X1887250Y713375D01*
X1886750Y713125D01*
X1886375Y712875D01*
X1886000Y712500D01*
X1885625Y712250D01*
X1885250Y712000D01*
X1884875Y711625D01*
X1884250Y711000D01*
X1883625Y710375D01*
X1883125Y709625D01*
X1882625Y709000D01*
X1882125Y708250D01*
X1881625Y707500D01*
X1881250Y706750D01*
X1880875Y706000D01*
X1880625Y705250D01*
X1880375Y704375D01*
X1880125Y703500D01*
X1879875Y702625D01*
X1879750Y701750D01*
X1879625Y700875D01*
Y700000D01*
Y699000D01*
D01*
Y698500D01*
G37*
%LPD*%
%LPD*%G36*
X1824625Y680875D02*
Y781125D01*
X1811125D01*
X1811250Y680875D01*
X1824625D01*
G37*
%LPD*%
%LPD*%G36*
X1728500Y708125D02*
Y707375D01*
Y706500D01*
X1728625Y705750D01*
Y704875D01*
X1728750Y704125D01*
X1728875Y703375D01*
X1729000Y702625D01*
X1729125Y701875D01*
X1729250Y701125D01*
X1729500Y700375D01*
X1729625Y699625D01*
X1729875Y699000D01*
X1730125Y698250D01*
X1730375Y697625D01*
X1730625Y696875D01*
X1730875Y696250D01*
X1731125Y695625D01*
X1731500Y695000D01*
X1731750Y694375D01*
X1732125Y693750D01*
X1732500Y693125D01*
X1732875Y692500D01*
X1733250Y691875D01*
X1733625Y691375D01*
X1734125Y690750D01*
X1734500Y690250D01*
X1735000Y689625D01*
X1735500Y689125D01*
X1735875Y688625D01*
X1736375Y688125D01*
X1737000Y687625D01*
X1737500Y687125D01*
X1738000Y686625D01*
X1738625Y686250D01*
X1739125Y685750D01*
X1739750Y685375D01*
X1740375Y684875D01*
X1741000Y684500D01*
X1741625Y684125D01*
X1742250Y683750D01*
X1742875Y683500D01*
X1743500Y683125D01*
X1744250Y682750D01*
X1744875Y682500D01*
X1745625Y682250D01*
X1746250Y681875D01*
X1747000Y681625D01*
X1747750Y681500D01*
X1748500Y681250D01*
X1749250Y681000D01*
X1750000Y680875D01*
X1750750Y680625D01*
X1751500Y680500D01*
X1752375Y680375D01*
X1753125Y680250D01*
X1754000Y680125D01*
X1754875Y680000D01*
X1755625Y679875D01*
X1756500D01*
X1757375Y679750D01*
X1758250D01*
X1759250D01*
X1760125D01*
X1761000D01*
X1761875D01*
X1762750D01*
X1763625Y679875D01*
X1764500D01*
X1765375Y680000D01*
X1766250Y680125D01*
X1767000Y680250D01*
X1767875Y680375D01*
X1768625Y680500D01*
X1769375Y680625D01*
X1770125Y680875D01*
X1771000Y681000D01*
X1771625Y681250D01*
X1772375Y681500D01*
X1773125Y681750D01*
X1773875Y682000D01*
X1774500Y682250D01*
X1775250Y682625D01*
X1775875Y682875D01*
X1776500Y683250D01*
X1777250Y683625D01*
X1777875Y684000D01*
X1778500Y684375D01*
X1779000Y684750D01*
X1779625Y685125D01*
X1780250Y685500D01*
X1780750Y686000D01*
X1781375Y686500D01*
X1781875Y686875D01*
X1782375Y687375D01*
X1783000Y687875D01*
X1783500Y688375D01*
X1784000Y689000D01*
X1784375Y689500D01*
X1784875Y690000D01*
X1785375Y690625D01*
X1785750Y691125D01*
X1786125Y691750D01*
X1786500Y692250D01*
X1786875Y692875D01*
X1787250Y693375D01*
X1787625Y694000D01*
X1788000Y694625D01*
X1788250Y695250D01*
X1788500Y695875D01*
X1788875Y696500D01*
X1789125Y697125D01*
X1789375Y697750D01*
X1789625Y698375D01*
X1789750Y699125D01*
X1790000Y699750D01*
X1790250Y700500D01*
X1790375Y701125D01*
X1790500Y701875D01*
X1790625Y702500D01*
X1790750Y703250D01*
X1790875Y704000D01*
X1791000Y704625D01*
Y705375D01*
X1791125Y706125D01*
Y706875D01*
Y707625D01*
Y708375D01*
Y712625D01*
X1777625D01*
Y709000D01*
Y707875D01*
Y706875D01*
X1777500Y705875D01*
X1777375Y704875D01*
X1777125Y703875D01*
X1777000Y703000D01*
X1776625Y702125D01*
X1776375Y701250D01*
X1776000Y700375D01*
X1775625Y699625D01*
X1775250Y698875D01*
X1774750Y698125D01*
X1774250Y697375D01*
X1773625Y696750D01*
X1773000Y696125D01*
X1772375Y695500D01*
X1771750Y695000D01*
X1771000Y694375D01*
X1770375Y693875D01*
X1769625Y693500D01*
X1769000Y693000D01*
X1768250Y692625D01*
X1767500Y692375D01*
X1766750Y692000D01*
X1765875Y691750D01*
X1765125Y691500D01*
X1764375Y691250D01*
X1763500Y691125D01*
X1762625Y691000D01*
X1761875Y690875D01*
X1761000D01*
X1760125D01*
X1759000D01*
X1757875D01*
X1756750Y691000D01*
X1755750Y691125D01*
X1754750Y691375D01*
X1753750Y691500D01*
X1752875Y691750D01*
X1752000Y692125D01*
X1751125Y692375D01*
X1750375Y692750D01*
X1749625Y693250D01*
X1748875Y693625D01*
X1748125Y694125D01*
X1747500Y694625D01*
X1746875Y695250D01*
X1746375Y695875D01*
X1745750Y696500D01*
X1745250Y697125D01*
X1744875Y697750D01*
X1744375Y698375D01*
X1744000Y699125D01*
X1743625Y699875D01*
X1743375Y700625D01*
X1743000Y701250D01*
X1742750Y702125D01*
X1742500Y702875D01*
X1742375Y703625D01*
X1742250Y704500D01*
X1742125Y705250D01*
X1742000Y706125D01*
Y707000D01*
Y707875D01*
Y708500D01*
Y709250D01*
X1742125Y710000D01*
X1742250Y710750D01*
X1742500Y711375D01*
X1742625Y712125D01*
X1743000Y712750D01*
X1743250Y713500D01*
X1743625Y714125D01*
X1744000Y714750D01*
X1744375Y715500D01*
X1744875Y716125D01*
X1745375Y716750D01*
X1746000Y717375D01*
X1746625Y718000D01*
X1747250Y718625D01*
X1747875Y719250D01*
X1748625Y719875D01*
X1749375Y720500D01*
X1750125Y721125D01*
X1751000Y721750D01*
X1751875Y722250D01*
X1752750Y722875D01*
X1753625Y723375D01*
X1754625Y724000D01*
X1755625Y724500D01*
X1756625Y725125D01*
X1757750Y725625D01*
X1758875Y726125D01*
X1760000Y726750D01*
X1761250Y727250D01*
X1762500Y727750D01*
X1763375Y728125D01*
X1764125Y728375D01*
X1765000Y728750D01*
X1765875Y729125D01*
X1766625Y729375D01*
X1767500Y729750D01*
X1768250Y730125D01*
X1769000Y730500D01*
X1769750Y730750D01*
X1770500Y731125D01*
X1771125Y731500D01*
X1771875Y731875D01*
X1772625Y732250D01*
X1773250Y732625D01*
X1773875Y733000D01*
X1774500Y733375D01*
X1775125Y733625D01*
X1775750Y734000D01*
X1776375Y734375D01*
X1776875Y734750D01*
X1777500Y735125D01*
X1778000Y735500D01*
X1778625Y735875D01*
X1779125Y736375D01*
X1779625Y736750D01*
X1780125Y737125D01*
X1780500Y737500D01*
X1781000Y737875D01*
X1781500Y738250D01*
X1781875Y738625D01*
X1782250Y739125D01*
X1782625Y739500D01*
X1783375Y740250D01*
X1784125Y741125D01*
X1784750Y742000D01*
X1785375Y742875D01*
X1785875Y743750D01*
X1786375Y744625D01*
X1786875Y745500D01*
X1787250Y746500D01*
X1787625Y747500D01*
X1788000Y748500D01*
X1788250Y749500D01*
X1788375Y750500D01*
X1788625Y751500D01*
X1788750Y752500D01*
Y753625D01*
X1788875Y754750D01*
X1788750Y755500D01*
Y756250D01*
Y757000D01*
X1788625Y757750D01*
Y758375D01*
X1788500Y759125D01*
X1788375Y759875D01*
X1788250Y760500D01*
X1788125Y761250D01*
X1788000Y761875D01*
X1787750Y762625D01*
X1787625Y763250D01*
X1787375Y763875D01*
X1787125Y764625D01*
X1787000Y765250D01*
X1786750Y765875D01*
X1786375Y766500D01*
X1786125Y767000D01*
X1785875Y767625D01*
X1785500Y768250D01*
X1785125Y768875D01*
X1784750Y769375D01*
X1784375Y770000D01*
X1784000Y770500D01*
X1783625Y771125D01*
X1783250Y771625D01*
X1782750Y772125D01*
X1782250Y772625D01*
X1781875Y773125D01*
X1781375Y773625D01*
X1780875Y774125D01*
X1780375Y774625D01*
X1779750Y775125D01*
X1779250Y775500D01*
X1778750Y776000D01*
X1778125Y776375D01*
X1777625Y776875D01*
X1777000Y777250D01*
X1776500Y777625D01*
X1775875Y778000D01*
X1775250Y778250D01*
X1774750Y778625D01*
X1774125Y779000D01*
X1773500Y779250D01*
X1772875Y779500D01*
X1772250Y779875D01*
X1771625Y780125D01*
X1771000Y780375D01*
X1770375Y780625D01*
X1769750Y780750D01*
X1769125Y781000D01*
X1768500Y781125D01*
X1767750Y781375D01*
X1767125Y781500D01*
X1766500Y781625D01*
X1765750Y781750D01*
X1765125Y781875D01*
X1764375Y782000D01*
X1763625D01*
X1763000Y782125D01*
X1762250D01*
X1761500Y782250D01*
X1760875D01*
X1760125D01*
X1759125D01*
X1758250D01*
X1757375Y782125D01*
X1756375D01*
X1755500Y782000D01*
X1754750Y781875D01*
X1753875Y781750D01*
X1753000Y781625D01*
X1752250Y781500D01*
X1751375Y781375D01*
X1750625Y781125D01*
X1749875Y781000D01*
X1749125Y780750D01*
X1748375Y780500D01*
X1747625Y780250D01*
X1747000Y780000D01*
X1746375Y779625D01*
X1745625Y779375D01*
X1745000Y779000D01*
X1744375Y778750D01*
X1743750Y778375D01*
X1743125Y778000D01*
X1742625Y777500D01*
X1742000Y777125D01*
X1741500Y776750D01*
X1741000Y776250D01*
X1740500Y775750D01*
X1740000Y775250D01*
X1739500Y774750D01*
X1739000Y774250D01*
X1738500Y773750D01*
X1738125Y773125D01*
X1737375Y772000D01*
X1736500Y770875D01*
X1735875Y769750D01*
X1735125Y768500D01*
X1734625Y767375D01*
X1734000Y766125D01*
X1733500Y764875D01*
X1733125Y763750D01*
X1732625Y762500D01*
X1732375Y761250D01*
X1732000Y760000D01*
X1731875Y758750D01*
X1731625Y757375D01*
X1731500Y756125D01*
X1731375Y754875D01*
Y753500D01*
X1744750Y753625D01*
X1744875Y754375D01*
X1744750Y755125D01*
X1744875Y755875D01*
Y756625D01*
X1745000Y757500D01*
X1745125Y758250D01*
X1745250Y759000D01*
X1745500Y759625D01*
X1745750Y760375D01*
X1746000Y761125D01*
X1746250Y761875D01*
X1746625Y762500D01*
X1747000Y763250D01*
X1747375Y763875D01*
X1747875Y764625D01*
X1748375Y765250D01*
X1748875Y765875D01*
X1749500Y766500D01*
X1750000Y767000D01*
X1750625Y767500D01*
X1751250Y768000D01*
X1752000Y768500D01*
X1752625Y768875D01*
X1753375Y769250D01*
X1754125Y769500D01*
X1754875Y769750D01*
X1755625Y770000D01*
X1756500Y770250D01*
X1757375Y770375D01*
X1758250Y770500D01*
X1759125D01*
X1760125D01*
X1761000D01*
X1761875D01*
X1762625Y770375D01*
X1763375Y770250D01*
X1764250Y770125D01*
X1765000Y770000D01*
X1765750Y769750D01*
X1766375Y769625D01*
X1767125Y769375D01*
X1767750Y769000D01*
X1768375Y768750D01*
X1769000Y768375D01*
X1769625Y768000D01*
X1770125Y767625D01*
X1770750Y767125D01*
X1771250Y766750D01*
X1771750Y766250D01*
X1772250Y765750D01*
X1772625Y765250D01*
X1773000Y764625D01*
X1773375Y764125D01*
X1773750Y763500D01*
X1774000Y762875D01*
X1774250Y762250D01*
X1774500Y761625D01*
X1774750Y760875D01*
X1774875Y760250D01*
X1775125Y759500D01*
X1775250Y758750D01*
Y758000D01*
X1775375Y757250D01*
Y756500D01*
Y755750D01*
X1775250Y755125D01*
Y754500D01*
X1775125Y753875D01*
X1775000Y753250D01*
X1774875Y752750D01*
X1774750Y752125D01*
X1774500Y751500D01*
X1774375Y751000D01*
X1774125Y750500D01*
X1773875Y749875D01*
X1773500Y749375D01*
X1773250Y748875D01*
X1772875Y748375D01*
X1772500Y747875D01*
X1772125Y747375D01*
X1771875Y747125D01*
X1771625Y746875D01*
X1771375Y746625D01*
X1771125Y746375D01*
X1770875Y746125D01*
X1770500Y745875D01*
X1770250Y745625D01*
X1769875Y745375D01*
X1769500Y745125D01*
X1769125Y744875D01*
X1768625Y744625D01*
X1768250Y744375D01*
X1767750Y744000D01*
X1767375Y743750D01*
X1766875Y743500D01*
X1766375Y743250D01*
X1765750Y742875D01*
X1765250Y742625D01*
X1764625Y742375D01*
X1764125Y742000D01*
X1763500Y741750D01*
X1762875Y741500D01*
X1762125Y741125D01*
X1761500Y740875D01*
X1760875Y740500D01*
X1760125Y740250D01*
X1759375Y739875D01*
X1758625Y739625D01*
X1757875Y739250D01*
X1757000Y739000D01*
X1756250Y738625D01*
X1755375Y738250D01*
X1753875Y737625D01*
X1752250Y737000D01*
X1750750Y736250D01*
X1749375Y735500D01*
X1747875Y734750D01*
X1746625Y734000D01*
X1745250Y733250D01*
X1744000Y732500D01*
X1742750Y731750D01*
X1741625Y730875D01*
X1740500Y730125D01*
X1739375Y729250D01*
X1738375Y728375D01*
X1737375Y727500D01*
X1736375Y726625D01*
X1735500Y725750D01*
X1734625Y724750D01*
X1733875Y723875D01*
X1733125Y722875D01*
X1732375Y721875D01*
X1731750Y720875D01*
X1731250Y719875D01*
X1730625Y718875D01*
X1730250Y717875D01*
X1729750Y716750D01*
X1729500Y715750D01*
X1729125Y714625D01*
X1728875Y713500D01*
X1728750Y712500D01*
X1728625Y711250D01*
X1728500Y710125D01*
Y709000D01*
D01*
Y708125D01*
G37*
%LPD*%
%LPD*%G36*
X1617250Y680875D02*
X1625500Y712000D01*
X1651250D01*
X1659375Y680875D01*
X1673500D01*
X1644250Y782250D01*
X1632500D01*
X1603250Y680875D01*
X1617250D01*
G37*
%LPD*%
%LPC*%G36*
X1637750Y758875D02*
X1638875D01*
X1648250Y723125D01*
X1628375Y723000D01*
X1637750Y758875D01*
G37*
%LPD*%
%LPD*%G36*
X1534750Y770000D02*
Y737125D01*
X1498375D01*
Y726000D01*
X1534750D01*
Y680875D01*
X1548250D01*
Y781125D01*
X1486750D01*
Y769875D01*
X1534750Y770000D01*
G37*
%LPD*%
%LPD*%G36*
X1401625Y729500D02*
X1401750Y727875D01*
Y726250D01*
Y724625D01*
X1401875Y723000D01*
X1402000Y721500D01*
X1402125Y720000D01*
X1402250Y718500D01*
X1402375Y717000D01*
X1402500Y715625D01*
X1402625Y714125D01*
X1402875Y712750D01*
X1403125Y711500D01*
X1403250Y710125D01*
X1403500Y708875D01*
X1403750Y707625D01*
X1404125Y706375D01*
X1404375Y705250D01*
X1404625Y704000D01*
X1405000Y702875D01*
X1405375Y701750D01*
X1405625Y700750D01*
X1406000Y699750D01*
X1406500Y698750D01*
X1406875Y697750D01*
X1407250Y696750D01*
X1407750Y695875D01*
X1408125Y695000D01*
X1408625Y694125D01*
X1409125Y693250D01*
X1409625Y692500D01*
X1410125Y691750D01*
X1410750Y691000D01*
X1411250Y690250D01*
X1411875Y689625D01*
X1412375Y688875D01*
X1413000Y688250D01*
X1413625Y687625D01*
X1414250Y687000D01*
X1414875Y686500D01*
X1415500Y685875D01*
X1416125Y685375D01*
X1416750Y684875D01*
X1417500Y684375D01*
X1418125Y683875D01*
X1418875Y683500D01*
X1419625Y683125D01*
X1420375Y682750D01*
X1421125Y682375D01*
X1421875Y682000D01*
X1422625Y681625D01*
X1423375Y681375D01*
X1424250Y681125D01*
X1425000Y680875D01*
X1425875Y680625D01*
X1426750Y680500D01*
X1427500Y680250D01*
X1428375Y680125D01*
X1429250Y680000D01*
X1430250Y679875D01*
X1431125Y679750D01*
X1432000D01*
X1433000D01*
X1433875D01*
X1434875D01*
X1435750D01*
X1436750D01*
X1437625Y679875D01*
X1438500Y680000D01*
X1439375Y680125D01*
X1440250Y680250D01*
X1441125Y680500D01*
X1442000Y680625D01*
X1442750Y680875D01*
X1443625Y681125D01*
X1444375Y681375D01*
X1445250Y681625D01*
X1446000Y682000D01*
X1446750Y682375D01*
X1447500Y682750D01*
X1448250Y683125D01*
X1449000Y683500D01*
X1449750Y683875D01*
X1450375Y684375D01*
X1451125Y684875D01*
X1451750Y685375D01*
X1452500Y685875D01*
X1453125Y686500D01*
X1453750Y687000D01*
X1454375Y687625D01*
X1455000Y688250D01*
X1455625Y688875D01*
X1456250Y689625D01*
X1456750Y690250D01*
X1457375Y691000D01*
X1457875Y691750D01*
X1458500Y692500D01*
X1459000Y693250D01*
X1459500Y694125D01*
X1460000Y695000D01*
X1460500Y695875D01*
X1460875Y696750D01*
X1461375Y697750D01*
X1461750Y698750D01*
X1462125Y699750D01*
X1462500Y700750D01*
X1462875Y701750D01*
X1463250Y702875D01*
X1463625Y704000D01*
X1463875Y705250D01*
X1464250Y706375D01*
X1464500Y707625D01*
X1464750Y708875D01*
X1465000Y710125D01*
X1465250Y711500D01*
X1465500Y712750D01*
X1465625Y714125D01*
X1465875Y715625D01*
X1466000Y717000D01*
X1466125Y718500D01*
X1466250Y720000D01*
X1466375Y721500D01*
X1466500Y723000D01*
X1466625Y724625D01*
Y726250D01*
Y727875D01*
X1466750Y729500D01*
Y731250D01*
Y733000D01*
X1466625Y734625D01*
Y736250D01*
Y737875D01*
X1466500Y739500D01*
X1466375Y741000D01*
X1466250Y742500D01*
X1466125Y744000D01*
X1466000Y745500D01*
X1465875Y746875D01*
X1465625Y748375D01*
X1465500Y749750D01*
X1465250Y751000D01*
X1465000Y752375D01*
X1464750Y753625D01*
X1464500Y754875D01*
X1464250Y756000D01*
X1463875Y757250D01*
X1463625Y758375D01*
X1463250Y759500D01*
X1462875Y760625D01*
X1462500Y761625D01*
X1462125Y762625D01*
X1461750Y763625D01*
X1461375Y764625D01*
X1460875Y765625D01*
X1460500Y766500D01*
X1460000Y767375D01*
X1459500Y768125D01*
X1459000Y769000D01*
X1458500Y769750D01*
X1457875Y770500D01*
X1457375Y771250D01*
X1456750Y772000D01*
X1456250Y772625D01*
X1455625Y773250D01*
X1455000Y773875D01*
X1454375Y774500D01*
X1453750Y775125D01*
X1453125Y775625D01*
X1452500Y776125D01*
X1451750Y776750D01*
X1451125Y777250D01*
X1450375Y777625D01*
X1449750Y778125D01*
X1449000Y778500D01*
X1448250Y778875D01*
X1447500Y779250D01*
X1446750Y779625D01*
X1446000Y780000D01*
X1445250Y780250D01*
X1444375Y780625D01*
X1443625Y780875D01*
X1442750Y781125D01*
X1442000Y781375D01*
X1441125Y781500D01*
X1440250Y781625D01*
X1439375Y781875D01*
X1438500Y782000D01*
X1437625D01*
X1436750Y782125D01*
X1435750Y782250D01*
X1434875D01*
X1433875D01*
X1433000D01*
X1432000D01*
X1431125Y782125D01*
X1430250Y782000D01*
X1429250D01*
X1428375Y781875D01*
X1427500Y781625D01*
X1426750Y781500D01*
X1425875Y781375D01*
X1425000Y781125D01*
X1424250Y780875D01*
X1423375Y780625D01*
X1422625Y780250D01*
X1421875Y780000D01*
X1421125Y779625D01*
X1420375Y779250D01*
X1419625Y778875D01*
X1418875Y778500D01*
X1418125Y778125D01*
X1417500Y777625D01*
X1416750Y777250D01*
X1416125Y776750D01*
X1415500Y776125D01*
X1414875Y775625D01*
X1414250Y775125D01*
X1413625Y774500D01*
X1413000Y773875D01*
X1412375Y773250D01*
X1411875Y772625D01*
X1411250Y772000D01*
X1410750Y771250D01*
X1410125Y770500D01*
X1409625Y769750D01*
X1409125Y769000D01*
X1408625Y768125D01*
X1408125Y767375D01*
X1407750Y766500D01*
X1407250Y765625D01*
X1406875Y764625D01*
X1406500Y763625D01*
X1406000Y762625D01*
X1405625Y761625D01*
X1405375Y760625D01*
X1405000Y759500D01*
X1404625Y758375D01*
X1404375Y757250D01*
X1404125Y756000D01*
X1403750Y754875D01*
X1403500Y753625D01*
X1403250Y752375D01*
X1403125Y751000D01*
X1402875Y749750D01*
X1402625Y748375D01*
X1402500Y746875D01*
X1402375Y745500D01*
X1402250Y744000D01*
X1402125Y742500D01*
X1402000Y741000D01*
X1401875Y739500D01*
X1401750Y737875D01*
Y736250D01*
Y734625D01*
X1401625Y733000D01*
Y731250D01*
D01*
Y729500D01*
G37*
%LPD*%
%LPC*%G36*
X1415750Y732750D02*
Y734250D01*
Y735750D01*
Y737125D01*
X1415875Y738500D01*
Y739875D01*
X1416000Y741250D01*
Y742500D01*
X1416125Y743750D01*
X1416250Y745000D01*
X1416375Y746125D01*
X1416500Y747375D01*
X1416625Y748500D01*
X1416750Y749500D01*
X1416875Y750625D01*
X1417000Y751625D01*
X1417250Y752625D01*
X1417375Y753625D01*
X1417625Y754500D01*
X1417750Y755375D01*
X1418000Y756250D01*
X1418250Y757125D01*
X1418500Y757875D01*
X1418750Y758625D01*
X1419000Y759375D01*
X1419250Y760000D01*
X1419500Y760750D01*
X1419750Y761375D01*
X1420000Y761875D01*
X1420375Y762500D01*
X1420625Y763000D01*
X1421000Y763500D01*
X1421375Y764000D01*
X1421625Y764375D01*
X1422000Y764875D01*
X1422375Y765250D01*
X1422750Y765625D01*
X1423000Y766125D01*
X1423375Y766500D01*
X1423750Y766875D01*
X1424125Y767125D01*
X1424500Y767500D01*
X1424875Y767875D01*
X1425250Y768125D01*
X1425625Y768375D01*
X1426125Y768750D01*
X1426500Y769000D01*
X1426875Y769250D01*
X1427250Y769375D01*
X1427625Y769625D01*
X1428125Y769875D01*
X1428500Y770000D01*
X1428875Y770250D01*
X1429375Y770375D01*
X1429750Y770500D01*
X1430250Y770625D01*
X1430625Y770750D01*
X1431125Y770875D01*
X1431625D01*
X1432000Y771000D01*
X1432500D01*
X1433000Y771125D01*
X1433375D01*
X1433875D01*
X1434375D01*
X1434875D01*
X1435250Y771000D01*
X1435750D01*
X1436250Y770875D01*
X1436625D01*
X1437125Y770750D01*
X1437625Y770625D01*
X1438000Y770500D01*
X1438500Y770375D01*
X1438875Y770250D01*
X1439375Y770000D01*
X1439750Y769875D01*
X1440125Y769625D01*
X1440625Y769375D01*
X1441000Y769250D01*
X1441375Y769000D01*
X1441750Y768750D01*
X1442250Y768375D01*
X1442625Y768125D01*
X1443000Y767875D01*
X1443375Y767500D01*
X1443750Y767125D01*
X1444125Y766875D01*
X1444500Y766500D01*
X1444875Y766125D01*
X1445250Y765625D01*
X1445625Y765250D01*
X1446000Y764875D01*
X1446375Y764375D01*
X1446750Y764000D01*
X1447125Y763500D01*
X1447375Y763000D01*
X1447750Y762500D01*
X1448125Y761875D01*
X1448375Y761375D01*
X1448625Y760750D01*
X1449000Y760000D01*
X1449250Y759375D01*
X1449500Y758625D01*
X1449750Y757875D01*
X1450000Y757125D01*
X1450250Y756250D01*
X1450500Y755375D01*
X1450625Y754500D01*
X1450875Y753625D01*
X1451125Y752625D01*
X1451250Y751625D01*
X1451375Y750625D01*
X1451625Y749500D01*
X1451750Y748500D01*
X1451875Y747375D01*
X1452000Y746125D01*
X1452125Y745000D01*
X1452250Y743750D01*
Y742500D01*
X1452375Y741250D01*
X1452500Y739875D01*
Y738500D01*
Y737125D01*
X1452625Y735750D01*
Y734250D01*
Y732750D01*
Y731250D01*
Y729750D01*
Y728250D01*
Y726750D01*
X1452500Y725375D01*
Y724000D01*
Y722625D01*
X1452375Y721250D01*
X1452250Y720000D01*
Y718750D01*
X1452125Y717500D01*
X1452000Y716375D01*
X1451875Y715125D01*
X1451750Y714000D01*
X1451625Y712875D01*
X1451375Y711875D01*
X1451250Y710875D01*
X1451125Y709875D01*
X1450875Y708875D01*
X1450625Y707875D01*
X1450500Y707000D01*
X1450250Y706125D01*
X1450000Y705375D01*
X1449750Y704500D01*
X1449500Y703750D01*
X1449250Y703000D01*
X1449000Y702250D01*
X1448625Y701625D01*
X1448375Y701000D01*
X1448125Y700375D01*
X1447750Y699750D01*
X1447375Y699250D01*
X1447125Y698750D01*
X1446750Y698250D01*
X1446375Y697750D01*
X1446000Y697375D01*
X1445625Y696875D01*
X1445250Y696500D01*
X1444875Y696000D01*
X1444500Y695625D01*
X1444125Y695250D01*
X1443750Y694875D01*
X1443375Y694625D01*
X1443000Y694250D01*
X1442625Y693875D01*
X1442250Y693625D01*
X1441750Y693375D01*
X1441375Y693125D01*
X1441000Y692875D01*
X1440625Y692625D01*
X1440125Y692375D01*
X1439750Y692125D01*
X1439375Y692000D01*
X1438875Y691750D01*
X1438500Y691625D01*
X1438000Y691500D01*
X1437625Y691375D01*
X1437125Y691250D01*
X1436625Y691125D01*
X1436250Y691000D01*
X1435750D01*
X1435250Y690875D01*
X1434875D01*
X1434375D01*
X1433875D01*
X1433375D01*
X1433000D01*
X1432500D01*
X1432000Y691000D01*
X1431625D01*
X1431125Y691125D01*
X1430625Y691250D01*
X1430250Y691375D01*
X1429750Y691500D01*
X1429375Y691625D01*
X1428875Y691750D01*
X1428500Y692000D01*
X1428125Y692125D01*
X1427625Y692375D01*
X1427250Y692625D01*
X1426875Y692875D01*
X1426500Y693125D01*
X1426125Y693375D01*
X1425625Y693625D01*
X1425250Y693875D01*
X1424875Y694250D01*
X1424500Y694625D01*
X1424125Y694875D01*
X1423750Y695250D01*
X1423375Y695625D01*
X1423000Y696000D01*
X1422750Y696500D01*
X1422375Y696875D01*
X1422000Y697375D01*
X1421625Y697750D01*
X1421375Y698250D01*
X1421000Y698750D01*
X1420625Y699250D01*
X1420375Y699750D01*
X1420000Y700375D01*
X1419750Y701000D01*
X1419500Y701625D01*
X1419250Y702250D01*
X1419000Y703000D01*
X1418750Y703750D01*
X1418500Y704500D01*
X1418250Y705375D01*
X1418000Y706125D01*
X1417750Y707000D01*
X1417625Y707875D01*
X1417375Y708875D01*
X1417250Y709875D01*
X1417000Y710875D01*
X1416875Y711875D01*
X1416750Y712875D01*
X1416625Y714000D01*
X1416500Y715125D01*
X1416375Y716375D01*
X1416250Y717500D01*
X1416125Y718750D01*
X1416000Y720000D01*
Y721250D01*
X1415875Y722625D01*
Y724000D01*
X1415750Y725375D01*
Y726750D01*
Y728250D01*
Y729750D01*
Y731250D01*
D01*
Y732750D01*
G37*
%LPD*%
%LPD*%G36*
X1335375Y680875D02*
X1367625Y753625D01*
X1368125D01*
Y680875D01*
X1381625D01*
Y781125D01*
X1367000D01*
X1334750Y708500D01*
X1334125D01*
Y781125D01*
X1320750D01*
Y680875D01*
X1335375D01*
G37*
%LPD*%
%LPD*%G36*
X1263875Y770000D02*
Y680875D01*
X1277375D01*
Y770000D01*
X1300750D01*
Y781125D01*
X1240500D01*
Y769875D01*
X1263875Y770000D01*
G37*
%LPD*%
%LPD*%G36*
X1148625Y770000D02*
Y680875D01*
X1162125D01*
Y770000D01*
X1185500D01*
Y781125D01*
X1125250D01*
Y769875D01*
X1148625Y770000D01*
G37*
%LPD*%
%LPD*%G36*
X1105250Y680875D02*
Y781125D01*
X1048500D01*
Y770000D01*
X1091875D01*
Y739000D01*
X1052000D01*
Y727750D01*
X1091875D01*
Y692125D01*
X1045500D01*
X1045625Y680875D01*
X1105250D01*
G37*
%LPD*%
%LPD*%G36*
X962875Y708125D02*
Y707375D01*
Y706500D01*
X963000Y705750D01*
Y704875D01*
X963125Y704125D01*
X963250Y703375D01*
X963375Y702625D01*
X963500Y701875D01*
X963625Y701125D01*
X963875Y700375D01*
X964000Y699625D01*
X964250Y699000D01*
X964500Y698250D01*
X964750Y697625D01*
X965000Y696875D01*
X965250Y696250D01*
X965500Y695625D01*
X965875Y695000D01*
X966125Y694375D01*
X966500Y693750D01*
X966875Y693125D01*
X967250Y692500D01*
X967625Y691875D01*
X968000Y691375D01*
X968500Y690750D01*
X968875Y690250D01*
X969375Y689625D01*
X969875Y689125D01*
X970250Y688625D01*
X970750Y688125D01*
X971375Y687625D01*
X971875Y687125D01*
X972375Y686625D01*
X973000Y686250D01*
X973500Y685750D01*
X974125Y685375D01*
X974750Y684875D01*
X975375Y684500D01*
X976000Y684125D01*
X976625Y683750D01*
X977250Y683500D01*
X977875Y683125D01*
X978625Y682750D01*
X979250Y682500D01*
X980000Y682250D01*
X980625Y681875D01*
X981375Y681625D01*
X982125Y681500D01*
X982875Y681250D01*
X983625Y681000D01*
X984375Y680875D01*
X985125Y680625D01*
X985875Y680500D01*
X986750Y680375D01*
X987500Y680250D01*
X988375Y680125D01*
X989250Y680000D01*
X990000Y679875D01*
X990875D01*
X991750Y679750D01*
X992625D01*
X993625D01*
X994500D01*
X995375D01*
X996250D01*
X997125D01*
X998000Y679875D01*
X998875D01*
X999750Y680000D01*
X1000625Y680125D01*
X1001375Y680250D01*
X1002250Y680375D01*
X1003000Y680500D01*
X1003750Y680625D01*
X1004500Y680875D01*
X1005375Y681000D01*
X1006000Y681250D01*
X1006750Y681500D01*
X1007500Y681750D01*
X1008250Y682000D01*
X1008875Y682250D01*
X1009625Y682625D01*
X1010250Y682875D01*
X1010875Y683250D01*
X1011625Y683625D01*
X1012250Y684000D01*
X1012875Y684375D01*
X1013375Y684750D01*
X1014000Y685125D01*
X1014625Y685500D01*
X1015125Y686000D01*
X1015750Y686500D01*
X1016250Y686875D01*
X1016750Y687375D01*
X1017375Y687875D01*
X1017875Y688375D01*
X1018375Y689000D01*
X1018750Y689500D01*
X1019250Y690000D01*
X1019750Y690625D01*
X1020125Y691125D01*
X1020500Y691750D01*
X1020875Y692250D01*
X1021250Y692875D01*
X1021625Y693375D01*
X1022000Y694000D01*
X1022375Y694625D01*
X1022625Y695250D01*
X1022875Y695875D01*
X1023250Y696500D01*
X1023500Y697125D01*
X1023750Y697750D01*
X1024000Y698375D01*
X1024125Y699125D01*
X1024375Y699750D01*
X1024625Y700500D01*
X1024750Y701125D01*
X1024875Y701875D01*
X1025000Y702500D01*
X1025125Y703250D01*
X1025250Y704000D01*
X1025375Y704625D01*
Y705375D01*
X1025500Y706125D01*
Y706875D01*
Y707625D01*
Y708375D01*
Y712625D01*
X1012000D01*
Y709000D01*
Y707875D01*
Y706875D01*
X1011875Y705875D01*
X1011750Y704875D01*
X1011500Y703875D01*
X1011375Y703000D01*
X1011000Y702125D01*
X1010750Y701250D01*
X1010375Y700375D01*
X1010000Y699625D01*
X1009625Y698875D01*
X1009125Y698125D01*
X1008625Y697375D01*
X1008000Y696750D01*
X1007375Y696125D01*
X1006750Y695500D01*
X1006125Y695000D01*
X1005375Y694375D01*
X1004750Y693875D01*
X1004000Y693500D01*
X1003375Y693000D01*
X1002625Y692625D01*
X1001875Y692375D01*
X1001125Y692000D01*
X1000250Y691750D01*
X999500Y691500D01*
X998750Y691250D01*
X997875Y691125D01*
X997000Y691000D01*
X996250Y690875D01*
X995375D01*
X994500D01*
X993375D01*
X992250D01*
X991125Y691000D01*
X990125Y691125D01*
X989125Y691375D01*
X988125Y691500D01*
X987250Y691750D01*
X986375Y692125D01*
X985500Y692375D01*
X984750Y692750D01*
X984000Y693250D01*
X983250Y693625D01*
X982500Y694125D01*
X981875Y694625D01*
X981250Y695250D01*
X980750Y695875D01*
X980125Y696500D01*
X979625Y697125D01*
X979250Y697750D01*
X978750Y698375D01*
X978375Y699125D01*
X978000Y699875D01*
X977750Y700625D01*
X977375Y701250D01*
X977125Y702125D01*
X976875Y702875D01*
X976750Y703625D01*
X976625Y704500D01*
X976500Y705250D01*
X976375Y706125D01*
Y707000D01*
Y707875D01*
Y708500D01*
Y709250D01*
X976500Y710000D01*
X976625Y710750D01*
X976875Y711375D01*
X977000Y712125D01*
X977375Y712750D01*
X977625Y713500D01*
X978000Y714125D01*
X978375Y714750D01*
X978750Y715500D01*
X979250Y716125D01*
X979750Y716750D01*
X980375Y717375D01*
X981000Y718000D01*
X981625Y718625D01*
X982250Y719250D01*
X983000Y719875D01*
X983750Y720500D01*
X984500Y721125D01*
X985375Y721750D01*
X986250Y722250D01*
X987125Y722875D01*
X988000Y723375D01*
X989000Y724000D01*
X990000Y724500D01*
X991000Y725125D01*
X992125Y725625D01*
X993250Y726125D01*
X994375Y726750D01*
X995625Y727250D01*
X996875Y727750D01*
X997750Y728125D01*
X998500Y728375D01*
X999375Y728750D01*
X1000250Y729125D01*
X1001000Y729375D01*
X1001875Y729750D01*
X1002625Y730125D01*
X1003375Y730500D01*
X1004125Y730750D01*
X1004875Y731125D01*
X1005500Y731500D01*
X1006250Y731875D01*
X1007000Y732250D01*
X1007625Y732625D01*
X1008250Y733000D01*
X1008875Y733375D01*
X1009500Y733625D01*
X1010125Y734000D01*
X1010750Y734375D01*
X1011250Y734750D01*
X1011875Y735125D01*
X1012375Y735500D01*
X1013000Y735875D01*
X1013500Y736375D01*
X1014000Y736750D01*
X1014500Y737125D01*
X1014875Y737500D01*
X1015375Y737875D01*
X1015875Y738250D01*
X1016250Y738625D01*
X1016625Y739125D01*
X1017000Y739500D01*
X1017750Y740250D01*
X1018500Y741125D01*
X1019125Y742000D01*
X1019750Y742875D01*
X1020250Y743750D01*
X1020750Y744625D01*
X1021250Y745500D01*
X1021625Y746500D01*
X1022000Y747500D01*
X1022375Y748500D01*
X1022625Y749500D01*
X1022750Y750500D01*
X1023000Y751500D01*
X1023125Y752500D01*
Y753625D01*
X1023250Y754750D01*
X1023125Y755500D01*
Y756250D01*
Y757000D01*
X1023000Y757750D01*
Y758375D01*
X1022875Y759125D01*
X1022750Y759875D01*
X1022625Y760500D01*
X1022500Y761250D01*
X1022375Y761875D01*
X1022125Y762625D01*
X1022000Y763250D01*
X1021750Y763875D01*
X1021500Y764625D01*
X1021375Y765250D01*
X1021125Y765875D01*
X1020750Y766500D01*
X1020500Y767000D01*
X1020250Y767625D01*
X1019875Y768250D01*
X1019500Y768875D01*
X1019125Y769375D01*
X1018750Y770000D01*
X1018375Y770500D01*
X1018000Y771125D01*
X1017625Y771625D01*
X1017125Y772125D01*
X1016625Y772625D01*
X1016250Y773125D01*
X1015750Y773625D01*
X1015250Y774125D01*
X1014750Y774625D01*
X1014125Y775125D01*
X1013625Y775500D01*
X1013125Y776000D01*
X1012500Y776375D01*
X1012000Y776875D01*
X1011375Y777250D01*
X1010875Y777625D01*
X1010250Y778000D01*
X1009625Y778250D01*
X1009125Y778625D01*
X1008500Y779000D01*
X1007875Y779250D01*
X1007250Y779500D01*
X1006625Y779875D01*
X1006000Y780125D01*
X1005375Y780375D01*
X1004750Y780625D01*
X1004125Y780750D01*
X1003500Y781000D01*
X1002875Y781125D01*
X1002125Y781375D01*
X1001500Y781500D01*
X1000875Y781625D01*
X1000125Y781750D01*
X999500Y781875D01*
X998750Y782000D01*
X998000D01*
X997375Y782125D01*
X996625D01*
X995875Y782250D01*
X995250D01*
X994500D01*
X993500D01*
X992625D01*
X991750Y782125D01*
X990750D01*
X989875Y782000D01*
X989125Y781875D01*
X988250Y781750D01*
X987375Y781625D01*
X986625Y781500D01*
X985750Y781375D01*
X985000Y781125D01*
X984250Y781000D01*
X983500Y780750D01*
X982750Y780500D01*
X982000Y780250D01*
X981375Y780000D01*
X980750Y779625D01*
X980000Y779375D01*
X979375Y779000D01*
X978750Y778750D01*
X978125Y778375D01*
X977500Y778000D01*
X977000Y777500D01*
X976375Y777125D01*
X975875Y776750D01*
X975375Y776250D01*
X974875Y775750D01*
X974375Y775250D01*
X973875Y774750D01*
X973375Y774250D01*
X972875Y773750D01*
X972500Y773125D01*
X971750Y772000D01*
X970875Y770875D01*
X970250Y769750D01*
X969500Y768500D01*
X969000Y767375D01*
X968375Y766125D01*
X967875Y764875D01*
X967500Y763750D01*
X967000Y762500D01*
X966750Y761250D01*
X966375Y760000D01*
X966250Y758750D01*
X966000Y757375D01*
X965875Y756125D01*
X965750Y754875D01*
Y753500D01*
X979125Y753625D01*
X979250Y754375D01*
X979125Y755125D01*
X979250Y755875D01*
Y756625D01*
X979375Y757500D01*
X979500Y758250D01*
X979625Y759000D01*
X979875Y759625D01*
X980125Y760375D01*
X980375Y761125D01*
X980625Y761875D01*
X981000Y762500D01*
X981375Y763250D01*
X981750Y763875D01*
X982250Y764625D01*
X982750Y765250D01*
X983250Y765875D01*
X983875Y766500D01*
X984375Y767000D01*
X985000Y767500D01*
X985625Y768000D01*
X986375Y768500D01*
X987000Y768875D01*
X987750Y769250D01*
X988500Y769500D01*
X989250Y769750D01*
X990000Y770000D01*
X990875Y770250D01*
X991750Y770375D01*
X992625Y770500D01*
X993500D01*
X994500D01*
X995375D01*
X996250D01*
X997000Y770375D01*
X997750Y770250D01*
X998625Y770125D01*
X999375Y770000D01*
X1000125Y769750D01*
X1000750Y769625D01*
X1001500Y769375D01*
X1002125Y769000D01*
X1002750Y768750D01*
X1003375Y768375D01*
X1004000Y768000D01*
X1004500Y767625D01*
X1005125Y767125D01*
X1005625Y766750D01*
X1006125Y766250D01*
X1006625Y765750D01*
X1007000Y765250D01*
X1007375Y764625D01*
X1007750Y764125D01*
X1008125Y763500D01*
X1008375Y762875D01*
X1008625Y762250D01*
X1008875Y761625D01*
X1009125Y760875D01*
X1009250Y760250D01*
X1009500Y759500D01*
X1009625Y758750D01*
Y758000D01*
X1009750Y757250D01*
Y756500D01*
Y755750D01*
X1009625Y755125D01*
Y754500D01*
X1009500Y753875D01*
X1009375Y753250D01*
X1009250Y752750D01*
X1009125Y752125D01*
X1008875Y751500D01*
X1008750Y751000D01*
X1008500Y750500D01*
X1008250Y749875D01*
X1007875Y749375D01*
X1007625Y748875D01*
X1007250Y748375D01*
X1006875Y747875D01*
X1006500Y747375D01*
X1006250Y747125D01*
X1006000Y746875D01*
X1005750Y746625D01*
X1005500Y746375D01*
X1005250Y746125D01*
X1004875Y745875D01*
X1004625Y745625D01*
X1004250Y745375D01*
X1003875Y745125D01*
X1003500Y744875D01*
X1003000Y744625D01*
X1002625Y744375D01*
X1002125Y744000D01*
X1001750Y743750D01*
X1001250Y743500D01*
X1000750Y743250D01*
X1000125Y742875D01*
X999625Y742625D01*
X999000Y742375D01*
X998500Y742000D01*
X997875Y741750D01*
X997250Y741500D01*
X996500Y741125D01*
X995875Y740875D01*
X995250Y740500D01*
X994500Y740250D01*
X993750Y739875D01*
X993000Y739625D01*
X992250Y739250D01*
X991375Y739000D01*
X990625Y738625D01*
X989750Y738250D01*
X988250Y737625D01*
X986625Y737000D01*
X985125Y736250D01*
X983750Y735500D01*
X982250Y734750D01*
X981000Y734000D01*
X979625Y733250D01*
X978375Y732500D01*
X977125Y731750D01*
X976000Y730875D01*
X974875Y730125D01*
X973750Y729250D01*
X972750Y728375D01*
X971750Y727500D01*
X970750Y726625D01*
X969875Y725750D01*
X969000Y724750D01*
X968250Y723875D01*
X967500Y722875D01*
X966750Y721875D01*
X966125Y720875D01*
X965625Y719875D01*
X965000Y718875D01*
X964625Y717875D01*
X964125Y716750D01*
X963875Y715750D01*
X963500Y714625D01*
X963250Y713500D01*
X963125Y712500D01*
X963000Y711250D01*
X962875Y710125D01*
Y709000D01*
D01*
Y708125D01*
G37*
%LPD*%
%LPD*%G36*
X906000Y770000D02*
Y680875D01*
X919500D01*
Y770000D01*
X942875D01*
Y781125D01*
X882625D01*
Y769875D01*
X906000Y770000D01*
G37*
%LPD*%
%LPD*%G36*
X807875Y750000D02*
X808625Y748875D01*
X809375Y747750D01*
X810125Y746625D01*
X810875Y745500D01*
X811625Y744500D01*
X812250Y743375D01*
X812875Y742375D01*
X813625Y741375D01*
X814250Y740375D01*
X814875Y739375D01*
X815375Y738500D01*
X816000Y737500D01*
X816500Y736625D01*
X817125Y735625D01*
X817625Y734750D01*
X818000Y735250D01*
X818500Y735750D01*
X819000Y736375D01*
X819500Y736875D01*
X820125Y737375D01*
X820625Y737875D01*
X821250Y738375D01*
X821875Y738875D01*
X822500Y739375D01*
X823125Y739875D01*
X823875Y740375D01*
X824500Y740875D01*
X825250Y741500D01*
X826000Y742000D01*
X826750Y742500D01*
X827625Y743000D01*
X826250Y744500D01*
X824875Y746000D01*
X823500Y747500D01*
X822125Y749000D01*
X820875Y750625D01*
X819625Y752250D01*
X818375Y753875D01*
X817125Y755500D01*
X815875Y757125D01*
X814625Y758875D01*
X813500Y760625D01*
X812375Y762375D01*
X811250Y764125D01*
X810125Y766000D01*
X809000Y767750D01*
X808000Y769625D01*
X806875Y771500D01*
X805875Y773375D01*
X804875Y775250D01*
X804000Y777250D01*
X803000Y779125D01*
X802250Y781000D01*
X801375Y783000D01*
X800500Y785000D01*
X799750Y786875D01*
X799000Y788875D01*
X798375Y790875D01*
X797625Y792875D01*
X797000Y794875D01*
X796500Y796875D01*
X795875Y799000D01*
X795375Y801000D01*
X794750Y800625D01*
X794250Y800250D01*
X793625Y799875D01*
X793000Y799500D01*
X792250Y799125D01*
X791500Y798750D01*
X790750Y798375D01*
X789875Y798000D01*
X789000Y797750D01*
X788125Y797375D01*
X787250Y797000D01*
X786250Y796625D01*
X785250Y796250D01*
X784125Y795875D01*
X783000Y795500D01*
X781875Y795125D01*
X782125Y794875D01*
X782375Y794500D01*
X782625Y794125D01*
X782875Y793750D01*
X783125Y793250D01*
X783375Y792875D01*
X783750Y792375D01*
X784125Y791750D01*
X784375Y791250D01*
X784750Y790625D01*
X785125Y790000D01*
X785500Y789375D01*
X785875Y788750D01*
X786250Y788000D01*
X786750Y787250D01*
X787125Y786500D01*
X787625Y785625D01*
X788000Y784875D01*
X788500Y784000D01*
X789000Y783125D01*
X789500Y782125D01*
X790000Y781250D01*
X790500Y780250D01*
X791125Y779250D01*
X791625Y778125D01*
X792250Y777125D01*
X792750Y776000D01*
X793375Y774875D01*
X794000Y773625D01*
X794625Y772500D01*
X795250Y771250D01*
X795875Y769875D01*
Y693875D01*
Y691500D01*
Y689375D01*
Y687250D01*
Y685125D01*
Y683125D01*
Y681125D01*
Y679250D01*
X795750Y677375D01*
Y675500D01*
Y673750D01*
X795625Y672125D01*
Y670500D01*
X795500Y668875D01*
Y667375D01*
X795375Y665875D01*
Y664500D01*
X807625D01*
Y665125D01*
Y665625D01*
X807500Y666375D01*
Y667000D01*
Y667625D01*
Y668375D01*
X807375Y669125D01*
Y669875D01*
Y670625D01*
Y671375D01*
Y672250D01*
X807250Y673125D01*
Y673875D01*
Y674750D01*
Y675750D01*
Y676625D01*
Y677625D01*
X807125Y678500D01*
Y679500D01*
Y680500D01*
Y681625D01*
Y682625D01*
Y683750D01*
Y684750D01*
Y685875D01*
Y687000D01*
Y688250D01*
Y689375D01*
Y690625D01*
Y691875D01*
Y693125D01*
Y694375D01*
Y751125D01*
X807875Y750000D01*
G37*
%LPD*%
%LPD*%G36*
X786625Y745000D02*
X785000Y747000D01*
X783500Y749000D01*
X782000Y751000D01*
X780500Y753000D01*
X779125Y755125D01*
X777750Y757125D01*
X776375Y759250D01*
X775125Y761375D01*
X773875Y763500D01*
X772750Y765625D01*
X771500Y767750D01*
X770500Y769875D01*
X769500Y772000D01*
X768500Y774250D01*
X767500Y776375D01*
X767000Y777500D01*
X766625Y778500D01*
X766250Y779625D01*
X765750Y780625D01*
X765375Y781625D01*
X765000Y782500D01*
X764625Y783500D01*
X764250Y784375D01*
X764000Y785250D01*
X763625Y786125D01*
X763375Y787000D01*
X763000Y787875D01*
X762750Y788625D01*
X762500Y789375D01*
X762250Y790125D01*
X762000Y790875D01*
X761750Y791625D01*
X761625Y792250D01*
X761375Y792875D01*
X761250Y793500D01*
X761000Y794125D01*
X760875Y794750D01*
X760750Y795250D01*
X760625Y795875D01*
X760500Y796375D01*
Y796875D01*
X760375Y797250D01*
X760250Y797750D01*
Y798125D01*
Y798500D01*
Y798875D01*
Y799250D01*
X758375Y798500D01*
X756625Y797875D01*
X754750Y797250D01*
X752875Y796625D01*
X751000Y796000D01*
X749000Y795500D01*
X747000Y795000D01*
X745000Y794500D01*
X745125Y794375D01*
X745375Y794125D01*
X745625Y793875D01*
X745875Y793625D01*
X746125Y793375D01*
X746375Y793000D01*
X746625Y792625D01*
X746875Y792250D01*
X747250Y791875D01*
X747500Y791500D01*
X747750Y791125D01*
X748125Y790625D01*
X748375Y790125D01*
X748750Y789625D01*
X749000Y789125D01*
X749375Y788500D01*
X749625Y788000D01*
X750000Y787375D01*
X750375Y786750D01*
X750750Y786125D01*
X751125Y785375D01*
X751500Y784750D01*
X751875Y784000D01*
X752250Y783250D01*
X752625Y782500D01*
X753000Y781625D01*
X753375Y780875D01*
X753750Y780000D01*
X754250Y779125D01*
X754625Y778250D01*
X755125Y777375D01*
X755500Y776375D01*
X693875Y776500D01*
X694250Y775750D01*
X694500Y775000D01*
X694750Y774250D01*
X695000Y773500D01*
X695250Y772750D01*
X695500Y771875D01*
X695875Y771000D01*
X696125Y770125D01*
X696500Y769250D01*
X696875Y768250D01*
X697250Y767375D01*
X697625Y766375D01*
X698000Y765250D01*
X698375Y764250D01*
X698875Y763125D01*
X699250Y762000D01*
X700125Y759750D01*
X701000Y757500D01*
X701750Y755375D01*
X702625Y753125D01*
X703375Y751000D01*
X704250Y748875D01*
X705000Y746750D01*
X705750Y744750D01*
X707125Y745125D01*
X708625Y745625D01*
X710125Y746000D01*
X711500Y746375D01*
X713000Y746750D01*
X714500Y747000D01*
X716000Y747375D01*
X717375Y747625D01*
X716375Y749875D01*
X715375Y752125D01*
X714375Y754375D01*
X713500Y756750D01*
X712500Y759125D01*
X711625Y761500D01*
X710625Y764000D01*
X709750Y766375D01*
X759500Y766500D01*
X760500Y764500D01*
X761375Y762625D01*
X762375Y760750D01*
X763250Y759000D01*
X764250Y757125D01*
X765250Y755375D01*
X766250Y753500D01*
X767250Y751750D01*
X768250Y750000D01*
X769250Y748250D01*
X770375Y746625D01*
X771500Y744875D01*
X772625Y743250D01*
X773750Y741500D01*
X774875Y739875D01*
X776000Y738250D01*
X776625Y738625D01*
X777250Y739000D01*
X777875Y739375D01*
X778500Y739750D01*
X779250Y740000D01*
X779875Y740375D01*
X780625Y740625D01*
X781375Y740875D01*
X782250Y741250D01*
X783000Y741500D01*
X783875Y741750D01*
X784750Y742000D01*
X785500Y742250D01*
X786500Y742500D01*
X787375Y742750D01*
X788375Y743000D01*
D01*
X786625Y745000D01*
G37*
%LPD*%
%LPD*%G36*
X763000Y676750D02*
X762250D01*
X761625D01*
X760875D01*
X760250D01*
X759625Y676875D01*
X759000D01*
X758375D01*
X757750D01*
X757125D01*
X756625Y677000D01*
X756125D01*
X755500D01*
X755000D01*
X754500Y677125D01*
X754000D01*
X753625D01*
X753125Y677250D01*
X752625D01*
X752250Y677375D01*
X751875D01*
X751500Y677500D01*
X751125D01*
X750750Y677625D01*
X750375D01*
X750125Y677750D01*
X749750Y677875D01*
X749500D01*
X749250Y678000D01*
X749000D01*
X748750Y678125D01*
X748500Y678250D01*
X748000Y678375D01*
X747625Y678625D01*
X747250Y678875D01*
X746875Y679125D01*
X746625Y679500D01*
X746375Y679750D01*
X746125Y680125D01*
X745875Y680500D01*
X745625Y680875D01*
X745500Y681375D01*
X745250Y681750D01*
X745125Y682250D01*
Y682750D01*
X745000Y683250D01*
Y683875D01*
Y684375D01*
X744875Y733625D01*
X745000Y735375D01*
Y737000D01*
Y738625D01*
Y740125D01*
Y741625D01*
Y743125D01*
X745125Y744500D01*
Y745750D01*
Y747000D01*
Y748250D01*
X745250Y749375D01*
Y750375D01*
X745375Y751375D01*
Y752375D01*
X745500Y753250D01*
Y754125D01*
X733125D01*
X733250Y753250D01*
X733375Y752375D01*
Y751375D01*
X733500Y750375D01*
Y749375D01*
X733625Y748250D01*
Y747000D01*
Y745750D01*
X733750Y744500D01*
Y743125D01*
Y741625D01*
Y740125D01*
Y738625D01*
Y737000D01*
X733875Y735375D01*
Y733625D01*
X733750Y678000D01*
X733875Y677500D01*
Y677000D01*
Y676500D01*
Y676125D01*
X734000Y675625D01*
Y675250D01*
X734125Y674875D01*
X734250Y674500D01*
X734375Y674000D01*
X734500Y673625D01*
X734625Y673250D01*
X734750Y672875D01*
X734875Y672625D01*
X735000Y672250D01*
X735250Y671875D01*
X735375Y671625D01*
X735625Y671250D01*
X735875Y671000D01*
X736125Y670625D01*
X736375Y670375D01*
X736625Y670125D01*
X736875Y669875D01*
X737125Y669625D01*
X737500Y669375D01*
X737750Y669125D01*
X738125Y668875D01*
X738375Y668625D01*
X738750Y668375D01*
X739125Y668250D01*
X739500Y668000D01*
X739875Y667875D01*
X740250Y667750D01*
X741125Y667375D01*
X742000Y667000D01*
X742875Y666750D01*
X743750Y666375D01*
X744750Y666125D01*
X745750Y665875D01*
X746750Y665500D01*
X747875Y665250D01*
X749000Y665000D01*
X750125Y664750D01*
X751375Y664500D01*
X752625Y664250D01*
X753875Y664000D01*
X755125Y663750D01*
X756500Y663500D01*
X757875Y663250D01*
X758000Y664000D01*
X758250Y664750D01*
X758375Y665500D01*
X758625Y666375D01*
X758875Y667125D01*
X759250Y668000D01*
X759500Y668750D01*
X759875Y669625D01*
X760250Y670500D01*
X760625Y671250D01*
X761125Y672125D01*
X761625Y673125D01*
X762125Y674000D01*
X762625Y674875D01*
X763125Y675875D01*
X763750Y676750D01*
D01*
X763000D01*
G37*
%LPD*%
%LPD*%G36*
X713375Y730000D02*
X711625Y727625D01*
X709875Y725250D01*
X708250Y722875D01*
X706625Y720625D01*
X705000Y718250D01*
X703500Y716000D01*
X701875Y713625D01*
X700375Y711375D01*
X698875Y709125D01*
X697375Y707000D01*
X696000Y704750D01*
X694500Y702625D01*
X693125Y700375D01*
X691750Y698250D01*
X690500Y696125D01*
X690875Y695750D01*
X691375Y695500D01*
X691875Y695125D01*
X692500Y694750D01*
X693000Y694375D01*
X693625Y694000D01*
X694375Y693625D01*
X695000Y693125D01*
X695750Y692750D01*
X696500Y692250D01*
X697250Y691750D01*
X698000Y691250D01*
X698875Y690750D01*
X699750Y690250D01*
X700625Y689625D01*
X701625Y689125D01*
X702875Y691375D01*
X704125Y693750D01*
X705375Y696125D01*
X706750Y698500D01*
X708125Y700750D01*
X709500Y703125D01*
X710875Y705500D01*
X712250Y707875D01*
X713750Y710125D01*
X715250Y712500D01*
X716625Y714875D01*
X718125Y717250D01*
X719750Y719500D01*
X721250Y721875D01*
X722875Y724250D01*
X724500Y726625D01*
X723750Y727000D01*
X723000Y727500D01*
X722375Y727875D01*
X721625Y728250D01*
X721000Y728625D01*
X720375Y729000D01*
X719750Y729375D01*
X719125Y729750D01*
X718625Y730125D01*
X718000Y730500D01*
X717500Y730875D01*
X717000Y731250D01*
X716500Y731500D01*
X716000Y731875D01*
X715500Y732125D01*
X715125Y732375D01*
D01*
X713375Y730000D01*
G37*
%LPD*%
%LPD*%G36*
X786500Y697500D02*
X784750Y699375D01*
X783000Y701375D01*
X781250Y703500D01*
X779625Y705500D01*
X778000Y707750D01*
X776375Y709875D01*
X774875Y712125D01*
X773375Y714375D01*
X771875Y716625D01*
X770375Y719000D01*
X769000Y721375D01*
X767625Y723750D01*
X766250Y726250D01*
X765000Y728750D01*
X763750Y731250D01*
X762875Y730875D01*
X762000Y730375D01*
X761125Y730000D01*
X760375Y729625D01*
X759625Y729125D01*
X758875Y728750D01*
X758125Y728375D01*
X757375Y728000D01*
X756750Y727625D01*
X756000Y727375D01*
X755375Y727000D01*
X754750Y726625D01*
X754250Y726375D01*
X753625Y726000D01*
X753125Y725750D01*
X752625Y725375D01*
X753000Y724625D01*
X753500Y723875D01*
X754000Y723000D01*
X754500Y722125D01*
X755125Y721250D01*
X755750Y720375D01*
X756375Y719375D01*
X757000Y718375D01*
X757625Y717375D01*
X758375Y716250D01*
X759125Y715125D01*
X759875Y714000D01*
X760625Y712750D01*
X761375Y711625D01*
X762250Y710250D01*
X763125Y709000D01*
X764875Y706375D01*
X766750Y703750D01*
X768625Y701125D01*
X770625Y698500D01*
X772625Y695875D01*
X774625Y693125D01*
X776750Y690500D01*
X779000Y687875D01*
X780125Y688875D01*
X781250Y689875D01*
X782500Y690875D01*
X783625Y691875D01*
X784750Y692750D01*
X786000Y693750D01*
X787125Y694625D01*
X788375Y695500D01*
D01*
X786500Y697500D01*
G37*
%LPD*%
%LPD*%G36*
X628125Y795500D02*
X628625Y794625D01*
X629000Y793875D01*
X629375Y793000D01*
X629750Y792125D01*
X630125Y791250D01*
X630500Y790375D01*
X630750Y789500D01*
X631125Y788625D01*
X631375Y787625D01*
X631750Y786750D01*
X632000Y785750D01*
X632250Y784875D01*
X632500Y783875D01*
X632750Y782875D01*
X633000Y782000D01*
X633875Y778000D01*
X634750Y774125D01*
X635625Y770250D01*
X636500Y766375D01*
X607125Y766500D01*
X607625Y764250D01*
X608000Y762125D01*
X608375Y760000D01*
X608750Y757875D01*
X609125Y755750D01*
X609500Y753750D01*
X609875Y751750D01*
X610250Y749750D01*
X610750Y747750D01*
X611125Y745875D01*
X611500Y743875D01*
X611875Y742000D01*
X612375Y740125D01*
X612750Y738375D01*
X613250Y736500D01*
X613625Y734750D01*
X614125Y733000D01*
X614625Y731250D01*
X615125Y729500D01*
X615625Y727625D01*
X616250Y725875D01*
X616875Y724125D01*
X617500Y722250D01*
X618250Y720375D01*
X618875Y718625D01*
X619625Y716750D01*
X620375Y714875D01*
X621250Y713000D01*
X622125Y711125D01*
X623000Y709250D01*
X623875Y707375D01*
X624750Y705500D01*
X623625Y704500D01*
X622375Y703375D01*
X621125Y702250D01*
X619875Y701125D01*
X618625Y700000D01*
X617375Y698875D01*
X616000Y697625D01*
X614625Y696375D01*
X613375Y695125D01*
X611875Y693875D01*
X610500Y692500D01*
X609125Y691250D01*
X607625Y689875D01*
X606125Y688375D01*
X604625Y687000D01*
X603125Y685500D01*
X604375Y684500D01*
X605625Y683500D01*
X606875Y682375D01*
X608125Y681375D01*
X609250Y680250D01*
X610375Y679125D01*
X611500Y677875D01*
X612500Y676750D01*
X613625Y678125D01*
X614750Y679500D01*
X615750Y680875D01*
X616875Y682125D01*
X618000Y683500D01*
X619125Y684750D01*
X620250Y686000D01*
X621375Y687125D01*
X622500Y688375D01*
X623750Y689500D01*
X624875Y690750D01*
X626000Y691875D01*
X627125Y692875D01*
X628375Y694000D01*
X629500Y695125D01*
X630625Y696125D01*
X631625Y695000D01*
X632500Y693750D01*
X633500Y692625D01*
X634500Y691500D01*
X635375Y690500D01*
X636375Y689375D01*
X637375Y688250D01*
X638250Y687250D01*
X639250Y686250D01*
X640125Y685250D01*
X641125Y684125D01*
X642125Y683250D01*
X643000Y682250D01*
X644000Y681250D01*
X644875Y680375D01*
X645875Y679375D01*
X647750Y677625D01*
X649750Y675750D01*
X651625Y674000D01*
X653625Y672250D01*
X655625Y670625D01*
X657625Y668875D01*
X659625Y667250D01*
X661750Y665625D01*
X662000Y666125D01*
X662375Y666625D01*
X662750Y667250D01*
X663125Y667750D01*
X663625Y668250D01*
X664000Y668750D01*
X664500Y669375D01*
X665125Y669875D01*
X665625Y670500D01*
X666250Y671000D01*
X666875Y671500D01*
X667500Y672125D01*
X668250Y672750D01*
X669000Y673250D01*
X669750Y673875D01*
X670500Y674375D01*
X668250Y675750D01*
X666125Y677125D01*
X664000Y678625D01*
X661875Y680125D01*
X659875Y681625D01*
X657750Y683125D01*
X655750Y684750D01*
X653750Y686500D01*
X652750Y687250D01*
X651875Y688125D01*
X650875Y689125D01*
X649875Y690000D01*
X648875Y691000D01*
X648000Y692000D01*
X647000Y693000D01*
X646125Y694000D01*
X645125Y695000D01*
X644250Y696125D01*
X643375Y697250D01*
X642375Y698375D01*
X641500Y699500D01*
X640625Y700750D01*
X639750Y701875D01*
X638875Y703125D01*
X640125Y704125D01*
X641500Y705125D01*
X642875Y706250D01*
X644250Y707250D01*
X645625Y708250D01*
X647000Y709250D01*
X648375Y710250D01*
X649875Y711250D01*
X651250Y712125D01*
X652750Y713125D01*
X654125Y714125D01*
X655625Y715125D01*
X657125Y716125D01*
X658625Y717000D01*
X660125Y718000D01*
X661750Y719000D01*
X660750Y721125D01*
X659875Y723375D01*
X659000Y725625D01*
X658125Y727875D01*
X657250Y730250D01*
X656375Y732500D01*
X655625Y734875D01*
X654875Y737250D01*
X654000Y739625D01*
X653375Y742125D01*
X652625Y744500D01*
X651875Y747000D01*
X651250Y749500D01*
X650625Y752000D01*
X650000Y754500D01*
X649375Y757000D01*
X650500D01*
X651750D01*
X652875D01*
X654000D01*
X655000D01*
X656125D01*
X657125Y756875D01*
X658250D01*
X659250D01*
X660250D01*
X661125Y756750D01*
X662125D01*
X663125Y756625D01*
X664000D01*
X664875Y756500D01*
X665750D01*
Y767125D01*
X664875Y766875D01*
X664000D01*
X663000Y766750D01*
X662000D01*
X661000D01*
X659875Y766625D01*
X658750D01*
X657625D01*
X656375Y766500D01*
X655125D01*
X653875D01*
X652625D01*
X651250D01*
X649875Y766375D01*
X648500D01*
X647000D01*
X646625Y768250D01*
X646250Y770000D01*
X645750Y771875D01*
X645375Y773750D01*
X645000Y775750D01*
X644625Y777750D01*
X644250Y779750D01*
X643875Y781750D01*
X643500Y783875D01*
X643125Y786000D01*
X642750Y788250D01*
X642500Y790500D01*
X642125Y792750D01*
X641750Y795125D01*
X641500Y797375D01*
X641250Y799875D01*
X639750Y799375D01*
X638125Y799000D01*
X636500Y798500D01*
X634875Y798000D01*
X633125Y797625D01*
X631375Y797125D01*
X629625Y796750D01*
X627750Y796250D01*
D01*
X628125Y795500D01*
G37*
%LPD*%
%LPD*%G36*
X536875Y775250D02*
X538375Y774000D01*
X539875Y772750D01*
X541500Y771625D01*
X543000Y770250D01*
X544625Y769000D01*
X546375Y767625D01*
X548000Y766375D01*
X549750Y765000D01*
X551500Y763500D01*
X553375Y762125D01*
X555125Y760625D01*
X557000Y759125D01*
X558750Y757625D01*
X560625Y756125D01*
X562500Y754500D01*
X564500Y753000D01*
X564375Y734875D01*
X548500D01*
X547625Y734750D01*
X546625D01*
X545750D01*
X544750Y734875D01*
X543625D01*
X542625D01*
X541625D01*
X540500D01*
X539500Y735000D01*
X538375D01*
X537375D01*
X536250Y735125D01*
X535125D01*
X534000Y735250D01*
X532750D01*
X531625Y735375D01*
Y724250D01*
X532750D01*
X534000Y724375D01*
X535125D01*
X536250Y724500D01*
X537375D01*
X538375Y724625D01*
X539500D01*
X540500D01*
X541625Y724750D01*
X542625D01*
X543625D01*
X544750D01*
X545750D01*
X546625D01*
X547625Y724875D01*
X548625D01*
X564375D01*
Y682750D01*
X564500Y682000D01*
Y681250D01*
Y680625D01*
Y680000D01*
X564625Y679375D01*
Y678750D01*
X564750Y678125D01*
X564875Y677625D01*
X565000Y677000D01*
X565125Y676500D01*
X565250Y676000D01*
X565375Y675375D01*
X565500Y675000D01*
X565750Y674500D01*
X565875Y674000D01*
X566125Y673500D01*
X566375Y673125D01*
X566625Y672750D01*
X566875Y672250D01*
X567125Y671875D01*
X567375Y671500D01*
X567625Y671250D01*
X567875Y670875D01*
X568250Y670500D01*
X568500Y670250D01*
X568875Y670000D01*
X569250Y669625D01*
X569625Y669375D01*
X570000Y669250D01*
X570375Y669000D01*
X570750Y668750D01*
X571125Y668625D01*
X572000Y668250D01*
X573000Y667875D01*
X573875Y667500D01*
X574875Y667125D01*
X575875Y666875D01*
X576875Y666500D01*
X578000Y666250D01*
X579125Y665875D01*
X580375Y665625D01*
X581500Y665375D01*
X582750Y665125D01*
X584125Y664875D01*
X585375Y664625D01*
X586750Y664375D01*
X588250Y664125D01*
X589625Y663875D01*
X589875Y664750D01*
X590125Y665500D01*
X590375Y666375D01*
X590625Y667125D01*
X590875Y668000D01*
X591250Y668750D01*
X591500Y669625D01*
X591875Y670500D01*
X592125Y671375D01*
X592500Y672125D01*
X592875Y673000D01*
X593250Y673875D01*
X593625Y674750D01*
X594000Y675625D01*
X594500Y676500D01*
X594875Y677375D01*
X594125D01*
X593375D01*
X592625D01*
X591875D01*
X591125D01*
X590375D01*
X589750D01*
X589125Y677500D01*
X588375D01*
X587750D01*
X587125D01*
X586625Y677625D01*
X586000D01*
X585500D01*
X585000D01*
X584375Y677750D01*
X584000D01*
X583500Y677875D01*
X583000D01*
X582625D01*
X582125Y678000D01*
X581750D01*
X581375Y678125D01*
X581000D01*
X580625Y678250D01*
X580375Y678375D01*
X580000D01*
X579750Y678500D01*
X579500D01*
X579250Y678625D01*
X579000Y678750D01*
X578750Y678875D01*
X578375Y679000D01*
X578000Y679250D01*
X577750Y679625D01*
X577375Y679875D01*
X577125Y680250D01*
X576875Y680750D01*
X576625Y681125D01*
X576375Y681625D01*
X576250Y682250D01*
X576000Y682875D01*
X575875Y683500D01*
X575750Y684125D01*
X575625Y684875D01*
Y685625D01*
Y686500D01*
Y687375D01*
X575500Y724875D01*
X584250D01*
X587375Y724750D01*
X590500D01*
X593500D01*
X596500Y724625D01*
X599500D01*
X602500Y724500D01*
X605500Y724375D01*
X608375Y724250D01*
Y735375D01*
X605500Y735250D01*
X602625Y735125D01*
X599750Y735000D01*
X597000Y734875D01*
X594250D01*
X591500D01*
X588750Y734750D01*
X586125D01*
X575500Y734875D01*
X575625Y735875D01*
Y736875D01*
Y738000D01*
Y738875D01*
Y739875D01*
Y740875D01*
Y741750D01*
Y742625D01*
Y743500D01*
Y744250D01*
X575750Y745125D01*
Y745875D01*
Y746500D01*
Y747250D01*
X575875Y747875D01*
Y748500D01*
Y749125D01*
X576000Y749750D01*
Y750375D01*
X576125Y750875D01*
Y751500D01*
X576250Y752000D01*
Y752500D01*
X576375Y753000D01*
X576500Y753500D01*
X576625Y754000D01*
Y754375D01*
X576750Y754875D01*
X576875Y755250D01*
X577000Y755750D01*
X577125Y756125D01*
X577375Y756500D01*
X576625Y756875D01*
X576000Y757375D01*
X575250Y757875D01*
X574625Y758375D01*
X573875Y758875D01*
X573125Y759375D01*
X572375Y759875D01*
X571625Y760500D01*
X570875Y761125D01*
X570000Y761625D01*
X569250Y762250D01*
X568375Y762875D01*
X567625Y763500D01*
X566750Y764125D01*
X565875Y764875D01*
X565000Y765500D01*
X563250Y766875D01*
X561625Y768250D01*
X560000Y769625D01*
X558375Y771000D01*
X556875Y772375D01*
X555500Y773750D01*
X554125Y775000D01*
X552750Y776375D01*
X587875Y776500D01*
X588625Y776375D01*
X589375D01*
X590250D01*
X591000D01*
X592000D01*
X592875Y776250D01*
X593750D01*
X594750D01*
X595750D01*
X596750Y776125D01*
X597875D01*
X599000Y776000D01*
X600125D01*
X601250Y775875D01*
X602500D01*
X603750Y775750D01*
X603625Y786375D01*
X602500Y786250D01*
X601250D01*
X600125Y786125D01*
X599000D01*
X597875Y786000D01*
X596750D01*
X595750D01*
X594750Y785875D01*
X593750D01*
X592875D01*
X592000D01*
X591000Y785750D01*
X590250D01*
X589375D01*
X588625D01*
X587875D01*
X536875D01*
Y775250D01*
G37*
%LPD*%
%LPC*%G36*
X647750Y722375D02*
X646625Y721625D01*
X645625Y720875D01*
X644625Y720250D01*
X643500Y719500D01*
X642500Y718875D01*
X641625Y718125D01*
X640625Y717500D01*
X639625Y716875D01*
X638750Y716250D01*
X637875Y715500D01*
X637000Y714875D01*
X636125Y714375D01*
X635250Y713750D01*
X634375Y713125D01*
X633625Y712500D01*
X633125Y713375D01*
X632625Y714375D01*
X632000Y715375D01*
X631625Y716375D01*
X631125Y717375D01*
X630625Y718500D01*
X630125Y719625D01*
X629625Y720750D01*
X629125Y721875D01*
X628625Y723125D01*
X628250Y724375D01*
X627750Y725750D01*
X627250Y727000D01*
X626875Y728375D01*
X626375Y729875D01*
X626000Y731250D01*
X625500Y732750D01*
X625125Y734250D01*
X624625Y735750D01*
X624250Y737250D01*
X623875Y738875D01*
X623500Y740375D01*
X623125Y742000D01*
X622750Y743625D01*
X622375Y745250D01*
X622000Y746875D01*
X621625Y748500D01*
X621375Y750125D01*
X621000Y751875D01*
X620750Y753625D01*
X620375Y755250D01*
X620125Y757000D01*
X638250Y757125D01*
X638875Y754625D01*
X639625Y752250D01*
X640250Y750000D01*
X640875Y747625D01*
X641500Y745375D01*
X642250Y743250D01*
X642875Y741000D01*
X643500Y738875D01*
X644250Y736750D01*
X644875Y734750D01*
X645500Y732625D01*
X646125Y730625D01*
X646875Y728750D01*
X647500Y726750D01*
X648125Y724875D01*
X648875Y723000D01*
D01*
X647750Y722375D01*
G37*
%LPD*%
%LPD*%G36*
X469000Y785625D02*
X469125Y782625D01*
Y779500D01*
X469250Y776500D01*
X469375Y773500D01*
Y770500D01*
Y767625D01*
Y764625D01*
Y715500D01*
Y712625D01*
Y710000D01*
Y707250D01*
X469250Y704625D01*
X469125Y702000D01*
Y699375D01*
X469000Y696875D01*
X468875Y694375D01*
X479875D01*
Y709000D01*
X500375D01*
Y685000D01*
X511500D01*
Y686500D01*
Y688000D01*
X511375Y689500D01*
Y691000D01*
X511250Y692500D01*
Y694000D01*
X511125Y695375D01*
Y696875D01*
Y698250D01*
Y699625D01*
X511000Y701125D01*
Y702500D01*
Y703750D01*
Y705125D01*
Y706500D01*
Y707875D01*
Y764750D01*
Y767625D01*
Y770500D01*
X511125Y773500D01*
Y776500D01*
X511250Y779500D01*
X511375Y782625D01*
X511500Y785625D01*
X511625Y788625D01*
X468750Y788750D01*
X468875Y788625D01*
X469000Y785625D01*
G37*
%LPD*%
%LPD*%G36*
X440875Y766500D02*
X441000Y766000D01*
X441125Y765500D01*
X441250Y764875D01*
X441375Y764250D01*
X441625Y763500D01*
X441750Y762750D01*
X441875Y762000D01*
X442000Y761250D01*
X442125Y760375D01*
X442250Y759375D01*
X442500Y758500D01*
X442625Y757375D01*
X442750Y756375D01*
X442875Y755250D01*
X443000Y754125D01*
X443125Y752875D01*
X443375Y751750D01*
X443500Y750500D01*
X443625Y749250D01*
X443750Y748000D01*
X443875Y746625D01*
X444000Y745375D01*
Y744000D01*
X444125Y742625D01*
X444250Y741250D01*
X444375Y739875D01*
X444500Y738375D01*
Y737000D01*
X444625Y735500D01*
X444750Y734000D01*
Y732375D01*
X413125Y732500D01*
X409625Y780500D01*
X439500D01*
X441125D01*
X442875D01*
X444375D01*
X446000D01*
X447500Y780375D01*
X449000D01*
X450500D01*
X452000D01*
X453375Y780250D01*
X454750D01*
X456125D01*
X457375Y780125D01*
X458750D01*
X460000Y780000D01*
X461125D01*
X462375Y779875D01*
X462250Y791125D01*
X461125Y791000D01*
X460000Y790875D01*
X458750D01*
X457500Y790750D01*
X456250D01*
X454875Y790625D01*
X453625D01*
X452250D01*
X450875Y790500D01*
X449500D01*
X448125D01*
X446625D01*
X445250D01*
X443750D01*
X442250D01*
X440750D01*
X397250D01*
X402000Y732500D01*
X382625D01*
X382875Y730875D01*
X383000Y729375D01*
X383125Y727750D01*
X383250Y726250D01*
X383375Y724875D01*
X383500Y723375D01*
X383625Y722000D01*
X383750Y720500D01*
X383875Y719125D01*
X384000Y717750D01*
X384250Y716375D01*
X384375Y715125D01*
X384500Y713750D01*
X384625Y712500D01*
Y711250D01*
X384750Y710000D01*
X384875Y708750D01*
X385000Y707625D01*
X385125Y706500D01*
X385250Y705250D01*
X385375Y704125D01*
X385500Y703000D01*
X385625Y702000D01*
X385750Y700875D01*
Y699875D01*
X385875Y698875D01*
X386000Y697875D01*
X386125Y696875D01*
X386250Y695875D01*
Y695000D01*
X386375Y694125D01*
X386500Y693125D01*
X386625Y692250D01*
Y691500D01*
X386750Y690625D01*
X386875Y689875D01*
X387000Y689000D01*
X387125Y688250D01*
Y687500D01*
X387250Y686750D01*
X387375Y686000D01*
X387500Y685375D01*
X387625Y684750D01*
X387750Y684000D01*
X387875Y683375D01*
X388000Y682750D01*
Y682125D01*
X388125Y681625D01*
X388250Y681000D01*
X388375Y680500D01*
X388500Y680000D01*
X388625Y679500D01*
X388750Y679000D01*
X388875Y678500D01*
X389000Y678125D01*
X389125Y677750D01*
X389375Y677250D01*
X389500Y676875D01*
X389625Y676500D01*
X389750Y676250D01*
X389875Y675875D01*
X390000Y675625D01*
X390125Y675250D01*
X390250Y675000D01*
X390625Y674500D01*
X390875Y674000D01*
X391250Y673500D01*
X391625Y673000D01*
X392000Y672625D01*
X392375Y672125D01*
X392750Y671750D01*
X393125Y671250D01*
X393625Y670875D01*
X394000Y670500D01*
X394500Y670125D01*
X395000Y669625D01*
X395500Y669375D01*
X396000Y669000D01*
X396500Y668625D01*
X397000Y668250D01*
X397375Y668125D01*
X397625Y668000D01*
X398000Y667750D01*
X398250Y667625D01*
X398625Y667500D01*
X399000Y667375D01*
X399375Y667125D01*
X399875Y667000D01*
X400250Y666875D01*
X400750Y666750D01*
X401250Y666625D01*
X401750Y666375D01*
X402250Y666250D01*
X402750Y666125D01*
X403250Y666000D01*
X403875Y665875D01*
X404375Y665750D01*
X405000Y665625D01*
X405625Y665500D01*
X406250Y665375D01*
X407000Y665250D01*
X407625Y665125D01*
X408375Y665000D01*
X409125Y664875D01*
X409750Y664750D01*
X410500Y664625D01*
X411375Y664500D01*
X412125Y664375D01*
X413000Y664250D01*
X413750Y664125D01*
X414625Y664000D01*
X415500Y663875D01*
Y664375D01*
X415625Y665000D01*
Y665625D01*
X415750Y666250D01*
X416000Y666875D01*
X416125Y667625D01*
X416375Y668375D01*
X416625Y669125D01*
X417000Y670000D01*
X417375Y670875D01*
X417750Y671750D01*
X418125Y672625D01*
X418625Y673625D01*
X419125Y674625D01*
X419625Y675750D01*
X420125Y676750D01*
X419250D01*
X418375D01*
X417375D01*
X416500D01*
X415750D01*
X414875D01*
X414125D01*
X413375D01*
X412500D01*
X411875D01*
X411125Y676875D01*
X410500D01*
X409750Y677000D01*
X409125D01*
X408500Y677125D01*
X408000Y677250D01*
X407375D01*
X406875Y677375D01*
X406375Y677500D01*
X405875Y677625D01*
X405375Y677750D01*
X404875Y677875D01*
X404500Y678000D01*
X404125Y678250D01*
X403750Y678375D01*
X403375Y678500D01*
X403000Y678750D01*
X402750Y678875D01*
X402375Y679125D01*
X402125Y679250D01*
X401875Y679500D01*
X401750Y679750D01*
X401500Y679875D01*
X401375Y680125D01*
X401125Y680500D01*
X401000Y680750D01*
X400750Y681125D01*
X400625Y681375D01*
X400375Y681750D01*
X400250Y682125D01*
X400125Y682625D01*
X399875Y683000D01*
X399750Y683500D01*
X399625Y684000D01*
X399500Y684500D01*
X399250Y685000D01*
X399125Y685500D01*
X399000Y686125D01*
X398875Y686625D01*
X398750Y687250D01*
X398625Y687875D01*
X398500Y688500D01*
X398375Y689250D01*
X398250Y689875D01*
X398125Y690625D01*
X398000Y691375D01*
Y692125D01*
X397875Y693000D01*
X397750Y693750D01*
X397625Y694625D01*
Y695500D01*
X397500Y696375D01*
X397375Y697250D01*
Y698125D01*
X397125Y700000D01*
X397000Y701750D01*
X396875Y703625D01*
X396750Y705250D01*
X396625Y707000D01*
X396500Y708625D01*
X396375Y710125D01*
X396250Y711750D01*
Y713250D01*
X396125Y714625D01*
X396000Y716125D01*
X395875Y717500D01*
X395750Y718750D01*
Y720000D01*
X395625Y721250D01*
Y722500D01*
X457000D01*
Y723125D01*
X456875Y723750D01*
X456750Y724500D01*
X456625Y725250D01*
X456500Y726125D01*
X456375Y727000D01*
Y727875D01*
X456250Y728875D01*
X456125Y729875D01*
X456000Y731000D01*
X455875Y732125D01*
X455750Y733250D01*
X455625Y734500D01*
X455500Y735875D01*
Y737125D01*
X455375Y738625D01*
X455250Y740000D01*
X455125Y741500D01*
X455000Y743125D01*
X454875Y744750D01*
X454750Y746375D01*
X454625Y748125D01*
Y749875D01*
X454500Y751750D01*
X454375Y753625D01*
X454250Y755500D01*
X454125Y757500D01*
X454000Y759500D01*
X453875Y761625D01*
X453750Y763750D01*
Y765875D01*
X453625Y768125D01*
X452625Y768000D01*
X451625Y767875D01*
X450625Y767750D01*
X449750Y767625D01*
X448750Y767500D01*
X447875D01*
X447125Y767375D01*
X446250Y767250D01*
X445500D01*
X444750Y767125D01*
X444000D01*
X443250D01*
X442625Y767000D01*
X441875D01*
X441250D01*
X440750D01*
D01*
X440875Y766500D01*
G37*
%LPD*%
%LPC*%G36*
X479875Y779375D02*
X500375D01*
Y718375D01*
X480000D01*
X479875Y779375D01*
G37*
%LPD*%
%LPD*%G36*
X419125Y705500D02*
X416875D01*
X414625Y705625D01*
X412250D01*
X409875Y705750D01*
X407500Y705875D01*
X405125D01*
X402625Y706125D01*
X402500Y695625D01*
X405125D01*
X407500Y695750D01*
X410000Y695875D01*
X412375Y696000D01*
X414875D01*
X417250Y696125D01*
X419625D01*
X422000D01*
X446500D01*
X447500D01*
X448500D01*
X449500D01*
X450500D01*
X451500Y696000D01*
X452625D01*
X453625D01*
X454750D01*
X455875Y695875D01*
X457000D01*
X458125D01*
X459250Y695750D01*
X460500D01*
X461625Y695625D01*
X462875D01*
X464125Y695500D01*
Y706125D01*
X462875Y706000D01*
X461625Y705875D01*
X460500D01*
X459250D01*
X458125Y705750D01*
X457000D01*
X455875Y705625D01*
X454750D01*
X453625D01*
X452625D01*
X451500Y705500D01*
X450500D01*
X449500D01*
X448500D01*
X447500D01*
X446500D01*
X421375D01*
X419125D01*
G37*
%LPD*%
X482600Y984250D02*
X1174750Y1352550D01*
X393700Y908050D02*
X482600Y984250D01*
X2139950Y127000D02*
X463550Y146050D01*
X1174750Y1352550D02*
X1631950Y1333500D01*
X1155810Y1004160D02*
Y995270D01*
X1157080Y994000D01*
X1153270Y1001620D02*
X1158350D01*
X1171050Y995270D02*
X1169780Y994000D01*
X1165970D01*
X1164700Y995270D01*
Y1000350D01*
X1165970Y1001620D01*
X1169780D01*
X1171050Y1000350D01*
Y999080D01*
X1169780Y997810D01*
X1164700D01*
X1174860Y1001620D02*
X1182480Y994000D01*
X1174860D02*
X1182480Y1001620D01*
X1190100Y1004160D02*
Y995270D01*
X1191370Y994000D01*
X1187560Y1001620D02*
X1192640D01*
X1236000Y1042000D02*
Y1053430D01*
Y1048350D02*
X1243620D01*
Y1042000D02*
Y1053430D01*
X1255050Y1043270D02*
X1253780Y1042000D01*
X1249970D01*
X1248700Y1043270D01*
Y1048350D01*
X1249970Y1049620D01*
X1253780D01*
X1255050Y1048350D01*
Y1047080D01*
X1253780Y1045810D01*
X1248700D01*
X1262670Y1053430D02*
Y1042000D01*
X1261400D02*
X1263940D01*
X1274100Y1053430D02*
Y1042000D01*
X1272830D02*
X1275370D01*
X1282990Y1043270D02*
Y1048350D01*
X1284260Y1049620D01*
X1288070D01*
X1289340Y1048350D01*
Y1043270D01*
X1288070Y1042000D01*
X1284260D01*
X1282990Y1043270D01*
X1296960Y1039460D02*
X1298230Y1040730D01*
Y1043270D01*
X1296960D01*
Y1042000D01*
X1298230D01*
X1319820Y1052160D02*
Y1043270D01*
X1321090Y1042000D01*
X1317280Y1049620D02*
X1322360D01*
X1328710Y1053430D02*
Y1042000D01*
Y1049620D02*
X1333790D01*
X1335060Y1048350D01*
Y1042000D01*
X1342680Y1052160D02*
D01*
Y1049620D02*
Y1042000D01*
X1350300Y1043270D02*
X1351570Y1042000D01*
X1356650D01*
X1357920Y1043270D01*
Y1044540D01*
X1356650Y1045810D01*
X1351570D01*
X1350300Y1047080D01*
Y1048350D01*
X1351570Y1049620D01*
X1356650D01*
X1357920Y1048350D01*
X1376970Y1052160D02*
D01*
Y1049620D02*
Y1042000D01*
X1384590Y1043270D02*
X1385860Y1042000D01*
X1390940D01*
X1392210Y1043270D01*
Y1044540D01*
X1390940Y1045810D01*
X1385860D01*
X1384590Y1047080D01*
Y1048350D01*
X1385860Y1049620D01*
X1390940D01*
X1392210Y1048350D01*
X1415070Y1049620D02*
Y1042000D01*
Y1043270D01*
X1413800Y1042000D01*
X1409990D01*
X1408720Y1043270D01*
Y1048350D01*
X1409990Y1049620D01*
X1413800D01*
X1415070Y1048350D01*
X1434120Y1053430D02*
Y1042000D01*
X1432850D02*
X1435390D01*
X1445550Y1052160D02*
D01*
Y1049620D02*
Y1042000D01*
X1454440D02*
Y1049620D01*
Y1048350D01*
X1455710Y1049620D01*
X1459520D01*
X1460790Y1048350D01*
Y1042000D01*
X1472220Y1043270D02*
X1470950Y1042000D01*
X1467140D01*
X1465870Y1043270D01*
Y1048350D01*
X1467140Y1049620D01*
X1470950D01*
X1472220Y1048350D01*
Y1047080D01*
X1470950Y1045810D01*
X1465870D01*
X1488730Y1043270D02*
Y1048350D01*
X1490000Y1049620D01*
X1493810D01*
X1495080Y1048350D01*
Y1043270D01*
X1493810Y1042000D01*
X1490000D01*
X1488730Y1043270D01*
X1505240Y1052160D02*
X1503970Y1053430D01*
X1501430D01*
X1500160Y1052160D01*
Y1042000D01*
X1498890Y1048350D02*
X1501430D01*
X1498890Y1042000D02*
X1501430D01*
X1525560Y1052160D02*
Y1043270D01*
X1526830Y1042000D01*
X1523020Y1049620D02*
X1528100D01*
X1540800Y1043270D02*
X1539530Y1042000D01*
X1535720D01*
X1534450Y1043270D01*
Y1048350D01*
X1535720Y1049620D01*
X1539530D01*
X1540800Y1048350D01*
Y1047080D01*
X1539530Y1045810D01*
X1534450D01*
X1544610Y1049620D02*
X1552230Y1042000D01*
X1544610D02*
X1552230Y1049620D01*
X1559850Y1052160D02*
Y1043270D01*
X1561120Y1042000D01*
X1557310Y1049620D02*
X1562390D01*
X1556000Y1014000D02*
Y1025430D01*
Y1020350D02*
X1548380D01*
Y1014000D02*
Y1025430D01*
X1536950Y1015270D02*
X1538220Y1014000D01*
X1542030D01*
X1543300Y1015270D01*
Y1020350D01*
X1542030Y1021620D01*
X1538220D01*
X1536950Y1020350D01*
Y1019080D01*
X1538220Y1017810D01*
X1543300D01*
X1529330Y1025430D02*
Y1014000D01*
X1530600D02*
X1528060D01*
X1517900Y1025430D02*
Y1014000D01*
X1519170D02*
X1516630D01*
X1509010Y1015270D02*
Y1020350D01*
X1507740Y1021620D01*
X1503930D01*
X1502660Y1020350D01*
Y1015270D01*
X1503930Y1014000D01*
X1507740D01*
X1509010Y1015270D01*
X1495040Y1011460D02*
X1493770Y1012730D01*
Y1015270D01*
X1495040D01*
Y1014000D01*
X1493770D01*
X1472180Y1024160D02*
Y1015270D01*
X1470910Y1014000D01*
X1474720Y1021620D02*
X1469640D01*
X1463290Y1025430D02*
Y1014000D01*
Y1021620D02*
X1458210D01*
X1456940Y1020350D01*
Y1014000D01*
X1449320Y1024160D02*
D01*
Y1021620D02*
Y1014000D01*
X1441700Y1015270D02*
X1440430Y1014000D01*
X1435350D01*
X1434080Y1015270D01*
Y1016540D01*
X1435350Y1017810D01*
X1440430D01*
X1441700Y1019080D01*
Y1020350D01*
X1440430Y1021620D01*
X1435350D01*
X1434080Y1020350D01*
X1415030Y1024160D02*
D01*
Y1021620D02*
Y1014000D01*
X1407410Y1015270D02*
X1406140Y1014000D01*
X1401060D01*
X1399790Y1015270D01*
Y1016540D01*
X1401060Y1017810D01*
X1406140D01*
X1407410Y1019080D01*
Y1020350D01*
X1406140Y1021620D01*
X1401060D01*
X1399790Y1020350D01*
X1376930Y1021620D02*
Y1014000D01*
Y1015270D01*
X1378200Y1014000D01*
X1382010D01*
X1383280Y1015270D01*
Y1020350D01*
X1382010Y1021620D01*
X1378200D01*
X1376930Y1020350D01*
X1357880Y1025430D02*
Y1014000D01*
X1359150D02*
X1356610D01*
X1346450Y1024160D02*
D01*
Y1021620D02*
Y1014000D01*
X1337560D02*
Y1021620D01*
Y1020350D01*
X1336290Y1021620D01*
X1332480D01*
X1331210Y1020350D01*
Y1014000D01*
X1319780Y1015270D02*
X1321050Y1014000D01*
X1324860D01*
X1326130Y1015270D01*
Y1020350D01*
X1324860Y1021620D01*
X1321050D01*
X1319780Y1020350D01*
Y1019080D01*
X1321050Y1017810D01*
X1326130D01*
X1303270Y1015270D02*
Y1020350D01*
X1302000Y1021620D01*
X1298190D01*
X1296920Y1020350D01*
Y1015270D01*
X1298190Y1014000D01*
X1302000D01*
X1303270Y1015270D01*
X1286760Y1024160D02*
X1288030Y1025430D01*
X1290570D01*
X1291840Y1024160D01*
Y1014000D01*
X1293110Y1020350D02*
X1290570D01*
X1293110Y1014000D02*
X1290570D01*
X1266440Y1024160D02*
Y1015270D01*
X1265170Y1014000D01*
X1268980Y1021620D02*
X1263900D01*
X1251200Y1015270D02*
X1252470Y1014000D01*
X1256280D01*
X1257550Y1015270D01*
Y1020350D01*
X1256280Y1021620D01*
X1252470D01*
X1251200Y1020350D01*
Y1019080D01*
X1252470Y1017810D01*
X1257550D01*
X1247390Y1021620D02*
X1239770Y1014000D01*
X1247390D02*
X1239770Y1021620D01*
X1232150Y1024160D02*
Y1015270D01*
X1230880Y1014000D01*
X1234690Y1021620D02*
X1229610D01*
X1232000Y950000D02*
Y961430D01*
Y956350D02*
X1239620D01*
Y950000D02*
Y961430D01*
X1251050Y951270D02*
X1249780Y950000D01*
X1245970D01*
X1244700Y951270D01*
Y956350D01*
X1245970Y957620D01*
X1249780D01*
X1251050Y956350D01*
Y955080D01*
X1249780Y953810D01*
X1244700D01*
X1258670Y961430D02*
Y950000D01*
X1257400D02*
X1259940D01*
X1270100Y961430D02*
Y950000D01*
X1268830D02*
X1271370D01*
X1278990Y951270D02*
Y956350D01*
X1280260Y957620D01*
X1284070D01*
X1285340Y956350D01*
Y951270D01*
X1284070Y950000D01*
X1280260D01*
X1278990Y951270D01*
X1292960Y947460D02*
X1294230Y948730D01*
Y951270D01*
X1292960D01*
Y950000D01*
X1294230D01*
X1315820Y960160D02*
Y951270D01*
X1317090Y950000D01*
X1313280Y957620D02*
X1318360D01*
X1324710Y961430D02*
Y950000D01*
Y957620D02*
X1329790D01*
X1331060Y956350D01*
Y950000D01*
X1338680Y960160D02*
D01*
Y957620D02*
Y950000D01*
X1346300Y951270D02*
X1347570Y950000D01*
X1352650D01*
X1353920Y951270D01*
Y952540D01*
X1352650Y953810D01*
X1347570D01*
X1346300Y955080D01*
Y956350D01*
X1347570Y957620D01*
X1352650D01*
X1353920Y956350D01*
X1372970Y960160D02*
D01*
Y957620D02*
Y950000D01*
X1380590Y951270D02*
X1381860Y950000D01*
X1386940D01*
X1388210Y951270D01*
Y952540D01*
X1386940Y953810D01*
X1381860D01*
X1380590Y955080D01*
Y956350D01*
X1381860Y957620D01*
X1386940D01*
X1388210Y956350D01*
X1411070Y957620D02*
Y950000D01*
Y951270D01*
X1409800Y950000D01*
X1405990D01*
X1404720Y951270D01*
Y956350D01*
X1405990Y957620D01*
X1409800D01*
X1411070Y956350D01*
X1430120Y961430D02*
Y950000D01*
X1428850D02*
X1431390D01*
X1441550Y960160D02*
D01*
Y957620D02*
Y950000D01*
X1450440D02*
Y957620D01*
Y956350D01*
X1451710Y957620D01*
X1455520D01*
X1456790Y956350D01*
Y950000D01*
X1468220Y951270D02*
X1466950Y950000D01*
X1463140D01*
X1461870Y951270D01*
Y956350D01*
X1463140Y957620D01*
X1466950D01*
X1468220Y956350D01*
Y955080D01*
X1466950Y953810D01*
X1461870D01*
X1484730Y951270D02*
Y956350D01*
X1486000Y957620D01*
X1489810D01*
X1491080Y956350D01*
Y951270D01*
X1489810Y950000D01*
X1486000D01*
X1484730Y951270D01*
X1501240Y960160D02*
X1499970Y961430D01*
X1497430D01*
X1496160Y960160D01*
Y950000D01*
X1494890Y956350D02*
X1497430D01*
X1494890Y950000D02*
X1497430D01*
X1521560Y960160D02*
Y951270D01*
X1522830Y950000D01*
X1519020Y957620D02*
X1524100D01*
X1536800Y951270D02*
X1535530Y950000D01*
X1531720D01*
X1530450Y951270D01*
Y956350D01*
X1531720Y957620D01*
X1535530D01*
X1536800Y956350D01*
Y955080D01*
X1535530Y953810D01*
X1530450D01*
X1540610Y957620D02*
X1548230Y950000D01*
X1540610D02*
X1548230Y957620D01*
X1555850Y960160D02*
Y951270D01*
X1557120Y950000D01*
X1553310Y957620D02*
X1558390D01*
X1631950Y1333500D02*
X1930400Y1219200D01*
X2171700Y1016000D01*
X2317750Y552450D01*
X2298700Y165100D01*
X2139950Y127000D01*
G54D101*
X1260000Y880000D02*
Y895000D01*
X1255000Y890000D01*
X1250000Y895000D01*
Y880000D01*
X1245000Y881667D02*
X1243333Y880000D01*
X1236667D01*
X1235000Y881667D01*
Y893333D01*
X1236667Y895000D01*
X1243333D01*
X1245000Y893333D01*
Y881667D01*
X1230000Y880000D02*
Y895000D01*
X1221667D01*
X1220000Y893333D01*
Y890000D01*
X1221667Y888333D01*
X1230000D01*
X1228333D02*
X1220000Y880000D01*
X1205000Y895000D02*
X1215000D01*
Y880000D01*
X1205000D01*
X1215000Y888333D02*
X1208333D01*
X1185000Y895000D02*
X1176667D01*
X1175000Y893333D01*
Y890000D01*
X1176667Y888333D01*
X1183333D01*
X1176667D01*
X1175000Y886667D01*
Y881667D01*
X1176667Y880000D01*
X1185000D01*
X1183333D02*
Y895000D01*
X1170000Y880000D02*
Y890000D01*
X1165000Y895000D01*
X1160000Y890000D01*
Y886667D01*
X1170000D01*
X1160000D01*
Y880000D01*
X1145000Y891667D02*
X1148333Y895000D01*
X1151667D01*
X1155000Y891667D01*
Y883333D01*
X1151667Y880000D01*
X1148333D01*
X1145000Y883333D01*
X1140000Y880000D02*
Y895000D01*
X1130000D02*
X1140000Y888333D01*
X1130000Y880000D01*
X1125000Y895000D02*
Y881667D01*
X1123333Y880000D01*
X1120000Y883333D01*
X1116667Y880000D01*
X1115000Y881667D01*
Y895000D01*
X1110000Y880000D02*
Y890000D01*
X1105000Y895000D01*
X1100000Y890000D01*
Y886667D01*
X1110000D01*
X1100000D01*
Y880000D01*
X1095000D02*
Y895000D01*
X1086667D01*
X1085000Y893333D01*
Y890000D01*
X1086667Y888333D01*
X1095000D01*
X1093333D02*
X1085000Y880000D01*
X1080000Y895000D02*
X1073333D01*
X1070000Y891667D01*
Y883333D01*
X1073333Y880000D01*
X1080000D01*
X1078333Y895000D02*
Y880000D01*
X1065000Y881667D02*
X1063333Y880000D01*
X1056667D01*
X1055000Y881667D01*
Y886667D01*
X1056667Y888333D01*
X1063333D01*
X1065000Y890000D01*
Y893333D01*
X1063333Y895000D01*
X1056667D01*
X1055000Y893333D01*
X1035000Y895000D02*
X1025000D01*
X1030000D02*
Y880000D01*
X1010000Y895000D02*
X1020000D01*
Y880000D01*
X1010000D01*
X1020000Y888333D02*
X1013333D01*
X1005000Y895000D02*
X995000Y880000D01*
X1005000D02*
X995000Y895000D01*
X990000D02*
X980000D01*
X985000D02*
Y880000D01*
G54D100*
X-9652Y77893D02*
Y54187D01*
X-6265Y50800D01*
X-16425Y71120D02*
X-2879D01*
X30988Y54187D02*
X27601Y50800D01*
X17441D01*
X14055Y54187D01*
Y67733D01*
X17441Y71120D01*
X27601D01*
X30988Y67733D01*
Y64347D01*
X27601Y60960D01*
X14055D01*
X41148Y54187D02*
X44535Y50800D01*
X58081D01*
X61468Y54187D01*
Y57573D01*
X58081Y60960D01*
X44535D01*
X41148Y64347D01*
Y67733D01*
X44535Y71120D01*
X58081D01*
X61468Y67733D01*
X81788Y77893D02*
Y54187D01*
X85175Y50800D01*
X75015Y71120D02*
X88561D01*
X112268Y77893D02*
D01*
Y71120D02*
Y50800D01*
X135975D02*
Y71120D01*
Y67733D01*
X139361Y71120D01*
X149521D01*
X152908Y67733D01*
Y50800D01*
X166455Y44027D02*
X169841Y40640D01*
X180001D01*
X183388Y44027D01*
Y71120D01*
X169841D01*
X166455Y67733D01*
Y54187D01*
X169841Y50800D01*
X183388D01*
X-19812Y3387D02*
X-16425Y0D01*
X-2879D01*
X508Y3387D01*
Y13547D01*
X-2879Y16933D01*
X-16425D01*
X-19812Y20320D01*
Y27093D01*
X-16425Y30480D01*
X-2879D01*
X508Y27093D01*
X20828D02*
D01*
Y20320D02*
Y0D01*
X51308Y30480D02*
Y0D01*
X47921D02*
X54695D01*
X75015Y30480D02*
Y0D01*
X88561Y20320D02*
X78401Y10160D01*
X88561Y0D02*
X75015Y13547D01*
X102108Y3387D02*
X105495Y0D01*
X119041D01*
X122428Y3387D01*
Y6773D01*
X119041Y10160D01*
X105495D01*
X102108Y13547D01*
Y16933D01*
X105495Y20320D01*
X119041D01*
X122428Y16933D01*
X152908D02*
X149521Y20320D01*
X139361D01*
X135975Y16933D01*
Y3387D01*
X139361Y0D01*
X149521D01*
X152908Y3387D01*
X166455Y0D02*
Y20320D01*
Y16933D01*
X169841Y20320D01*
X180001D01*
X183388Y16933D01*
X213868Y3387D02*
X210481Y0D01*
X200321D01*
X196935Y3387D01*
Y16933D01*
X200321Y20320D01*
X210481D01*
X213868Y16933D01*
Y13547D01*
X210481Y10160D01*
X196935D01*
X244348Y3387D02*
X240961Y0D01*
X230801D01*
X227415Y3387D01*
Y16933D01*
X230801Y20320D01*
X240961D01*
X244348Y16933D01*
Y13547D01*
X240961Y10160D01*
X227415D01*
X257895Y0D02*
Y20320D01*
Y16933D01*
X261281Y20320D01*
X271441D01*
X274828Y16933D01*
Y0D01*
X325628Y27093D02*
Y3387D01*
X329015Y0D01*
X318855Y20320D02*
X332401D01*
X349335Y3387D02*
Y16933D01*
X352721Y20320D01*
X362881D01*
X366268Y16933D01*
Y3387D01*
X362881Y0D01*
X352721D01*
X349335Y3387D01*
X379815Y-10160D02*
Y20320D01*
Y16933D01*
X383201Y20320D01*
X393361D01*
X396748Y16933D01*
Y3387D01*
X393361Y0D01*
X383201D01*
X379815Y3387D01*
X-19812Y-44027D02*
Y-47413D01*
X-16425Y-50800D01*
X-9652D01*
X-2879D01*
Y-20320D01*
X-9652D02*
X-2879D01*
X27601Y-30480D02*
Y-50800D01*
Y-47413D01*
X24215Y-50800D01*
X17441D01*
X14055Y-47413D01*
Y-30480D01*
X44535Y-50800D02*
Y-30480D01*
Y-33867D01*
X47921Y-30480D01*
X58081D01*
X61468Y-33867D01*
Y-50800D01*
X91948Y-47413D02*
X88561Y-50800D01*
X78401D01*
X75015Y-47413D01*
Y-33867D01*
X78401Y-30480D01*
X88561D01*
X91948Y-33867D01*
Y-37253D01*
X88561Y-40640D01*
X75015D01*
X132588Y-23707D02*
X135975Y-20320D01*
X146135D01*
X149521Y-23707D01*
Y-27093D01*
X132588Y-44027D01*
Y-50800D01*
X149521D01*
X176615Y-20320D02*
X169841D01*
X163068Y-27093D01*
Y-47413D01*
X166455Y-50800D01*
X176615D01*
X180001Y-47413D01*
Y-37253D01*
X176615Y-33867D01*
X163068D01*
X203708Y-57573D02*
X207095Y-54187D01*
Y-47413D01*
X203708D01*
Y-50800D01*
X207095D01*
X254508Y-23707D02*
X257895Y-20320D01*
X268055D01*
X271441Y-23707D01*
Y-27093D01*
X254508Y-44027D01*
Y-50800D01*
X271441D01*
X305308Y-23707D02*
Y-47413D01*
X301921Y-50800D01*
X288375D01*
X284988Y-47413D01*
Y-23707D01*
X288375Y-20320D01*
X301921D01*
X305308Y-23707D01*
Y-27093D01*
X284988Y-47413D01*
X318855Y-27093D02*
X325628Y-20320D01*
Y-50800D01*
X318855D01*
X332401D01*
X359495Y-20320D02*
X352721D01*
X345948Y-27093D01*
Y-47413D01*
X349335Y-50800D01*
X359495D01*
X362881Y-47413D01*
Y-37253D01*
X359495Y-33867D01*
X345948D01*
X410295Y-27093D02*
X417068Y-20320D01*
Y-50800D01*
X410295D01*
X423841D01*
X454321Y-20320D02*
X437388D01*
Y-33867D01*
X450935D01*
X454321Y-37253D01*
Y-47413D01*
X450935Y-50800D01*
X440775D01*
X437388Y-47413D01*
X481415Y-30480D02*
Y-27093D01*
X478028D01*
Y-30480D01*
X481415D01*
Y-44027D02*
Y-40640D01*
X478028D01*
Y-44027D01*
X481415D01*
X518668Y-23707D02*
Y-47413D01*
X515281Y-50800D01*
X501735D01*
X498348Y-47413D01*
Y-23707D01*
X501735Y-20320D01*
X515281D01*
X518668Y-23707D01*
Y-27093D01*
X498348Y-47413D01*
X532215Y-27093D02*
X538988Y-20320D01*
Y-50800D01*
X532215D01*
X545761D01*
X572855Y-30480D02*
Y-27093D01*
X569468D01*
Y-30480D01*
X572855D01*
Y-44027D02*
Y-40640D01*
X569468D01*
Y-44027D01*
X572855D01*
X589788Y-23707D02*
X593175Y-20320D01*
X603335D01*
X606721Y-23707D01*
Y-27093D01*
X589788Y-44027D01*
Y-50800D01*
X606721D01*
X620268Y-20320D02*
X637201D01*
Y-30480D01*
X627041Y-40640D01*
Y-50800D01*
M02*
