G04 SilkscreenTopRefs *
G04 Layout scart-mux.pcb *
G04 Designed with PCB elegance 3.51 *
G04 *
G04 *
%FSLAX34Y34*%
%MOMM*%
G75*
G01*
%IPPOS*%
%ADD100C,0.2000*%
%ADD200C,0.2032*%
%ADD201C,0.2000*%
%ADD202C,0.6000*%
G54D200*
X340445Y307298D02*
G03X363000Y291500I22555J8202D01*
G01X316000Y426000D02*
X340500Y307000D01*
X218000Y315500D02*
G03X242000Y291500I24000J0D01*
G01X363000Y291500D02*
X762000D01*
X339000Y456500D02*
G03X316232Y424911I0J-24000D01*
X242000Y456500D02*
G03X218000Y432500I0J-24000D01*
G01X762000Y456500D02*
X339000D01*
X205300Y529100D02*
X230700D01*
Y630700D01*
X205300D01*
Y529100D01*
X281300D02*
X306700D01*
Y630700D01*
X281300D01*
Y529100D01*
X340445Y719298D02*
G03X363000Y703500I22555J8202D01*
X218000Y727500D02*
G03X242000Y703500I24000J0D01*
G01X363000Y703500D02*
X762000D01*
X339000Y868500D02*
G03X316232Y836911I0J-24000D01*
G01X316000Y838000D02*
X340500Y719000D01*
X242000Y868500D02*
G03X218000Y844500I0J-24000D01*
G01X762000Y868500D02*
X339000D01*
X538000Y530000D02*
Y630000D01*
X478000D01*
Y595000D01*
X439300Y529300D02*
X464700D01*
Y630900D01*
X439300D01*
Y529300D01*
X551300Y529100D02*
X576700D01*
Y630700D01*
X551300D01*
Y529100D01*
X478000Y530000D02*
X538000D01*
X478000Y565000D02*
Y530000D01*
X762000Y291500D02*
G03X786000Y315500I0J24000D01*
X854000Y291500D02*
G03X878000Y315500I0J24000D01*
G01X786000Y316000D02*
Y432500D01*
X803700Y307300D02*
X930700D01*
Y332700D01*
X803700D01*
Y307300D01*
X823000Y226000D02*
Y262000D01*
X857000D02*
Y226000D01*
X823000D01*
Y262000D02*
X857000D01*
X790000Y227000D02*
X798000D01*
Y257000D01*
X790000D01*
Y227000D01*
Y251000D02*
X798000D01*
X786000Y432500D02*
G03X762000Y456500I-24000J0D01*
X878000Y432500D02*
G03X854000Y456500I-24000J0D01*
G01X742000Y530000D02*
X802000D01*
Y630000D01*
X742000Y565000D02*
Y530000D01*
X707300Y529300D02*
X732700D01*
Y630900D01*
X707300D01*
Y529300D01*
X762000Y703500D02*
G03X786000Y727500I0J24000D01*
X854000Y703500D02*
G03X878000Y727500I0J24000D01*
G01X802000Y630000D02*
X742000D01*
Y595000D01*
X786000Y844500D02*
G03X762000Y868500I-24000J0D01*
X878000Y844500D02*
G03X854000Y868500I-24000J0D01*
G01X786000Y728000D02*
Y844500D01*
X832920Y903925D02*
G03X871080I19080J-11925D01*
G01X833500Y904500D02*
X841000D01*
X870500D02*
X863000D01*
X841393Y902607D02*
G03Y881393I10607J-10607D01*
X862607Y881393D02*
G03Y902607I-10607J10607D01*
X1003000Y868500D02*
G03X980232Y836911I0J-24000D01*
G01X980000Y838000D02*
X1004500Y719000D01*
X906000Y868500D02*
G03X882000Y844500I0J-24000D01*
G01X1426000Y868500D02*
X1003000D01*
X888920Y903925D02*
G03X927080I19080J-11925D01*
G01X889500Y904500D02*
X897000D01*
X926500D02*
X919000D01*
X897393Y902607D02*
G03Y881393I10607J-10607D01*
X918607Y881393D02*
G03Y902607I-10607J10607D01*
X1004445Y719298D02*
G03X1027000Y703500I22555J8202D01*
X882000Y727500D02*
G03X906000Y703500I24000J0D01*
G01X1027000Y703500D02*
X1426000D01*
X932000Y638000D02*
X940000D01*
Y658000D02*
X932000D01*
Y655000D01*
Y638000D02*
Y641000D01*
Y664000D02*
X940000D01*
Y684000D02*
X932000D01*
Y681000D01*
Y664000D02*
Y667000D01*
X1024000Y582000D02*
G03X1040000I8000J0D01*
G01X1024000Y582000D02*
X1010000D01*
X1040000D02*
X1054000D01*
X1010000D02*
Y478000D01*
X1054000D02*
Y582000D01*
X1003000Y456500D02*
G03X980232Y424911I0J-24000D01*
X906000Y456500D02*
G03X882000Y432500I0J-24000D01*
G01X1426000Y456500D02*
X1003000D01*
X1010000Y478000D02*
X1054000D01*
X1004445Y307298D02*
G03X1027000Y291500I22555J8202D01*
G01X980000Y426000D02*
X1004500Y307000D01*
X882000Y315500D02*
G03X906000Y291500I24000J0D01*
G01X1027000Y291500D02*
X1426000D01*
X986000Y218000D02*
Y286000D01*
X934000D01*
Y218000D01*
X986000D01*
X974592Y231058D02*
X972475Y233175D01*
X982000D01*
Y231058D01*
Y235292D01*
X973533Y242000D02*
X972475Y243058D01*
Y246233D01*
X973533Y247292D01*
X974592D01*
X979883Y242000D01*
X982000D01*
Y247292D01*
X973533Y256000D02*
X972475Y257058D01*
Y260233D01*
X973533Y261292D01*
X976708D01*
Y258117D01*
Y261292D01*
X980942D01*
X982000Y260233D01*
Y257058D01*
X980942Y256000D01*
X977767Y273292D02*
Y268000D01*
X976708D01*
X972475Y272233D01*
X982000D01*
X948942Y230000D02*
X950000Y231058D01*
Y235292D01*
X948942Y236350D01*
X941533D01*
X940475Y235292D01*
Y231058D01*
X941533Y230000D01*
X948942D01*
X950000Y239525D02*
X940475D01*
X950000Y245875D01*
X940475D01*
X882000Y227000D02*
X890000D01*
Y257000D01*
X882000D01*
Y227000D01*
Y251000D02*
X890000D01*
X1345000Y590000D02*
Y554000D01*
X1311000D02*
Y590000D01*
X1345000Y554000D02*
X1311000D01*
X1211000Y588000D02*
Y552000D01*
X1177000D02*
Y588000D01*
X1211000Y552000D02*
X1177000D01*
X1220000Y527000D02*
X1256000D01*
Y493000D02*
X1220000D01*
Y527000D01*
X1256000D02*
Y493000D01*
X1347240Y529300D02*
Y536920D01*
X1339620D01*
X1324380D02*
X1316760D01*
Y529300D02*
Y536920D01*
X1334540Y526760D02*
X1329460D01*
X1162760Y508700D02*
Y501080D01*
X1170380D01*
X1185620D02*
X1193240D01*
Y508700D02*
Y501080D01*
X1175460Y511240D02*
X1180540D01*
X1311000Y590000D02*
X1345000D01*
X1211000Y624000D02*
Y588000D01*
X1177000D02*
Y624000D01*
X1211000D01*
Y588000D02*
X1177000D01*
X1211000D01*
X1386000Y635000D02*
X1350000D01*
Y669000D02*
X1386000D01*
X1350000Y635000D02*
Y669000D01*
X1252000Y635000D02*
X1216000D01*
Y669000D02*
X1252000D01*
Y635000D01*
X1216000D02*
Y669000D01*
X1345000Y626000D02*
Y590000D01*
X1311000D02*
Y626000D01*
X1345000D01*
Y590000D02*
X1311000D01*
X1450000Y844500D02*
G03X1426000Y868500I-24000J0D01*
X1542000Y844500D02*
G03X1518000Y868500I-24000J0D01*
G01X1450000Y728000D02*
Y844500D01*
X1426000Y703500D02*
G03X1450000Y727500I0J24000D01*
X1518000Y703500D02*
G03X1542000Y727500I0J24000D01*
G01X1386000Y669000D02*
Y635000D01*
X1508000Y627000D02*
X1472000D01*
Y661000D02*
X1508000D01*
Y627000D01*
X1472000D02*
Y661000D01*
X1467000Y616000D02*
Y580000D01*
X1433000D02*
Y616000D01*
X1467000D01*
Y580000D02*
X1433000D01*
X1467000D02*
Y544000D01*
X1433000D02*
Y580000D01*
X1467000D01*
X1450000Y432500D02*
G03X1426000Y456500I-24000J0D01*
X1542000Y432500D02*
G03X1518000Y456500I-24000J0D01*
G01X1472000Y519000D02*
X1508000D01*
Y485000D02*
X1472000D01*
Y519000D01*
X1508000D02*
Y485000D01*
X1467000Y544000D02*
X1433000D01*
X1358000Y529000D02*
X1394000D01*
Y495000D02*
X1358000D01*
Y529000D01*
X1394000D02*
Y495000D01*
X1426000Y291500D02*
G03X1450000Y315500I0J24000D01*
X1518000Y291500D02*
G03X1542000Y315500I0J24000D01*
G01X1450000Y316000D02*
Y432500D01*
G54D100*
X420000Y233000D02*
X410475D01*
Y238292D01*
X411533Y239350D01*
X413650D01*
X414708Y238292D01*
Y233000D01*
Y234058D02*
X420000Y239350D01*
X415767Y247817D02*
Y242525D01*
X414708D01*
X410475Y246758D01*
X420000D01*
X410475Y256283D02*
Y254167D01*
X412592Y252050D01*
X418942D01*
X420000Y253108D01*
Y256283D01*
X418942Y257342D01*
X415767D01*
X414708Y256283D01*
Y252050D01*
X404000Y263000D02*
X413525D01*
Y257708D01*
X412467Y256650D01*
X410350D01*
X409292Y257708D01*
Y263000D01*
Y261942D02*
X404000Y256650D01*
X408233Y248183D02*
Y253475D01*
X409292D01*
X413525Y249242D01*
X404000D01*
X413525Y238658D02*
Y243950D01*
X409292D01*
Y239717D01*
X408233Y238658D01*
X405058D01*
X404000Y239717D01*
Y242892D01*
X405058Y243950D01*
X410592Y259350D02*
X408475Y257233D01*
Y255117D01*
X410592Y253000D01*
X415883D01*
X418000Y255117D01*
Y257233D01*
X415883Y259350D01*
X408475Y267817D02*
Y262525D01*
X412708D01*
Y266758D01*
X413767Y267817D01*
X416942D01*
X418000Y266758D01*
Y263583D01*
X416942Y262525D01*
X410592Y273108D02*
X408475Y275225D01*
X418000D01*
Y273108D01*
Y277342D01*
X378592Y259350D02*
X376475Y257233D01*
Y255117D01*
X378592Y253000D01*
X383883D01*
X386000Y255117D01*
Y257233D01*
X383883Y259350D01*
X381767Y267817D02*
Y262525D01*
X380708D01*
X376475Y266758D01*
X386000D01*
Y273108D02*
Y275225D01*
X383883Y277342D01*
X377533D01*
X376475Y276283D01*
Y273108D01*
X377533Y272050D01*
X379650D01*
X380708Y273108D01*
Y277342D01*
X326000Y265000D02*
X335525D01*
Y259708D01*
X334467Y258650D01*
X332350D01*
X331292Y259708D01*
Y265000D01*
Y263942D02*
X326000Y258650D01*
X330233Y250183D02*
Y255475D01*
X331292D01*
X335525Y251242D01*
X326000D01*
X335525Y245950D02*
Y240658D01*
X332350D01*
X329175Y243833D01*
X326000D01*
X321350Y237408D02*
X319233Y239525D01*
X317117D01*
X315000Y237408D01*
Y232117D01*
X317117Y230000D01*
X319233D01*
X321350Y232117D01*
X329817Y239525D02*
X324525D01*
Y235292D01*
X328758D01*
X329817Y234233D01*
Y231058D01*
X328758Y230000D01*
X325583D01*
X324525Y231058D01*
X340400Y238467D02*
Y231058D01*
X339342Y230000D01*
X335108D01*
X334050Y231058D01*
Y238467D01*
X335108Y239525D01*
X339342D01*
X340400Y238467D01*
Y237408D01*
X334050Y231058D01*
X268090Y509780D02*
X270630Y512320D01*
Y514860D01*
X268090Y517400D01*
X261740D01*
X259200Y514860D01*
Y512320D01*
X261740Y509780D01*
X270630Y500890D02*
Y503430D01*
X268090Y505970D01*
X260470D01*
X259200Y504700D01*
Y500890D01*
X260470Y499620D01*
X264280D01*
X265550Y500890D01*
Y505970D01*
X270630Y489460D02*
Y492000D01*
X268090Y494540D01*
X260470D01*
X259200Y493270D01*
Y489460D01*
X260470Y488190D01*
X264280D01*
X265550Y489460D01*
Y494540D01*
X396090Y509780D02*
X398630Y512320D01*
Y514860D01*
X396090Y517400D01*
X389740D01*
X387200Y514860D01*
Y512320D01*
X389740Y509780D01*
X398630Y500890D02*
Y503430D01*
X396090Y505970D01*
X388470D01*
X387200Y504700D01*
Y500890D01*
X388470Y499620D01*
X392280D01*
X393550Y500890D01*
Y505970D01*
X398630Y494540D02*
Y488190D01*
X394820D01*
X391010Y492000D01*
X387200D01*
X466000Y528000D02*
X204000D01*
X218000Y620540D02*
Y619270D01*
X219270Y618000D01*
X221810D01*
X224350D01*
Y629430D01*
X221810D02*
X224350D01*
X235780Y623080D02*
X229430D01*
Y624350D01*
X234510Y629430D01*
Y618000D01*
X294000Y620540D02*
Y619270D01*
X295270Y618000D01*
X297810D01*
X300350D01*
Y629430D01*
X297810D02*
X300350D01*
X306700Y626890D02*
X309240Y629430D01*
Y618000D01*
X306700D01*
X311780D01*
X318130Y626890D02*
X320670Y629430D01*
Y618000D01*
X318130D01*
X323210D01*
X230650Y706592D02*
X232767Y704475D01*
X234883D01*
X237000Y706592D01*
Y711883D01*
X234883Y714000D01*
X232767D01*
X230650Y711883D01*
X223242Y704475D02*
X225358D01*
X227475Y706592D01*
Y712942D01*
X226417Y714000D01*
X223242D01*
X222183Y712942D01*
Y709767D01*
X223242Y708708D01*
X227475D01*
X213717D02*
X216892D01*
X217950Y707650D01*
Y705533D01*
X216892Y704475D01*
X213717D01*
X212658Y705533D01*
Y707650D01*
X213717Y708708D01*
X212658Y709767D01*
Y712942D01*
X213717Y714000D01*
X216892D01*
X217950Y712942D01*
Y709767D01*
X216892Y708708D01*
X204000Y632000D02*
X466000D01*
X294000Y638000D02*
Y649430D01*
X297810Y645620D01*
X301620Y649430D01*
Y638000D01*
X313050Y649430D02*
X305430D01*
Y638000D01*
X313050D01*
X305430Y644350D02*
X310510D01*
X316860Y649430D02*
X324480D01*
X316860Y638000D01*
X324480D01*
X329560Y646890D02*
X332100Y649430D01*
Y638000D01*
X329560D01*
X334640D01*
X348400Y905000D02*
Y914525D01*
X353692D01*
X354750Y913467D01*
Y911350D01*
X353692Y910292D01*
X348400D01*
X349458D02*
X354750Y905000D01*
X357925Y913467D02*
X358983Y914525D01*
X362158D01*
X363217Y913467D01*
Y910292D01*
X360042D01*
X363217D01*
Y906058D01*
X362158Y905000D01*
X358983D01*
X357925Y906058D01*
X367450Y913467D02*
X368508Y914525D01*
X371683D01*
X372742Y913467D01*
Y910292D01*
X369567D01*
X372742D01*
Y906058D01*
X371683Y905000D01*
X368508D01*
X367450Y906058D01*
X354550Y894408D02*
X352433Y896525D01*
X350317D01*
X348200Y894408D01*
Y889117D01*
X350317Y887000D01*
X352433D01*
X354550Y889117D01*
X357725Y895467D02*
X358783Y896525D01*
X361958D01*
X363017Y895467D01*
Y894408D01*
X357725Y889117D01*
Y887000D01*
X363017D01*
X368308D02*
X370425D01*
X372542Y889117D01*
Y895467D01*
X371483Y896525D01*
X368308D01*
X367250Y895467D01*
Y893350D01*
X368308Y892292D01*
X372542D01*
X386150Y894408D02*
X384033Y896525D01*
X381917D01*
X379800Y894408D01*
Y889117D01*
X381917Y887000D01*
X384033D01*
X386150Y889117D01*
X389325Y895467D02*
X390383Y896525D01*
X393558D01*
X394617Y895467D01*
Y892292D01*
X391442D01*
X394617D01*
Y888058D01*
X393558Y887000D01*
X390383D01*
X389325Y888058D01*
X399908Y894408D02*
X402025Y896525D01*
Y887000D01*
X399908D01*
X404142D01*
X382400Y907400D02*
Y916925D01*
X387692D01*
X388750Y915867D01*
Y913750D01*
X387692Y912692D01*
X382400D01*
X383458D02*
X388750Y907400D01*
X391925Y915867D02*
X392983Y916925D01*
X396158D01*
X397217Y915867D01*
Y912692D01*
X394042D01*
X397217D01*
Y908458D01*
X396158Y907400D01*
X392983D01*
X391925Y908458D01*
X401450Y915867D02*
X402508Y916925D01*
X405683D01*
X406742Y915867D01*
Y914808D01*
X401450Y909517D01*
Y907400D01*
X406742D01*
X331392Y895750D02*
X329275Y893633D01*
Y891517D01*
X331392Y889400D01*
X336683D01*
X338800Y891517D01*
Y893633D01*
X336683Y895750D01*
X330333Y898925D02*
X329275Y899983D01*
Y903158D01*
X330333Y904217D01*
X333508D01*
Y901042D01*
Y904217D01*
X337742D01*
X338800Y903158D01*
Y899983D01*
X337742Y898925D01*
X330333Y914800D02*
X337742D01*
X338800Y913742D01*
Y909508D01*
X337742Y908450D01*
X330333D01*
X329275Y909508D01*
Y913742D01*
X330333Y914800D01*
X331392D01*
X337742Y908450D01*
X598000Y927000D02*
X607525D01*
Y921708D01*
X606467Y920650D01*
X604350D01*
X603292Y921708D01*
Y927000D01*
Y925942D02*
X598000Y920650D01*
X606467Y917475D02*
X607525Y916417D01*
Y913242D01*
X606467Y912183D01*
X603292D01*
Y915358D01*
Y912183D01*
X599058D01*
X598000Y913242D01*
Y916417D01*
X599058Y917475D01*
X606467Y901600D02*
X599058D01*
X598000Y902658D01*
Y906892D01*
X599058Y907950D01*
X606467D01*
X607525Y906892D01*
Y902658D01*
X606467Y901600D01*
X605408D01*
X599058Y907950D01*
X640000Y927000D02*
X649525D01*
Y921708D01*
X648467Y920650D01*
X646350D01*
X645292Y921708D01*
Y927000D01*
Y925942D02*
X640000Y920650D01*
X648467Y917475D02*
X649525Y916417D01*
Y913242D01*
X648467Y912183D01*
X647408D01*
X642117Y917475D01*
X640000D01*
Y912183D01*
Y906892D02*
Y904775D01*
X642117Y902658D01*
X648467D01*
X649525Y903717D01*
Y906892D01*
X648467Y907950D01*
X646350D01*
X645292Y906892D01*
Y902658D01*
X648592Y883350D02*
X646475Y881233D01*
Y879117D01*
X648592Y877000D01*
X653883D01*
X656000Y879117D01*
Y881233D01*
X653883Y883350D01*
X647533Y886525D02*
X646475Y887583D01*
Y890758D01*
X647533Y891817D01*
X648592D01*
X653883Y886525D01*
X656000D01*
Y891817D01*
X646475Y901342D02*
Y896050D01*
X650708D01*
Y900283D01*
X651767Y901342D01*
X654942D01*
X656000Y900283D01*
Y897108D01*
X654942Y896050D01*
X422200Y907400D02*
Y916925D01*
X427492D01*
X428550Y915867D01*
Y913750D01*
X427492Y912692D01*
X422200D01*
X423258D02*
X428550Y907400D01*
X431725Y915867D02*
X432783Y916925D01*
X435958D01*
X437017Y915867D01*
Y912692D01*
X433842D01*
X437017D01*
Y908458D01*
X435958Y907400D01*
X432783D01*
X431725Y908458D01*
X442308Y914808D02*
X444425Y916925D01*
Y907400D01*
X442308D01*
X446542D01*
X426350Y895208D02*
X424233Y897325D01*
X422117D01*
X420000Y895208D01*
Y889917D01*
X422117Y887800D01*
X424233D01*
X426350Y889917D01*
X429525Y896267D02*
X430583Y897325D01*
X433758D01*
X434817Y896267D01*
Y895208D01*
X429525Y889917D01*
Y887800D01*
X434817D01*
X444342Y892033D02*
X439050D01*
Y893092D01*
X443283Y897325D01*
Y887800D01*
X548000Y788540D02*
Y787270D01*
X549270Y786000D01*
X551810D01*
X554350D01*
Y797430D01*
X551810D02*
X554350D01*
X565780D02*
X559430D01*
Y792350D01*
X564510D01*
X565780Y791080D01*
Y787270D01*
X564510Y786000D01*
X560700D01*
X559430Y787270D01*
X564000Y620540D02*
Y619270D01*
X565270Y618000D01*
X567810D01*
X570350D01*
Y629430D01*
X567810D02*
X570350D01*
X575430Y628160D02*
X576700Y629430D01*
X580510D01*
X581780Y628160D01*
Y624350D01*
X577970D01*
X581780D01*
Y619270D01*
X580510Y618000D01*
X576700D01*
X575430Y619270D01*
X496090Y685780D02*
X498630Y688320D01*
Y690860D01*
X496090Y693400D01*
X489740D01*
X487200Y690860D01*
Y688320D01*
X489740Y685780D01*
X498630Y676890D02*
Y679430D01*
X496090Y681970D01*
X488470D01*
X487200Y680700D01*
Y676890D01*
X488470Y675620D01*
X492280D01*
X493550Y676890D01*
Y681970D01*
X498630Y664190D02*
Y670540D01*
X493550D01*
Y665460D01*
X492280Y664190D01*
X488470D01*
X487200Y665460D01*
Y669270D01*
X488470Y670540D01*
X426090Y685780D02*
X428630Y688320D01*
Y690860D01*
X426090Y693400D01*
X419740D01*
X417200Y690860D01*
Y688320D01*
X419740Y685780D01*
X428630Y676890D02*
Y679430D01*
X426090Y681970D01*
X418470D01*
X417200Y680700D01*
Y676890D01*
X418470Y675620D01*
X422280D01*
X423550Y676890D01*
Y681970D01*
X422280Y664190D02*
Y670540D01*
X423550D01*
X428630Y665460D01*
X417200D01*
X550000Y632000D02*
X734000D01*
X572000Y638000D02*
Y649430D01*
X575810Y645620D01*
X579620Y649430D01*
Y638000D01*
X591050Y649430D02*
X583430D01*
Y638000D01*
X591050D01*
X583430Y644350D02*
X588510D01*
X594860Y649430D02*
X602480D01*
X594860Y638000D01*
X602480D01*
X606290Y648160D02*
X607560Y649430D01*
X611370D01*
X612640Y648160D01*
Y646890D01*
X606290Y640540D01*
Y638000D01*
X612640D01*
X529110Y537620D02*
X526570Y535080D01*
Y532540D01*
X529110Y530000D01*
X535460D01*
X538000Y532540D01*
Y535080D01*
X535460Y537620D01*
X538000Y541430D02*
X526570D01*
X538000Y549050D01*
X526570D01*
X529110Y554130D02*
X526570Y556670D01*
X538000D01*
Y554130D01*
Y559210D01*
X452000Y539460D02*
Y540730D01*
X450730Y542000D01*
X448190D01*
X445650D01*
Y530570D01*
X448190D02*
X445650D01*
X440570Y531840D02*
X439300Y530570D01*
X435490D01*
X434220Y531840D01*
Y533110D01*
X440570Y539460D01*
Y542000D01*
X434220D01*
X466090Y509780D02*
X468630Y512320D01*
Y514860D01*
X466090Y517400D01*
X459740D01*
X457200Y514860D01*
Y512320D01*
X459740Y509780D01*
X466090Y504700D02*
X468630Y502160D01*
X457200D01*
Y504700D01*
Y499620D01*
X463550Y489460D02*
Y493270D01*
X464820Y494540D01*
X467360D01*
X468630Y493270D01*
Y489460D01*
X467360Y488190D01*
X464820D01*
X463550Y489460D01*
X462280Y488190D01*
X458470D01*
X457200Y489460D01*
Y493270D01*
X458470Y494540D01*
X462280D01*
X463550Y493270D01*
X536090Y509780D02*
X538630Y512320D01*
Y514860D01*
X536090Y517400D01*
X529740D01*
X527200Y514860D01*
Y512320D01*
X529740Y509780D01*
X536090Y504700D02*
X538630Y502160D01*
X527200D01*
Y504700D01*
Y499620D01*
X538630Y494540D02*
Y488190D01*
X534820D01*
X531010Y492000D01*
X527200D01*
X734000Y528000D02*
X550000D01*
X548000Y376540D02*
Y375270D01*
X549270Y374000D01*
X551810D01*
X554350D01*
Y385430D01*
X551810D02*
X554350D01*
X559430D02*
X565780D01*
Y381620D01*
X561970Y377810D01*
Y374000D01*
X454592Y259350D02*
X452475Y257233D01*
Y255117D01*
X454592Y253000D01*
X459883D01*
X462000Y255117D01*
Y257233D01*
X459883Y259350D01*
X457767Y267817D02*
Y262525D01*
X456708D01*
X452475Y266758D01*
X462000D01*
X457767Y277342D02*
Y272050D01*
X456708D01*
X452475Y276283D01*
X462000D01*
X586000Y265000D02*
X595525D01*
Y259708D01*
X594467Y258650D01*
X592350D01*
X591292Y259708D01*
Y265000D01*
Y263942D02*
X586000Y258650D01*
X590233Y250183D02*
Y255475D01*
X591292D01*
X595525Y251242D01*
X586000D01*
X590233Y240658D02*
Y245950D01*
X591292D01*
X595525Y241717D01*
X586000D01*
X628000Y265000D02*
X637525D01*
Y259708D01*
X636467Y258650D01*
X634350D01*
X633292Y259708D01*
Y265000D01*
Y263942D02*
X628000Y258650D01*
X632233Y250183D02*
Y255475D01*
X633292D01*
X637525Y251242D01*
X628000D01*
X636467Y245950D02*
X637525Y244892D01*
Y241717D01*
X636467Y240658D01*
X633292D01*
Y243833D01*
Y240658D01*
X629058D01*
X628000Y241717D01*
Y244892D01*
X629058Y245950D01*
X636592Y261350D02*
X634475Y259233D01*
Y257117D01*
X636592Y255000D01*
X641883D01*
X644000Y257117D01*
Y259233D01*
X641883Y261350D01*
X639767Y269817D02*
Y264525D01*
X638708D01*
X634475Y268758D01*
X644000D01*
X634475Y279342D02*
Y274050D01*
X638708D01*
Y278283D01*
X639767Y279342D01*
X642942D01*
X644000Y278283D01*
Y275108D01*
X642942Y274050D01*
X678592Y261350D02*
X676475Y259233D01*
Y257117D01*
X678592Y255000D01*
X683883D01*
X686000Y257117D01*
Y259233D01*
X683883Y261350D01*
X681767Y269817D02*
Y264525D01*
X680708D01*
X676475Y268758D01*
X686000D01*
X676475Y278283D02*
Y276167D01*
X678592Y274050D01*
X684942D01*
X686000Y275108D01*
Y278283D01*
X684942Y279342D01*
X681767D01*
X680708Y278283D01*
Y274050D01*
X718592Y243350D02*
X716475Y241233D01*
Y239117D01*
X718592Y237000D01*
X723883D01*
X726000Y239117D01*
Y241233D01*
X723883Y243350D01*
X721767Y251817D02*
Y246525D01*
X720708D01*
X716475Y250758D01*
X726000D01*
X716475Y256050D02*
Y261342D01*
X719650D01*
X722825Y258167D01*
X726000D01*
X718592Y261350D02*
X716475Y259233D01*
Y257117D01*
X718592Y255000D01*
X723883D01*
X726000Y257117D01*
Y259233D01*
X723883Y261350D01*
X721767Y269817D02*
Y264525D01*
X720708D01*
X716475Y268758D01*
X726000D01*
X717533Y274050D02*
X716475Y275108D01*
Y278283D01*
X717533Y279342D01*
X720708D01*
Y276167D01*
Y279342D01*
X724942D01*
X726000Y278283D01*
Y275108D01*
X724942Y274050D01*
X750592Y243350D02*
X748475Y241233D01*
Y239117D01*
X750592Y237000D01*
X755883D01*
X758000Y239117D01*
Y241233D01*
X755883Y243350D01*
X753767Y251817D02*
Y246525D01*
X752708D01*
X748475Y250758D01*
X758000D01*
X752708Y260283D02*
Y257108D01*
X751650Y256050D01*
X749533D01*
X748475Y257108D01*
Y260283D01*
X749533Y261342D01*
X751650D01*
X752708Y260283D01*
X753767Y261342D01*
X756942D01*
X758000Y260283D01*
Y257108D01*
X756942Y256050D01*
X753767D01*
X752708Y257108D01*
X750592Y261350D02*
X748475Y259233D01*
Y257117D01*
X750592Y255000D01*
X755883D01*
X758000Y257117D01*
Y259233D01*
X755883Y261350D01*
X753767Y269817D02*
Y264525D01*
X752708D01*
X748475Y268758D01*
X758000D01*
X749533Y274050D02*
X748475Y275108D01*
Y278283D01*
X749533Y279342D01*
X750592D01*
X755883Y274050D01*
X758000D01*
Y279342D01*
X816592Y263350D02*
X814475Y261233D01*
Y259117D01*
X816592Y257000D01*
X821883D01*
X824000Y259117D01*
Y261233D01*
X821883Y263350D01*
X814475Y266525D02*
Y271817D01*
X817650D01*
X820825Y268642D01*
X824000D01*
X815533Y282400D02*
X822942D01*
X824000Y281342D01*
Y277108D01*
X822942Y276050D01*
X815533D01*
X814475Y277108D01*
Y281342D01*
X815533Y282400D01*
X816592D01*
X822942Y276050D01*
X862592Y263350D02*
X860475Y261233D01*
Y259117D01*
X862592Y257000D01*
X867883D01*
X870000Y259117D01*
Y261233D01*
X867883Y263350D01*
X860475Y266525D02*
Y271817D01*
X863650D01*
X866825Y268642D01*
X870000D01*
X861533Y276050D02*
X860475Y277108D01*
Y280283D01*
X861533Y281342D01*
X862592D01*
X867883Y276050D01*
X870000D01*
Y281342D01*
X871000Y246000D02*
Y234570D01*
X864650D01*
X863380Y235840D01*
Y238380D01*
X864650Y239650D01*
X871000D01*
X869730D02*
X863380Y246000D01*
X854490Y239650D02*
X858300D01*
X859570Y238380D01*
Y235840D01*
X858300Y234570D01*
X854490D01*
X853220Y235840D01*
Y238380D01*
X854490Y239650D01*
X853220Y240920D01*
Y244730D01*
X854490Y246000D01*
X858300D01*
X859570Y244730D01*
Y240920D01*
X858300Y239650D01*
X848140Y235840D02*
X846870Y234570D01*
X843060D01*
X841790Y235840D01*
Y239650D01*
X845600D01*
X841790D01*
Y244730D01*
X843060Y246000D01*
X846870D01*
X848140Y244730D01*
X763000Y220430D02*
Y210270D01*
X764270Y209000D01*
X769350D01*
X770620Y210270D01*
Y220430D01*
X779510Y215350D02*
X775700D01*
X774430Y216620D01*
Y219160D01*
X775700Y220430D01*
X779510D01*
X780780Y219160D01*
Y216620D01*
X779510Y215350D01*
X780780Y214080D01*
Y210270D01*
X779510Y209000D01*
X775700D01*
X774430Y210270D01*
Y214080D01*
X775700Y215350D01*
X855000Y220430D02*
Y210270D01*
X856270Y209000D01*
X861350D01*
X862620Y210270D01*
Y220430D01*
X867700Y209000D02*
X870240D01*
X872780Y211540D01*
Y219160D01*
X871510Y220430D01*
X867700D01*
X866430Y219160D01*
Y216620D01*
X867700Y215350D01*
X872780D01*
X793110Y537620D02*
X790570Y535080D01*
Y532540D01*
X793110Y530000D01*
X799460D01*
X802000Y532540D01*
Y535080D01*
X799460Y537620D01*
X802000Y541430D02*
X790570D01*
X802000Y549050D01*
X790570D01*
X791840Y552860D02*
X790570Y554130D01*
Y557940D01*
X791840Y559210D01*
X793110D01*
X799460Y552860D01*
X802000D01*
Y559210D01*
X720000Y539460D02*
Y540730D01*
X718730Y542000D01*
X716190D01*
X713650D01*
Y530570D01*
X716190D02*
X713650D01*
X707300Y533110D02*
X704760Y530570D01*
Y542000D01*
X707300D01*
X702220D01*
X697140Y531840D02*
X695870Y530570D01*
X692060D01*
X690790Y531840D01*
Y533110D01*
X697140Y539460D01*
Y542000D01*
X690790D01*
X846000Y579000D02*
X855525D01*
Y573708D01*
X854467Y572650D01*
X852350D01*
X851292Y573708D01*
Y579000D01*
Y577942D02*
X846000Y572650D01*
X855525Y565242D02*
Y567358D01*
X853408Y569475D01*
X847058D01*
X846000Y568417D01*
Y565242D01*
X847058Y564183D01*
X850233D01*
X851292Y565242D01*
Y569475D01*
X846000Y597000D02*
X855525D01*
Y591708D01*
X854467Y590650D01*
X852350D01*
X851292Y591708D01*
Y597000D01*
Y595942D02*
X846000Y590650D01*
X855525Y587475D02*
Y582183D01*
X852350D01*
X849175Y585358D01*
X846000D01*
X853408Y576892D02*
X855525Y574775D01*
X846000D01*
Y576892D01*
Y572658D01*
X868000Y507000D02*
X877525D01*
Y501708D01*
X876467Y500650D01*
X874350D01*
X873292Y501708D01*
Y507000D01*
Y505942D02*
X868000Y500650D01*
X872233Y492183D02*
Y497475D01*
X873292D01*
X877525Y493242D01*
X868000D01*
Y525000D02*
X877525D01*
Y519708D01*
X876467Y518650D01*
X874350D01*
X873292Y519708D01*
Y525000D01*
Y523942D02*
X868000Y518650D01*
X877525Y515475D02*
Y510183D01*
X874350D01*
X871175Y513358D01*
X868000D01*
X876467Y505950D02*
X877525Y504892D01*
Y501717D01*
X876467Y500658D01*
X873292D01*
Y503833D01*
Y500658D01*
X869058D01*
X868000Y501717D01*
Y504892D01*
X869058Y505950D01*
X868000Y543000D02*
X877525D01*
Y537708D01*
X876467Y536650D01*
X874350D01*
X873292Y537708D01*
Y543000D01*
Y541942D02*
X868000Y536650D01*
X877525Y528183D02*
Y533475D01*
X873292D01*
Y529242D01*
X872233Y528183D01*
X869058D01*
X868000Y529242D01*
Y532417D01*
X869058Y533475D01*
X868000Y561000D02*
X877525D01*
Y555708D01*
X876467Y554650D01*
X874350D01*
X873292Y555708D01*
Y561000D01*
Y559942D02*
X868000Y554650D01*
X877525Y551475D02*
Y546183D01*
X874350D01*
X871175Y549358D01*
X868000D01*
X876467Y541950D02*
X877525Y540892D01*
Y537717D01*
X876467Y536658D01*
X875408D01*
X870117Y541950D01*
X868000D01*
Y536658D01*
X688090Y509780D02*
X690630Y512320D01*
Y514860D01*
X688090Y517400D01*
X681740D01*
X679200Y514860D01*
Y512320D01*
X681740Y509780D01*
X688090Y504700D02*
X690630Y502160D01*
X679200D01*
Y504700D01*
Y499620D01*
X690630Y489460D02*
Y492000D01*
X688090Y494540D01*
X680470D01*
X679200Y493270D01*
Y489460D01*
X680470Y488190D01*
X684280D01*
X685550Y489460D01*
Y494540D01*
X758090Y509780D02*
X760630Y512320D01*
Y514860D01*
X758090Y517400D01*
X751740D01*
X749200Y514860D01*
Y512320D01*
X751740Y509780D01*
X758090Y504700D02*
X760630Y502160D01*
X749200D01*
Y504700D01*
Y499620D01*
X760630Y488190D02*
Y494540D01*
X755550D01*
Y489460D01*
X754280Y488190D01*
X750470D01*
X749200Y489460D01*
Y493270D01*
X750470Y494540D01*
X658000Y671000D02*
X667525D01*
Y665708D01*
X666467Y664650D01*
X664350D01*
X663292Y665708D01*
Y671000D01*
Y669942D02*
X658000Y664650D01*
X665408Y660417D02*
X667525Y658300D01*
X658000D01*
Y660417D01*
Y656183D01*
X663292Y647717D02*
Y650892D01*
X664350Y651950D01*
X666467D01*
X667525Y650892D01*
Y647717D01*
X666467Y646658D01*
X664350D01*
X663292Y647717D01*
X662233Y646658D01*
X659058D01*
X658000Y647717D01*
Y650892D01*
X659058Y651950D01*
X662233D01*
X663292Y650892D01*
X658000Y689000D02*
X667525D01*
Y683708D01*
X666467Y682650D01*
X664350D01*
X663292Y683708D01*
Y689000D01*
Y687942D02*
X658000Y682650D01*
Y678417D02*
Y676300D01*
X660117Y674183D01*
X666467D01*
X667525Y675242D01*
Y678417D01*
X666467Y679475D01*
X664350D01*
X663292Y678417D01*
Y674183D01*
X750000Y641000D02*
X740475D01*
Y646292D01*
X741533Y647350D01*
X743650D01*
X744708Y646292D01*
Y641000D01*
Y642058D02*
X750000Y647350D01*
X740475Y650525D02*
Y655817D01*
X743650D01*
X746825Y652642D01*
X750000D01*
X740475Y664283D02*
Y662167D01*
X742592Y660050D01*
X748942D01*
X750000Y661108D01*
Y664283D01*
X748942Y665342D01*
X745767D01*
X744708Y664283D01*
Y660050D01*
X750000Y659000D02*
X740475D01*
Y664292D01*
X741533Y665350D01*
X743650D01*
X744708Y664292D01*
Y659000D01*
Y660058D02*
X750000Y665350D01*
X740475Y668525D02*
Y673817D01*
X743650D01*
X746825Y670642D01*
X750000D01*
X740475Y683342D02*
Y678050D01*
X744708D01*
Y682283D01*
X745767Y683342D01*
X748942D01*
X750000Y682283D01*
Y679108D01*
X748942Y678050D01*
X784000Y699000D02*
X793525D01*
Y693708D01*
X792467Y692650D01*
X790350D01*
X789292Y693708D01*
Y699000D01*
Y697942D02*
X784000Y692650D01*
X791408Y688417D02*
X793525Y686300D01*
X784000D01*
Y688417D01*
Y684183D01*
X844000Y651000D02*
X834475D01*
Y656292D01*
X835533Y657350D01*
X837650D01*
X838708Y656292D01*
Y651000D01*
Y652058D02*
X844000Y657350D01*
X835533Y660525D02*
X834475Y661583D01*
Y664758D01*
X835533Y665817D01*
X838708D01*
Y662642D01*
Y665817D01*
X842942D01*
X844000Y664758D01*
Y661583D01*
X842942Y660525D01*
X877000Y629430D02*
X882080D01*
X884620Y626890D01*
Y620540D01*
X882080Y618000D01*
X877000D01*
X878270Y629430D02*
Y618000D01*
X888430Y628160D02*
X889700Y629430D01*
X893510D01*
X894780Y628160D01*
Y626890D01*
X888430Y620540D01*
Y618000D01*
X894780D01*
X877000Y655430D02*
X882080D01*
X884620Y652890D01*
Y646540D01*
X882080Y644000D01*
X877000D01*
X878270Y655430D02*
Y644000D01*
X889700Y652890D02*
X892240Y655430D01*
Y644000D01*
X889700D01*
X894780D01*
X846000Y615000D02*
X855525D01*
Y609708D01*
X854467Y608650D01*
X852350D01*
X851292Y609708D01*
Y615000D01*
Y613942D02*
X846000Y608650D01*
X855525Y605475D02*
Y600183D01*
X852350D01*
X849175Y603358D01*
X846000D01*
Y633000D02*
X855525D01*
Y627708D01*
X854467Y626650D01*
X852350D01*
X851292Y627708D01*
Y633000D01*
Y631942D02*
X846000Y626650D01*
X855525Y623475D02*
Y618183D01*
X852350D01*
X849175Y621358D01*
X846000D01*
X854467Y607600D02*
X847058D01*
X846000Y608658D01*
Y612892D01*
X847058Y613950D01*
X854467D01*
X855525Y612892D01*
Y608658D01*
X854467Y607600D01*
X853408D01*
X847058Y613950D01*
X840570Y904500D02*
Y909580D01*
X843110Y912120D01*
X849460D01*
X852000Y909580D01*
Y904500D01*
X840570Y905770D02*
X852000D01*
X841840Y915930D02*
X840570Y917200D01*
Y921010D01*
X841840Y922280D01*
X845650D01*
Y918470D01*
Y922280D01*
X850730D01*
X852000Y921010D01*
Y917200D01*
X850730Y915930D01*
X690592Y883350D02*
X688475Y881233D01*
Y879117D01*
X690592Y877000D01*
X695883D01*
X698000Y879117D01*
Y881233D01*
X695883Y883350D01*
X689533Y886525D02*
X688475Y887583D01*
Y890758D01*
X689533Y891817D01*
X690592D01*
X695883Y886525D01*
X698000D01*
Y891817D01*
X688475Y900283D02*
Y898167D01*
X690592Y896050D01*
X696942D01*
X698000Y897108D01*
Y900283D01*
X696942Y901342D01*
X693767D01*
X692708Y900283D01*
Y896050D01*
X741408Y918650D02*
X743525Y920767D01*
Y922883D01*
X741408Y925000D01*
X736117D01*
X734000Y922883D01*
Y920767D01*
X736117Y918650D01*
X742467Y915475D02*
X743525Y914417D01*
Y911242D01*
X742467Y910183D01*
X741408D01*
X736117Y915475D01*
X734000D01*
Y910183D01*
X742467Y905950D02*
X743525Y904892D01*
Y901717D01*
X742467Y900658D01*
X741408D01*
X736117Y905950D01*
X734000D01*
Y900658D01*
X754592Y883350D02*
X752475Y881233D01*
Y879117D01*
X754592Y877000D01*
X759883D01*
X762000Y879117D01*
Y881233D01*
X759883Y883350D01*
X753533Y886525D02*
X752475Y887583D01*
Y890758D01*
X753533Y891817D01*
X754592D01*
X759883Y886525D01*
X762000D01*
Y891817D01*
X752475Y896050D02*
Y901342D01*
X755650D01*
X758825Y898167D01*
X762000D01*
X741408Y900650D02*
X743525Y902767D01*
Y904883D01*
X741408Y907000D01*
X736117D01*
X734000Y904883D01*
Y902767D01*
X736117Y900650D01*
X742467Y897475D02*
X743525Y896417D01*
Y893242D01*
X742467Y892183D01*
X741408D01*
X736117Y897475D01*
X734000D01*
Y892183D01*
X739292Y883717D02*
Y886892D01*
X740350Y887950D01*
X742467D01*
X743525Y886892D01*
Y883717D01*
X742467Y882658D01*
X740350D01*
X739292Y883717D01*
X738233Y882658D01*
X735058D01*
X734000Y883717D01*
Y886892D01*
X735058Y887950D01*
X738233D01*
X739292Y886892D01*
X754592Y901350D02*
X752475Y899233D01*
Y897117D01*
X754592Y895000D01*
X759883D01*
X762000Y897117D01*
Y899233D01*
X759883Y901350D01*
X753533Y904525D02*
X752475Y905583D01*
Y908758D01*
X753533Y909817D01*
X754592D01*
X759883Y904525D01*
X762000D01*
Y909817D01*
X753533Y914050D02*
X752475Y915108D01*
Y918283D01*
X753533Y919342D01*
X756708D01*
Y916167D01*
Y919342D01*
X760942D01*
X762000Y918283D01*
Y915108D01*
X760942Y914050D01*
X806000Y931270D02*
X807270Y930000D01*
X812350D01*
X813620Y931270D01*
Y935080D01*
X812350Y936350D01*
X807270D01*
X806000Y937620D01*
Y940160D01*
X807270Y941430D01*
X812350D01*
X813620Y940160D01*
X825050Y938890D02*
X822510Y941430D01*
X819970D01*
X817430Y938890D01*
Y932540D01*
X819970Y930000D01*
X822510D01*
X825050Y932540D01*
X828860Y930000D02*
Y937620D01*
X832670Y941430D01*
X836480Y937620D01*
Y935080D01*
X828860D01*
X836480D01*
Y930000D01*
X840290D02*
Y941430D01*
X846640D01*
X847910Y940160D01*
Y937620D01*
X846640Y936350D01*
X840290D01*
X841560D02*
X847910Y930000D01*
X851720Y941430D02*
X859340D01*
X855530D02*
Y930000D01*
X864420Y935080D02*
X870770D01*
X874580Y930000D02*
Y941430D01*
X878390Y937620D01*
X882200Y941430D01*
Y930000D01*
X886010Y941430D02*
Y931270D01*
X887280Y930000D01*
X892360D01*
X893630Y931270D01*
Y941430D01*
X897440D02*
X905060Y930000D01*
X897440D02*
X905060Y941430D01*
X920300D02*
X927920D01*
X924110D02*
Y930000D01*
X935540D02*
X936810D01*
Y931270D01*
X935540D01*
Y930000D01*
X943160Y941430D02*
Y931270D01*
X944430Y930000D01*
X946970Y932540D01*
X949510Y930000D01*
X950780Y931270D01*
Y941430D01*
X958400Y930000D02*
X959670D01*
Y931270D01*
X958400D01*
Y930000D01*
X977450Y940160D02*
X978720Y941430D01*
X982530D01*
X983800Y940160D01*
Y938890D01*
X977450Y932540D01*
Y930000D01*
X983800D01*
X996500Y940160D02*
Y931270D01*
X995230Y930000D01*
X990150D01*
X988880Y931270D01*
Y940160D01*
X990150Y941430D01*
X995230D01*
X996500Y940160D01*
Y938890D01*
X988880Y931270D01*
X1001580Y938890D02*
X1004120Y941430D01*
Y930000D01*
X1001580D01*
X1006660D01*
X1016820Y941430D02*
X1014280D01*
X1011740Y938890D01*
Y931270D01*
X1013010Y930000D01*
X1016820D01*
X1018090Y931270D01*
Y935080D01*
X1016820Y936350D01*
X1011740D01*
X794000Y886000D02*
Y897430D01*
X800350D01*
X801620Y896160D01*
Y893620D01*
X800350Y892350D01*
X794000D01*
X795270D02*
X801620Y886000D01*
X813050Y897430D02*
X805430D01*
Y886000D01*
X813050D01*
X805430Y892350D02*
X810510D01*
X816860Y897430D02*
X821940D01*
X824480Y894890D01*
Y888540D01*
X821940Y886000D01*
X816860D01*
X818130Y897430D02*
Y886000D01*
X896570Y904500D02*
Y909580D01*
X899110Y912120D01*
X905460D01*
X908000Y909580D01*
Y904500D01*
X896570Y905770D02*
X908000D01*
X902920Y922280D02*
Y915930D01*
X901650D01*
X896570Y921010D01*
X908000D01*
X1038000Y925000D02*
X1047525D01*
Y919708D01*
X1046467Y918650D01*
X1044350D01*
X1043292Y919708D01*
Y925000D01*
Y923942D02*
X1038000Y918650D01*
X1042233Y910183D02*
Y915475D01*
X1043292D01*
X1047525Y911242D01*
X1038000D01*
X1046467Y899600D02*
X1039058D01*
X1038000Y900658D01*
Y904892D01*
X1039058Y905950D01*
X1046467D01*
X1047525Y904892D01*
Y900658D01*
X1046467Y899600D01*
X1045408D01*
X1039058Y905950D01*
X1112000Y927000D02*
X1121525D01*
Y921708D01*
X1120467Y920650D01*
X1118350D01*
X1117292Y921708D01*
Y927000D01*
Y925942D02*
X1112000Y920650D01*
X1120467Y917475D02*
X1121525Y916417D01*
Y913242D01*
X1120467Y912183D01*
X1117292D01*
Y915358D01*
Y912183D01*
X1113058D01*
X1112000Y913242D01*
Y916417D01*
X1113058Y917475D01*
X1117292Y903717D02*
Y906892D01*
X1118350Y907950D01*
X1120467D01*
X1121525Y906892D01*
Y903717D01*
X1120467Y902658D01*
X1118350D01*
X1117292Y903717D01*
X1116233Y902658D01*
X1113058D01*
X1112000Y903717D01*
Y906892D01*
X1113058Y907950D01*
X1116233D01*
X1117292Y906892D01*
X1090592Y883350D02*
X1088475Y881233D01*
Y879117D01*
X1090592Y877000D01*
X1095883D01*
X1098000Y879117D01*
Y881233D01*
X1095883Y883350D01*
X1089533Y886525D02*
X1088475Y887583D01*
Y890758D01*
X1089533Y891817D01*
X1092708D01*
Y888642D01*
Y891817D01*
X1096942D01*
X1098000Y890758D01*
Y887583D01*
X1096942Y886525D01*
X1098000Y897108D02*
Y899225D01*
X1095883Y901342D01*
X1089533D01*
X1088475Y900283D01*
Y897108D01*
X1089533Y896050D01*
X1091650D01*
X1092708Y897108D01*
Y901342D01*
X1050650Y922592D02*
X1052767Y920475D01*
X1054883D01*
X1057000Y922592D01*
Y927883D01*
X1054883Y930000D01*
X1052767D01*
X1050650Y927883D01*
X1042183Y925767D02*
X1047475D01*
Y924708D01*
X1043242Y920475D01*
Y930000D01*
X1031600Y921533D02*
Y928942D01*
X1032658Y930000D01*
X1036892D01*
X1037950Y928942D01*
Y921533D01*
X1036892Y920475D01*
X1032658D01*
X1031600Y921533D01*
Y922592D01*
X1037950Y928942D01*
X936000Y897430D02*
X942350D01*
X943620Y896160D01*
Y893620D01*
X942350Y892350D01*
X937270D01*
X942350D01*
X943620Y891080D01*
Y887270D01*
X942350Y886000D01*
X936000D01*
X937270D02*
Y897430D01*
X947430D02*
Y886000D01*
X955050D01*
X958860Y897430D02*
Y887270D01*
X960130Y886000D01*
X965210D01*
X966480Y887270D01*
Y897430D01*
X977910D02*
X970290D01*
Y886000D01*
X977910D01*
X970290Y892350D02*
X975370D01*
X919000Y692570D02*
Y702730D01*
X917730Y704000D01*
X912650D01*
X911380Y702730D01*
Y692570D01*
X907570Y693840D02*
X906300Y692570D01*
X902490D01*
X901220Y693840D01*
Y697650D01*
X905030D01*
X901220D01*
Y702730D01*
X902490Y704000D01*
X906300D01*
X907570Y702730D01*
X995000Y694000D02*
Y684475D01*
X989708D01*
X988650Y685533D01*
Y687650D01*
X989708Y688708D01*
X995000D01*
X993942D02*
X988650Y694000D01*
X984417Y686592D02*
X982300Y684475D01*
Y694000D01*
X984417D01*
X980183D01*
X970658Y689767D02*
X975950D01*
Y688708D01*
X971717Y684475D01*
Y694000D01*
X1006650Y686592D02*
X1008767Y684475D01*
X1010883D01*
X1013000Y686592D01*
Y691883D01*
X1010883Y694000D01*
X1008767D01*
X1006650Y691883D01*
X1003475Y685533D02*
X1002417Y684475D01*
X999242D01*
X998183Y685533D01*
Y686592D01*
X1003475Y691883D01*
Y694000D01*
X998183D01*
X1031000Y662000D02*
Y652475D01*
X1025708D01*
X1024650Y653533D01*
Y655650D01*
X1025708Y656708D01*
X1031000D01*
X1029942D02*
X1024650Y662000D01*
X1020417Y654592D02*
X1018300Y652475D01*
Y662000D01*
X1020417D01*
X1016183D01*
X1011950Y653533D02*
X1010892Y652475D01*
X1007717D01*
X1006658Y653533D01*
Y654592D01*
X1011950Y659883D01*
Y662000D01*
X1006658D01*
X1007350Y641408D02*
X1005233Y643525D01*
X1003117D01*
X1001000Y641408D01*
Y636117D01*
X1003117Y634000D01*
X1005233D01*
X1007350Y636117D01*
X1014758Y639292D02*
X1011583D01*
X1010525Y640350D01*
Y642467D01*
X1011583Y643525D01*
X1014758D01*
X1015817Y642467D01*
Y640350D01*
X1014758Y639292D01*
X1015817Y638233D01*
Y635058D01*
X1014758Y634000D01*
X1011583D01*
X1010525Y635058D01*
Y638233D01*
X1011583Y639292D01*
X983000Y602000D02*
Y611525D01*
X988292D01*
X989350Y610467D01*
Y608350D01*
X988292Y607292D01*
X983000D01*
X984058D02*
X989350Y602000D01*
X993583Y609408D02*
X995700Y611525D01*
Y602000D01*
X993583D01*
X997817D01*
X1006283Y611525D02*
X1004167D01*
X1002050Y609408D01*
Y603058D01*
X1003108Y602000D01*
X1006283D01*
X1007342Y603058D01*
Y606233D01*
X1006283Y607292D01*
X1002050D01*
X1038000Y585000D02*
X1028475D01*
Y590292D01*
X1029533Y591350D01*
X1031650D01*
X1032708Y590292D01*
Y585000D01*
Y586058D02*
X1038000Y591350D01*
X1030592Y595583D02*
X1028475Y597700D01*
X1038000D01*
Y595583D01*
Y599817D01*
X1028475Y604050D02*
Y609342D01*
X1031650D01*
X1034825Y606167D01*
X1038000D01*
X1033000Y609430D02*
Y599270D01*
X1034270Y598000D01*
X1039350D01*
X1040620Y599270D01*
Y609430D01*
X1044430Y608160D02*
X1045700Y609430D01*
X1049510D01*
X1050780Y608160D01*
Y606890D01*
X1044430Y600540D01*
Y598000D01*
X1050780D01*
X1062592Y591350D02*
X1060475Y589233D01*
Y587117D01*
X1062592Y585000D01*
X1067883D01*
X1070000Y587117D01*
Y589233D01*
X1067883Y591350D01*
X1062592Y595583D02*
X1060475Y597700D01*
X1070000D01*
Y595583D01*
Y599817D01*
X1062592Y605108D02*
X1060475Y607225D01*
X1070000D01*
Y605108D01*
Y609342D01*
X1094592Y591350D02*
X1092475Y589233D01*
Y587117D01*
X1094592Y585000D01*
X1099883D01*
X1102000Y587117D01*
Y589233D01*
X1099883Y591350D01*
X1094592Y595583D02*
X1092475Y597700D01*
X1102000D01*
Y595583D01*
Y599817D01*
X1093533Y610400D02*
X1100942D01*
X1102000Y609342D01*
Y605108D01*
X1100942Y604050D01*
X1093533D01*
X1092475Y605108D01*
Y609342D01*
X1093533Y610400D01*
X1094592D01*
X1100942Y604050D01*
X1106000Y615000D02*
X1115525D01*
Y609708D01*
X1114467Y608650D01*
X1112350D01*
X1111292Y609708D01*
Y615000D01*
Y613942D02*
X1106000Y608650D01*
X1113408Y604417D02*
X1115525Y602300D01*
X1106000D01*
Y604417D01*
Y600183D01*
X1115525Y590658D02*
Y595950D01*
X1111292D01*
Y591717D01*
X1110233Y590658D01*
X1107058D01*
X1106000Y591717D01*
Y594892D01*
X1107058Y595950D01*
X1121350Y643408D02*
X1119233Y645525D01*
X1117117D01*
X1115000Y643408D01*
Y638117D01*
X1117117Y636000D01*
X1119233D01*
X1121350Y638117D01*
X1124525Y645525D02*
X1129817D01*
Y642350D01*
X1126642Y639175D01*
Y636000D01*
X1115000Y604000D02*
Y613525D01*
X1120292D01*
X1121350Y612467D01*
Y610350D01*
X1120292Y609292D01*
X1115000D01*
X1116058D02*
X1121350Y604000D01*
X1125583Y611408D02*
X1127700Y613525D01*
Y604000D01*
X1125583D01*
X1129817D01*
X1140400Y612467D02*
Y605058D01*
X1139342Y604000D01*
X1135108D01*
X1134050Y605058D01*
Y612467D01*
X1135108Y613525D01*
X1139342D01*
X1140400Y612467D01*
Y611408D01*
X1134050Y605058D01*
X1081408Y608650D02*
X1083525Y610767D01*
Y612883D01*
X1081408Y615000D01*
X1076117D01*
X1074000Y612883D01*
Y610767D01*
X1076117Y608650D01*
X1074000Y604417D02*
Y602300D01*
X1076117Y600183D01*
X1082467D01*
X1083525Y601242D01*
Y604417D01*
X1082467Y605475D01*
X1080350D01*
X1079292Y604417D01*
Y600183D01*
X939408Y618650D02*
X941525Y620767D01*
Y622883D01*
X939408Y625000D01*
X934117D01*
X932000Y622883D01*
Y620767D01*
X934117Y618650D01*
X939408Y614417D02*
X941525Y612300D01*
X932000D01*
Y614417D01*
Y610183D01*
X940467Y605950D02*
X941525Y604892D01*
Y601717D01*
X940467Y600658D01*
X939408D01*
X934117Y605950D01*
X932000D01*
Y600658D01*
X948592Y601350D02*
X946475Y599233D01*
Y597117D01*
X948592Y595000D01*
X953883D01*
X956000Y597117D01*
Y599233D01*
X953883Y601350D01*
X948592Y605583D02*
X946475Y607700D01*
X956000D01*
Y605583D01*
Y609817D01*
Y615108D02*
Y617225D01*
X953883Y619342D01*
X947533D01*
X946475Y618283D01*
Y615108D01*
X947533Y614050D01*
X949650D01*
X950708Y615108D01*
Y619342D01*
X1001000Y597430D02*
Y587270D01*
X1002270Y586000D01*
X1007350D01*
X1008620Y587270D01*
Y597430D01*
X1012430D02*
X1018780D01*
Y593620D01*
X1014970Y589810D01*
Y586000D01*
X900000Y525000D02*
X909525D01*
Y519708D01*
X908467Y518650D01*
X906350D01*
X905292Y519708D01*
Y525000D01*
Y523942D02*
X900000Y518650D01*
X904233Y510183D02*
Y515475D01*
X905292D01*
X909525Y511242D01*
X900000D01*
Y504892D02*
Y502775D01*
X902117Y500658D01*
X908467D01*
X909525Y501717D01*
Y504892D01*
X908467Y505950D01*
X906350D01*
X905292Y504892D01*
Y500658D01*
X900000Y579000D02*
X909525D01*
Y573708D01*
X908467Y572650D01*
X906350D01*
X905292Y573708D01*
Y579000D01*
Y577942D02*
X900000Y572650D01*
X904233Y564183D02*
Y569475D01*
X905292D01*
X909525Y565242D01*
X900000D01*
X908467Y559950D02*
X909525Y558892D01*
Y555717D01*
X908467Y554658D01*
X907408D01*
X902117Y559950D01*
X900000D01*
Y554658D01*
Y561000D02*
X909525D01*
Y555708D01*
X908467Y554650D01*
X906350D01*
X905292Y555708D01*
Y561000D01*
Y559942D02*
X900000Y554650D01*
X908467Y551475D02*
X909525Y550417D01*
Y547242D01*
X908467Y546183D01*
X905292D01*
Y549358D01*
Y546183D01*
X901058D01*
X900000Y547242D01*
Y550417D01*
X901058Y551475D01*
X909525Y536658D02*
Y541950D01*
X905292D01*
Y537717D01*
X904233Y536658D01*
X901058D01*
X900000Y537717D01*
Y540892D01*
X901058Y541950D01*
X900000Y543000D02*
X909525D01*
Y537708D01*
X908467Y536650D01*
X906350D01*
X905292Y537708D01*
Y543000D01*
Y541942D02*
X900000Y536650D01*
X909525Y528183D02*
Y533475D01*
X905292D01*
Y529242D01*
X904233Y528183D01*
X901058D01*
X900000Y529242D01*
Y532417D01*
X901058Y533475D01*
X909525Y519717D02*
Y521833D01*
X907408Y523950D01*
X901058D01*
X900000Y522892D01*
Y519717D01*
X901058Y518658D01*
X904233D01*
X905292Y519717D01*
Y523950D01*
X960000Y477000D02*
X950475D01*
Y482292D01*
X951533Y483350D01*
X953650D01*
X954708Y482292D01*
Y477000D01*
Y478058D02*
X960000Y483350D01*
X951533Y486525D02*
X950475Y487583D01*
Y490758D01*
X951533Y491817D01*
X952592D01*
X957883Y486525D01*
X960000D01*
Y491817D01*
X950475Y496050D02*
Y501342D01*
X953650D01*
X956825Y498167D01*
X960000D01*
X1087350Y541408D02*
X1085233Y543525D01*
X1083117D01*
X1081000Y541408D01*
Y536117D01*
X1083117Y534000D01*
X1085233D01*
X1087350Y536117D01*
X1091583Y541408D02*
X1093700Y543525D01*
Y534000D01*
X1091583D01*
X1095817D01*
X1100050Y542467D02*
X1101108Y543525D01*
X1104283D01*
X1105342Y542467D01*
Y539292D01*
X1102167D01*
X1105342D01*
Y535058D01*
X1104283Y534000D01*
X1101108D01*
X1100050Y535058D01*
X1097392Y505550D02*
X1095275Y503433D01*
Y501317D01*
X1097392Y499200D01*
X1102683D01*
X1104800Y501317D01*
Y503433D01*
X1102683Y505550D01*
X1095275Y514017D02*
Y508725D01*
X1099508D01*
Y512958D01*
X1100567Y514017D01*
X1103742D01*
X1104800Y512958D01*
Y509783D01*
X1103742Y508725D01*
X1095200Y533200D02*
Y542725D01*
X1100492D01*
X1101550Y541667D01*
Y539550D01*
X1100492Y538492D01*
X1095200D01*
X1096258D02*
X1101550Y533200D01*
X1105783Y540608D02*
X1107900Y542725D01*
Y533200D01*
X1105783D01*
X1110017D01*
X1115308D02*
X1117425D01*
X1119542Y535317D01*
Y541667D01*
X1118483Y542725D01*
X1115308D01*
X1114250Y541667D01*
Y539550D01*
X1115308Y538492D01*
X1119542D01*
X1105350Y541408D02*
X1103233Y543525D01*
X1101117D01*
X1099000Y541408D01*
Y536117D01*
X1101117Y534000D01*
X1103233D01*
X1105350Y536117D01*
X1109583Y541408D02*
X1111700Y543525D01*
Y534000D01*
X1109583D01*
X1113817D01*
X1123342Y538233D02*
X1118050D01*
Y539292D01*
X1122283Y543525D01*
Y534000D01*
X1122800Y499200D02*
X1113275D01*
Y504492D01*
X1114333Y505550D01*
X1116450D01*
X1117508Y504492D01*
Y499200D01*
Y500258D02*
X1122800Y505550D01*
X1114333Y508725D02*
X1113275Y509783D01*
Y512958D01*
X1114333Y514017D01*
X1115392D01*
X1120683Y508725D01*
X1122800D01*
Y514017D01*
X1114333Y524600D02*
X1121742D01*
X1122800Y523542D01*
Y519308D01*
X1121742Y518250D01*
X1114333D01*
X1113275Y519308D01*
Y523542D01*
X1114333Y524600D01*
X1115392D01*
X1121742Y518250D01*
X992000Y477000D02*
X982475D01*
Y482292D01*
X983533Y483350D01*
X985650D01*
X986708Y482292D01*
Y477000D01*
Y478058D02*
X992000Y483350D01*
X983533Y486525D02*
X982475Y487583D01*
Y490758D01*
X983533Y491817D01*
X984592D01*
X989883Y486525D01*
X992000D01*
Y491817D01*
X986708Y500283D02*
Y497108D01*
X985650Y496050D01*
X983533D01*
X982475Y497108D01*
Y500283D01*
X983533Y501342D01*
X985650D01*
X986708Y500283D01*
X987767Y501342D01*
X990942D01*
X992000Y500283D01*
Y497108D01*
X990942Y496050D01*
X987767D01*
X986708Y497108D01*
X918000Y332000D02*
G03X918021I0J-12000D01*
G01X920540Y320000D02*
X919270D01*
X918000Y318730D01*
Y316190D01*
Y313650D01*
X929430D01*
Y316190D02*
Y313650D01*
X926890Y307300D02*
X929430Y304760D01*
X918000D01*
Y307300D01*
Y302220D01*
X1032000Y265000D02*
X1041525D01*
Y259708D01*
X1040467Y258650D01*
X1038350D01*
X1037292Y259708D01*
Y265000D01*
Y263942D02*
X1032000Y258650D01*
X1041525Y250183D02*
Y255475D01*
X1037292D01*
Y251242D01*
X1036233Y250183D01*
X1033058D01*
X1032000Y251242D01*
Y254417D01*
X1033058Y255475D01*
X1036233Y240658D02*
Y245950D01*
X1037292D01*
X1041525Y241717D01*
X1032000D01*
X1084592Y259350D02*
X1082475Y257233D01*
Y255117D01*
X1084592Y253000D01*
X1089883D01*
X1092000Y255117D01*
Y257233D01*
X1089883Y259350D01*
X1082475Y267817D02*
Y262525D01*
X1086708D01*
Y266758D01*
X1087767Y267817D01*
X1090942D01*
X1092000Y266758D01*
Y263583D01*
X1090942Y262525D01*
X1092000Y273108D02*
Y275225D01*
X1089883Y277342D01*
X1083533D01*
X1082475Y276283D01*
Y273108D01*
X1083533Y272050D01*
X1085650D01*
X1086708Y273108D01*
Y277342D01*
X1126000Y233000D02*
X1116475D01*
Y238292D01*
X1117533Y239350D01*
X1119650D01*
X1120708Y238292D01*
Y233000D01*
Y234058D02*
X1126000Y239350D01*
X1116475Y247817D02*
Y242525D01*
X1120708D01*
Y246758D01*
X1121767Y247817D01*
X1124942D01*
X1126000Y246758D01*
Y243583D01*
X1124942Y242525D01*
X1117533Y252050D02*
X1116475Y253108D01*
Y256283D01*
X1117533Y257342D01*
X1120708D01*
Y254167D01*
Y257342D01*
X1124942D01*
X1126000Y256283D01*
Y253108D01*
X1124942Y252050D01*
X1116592Y259350D02*
X1114475Y257233D01*
Y255117D01*
X1116592Y253000D01*
X1121883D01*
X1124000Y255117D01*
Y257233D01*
X1121883Y259350D01*
X1114475Y266758D02*
Y264642D01*
X1116592Y262525D01*
X1122942D01*
X1124000Y263583D01*
Y266758D01*
X1122942Y267817D01*
X1119767D01*
X1118708Y266758D01*
Y262525D01*
X1116592Y273108D02*
X1114475Y275225D01*
X1124000D01*
Y273108D01*
Y277342D01*
X1110000Y263000D02*
X1119525D01*
Y257708D01*
X1118467Y256650D01*
X1116350D01*
X1115292Y257708D01*
Y263000D01*
Y261942D02*
X1110000Y256650D01*
X1119525Y248183D02*
Y253475D01*
X1115292D01*
Y249242D01*
X1114233Y248183D01*
X1111058D01*
X1110000Y249242D01*
Y252417D01*
X1111058Y253475D01*
X1118467Y243950D02*
X1119525Y242892D01*
Y239717D01*
X1118467Y238658D01*
X1117408D01*
X1112117Y243950D01*
X1110000D01*
Y238658D01*
X908592Y263350D02*
X906475Y261233D01*
Y259117D01*
X908592Y257000D01*
X913883D01*
X916000Y259117D01*
Y261233D01*
X913883Y263350D01*
X906475Y266525D02*
Y271817D01*
X909650D01*
X912825Y268642D01*
X916000D01*
X908592Y277108D02*
X906475Y279225D01*
X916000D01*
Y277108D01*
Y281342D01*
X1007000Y212730D02*
X1005730Y214000D01*
X1000650D01*
X999380Y212730D01*
Y208920D01*
X1000650Y207650D01*
X1005730D01*
X1007000Y206380D01*
Y203840D01*
X1005730Y202570D01*
X1000650D01*
X999380Y203840D01*
X995570Y202570D02*
Y212730D01*
X994300Y214000D01*
X991760Y211460D01*
X989220Y214000D01*
X987950Y212730D01*
Y202570D01*
X982870Y205110D02*
X980330Y202570D01*
Y214000D01*
X982870D01*
X977790D01*
X1027350Y235408D02*
X1025233Y237525D01*
X1023117D01*
X1021000Y235408D01*
Y230117D01*
X1023117Y228000D01*
X1025233D01*
X1027350Y230117D01*
X1034758Y237525D02*
X1032642D01*
X1030525Y235408D01*
Y229058D01*
X1031583Y228000D01*
X1034758D01*
X1035817Y229058D01*
Y232233D01*
X1034758Y233292D01*
X1030525D01*
X1046400Y236467D02*
Y229058D01*
X1045342Y228000D01*
X1041108D01*
X1040050Y229058D01*
Y236467D01*
X1041108Y237525D01*
X1045342D01*
X1046400Y236467D01*
Y235408D01*
X1040050Y229058D01*
X1014000Y219270D02*
X1015270Y218000D01*
X1020350D01*
X1021620Y219270D01*
Y223080D01*
X1020350Y224350D01*
X1015270D01*
X1014000Y225620D01*
Y228160D01*
X1015270Y229430D01*
X1020350D01*
X1021620Y228160D01*
X1025430Y229430D02*
Y219270D01*
X1026700Y218000D01*
X1029240Y220540D01*
X1031780Y218000D01*
X1033050Y219270D01*
Y229430D01*
X1038130Y226890D02*
X1040670Y229430D01*
Y218000D01*
X1038130D01*
X1043210D01*
X1292000Y263000D02*
X1301525D01*
Y257708D01*
X1300467Y256650D01*
X1298350D01*
X1297292Y257708D01*
Y263000D01*
Y261942D02*
X1292000Y256650D01*
X1301525Y248183D02*
Y253475D01*
X1297292D01*
Y249242D01*
X1296233Y248183D01*
X1293058D01*
X1292000Y249242D01*
Y252417D01*
X1293058Y253475D01*
X1299408Y242892D02*
X1301525Y240775D01*
X1292000D01*
Y242892D01*
Y238658D01*
X1328000Y263000D02*
X1337525D01*
Y257708D01*
X1336467Y256650D01*
X1334350D01*
X1333292Y257708D01*
Y263000D01*
Y261942D02*
X1328000Y256650D01*
X1337525Y248183D02*
Y253475D01*
X1333292D01*
Y249242D01*
X1332233Y248183D01*
X1329058D01*
X1328000Y249242D01*
Y252417D01*
X1329058Y253475D01*
X1336467Y237600D02*
X1329058D01*
X1328000Y238658D01*
Y242892D01*
X1329058Y243950D01*
X1336467D01*
X1337525Y242892D01*
Y238658D01*
X1336467Y237600D01*
X1335408D01*
X1329058Y243950D01*
X1342592Y259350D02*
X1340475Y257233D01*
Y255117D01*
X1342592Y253000D01*
X1347883D01*
X1350000Y255117D01*
Y257233D01*
X1347883Y259350D01*
X1340475Y267817D02*
Y262525D01*
X1344708D01*
Y266758D01*
X1345767Y267817D01*
X1348942D01*
X1350000Y266758D01*
Y263583D01*
X1348942Y262525D01*
X1340475Y277342D02*
Y272050D01*
X1344708D01*
Y276283D01*
X1345767Y277342D01*
X1348942D01*
X1350000Y276283D01*
Y273108D01*
X1348942Y272050D01*
X1160592Y259350D02*
X1158475Y257233D01*
Y255117D01*
X1160592Y253000D01*
X1165883D01*
X1168000Y255117D01*
Y257233D01*
X1165883Y259350D01*
X1158475Y267817D02*
Y262525D01*
X1162708D01*
Y266758D01*
X1163767Y267817D01*
X1166942D01*
X1168000Y266758D01*
Y263583D01*
X1166942Y262525D01*
X1163767Y277342D02*
Y272050D01*
X1162708D01*
X1158475Y276283D01*
X1168000D01*
X1212000Y376540D02*
Y375270D01*
X1213270Y374000D01*
X1215810D01*
X1218350D01*
Y385430D01*
X1215810D02*
X1218350D01*
X1228510Y380350D02*
X1224700D01*
X1223430Y381620D01*
Y384160D01*
X1224700Y385430D01*
X1228510D01*
X1229780Y384160D01*
Y381620D01*
X1228510Y380350D01*
X1229780Y379080D01*
Y375270D01*
X1228510Y374000D01*
X1224700D01*
X1223430Y375270D01*
Y379080D01*
X1224700Y380350D01*
X1297000Y570000D02*
Y581430D01*
X1303350D01*
X1304620Y580160D01*
Y577620D01*
X1303350Y576350D01*
X1297000D01*
X1298270D02*
X1304620Y570000D01*
X1313510Y581430D02*
X1310970D01*
X1308430Y578890D01*
Y571270D01*
X1309700Y570000D01*
X1313510D01*
X1314780Y571270D01*
Y575080D01*
X1313510Y576350D01*
X1308430D01*
X1319860Y580160D02*
X1321130Y581430D01*
X1324940D01*
X1326210Y580160D01*
Y576350D01*
X1322400D01*
X1326210D01*
Y571270D01*
X1324940Y570000D01*
X1321130D01*
X1319860Y571270D01*
X1276570Y552000D02*
X1286730D01*
X1288000Y553270D01*
Y558350D01*
X1286730Y559620D01*
X1276570D01*
X1282920Y569780D02*
Y563430D01*
X1281650D01*
X1276570Y568510D01*
X1288000D01*
X1163000Y568000D02*
Y579430D01*
X1169350D01*
X1170620Y578160D01*
Y575620D01*
X1169350Y574350D01*
X1163000D01*
X1164270D02*
X1170620Y568000D01*
X1179510Y579430D02*
X1176970D01*
X1174430Y576890D01*
Y569270D01*
X1175700Y568000D01*
X1179510D01*
X1180780Y569270D01*
Y573080D01*
X1179510Y574350D01*
X1174430D01*
X1192210Y579430D02*
X1185860D01*
Y574350D01*
X1190940D01*
X1192210Y573080D01*
Y569270D01*
X1190940Y568000D01*
X1187130D01*
X1185860Y569270D01*
X1240000Y479000D02*
X1228570D01*
Y485350D01*
X1229840Y486620D01*
X1232380D01*
X1233650Y485350D01*
Y479000D01*
Y480270D02*
X1240000Y486620D01*
X1228570Y495510D02*
Y492970D01*
X1231110Y490430D01*
X1238730D01*
X1240000Y491700D01*
Y495510D01*
X1238730Y496780D01*
X1234920D01*
X1233650Y495510D01*
Y490430D01*
X1231110Y503130D02*
X1228570Y505670D01*
X1240000D01*
Y503130D01*
Y508210D01*
X1157000Y594000D02*
Y584475D01*
X1151708D01*
X1150650Y585533D01*
Y587650D01*
X1151708Y588708D01*
X1157000D01*
X1155942D02*
X1150650Y594000D01*
X1147475Y585533D02*
X1146417Y584475D01*
X1143242D01*
X1142183Y585533D01*
Y586592D01*
X1147475Y591883D01*
Y594000D01*
X1142183D01*
X1136392Y507550D02*
X1134275Y505433D01*
Y503317D01*
X1136392Y501200D01*
X1141683D01*
X1143800Y503317D01*
Y505433D01*
X1141683Y507550D01*
X1135333Y510725D02*
X1134275Y511783D01*
Y514958D01*
X1135333Y516017D01*
X1136392D01*
X1141683Y510725D01*
X1143800D01*
Y516017D01*
X1136392Y521308D02*
X1134275Y523425D01*
X1143800D01*
Y521308D01*
Y525542D01*
X1309000Y526000D02*
Y516475D01*
X1303708D01*
X1302650Y517533D01*
Y519650D01*
X1303708Y520708D01*
X1309000D01*
X1307942D02*
X1302650Y526000D01*
X1295242Y520708D02*
X1298417D01*
X1299475Y519650D01*
Y517533D01*
X1298417Y516475D01*
X1295242D01*
X1294183Y517533D01*
Y519650D01*
X1295242Y520708D01*
X1294183Y521767D01*
Y524942D01*
X1295242Y526000D01*
X1298417D01*
X1299475Y524942D01*
Y521767D01*
X1298417Y520708D01*
X1285717Y516475D02*
X1287833D01*
X1289950Y518592D01*
Y524942D01*
X1288892Y526000D01*
X1285717D01*
X1284658Y524942D01*
Y521767D01*
X1285717Y520708D01*
X1289950D01*
X1333000Y466000D02*
Y475525D01*
X1338292D01*
X1339350Y474467D01*
Y472350D01*
X1338292Y471292D01*
X1333000D01*
X1334058D02*
X1339350Y466000D01*
X1346758Y471292D02*
X1343583D01*
X1342525Y472350D01*
Y474467D01*
X1343583Y475525D01*
X1346758D01*
X1347817Y474467D01*
Y472350D01*
X1346758Y471292D01*
X1347817Y470233D01*
Y467058D01*
X1346758Y466000D01*
X1343583D01*
X1342525Y467058D01*
Y470233D01*
X1343583Y471292D01*
X1357342Y475525D02*
X1352050D01*
Y471292D01*
X1356283D01*
X1357342Y470233D01*
Y467058D01*
X1356283Y466000D01*
X1353108D01*
X1352050Y467058D01*
X1168400Y526078D02*
Y515918D01*
X1169670Y514648D01*
X1174750D01*
X1176020Y515918D01*
Y526078D01*
X1181100Y523538D02*
X1183640Y526078D01*
Y514648D01*
X1181100D01*
X1186180D01*
X1345000Y526000D02*
Y516475D01*
X1339708D01*
X1338650Y517533D01*
Y519650D01*
X1339708Y520708D01*
X1345000D01*
X1343942D02*
X1338650Y526000D01*
X1331242Y520708D02*
X1334417D01*
X1335475Y519650D01*
Y517533D01*
X1334417Y516475D01*
X1331242D01*
X1330183Y517533D01*
Y519650D01*
X1331242Y520708D01*
X1330183Y521767D01*
Y524942D01*
X1331242Y526000D01*
X1334417D01*
X1335475Y524942D01*
Y521767D01*
X1334417Y520708D01*
X1325950Y516475D02*
X1320658D01*
Y519650D01*
X1323833Y522825D01*
Y526000D01*
X1308992Y489950D02*
X1306875Y487833D01*
Y485717D01*
X1308992Y483600D01*
X1314283D01*
X1316400Y485717D01*
Y487833D01*
X1314283Y489950D01*
X1306875Y497358D02*
Y495242D01*
X1308992Y493125D01*
X1315342D01*
X1316400Y494183D01*
Y497358D01*
X1315342Y498417D01*
X1312167D01*
X1311108Y497358D01*
Y493125D01*
X1307933Y502650D02*
X1306875Y503708D01*
Y506883D01*
X1307933Y507942D01*
X1311108D01*
Y504767D01*
Y507942D01*
X1315342D01*
X1316400Y506883D01*
Y503708D01*
X1315342Y502650D01*
X1163000Y604000D02*
Y615430D01*
X1169350D01*
X1170620Y614160D01*
Y611620D01*
X1169350Y610350D01*
X1163000D01*
X1164270D02*
X1170620Y604000D01*
X1179510Y615430D02*
X1176970D01*
X1174430Y612890D01*
Y605270D01*
X1175700Y604000D01*
X1179510D01*
X1180780Y605270D01*
Y609080D01*
X1179510Y610350D01*
X1174430D01*
X1192210Y609080D02*
X1185860D01*
Y610350D01*
X1190940Y615430D01*
Y604000D01*
X1133000D02*
Y613525D01*
X1138292D01*
X1139350Y612467D01*
Y610350D01*
X1138292Y609292D01*
X1133000D01*
X1134058D02*
X1139350Y604000D01*
X1143583Y611408D02*
X1145700Y613525D01*
Y604000D01*
X1143583D01*
X1147817D01*
X1153108Y611408D02*
X1155225Y613525D01*
Y604000D01*
X1153108D01*
X1157342D01*
X1157350Y643408D02*
X1155233Y645525D01*
X1153117D01*
X1151000Y643408D01*
Y638117D01*
X1153117Y636000D01*
X1155233D01*
X1157350Y638117D01*
X1161583Y643408D02*
X1163700Y645525D01*
Y636000D01*
X1161583D01*
X1165817D01*
X1133000D02*
Y645525D01*
X1138292D01*
X1139350Y644467D01*
Y642350D01*
X1138292Y641292D01*
X1133000D01*
X1134058D02*
X1139350Y636000D01*
X1143583Y643408D02*
X1145700Y645525D01*
Y636000D01*
X1143583D01*
X1147817D01*
X1152050Y644467D02*
X1153108Y645525D01*
X1156283D01*
X1157342Y644467D01*
Y641292D01*
X1154167D01*
X1157342D01*
Y637058D01*
X1156283Y636000D01*
X1153108D01*
X1152050Y637058D01*
X1232000Y683000D02*
X1243430D01*
Y676650D01*
X1242160Y675380D01*
X1239620D01*
X1238350Y676650D01*
Y683000D01*
Y681730D02*
X1232000Y675380D01*
X1243430Y666490D02*
Y669030D01*
X1240890Y671570D01*
X1233270D01*
X1232000Y670300D01*
Y666490D01*
X1233270Y665220D01*
X1237080D01*
X1238350Y666490D01*
Y671570D01*
Y655060D02*
Y658870D01*
X1239620Y660140D01*
X1242160D01*
X1243430Y658870D01*
Y655060D01*
X1242160Y653790D01*
X1239620D01*
X1238350Y655060D01*
X1237080Y653790D01*
X1233270D01*
X1232000Y655060D01*
Y658870D01*
X1233270Y660140D01*
X1237080D01*
X1238350Y658870D01*
X1212650Y670592D02*
X1214767Y668475D01*
X1216883D01*
X1219000Y670592D01*
Y675883D01*
X1216883Y678000D01*
X1214767D01*
X1212650Y675883D01*
X1209475Y669533D02*
X1208417Y668475D01*
X1205242D01*
X1204183Y669533D01*
Y672708D01*
X1207358D01*
X1204183D01*
Y676942D01*
X1205242Y678000D01*
X1208417D01*
X1209475Y676942D01*
X1297000Y606000D02*
Y617430D01*
X1303350D01*
X1304620Y616160D01*
Y613620D01*
X1303350Y612350D01*
X1297000D01*
X1298270D02*
X1304620Y606000D01*
X1313510Y617430D02*
X1310970D01*
X1308430Y614890D01*
Y607270D01*
X1309700Y606000D01*
X1313510D01*
X1314780Y607270D01*
Y611080D01*
X1313510Y612350D01*
X1308430D01*
X1319860Y616160D02*
X1321130Y617430D01*
X1324940D01*
X1326210Y616160D01*
Y614890D01*
X1319860Y608540D01*
Y606000D01*
X1326210D01*
X1326650Y674592D02*
X1328767Y672475D01*
X1330883D01*
X1333000Y674592D01*
Y679883D01*
X1330883Y682000D01*
X1328767D01*
X1326650Y679883D01*
X1319242Y672475D02*
X1321358D01*
X1323475Y674592D01*
Y680942D01*
X1322417Y682000D01*
X1319242D01*
X1318183Y680942D01*
Y677767D01*
X1319242Y676708D01*
X1323475D01*
X1313950Y673533D02*
X1312892Y672475D01*
X1309717D01*
X1308658Y673533D01*
Y674592D01*
X1313950Y679883D01*
Y682000D01*
X1308658D01*
X1212000Y788540D02*
Y787270D01*
X1213270Y786000D01*
X1215810D01*
X1218350D01*
Y797430D01*
X1215810D02*
X1218350D01*
X1228510D02*
X1225970D01*
X1223430Y794890D01*
Y787270D01*
X1224700Y786000D01*
X1228510D01*
X1229780Y787270D01*
Y791080D01*
X1228510Y792350D01*
X1223430D01*
X1132000Y897000D02*
X1122475D01*
Y902292D01*
X1123533Y903350D01*
X1125650D01*
X1126708Y902292D01*
Y897000D01*
Y898058D02*
X1132000Y903350D01*
X1123533Y906525D02*
X1122475Y907583D01*
Y910758D01*
X1123533Y911817D01*
X1126708D01*
Y908642D01*
Y911817D01*
X1130942D01*
X1132000Y910758D01*
Y907583D01*
X1130942Y906525D01*
X1132000Y917108D02*
Y919225D01*
X1129883Y921342D01*
X1123533D01*
X1122475Y920283D01*
Y917108D01*
X1123533Y916050D01*
X1125650D01*
X1126708Y917108D01*
Y921342D01*
X1122592Y883350D02*
X1120475Y881233D01*
Y879117D01*
X1122592Y877000D01*
X1127883D01*
X1130000Y879117D01*
Y881233D01*
X1127883Y883350D01*
X1125767Y891817D02*
Y886525D01*
X1124708D01*
X1120475Y890758D01*
X1130000D01*
X1122592Y897108D02*
X1120475Y899225D01*
X1130000D01*
Y897108D01*
Y901342D01*
X1162592Y883350D02*
X1160475Y881233D01*
Y879117D01*
X1162592Y877000D01*
X1167883D01*
X1170000Y879117D01*
Y881233D01*
X1167883Y883350D01*
X1161533Y886525D02*
X1160475Y887583D01*
Y890758D01*
X1161533Y891817D01*
X1164708D01*
Y888642D01*
Y891817D01*
X1168942D01*
X1170000Y890758D01*
Y887583D01*
X1168942Y886525D01*
X1165767Y901342D02*
Y896050D01*
X1164708D01*
X1160475Y900283D01*
X1170000D01*
X1324000Y927000D02*
X1333525D01*
Y921708D01*
X1332467Y920650D01*
X1330350D01*
X1329292Y921708D01*
Y927000D01*
Y925942D02*
X1324000Y920650D01*
X1332467Y917475D02*
X1333525Y916417D01*
Y913242D01*
X1332467Y912183D01*
X1329292D01*
Y915358D01*
Y912183D01*
X1325058D01*
X1324000Y913242D01*
Y916417D01*
X1325058Y917475D01*
X1333525Y903717D02*
Y905833D01*
X1331408Y907950D01*
X1325058D01*
X1324000Y906892D01*
Y903717D01*
X1325058Y902658D01*
X1328233D01*
X1329292Y903717D01*
Y907950D01*
X1288000Y927000D02*
X1297525D01*
Y921708D01*
X1296467Y920650D01*
X1294350D01*
X1293292Y921708D01*
Y927000D01*
Y925942D02*
X1288000Y920650D01*
X1296467Y917475D02*
X1297525Y916417D01*
Y913242D01*
X1296467Y912183D01*
X1293292D01*
Y915358D01*
Y912183D01*
X1289058D01*
X1288000Y913242D01*
Y916417D01*
X1289058Y917475D01*
X1297525Y907950D02*
Y902658D01*
X1294350D01*
X1291175Y905833D01*
X1288000D01*
X1338592Y883350D02*
X1336475Y881233D01*
Y879117D01*
X1338592Y877000D01*
X1343883D01*
X1346000Y879117D01*
Y881233D01*
X1343883Y883350D01*
X1337533Y886525D02*
X1336475Y887583D01*
Y890758D01*
X1337533Y891817D01*
X1340708D01*
Y888642D01*
Y891817D01*
X1344942D01*
X1346000Y890758D01*
Y887583D01*
X1344942Y886525D01*
X1336475Y901342D02*
Y896050D01*
X1340708D01*
Y900283D01*
X1341767Y901342D01*
X1344942D01*
X1346000Y900283D01*
Y897108D01*
X1344942Y896050D01*
X1374592Y883350D02*
X1372475Y881233D01*
Y879117D01*
X1374592Y877000D01*
X1379883D01*
X1382000Y879117D01*
Y881233D01*
X1379883Y883350D01*
X1373533Y886525D02*
X1372475Y887583D01*
Y890758D01*
X1373533Y891817D01*
X1376708D01*
Y888642D01*
Y891817D01*
X1380942D01*
X1382000Y890758D01*
Y887583D01*
X1380942Y886525D01*
X1372475Y900283D02*
Y898167D01*
X1374592Y896050D01*
X1380942D01*
X1382000Y897108D01*
Y900283D01*
X1380942Y901342D01*
X1377767D01*
X1376708Y900283D01*
Y896050D01*
X1411408Y920650D02*
X1413525Y922767D01*
Y924883D01*
X1411408Y927000D01*
X1406117D01*
X1404000Y924883D01*
Y922767D01*
X1406117Y920650D01*
X1412467Y917475D02*
X1413525Y916417D01*
Y913242D01*
X1412467Y912183D01*
X1409292D01*
Y915358D01*
Y912183D01*
X1405058D01*
X1404000Y913242D01*
Y916417D01*
X1405058Y917475D01*
X1412467Y907950D02*
X1413525Y906892D01*
Y903717D01*
X1412467Y902658D01*
X1411408D01*
X1406117Y907950D01*
X1404000D01*
Y902658D01*
X1424592Y885350D02*
X1422475Y883233D01*
Y881117D01*
X1424592Y879000D01*
X1429883D01*
X1432000Y881117D01*
Y883233D01*
X1429883Y885350D01*
X1423533Y888525D02*
X1422475Y889583D01*
Y892758D01*
X1423533Y893817D01*
X1426708D01*
Y890642D01*
Y893817D01*
X1430942D01*
X1432000Y892758D01*
Y889583D01*
X1430942Y888525D01*
X1422475Y898050D02*
Y903342D01*
X1425650D01*
X1428825Y900167D01*
X1432000D01*
X1411408Y902650D02*
X1413525Y904767D01*
Y906883D01*
X1411408Y909000D01*
X1406117D01*
X1404000Y906883D01*
Y904767D01*
X1406117Y902650D01*
X1412467Y899475D02*
X1413525Y898417D01*
Y895242D01*
X1412467Y894183D01*
X1409292D01*
Y897358D01*
Y894183D01*
X1405058D01*
X1404000Y895242D01*
Y898417D01*
X1405058Y899475D01*
X1409292Y885717D02*
Y888892D01*
X1410350Y889950D01*
X1412467D01*
X1413525Y888892D01*
Y885717D01*
X1412467Y884658D01*
X1410350D01*
X1409292Y885717D01*
X1408233Y884658D01*
X1405058D01*
X1404000Y885717D01*
Y888892D01*
X1405058Y889950D01*
X1408233D01*
X1409292Y888892D01*
X1424592Y903350D02*
X1422475Y901233D01*
Y899117D01*
X1424592Y897000D01*
X1429883D01*
X1432000Y899117D01*
Y901233D01*
X1429883Y903350D01*
X1423533Y906525D02*
X1422475Y907583D01*
Y910758D01*
X1423533Y911817D01*
X1426708D01*
Y908642D01*
Y911817D01*
X1430942D01*
X1432000Y910758D01*
Y907583D01*
X1430942Y906525D01*
X1423533Y916050D02*
X1422475Y917108D01*
Y920283D01*
X1423533Y921342D01*
X1426708D01*
Y918167D01*
Y921342D01*
X1430942D01*
X1432000Y920283D01*
Y917108D01*
X1430942Y916050D01*
X1366000Y683000D02*
X1377430D01*
Y676650D01*
X1376160Y675380D01*
X1373620D01*
X1372350Y676650D01*
Y683000D01*
Y681730D02*
X1366000Y675380D01*
X1377430Y666490D02*
Y669030D01*
X1374890Y671570D01*
X1367270D01*
X1366000Y670300D01*
Y666490D01*
X1367270Y665220D01*
X1371080D01*
X1372350Y666490D01*
Y671570D01*
X1376160Y652520D02*
X1367270D01*
X1366000Y653790D01*
Y658870D01*
X1367270Y660140D01*
X1376160D01*
X1377430Y658870D01*
Y653790D01*
X1376160Y652520D01*
X1374890D01*
X1367270Y660140D01*
X1488000Y675000D02*
X1499430D01*
Y668650D01*
X1498160Y667380D01*
X1495620D01*
X1494350Y668650D01*
Y675000D01*
Y673730D02*
X1488000Y667380D01*
X1499430Y657220D02*
Y663570D01*
X1494350D01*
Y658490D01*
X1493080Y657220D01*
X1489270D01*
X1488000Y658490D01*
Y662300D01*
X1489270Y663570D01*
X1494350Y647060D02*
Y650870D01*
X1495620Y652140D01*
X1498160D01*
X1499430Y650870D01*
Y647060D01*
X1498160Y645790D01*
X1495620D01*
X1494350Y647060D01*
X1493080Y645790D01*
X1489270D01*
X1488000Y647060D01*
Y650870D01*
X1489270Y652140D01*
X1493080D01*
X1494350Y650870D01*
X1419000Y596000D02*
Y607430D01*
X1425350D01*
X1426620Y606160D01*
Y603620D01*
X1425350Y602350D01*
X1419000D01*
X1420270D02*
X1426620Y596000D01*
X1435510Y607430D02*
X1432970D01*
X1430430Y604890D01*
Y597270D01*
X1431700Y596000D01*
X1435510D01*
X1436780Y597270D01*
Y601080D01*
X1435510Y602350D01*
X1430430D01*
X1446940Y607430D02*
X1444400D01*
X1441860Y604890D01*
Y597270D01*
X1443130Y596000D01*
X1446940D01*
X1448210Y597270D01*
Y601080D01*
X1446940Y602350D01*
X1441860D01*
X1448650Y684592D02*
X1450767Y682475D01*
X1452883D01*
X1455000Y684592D01*
Y689883D01*
X1452883Y692000D01*
X1450767D01*
X1448650Y689883D01*
X1440183Y687767D02*
X1445475D01*
Y686708D01*
X1441242Y682475D01*
Y692000D01*
X1532570Y542000D02*
X1542730D01*
X1544000Y543270D01*
Y548350D01*
X1542730Y549620D01*
X1532570D01*
Y558510D02*
Y555970D01*
X1535110Y553430D01*
X1542730D01*
X1544000Y554700D01*
Y558510D01*
X1542730Y559780D01*
X1538920D01*
X1537650Y558510D01*
Y553430D01*
X1410570Y552000D02*
X1420730D01*
X1422000Y553270D01*
Y558350D01*
X1420730Y559620D01*
X1410570D01*
Y569780D02*
Y563430D01*
X1415650D01*
Y568510D01*
X1416920Y569780D01*
X1420730D01*
X1422000Y568510D01*
Y564700D01*
X1420730Y563430D01*
X1492000Y471000D02*
X1480570D01*
Y477350D01*
X1481840Y478620D01*
X1484380D01*
X1485650Y477350D01*
Y471000D01*
Y472270D02*
X1492000Y478620D01*
X1480570Y488780D02*
Y482430D01*
X1485650D01*
Y487510D01*
X1486920Y488780D01*
X1490730D01*
X1492000Y487510D01*
Y483700D01*
X1490730Y482430D01*
X1480570Y493860D02*
Y500210D01*
X1484380D01*
X1488190Y496400D01*
X1492000D01*
X1419000Y560000D02*
Y571430D01*
X1425350D01*
X1426620Y570160D01*
Y567620D01*
X1425350Y566350D01*
X1419000D01*
X1420270D02*
X1426620Y560000D01*
X1435510Y571430D02*
X1432970D01*
X1430430Y568890D01*
Y561270D01*
X1431700Y560000D01*
X1435510D01*
X1436780Y561270D01*
Y565080D01*
X1435510Y566350D01*
X1430430D01*
X1441860Y571430D02*
X1448210D01*
Y567620D01*
X1444400Y563810D01*
Y560000D01*
X1378000Y481000D02*
X1366570D01*
Y487350D01*
X1367840Y488620D01*
X1370380D01*
X1371650Y487350D01*
Y481000D01*
Y482270D02*
X1378000Y488620D01*
X1366570Y498780D02*
Y492430D01*
X1371650D01*
Y497510D01*
X1372920Y498780D01*
X1376730D01*
X1378000Y497510D01*
Y493700D01*
X1376730Y492430D01*
X1378000Y505130D02*
Y507670D01*
X1375460Y510210D01*
X1367840D01*
X1366570Y508940D01*
Y505130D01*
X1367840Y503860D01*
X1370380D01*
X1371650Y505130D01*
Y510210D01*
X1443350Y481408D02*
X1441233Y483525D01*
X1439117D01*
X1437000Y481408D01*
Y476117D01*
X1439117Y474000D01*
X1441233D01*
X1443350Y476117D01*
X1446525Y483525D02*
X1451817D01*
Y480350D01*
X1448642Y477175D01*
Y474000D01*
X1461342Y478233D02*
X1456050D01*
Y479292D01*
X1460283Y483525D01*
Y474000D01*
X1399310Y555970D02*
Y566130D01*
X1398040Y567400D01*
X1392960D01*
X1391690Y566130D01*
Y555970D01*
X1386610Y558510D02*
X1384070Y555970D01*
Y567400D01*
X1386610D01*
X1381530D01*
X1368830Y557240D02*
Y566130D01*
X1370100Y567400D01*
X1375180D01*
X1376450Y566130D01*
Y557240D01*
X1375180Y555970D01*
X1370100D01*
X1368830Y557240D01*
Y558510D01*
X1376450Y566130D01*
X1378592Y259350D02*
X1376475Y257233D01*
Y255117D01*
X1378592Y253000D01*
X1383883D01*
X1386000Y255117D01*
Y257233D01*
X1383883Y259350D01*
X1376475Y267817D02*
Y262525D01*
X1380708D01*
Y266758D01*
X1381767Y267817D01*
X1384942D01*
X1386000Y266758D01*
Y263583D01*
X1384942Y262525D01*
X1376475Y276283D02*
Y274167D01*
X1378592Y272050D01*
X1384942D01*
X1386000Y273108D01*
Y276283D01*
X1384942Y277342D01*
X1381767D01*
X1380708Y276283D01*
Y272050D01*
X1407408Y276650D02*
X1409525Y278767D01*
Y280883D01*
X1407408Y283000D01*
X1402117D01*
X1400000Y280883D01*
Y278767D01*
X1402117Y276650D01*
X1409525Y268183D02*
Y273475D01*
X1405292D01*
Y269242D01*
X1404233Y268183D01*
X1401058D01*
X1400000Y269242D01*
Y272417D01*
X1401058Y273475D01*
X1405292Y259717D02*
Y262892D01*
X1406350Y263950D01*
X1408467D01*
X1409525Y262892D01*
Y259717D01*
X1408467Y258658D01*
X1406350D01*
X1405292Y259717D01*
X1404233Y258658D01*
X1401058D01*
X1400000Y259717D01*
Y262892D01*
X1401058Y263950D01*
X1404233D01*
X1405292Y262892D01*
X1420592Y241350D02*
X1418475Y239233D01*
Y237117D01*
X1420592Y235000D01*
X1425883D01*
X1428000Y237117D01*
Y239233D01*
X1425883Y241350D01*
X1418475Y249817D02*
Y244525D01*
X1422708D01*
Y248758D01*
X1423767Y249817D01*
X1426942D01*
X1428000Y248758D01*
Y245583D01*
X1426942Y244525D01*
X1419533Y254050D02*
X1418475Y255108D01*
Y258283D01*
X1419533Y259342D01*
X1422708D01*
Y256167D01*
Y259342D01*
X1426942D01*
X1428000Y258283D01*
Y255108D01*
X1426942Y254050D01*
X1407408Y258650D02*
X1409525Y260767D01*
Y262883D01*
X1407408Y265000D01*
X1402117D01*
X1400000Y262883D01*
Y260767D01*
X1402117Y258650D01*
X1409525Y250183D02*
Y255475D01*
X1405292D01*
Y251242D01*
X1404233Y250183D01*
X1401058D01*
X1400000Y251242D01*
Y254417D01*
X1401058Y255475D01*
X1408467Y245950D02*
X1409525Y244892D01*
Y241717D01*
X1408467Y240658D01*
X1407408D01*
X1402117Y245950D01*
X1400000D01*
Y240658D01*
X1420592Y259350D02*
X1418475Y257233D01*
Y255117D01*
X1420592Y253000D01*
X1425883D01*
X1428000Y255117D01*
Y257233D01*
X1425883Y259350D01*
X1418475Y267817D02*
Y262525D01*
X1422708D01*
Y266758D01*
X1423767Y267817D01*
X1426942D01*
X1428000Y266758D01*
Y263583D01*
X1426942Y262525D01*
X1418475Y272050D02*
Y277342D01*
X1421650D01*
X1424825Y274167D01*
X1428000D01*
G54D201*
X372000Y238000D02*
X408000D01*
Y258000D01*
X372000D01*
Y238000D01*
Y259000D02*
X404000D01*
Y277000D01*
X372000D01*
Y259000D01*
X340000D02*
X372000D01*
Y277000D01*
X340000D01*
Y259000D01*
Y241000D02*
X372000D01*
Y259000D01*
X340000D01*
Y241000D01*
X321000Y244000D02*
X339000D01*
Y276000D01*
X321000D01*
Y244000D01*
X341500Y492000D02*
G03Y491945I-31500J0D01*
G01X322500Y479500D02*
Y469500D01*
X327500Y474500D02*
X317500D01*
X469500Y492000D02*
G03Y491945I-31500J0D01*
G01X212000Y666000D02*
X232000D01*
Y702000D01*
X212000D01*
Y666000D01*
X344000Y901000D02*
X376000D01*
Y919000D01*
X344000D01*
Y901000D01*
Y883000D02*
X376000D01*
Y901000D01*
X344000D01*
Y883000D01*
X376000D02*
X408000D01*
Y901000D01*
X376000D01*
Y883000D01*
Y902000D02*
X412000D01*
Y922000D01*
X376000D01*
Y902000D01*
X325000Y886000D02*
X343000D01*
Y918000D01*
X325000D01*
Y886000D01*
X610000Y902000D02*
X646000D01*
Y922000D01*
X610000D01*
Y902000D01*
Y883000D02*
X642000D01*
Y901000D01*
X610000D01*
Y883000D01*
X416000Y902000D02*
X452000D01*
Y922000D01*
X416000D01*
Y902000D01*
Y883000D02*
X448000D01*
Y901000D01*
X416000D01*
Y883000D01*
X569500Y668000D02*
G03Y667945I-31500J0D01*
G01X550500Y655500D02*
Y645500D01*
X555500Y650500D02*
X545500D01*
X499500Y668000D02*
G03Y667945I-31500J0D01*
G01X480500Y655500D02*
Y645500D01*
X485500Y650500D02*
X475500D01*
X450500Y479500D02*
Y469500D01*
X455500Y474500D02*
X445500D01*
X539500Y492000D02*
G03Y491945I-31500J0D01*
G01X520500Y479500D02*
Y469500D01*
X525500Y474500D02*
X515500D01*
X609500Y492000D02*
G03Y491945I-31500J0D01*
G01X590500Y479500D02*
Y469500D01*
X595500Y474500D02*
X585500D01*
X416000Y259000D02*
X448000D01*
Y277000D01*
X416000D01*
Y259000D01*
Y238000D02*
X452000D01*
Y258000D01*
X416000D01*
Y238000D01*
X598000Y240000D02*
X634000D01*
Y260000D01*
X598000D01*
Y240000D01*
X640000D02*
X676000D01*
Y260000D01*
X640000D01*
Y240000D01*
X598000Y261000D02*
X630000D01*
Y279000D01*
X598000D01*
Y261000D01*
X640000D02*
X672000D01*
Y279000D01*
X640000D01*
Y261000D01*
X680000Y243000D02*
X712000D01*
Y261000D01*
X680000D01*
Y243000D01*
Y261000D02*
X712000D01*
Y279000D01*
X680000D01*
Y261000D01*
X712000Y243000D02*
X744000D01*
Y261000D01*
X712000D01*
Y243000D01*
Y261000D02*
X744000D01*
Y279000D01*
X712000D01*
Y261000D01*
X778000Y263000D02*
X810000D01*
Y281000D01*
X778000D01*
Y263000D01*
X824000D02*
X856000D01*
Y281000D01*
X824000D01*
Y263000D01*
X870000D02*
X902000D01*
Y281000D01*
X870000D01*
Y263000D01*
X860000Y555000D02*
X892000D01*
Y573000D01*
X860000D01*
Y555000D01*
Y573000D02*
X892000D01*
Y591000D01*
X860000D01*
Y573000D01*
X761500Y492000D02*
G03Y491945I-31500J0D01*
G01X742500Y479500D02*
Y469500D01*
X747500Y474500D02*
X737500D01*
X831500Y492000D02*
G03Y491945I-31500J0D01*
G01X812500Y479500D02*
Y469500D01*
X817500Y474500D02*
X807500D01*
X672000Y647000D02*
X704000D01*
Y665000D01*
X672000D01*
Y647000D01*
Y665000D02*
X704000D01*
Y683000D01*
X672000D01*
Y665000D01*
X704000Y647000D02*
X736000D01*
Y665000D01*
X704000D01*
Y647000D01*
Y665000D02*
X736000D01*
Y683000D01*
X704000D01*
Y665000D01*
X798000Y675000D02*
X830000D01*
Y693000D01*
X798000D01*
Y675000D01*
Y657000D02*
X830000D01*
Y675000D01*
X798000D01*
Y657000D01*
X864000Y636000D02*
Y688000D01*
X896000D02*
X864000D01*
Y636000D02*
X874000D01*
X886000D02*
G03X874000I-6000J0D01*
G01X860000Y591000D02*
X892000D01*
Y609000D01*
X860000D01*
Y591000D01*
Y609000D02*
X892000D01*
Y627000D01*
X860000D01*
Y609000D01*
X652000Y902000D02*
X688000D01*
Y922000D01*
X652000D01*
Y902000D01*
Y883000D02*
X684000D01*
Y901000D01*
X652000D01*
Y883000D01*
X748000Y901000D02*
X780000D01*
Y919000D01*
X748000D01*
Y901000D01*
X716000Y883000D02*
X748000D01*
Y901000D01*
X716000D01*
Y883000D01*
X748000D02*
X780000D01*
Y901000D01*
X748000D01*
Y883000D01*
X716000Y901000D02*
X748000D01*
Y919000D01*
X716000D01*
Y901000D01*
X1052000D02*
X1084000D01*
Y919000D01*
X1052000D01*
Y901000D01*
X1084000Y902000D02*
X1120000D01*
Y922000D01*
X1084000D01*
Y902000D01*
X1052000Y883000D02*
X1084000D01*
Y901000D01*
X1052000D01*
Y883000D01*
X1084000D02*
X1116000D01*
Y901000D01*
X1084000D01*
Y883000D01*
X1033000Y884000D02*
X1051000D01*
Y916000D01*
X1033000D01*
Y884000D01*
X971000Y648000D02*
X989000D01*
Y680000D01*
X971000D01*
Y648000D01*
X989000D02*
X1007000D01*
Y680000D01*
X989000D01*
Y648000D01*
X1007000Y616000D02*
X1025000D01*
Y648000D01*
X1007000D01*
Y616000D01*
Y648000D02*
X1025000D01*
Y680000D01*
X1007000D01*
Y648000D01*
X989000Y616000D02*
X1007000D01*
Y648000D01*
X989000D01*
Y616000D01*
X992000Y591000D02*
X1024000D01*
Y609000D01*
X992000D01*
Y591000D01*
X1056000Y666000D02*
Y614000D01*
X1088000Y666000D02*
Y614000D01*
X1056000D02*
X1088000D01*
Y666000D02*
X1078000D01*
X1066000D02*
X1056000D01*
X1066000D02*
G03X1078000I6000J0D01*
G01X1024000Y591000D02*
X1056000D01*
Y609000D01*
X1024000D01*
Y591000D01*
X1056000D02*
X1088000D01*
Y609000D01*
X1056000D01*
Y591000D01*
X1088000D02*
X1120000D01*
Y609000D01*
X1088000D01*
Y591000D01*
X896000Y636000D02*
Y688000D01*
X886000Y636000D02*
X896000D01*
X1087000Y548000D02*
X1105000D01*
Y580000D01*
X1087000D01*
Y548000D01*
X946000Y601000D02*
X978000D01*
Y619000D01*
X946000D01*
Y601000D01*
X908000Y600000D02*
X944000D01*
Y620000D01*
X908000D01*
Y600000D01*
X1105000Y548000D02*
X1123000D01*
Y580000D01*
X1105000D01*
Y548000D01*
X914000Y501000D02*
X946000D01*
Y519000D01*
X914000D01*
Y501000D01*
Y555000D02*
X946000D01*
Y573000D01*
X914000D01*
Y555000D01*
Y537000D02*
X946000D01*
Y555000D01*
X914000D01*
Y537000D01*
Y519000D02*
X946000D01*
Y537000D01*
X914000D01*
Y519000D01*
X882000Y483000D02*
X914000D01*
Y501000D01*
X882000D01*
Y483000D01*
Y501000D02*
X914000D01*
Y519000D01*
X882000D01*
Y501000D01*
Y519000D02*
X914000D01*
Y537000D01*
X882000D01*
Y519000D01*
Y537000D02*
X914000D01*
Y555000D01*
X882000D01*
Y537000D01*
X914000Y483000D02*
X946000D01*
Y501000D01*
X914000D01*
Y483000D01*
X1091000Y496000D02*
X1109000D01*
Y528000D01*
X1091000D01*
Y496000D01*
X1092000Y529000D02*
X1124000D01*
Y547000D01*
X1092000D01*
Y529000D01*
X1109000Y496000D02*
X1127000D01*
Y528000D01*
X1109000D01*
Y496000D01*
X946000Y483000D02*
X978000D01*
Y501000D01*
X946000D01*
Y483000D01*
X1046000Y241000D02*
X1078000D01*
Y259000D01*
X1046000D01*
Y241000D01*
Y259000D02*
X1078000D01*
Y277000D01*
X1046000D01*
Y259000D01*
X1078000Y238000D02*
X1114000D01*
Y258000D01*
X1078000D01*
Y238000D01*
Y259000D02*
X1110000D01*
Y277000D01*
X1078000D01*
Y259000D01*
X1027000Y242000D02*
X1045000D01*
Y274000D01*
X1027000D01*
Y242000D01*
X1304000Y238000D02*
X1340000D01*
Y258000D01*
X1304000D01*
Y238000D01*
X1340000D02*
X1376000D01*
Y258000D01*
X1340000D01*
Y238000D01*
X1304000Y259000D02*
X1336000D01*
Y277000D01*
X1304000D01*
Y259000D01*
X1340000D02*
X1372000D01*
Y277000D01*
X1340000D01*
Y259000D01*
X1122000Y238000D02*
X1158000D01*
Y258000D01*
X1122000D01*
Y238000D01*
Y259000D02*
X1154000D01*
Y277000D01*
X1122000D01*
Y259000D01*
X1220000Y574000D02*
X1272000D01*
Y606000D01*
X1220000Y584000D02*
Y574000D01*
X1133000Y548000D02*
X1151000D01*
Y580000D01*
X1133000D01*
Y548000D01*
X1128000Y496000D02*
X1148000D01*
Y532000D01*
X1128000D01*
Y496000D01*
X1285000Y480000D02*
X1303000D01*
Y512000D01*
X1285000D01*
Y480000D01*
X1339000D02*
X1357000D01*
Y512000D01*
X1339000D01*
Y480000D01*
X1321000D02*
X1339000D01*
Y512000D01*
X1321000D01*
Y480000D01*
X1303000D02*
X1321000D01*
Y512000D01*
X1303000D01*
Y480000D01*
X1354000Y584000D02*
G03Y596000I0J6000D01*
G01X1220000Y606000D02*
X1272000D01*
X1220000D02*
Y596000D01*
Y584000D02*
G03Y596000I0J6000D01*
G01X1120000Y591000D02*
X1152000D01*
Y609000D01*
X1120000D01*
Y591000D01*
X1139000Y618000D02*
X1157000D01*
Y650000D01*
X1139000D01*
Y618000D01*
X1121000Y650000D02*
X1139000D01*
Y682000D01*
X1121000D01*
Y650000D01*
X1157000D02*
X1175000D01*
Y682000D01*
X1157000D01*
Y650000D01*
X1139000D02*
X1157000D01*
Y682000D01*
X1139000D01*
Y650000D01*
X1121000Y618000D02*
X1139000D01*
Y650000D01*
X1121000D01*
Y618000D01*
X1195000Y632000D02*
X1213000D01*
Y664000D01*
X1195000D01*
Y632000D01*
X1309000Y636000D02*
X1327000D01*
Y668000D01*
X1309000D01*
Y636000D01*
X1124000Y902000D02*
X1160000D01*
Y922000D01*
X1124000D01*
Y902000D01*
Y883000D02*
X1156000D01*
Y901000D01*
X1124000D01*
Y883000D01*
X1336000Y902000D02*
X1372000D01*
Y922000D01*
X1336000D01*
Y902000D01*
X1300000D02*
X1336000D01*
Y922000D01*
X1300000D01*
Y902000D01*
X1336000Y883000D02*
X1368000D01*
Y901000D01*
X1336000D01*
Y883000D01*
X1300000D02*
X1332000D01*
Y901000D01*
X1300000D01*
Y883000D01*
X1418000Y903000D02*
X1450000D01*
Y921000D01*
X1418000D01*
Y903000D01*
X1386000Y885000D02*
X1418000D01*
Y903000D01*
X1386000D01*
Y885000D01*
X1418000D02*
X1450000D01*
Y903000D01*
X1418000D01*
Y885000D01*
X1386000Y903000D02*
X1418000D01*
Y921000D01*
X1386000D01*
Y903000D01*
X1476000Y596000D02*
X1528000D01*
Y564000D02*
Y596000D01*
X1476000D02*
Y586000D01*
Y574000D02*
G03Y586000I0J6000D01*
G01X1354000Y606000D02*
X1406000D01*
Y574000D02*
Y606000D01*
X1354000D02*
Y596000D01*
Y584000D02*
Y574000D01*
X1431000Y646000D02*
X1449000D01*
Y678000D01*
X1431000D01*
Y646000D01*
X1476000Y564000D02*
X1528000D01*
X1476000Y574000D02*
Y564000D01*
X1354000Y574000D02*
X1406000D01*
X1442000Y486000D02*
X1462000D01*
Y522000D01*
X1442000D01*
Y486000D01*
X1414000Y259000D02*
X1446000D01*
Y277000D01*
X1414000D01*
Y259000D01*
X1382000Y241000D02*
X1414000D01*
Y259000D01*
X1382000D01*
Y241000D01*
X1414000D02*
X1446000D01*
Y259000D01*
X1414000D01*
Y241000D01*
X1382000Y259000D02*
X1414000D01*
Y277000D01*
X1382000D01*
Y259000D01*
G54D202*
X310000Y523500D02*
G03Y460500I0J-31500D01*
X438000Y523500D02*
G03Y460500I0J-31500D01*
X538000Y699500D02*
G03Y636500I0J-31500D01*
X468000Y699500D02*
G03Y636500I0J-31500D01*
X508000Y523500D02*
G03Y460500I0J-31500D01*
X578000Y523500D02*
G03Y460500I0J-31500D01*
X730000Y523500D02*
G03Y460500I0J-31500D01*
X800000Y523500D02*
G03Y460500I0J-31500D01*
G54D100*
G01X172000Y124187D02*
X175387Y120800D01*
X188933D01*
X192320Y124187D01*
Y127573D01*
X188933Y130960D01*
X175387D01*
X172000Y134347D01*
Y137733D01*
X175387Y141120D01*
X188933D01*
X192320Y137733D01*
X222800D02*
X219413Y141120D01*
X209253D01*
X205867Y137733D01*
Y124187D01*
X209253Y120800D01*
X219413D01*
X222800Y124187D01*
X253280Y141120D02*
Y120800D01*
Y124187D01*
X249893Y120800D01*
X239733D01*
X236347Y124187D01*
Y137733D01*
X239733Y141120D01*
X249893D01*
X253280Y137733D01*
X266827Y120800D02*
Y141120D01*
Y137733D01*
X270213Y141120D01*
X280373D01*
X283760Y137733D01*
X304080Y147893D02*
Y124187D01*
X307467Y120800D01*
X297307Y141120D02*
X310853D01*
X327787Y134347D02*
X344720D01*
X354880Y120800D02*
Y141120D01*
X361653D01*
X365040Y137733D01*
X368427Y141120D01*
X371813D01*
X375200Y137733D01*
Y120800D01*
X365040Y137733D02*
Y124187D01*
X402293Y141120D02*
Y120800D01*
Y124187D01*
X398907Y120800D01*
X392133D01*
X388747Y124187D01*
Y141120D01*
X415840D02*
X436160Y120800D01*
X415840D02*
X436160Y141120D01*
X172000Y73387D02*
X175387Y70000D01*
X188933D01*
X192320Y73387D01*
Y83547D01*
X188933Y86933D01*
X175387D01*
X172000Y90320D01*
Y97093D01*
X175387Y100480D01*
X188933D01*
X192320Y97093D01*
X212640D02*
D01*
Y90320D02*
Y70000D01*
X243120Y100480D02*
Y70000D01*
X239733D02*
X246507D01*
X266827Y100480D02*
Y70000D01*
X280373Y90320D02*
X270213Y80160D01*
X280373Y70000D02*
X266827Y83547D01*
X293920Y73387D02*
X297307Y70000D01*
X310853D01*
X314240Y73387D01*
Y76773D01*
X310853Y80160D01*
X297307D01*
X293920Y83547D01*
Y86933D01*
X297307Y90320D01*
X310853D01*
X314240Y86933D01*
X344720D02*
X341333Y90320D01*
X331173D01*
X327787Y86933D01*
Y73387D01*
X331173Y70000D01*
X341333D01*
X344720Y73387D01*
X358267Y70000D02*
Y90320D01*
Y86933D01*
X361653Y90320D01*
X371813D01*
X375200Y86933D01*
X405680Y73387D02*
X402293Y70000D01*
X392133D01*
X388747Y73387D01*
Y86933D01*
X392133Y90320D01*
X402293D01*
X405680Y86933D01*
Y83547D01*
X402293Y80160D01*
X388747D01*
X436160Y73387D02*
X432773Y70000D01*
X422613D01*
X419227Y73387D01*
Y86933D01*
X422613Y90320D01*
X432773D01*
X436160Y86933D01*
Y83547D01*
X432773Y80160D01*
X419227D01*
X449707Y70000D02*
Y90320D01*
Y86933D01*
X453093Y90320D01*
X463253D01*
X466640Y86933D01*
Y70000D01*
X517440Y97093D02*
Y73387D01*
X520827Y70000D01*
X510667Y90320D02*
X524213D01*
X541147Y73387D02*
Y86933D01*
X544533Y90320D01*
X554693D01*
X558080Y86933D01*
Y73387D01*
X554693Y70000D01*
X544533D01*
X541147Y73387D01*
X571627Y59840D02*
Y90320D01*
Y86933D01*
X575013Y90320D01*
X585173D01*
X588560Y86933D01*
Y73387D01*
X585173Y70000D01*
X575013D01*
X571627Y73387D01*
X632587Y70000D02*
Y90320D01*
Y86933D01*
X635973Y90320D01*
X646133D01*
X649520Y86933D01*
X680000Y73387D02*
X676613Y70000D01*
X666453D01*
X663067Y73387D01*
Y86933D01*
X666453Y90320D01*
X676613D01*
X680000Y86933D01*
Y83547D01*
X676613Y80160D01*
X663067D01*
X707093Y97093D02*
X703707Y100480D01*
X696933D01*
X693547Y97093D01*
Y70000D01*
X690160Y86933D02*
X696933D01*
X690160Y70000D02*
X696933D01*
X720640Y73387D02*
X724027Y70000D01*
X737573D01*
X740960Y73387D01*
Y76773D01*
X737573Y80160D01*
X724027D01*
X720640Y83547D01*
Y86933D01*
X724027Y90320D01*
X737573D01*
X740960Y86933D01*
X761280Y100480D02*
X768053Y93707D01*
Y76773D01*
X761280Y70000D01*
X172000Y25973D02*
Y22587D01*
X175387Y19200D01*
X182160D01*
X188933D01*
Y49680D01*
X182160D02*
X188933D01*
X219413Y39520D02*
Y19200D01*
Y22587D01*
X216027Y19200D01*
X209253D01*
X205867Y22587D01*
Y39520D01*
X243120Y49680D02*
Y19200D01*
X239733D02*
X246507D01*
X266827Y39520D02*
Y22587D01*
X270213Y19200D01*
X283760D01*
Y39520D01*
Y12427D01*
X280373Y9040D01*
X270213D01*
X327787Y42907D02*
X334560Y49680D01*
Y19200D01*
X327787D01*
X341333D01*
X358267Y42907D02*
X365040Y49680D01*
Y19200D01*
X358267D01*
X371813D01*
X395520Y12427D02*
X398907Y15813D01*
Y22587D01*
X395520D01*
Y19200D01*
X398907D01*
X446320Y46293D02*
X449707Y49680D01*
X459867D01*
X463253Y46293D01*
Y42907D01*
X446320Y25973D01*
Y19200D01*
X463253D01*
X497120Y46293D02*
Y22587D01*
X493733Y19200D01*
X480187D01*
X476800Y22587D01*
Y46293D01*
X480187Y49680D01*
X493733D01*
X497120Y46293D01*
Y42907D01*
X476800Y22587D01*
X510667Y42907D02*
X517440Y49680D01*
Y19200D01*
X510667D01*
X524213D01*
X551307Y49680D02*
X544533D01*
X537760Y42907D01*
Y22587D01*
X541147Y19200D01*
X551307D01*
X554693Y22587D01*
Y32747D01*
X551307Y36133D01*
X537760D01*
X598720Y46293D02*
X602107Y49680D01*
X612267D01*
X615653Y46293D01*
Y42907D01*
X598720Y25973D01*
Y19200D01*
X615653D01*
X632587Y42907D02*
X639360Y49680D01*
Y19200D01*
X632587D01*
X646133D01*
X673227Y39520D02*
Y42907D01*
X669840D01*
Y39520D01*
X673227D01*
Y25973D02*
Y29360D01*
X669840D01*
Y25973D01*
X673227D01*
X710480Y46293D02*
Y22587D01*
X707093Y19200D01*
X693547D01*
X690160Y22587D01*
Y46293D01*
X693547Y49680D01*
X707093D01*
X710480Y46293D01*
Y42907D01*
X690160Y22587D01*
X737573Y32747D02*
X720640D01*
Y36133D01*
X734187Y49680D01*
Y19200D01*
X764667Y39520D02*
Y42907D01*
X761280D01*
Y39520D01*
X764667D01*
Y25973D02*
Y29360D01*
X761280D01*
Y25973D01*
X764667D01*
X781600Y46293D02*
X784987Y49680D01*
X795147D01*
X798533Y46293D01*
Y36133D01*
X788373D01*
X798533D01*
Y22587D01*
X795147Y19200D01*
X784987D01*
X781600Y22587D01*
X815467Y19200D02*
X822240D01*
X829013Y25973D01*
Y46293D01*
X825627Y49680D01*
X815467D01*
X812080Y46293D01*
Y39520D01*
X815467Y36133D01*
X829013D01*
M02*
