G04 SilkscreenBottomRefs *
G04 Layout scart-mux.pcb *
G04 Designed with PCB elegance 3.51 *
G04 *
G04 *
%FSLAX34Y34*%
%MOMM*%
G75*
G01*
%IPPOS*%
%ADD100C,0.2000*%
G54D100*
X802000Y306000D02*
Y334000D01*
X932000Y306000D02*
X802000D01*
X1136000Y293270D02*
X1134730Y292000D01*
X1129650D01*
X1128380Y293270D01*
Y297080D01*
X1129650Y298350D01*
X1134730D01*
X1136000Y299620D01*
Y302160D01*
X1134730Y303430D01*
X1129650D01*
X1128380Y302160D01*
X1124570Y303430D02*
Y293270D01*
X1123300Y292000D01*
X1120760Y294540D01*
X1118220Y292000D01*
X1116950Y293270D01*
Y303430D01*
X1111870Y300890D02*
X1109330Y303430D01*
Y292000D01*
X1111870D01*
X1106790D01*
X1134730Y284126D02*
X1132190Y286666D01*
Y275236D01*
X1134730D01*
X1129650D01*
X1120760D02*
X1119490D01*
Y276506D01*
X1120760D01*
Y275236D01*
X1101710Y276506D02*
X1100440Y275236D01*
X1095360D01*
X1094090Y276506D01*
Y280316D01*
X1095360Y281586D01*
X1100440D01*
X1101710Y282856D01*
Y285396D01*
X1100440Y286666D01*
X1095360D01*
X1094090Y285396D01*
X1090280Y286666D02*
Y276506D01*
X1089010Y275236D01*
X1086470Y277776D01*
X1083930Y275236D01*
X1082660Y276506D01*
Y286666D01*
X1076310Y275236D02*
X1073770D01*
X1075040D02*
Y286666D01*
X1076310D02*
X1073770D01*
X1067420D02*
X1059800D01*
X1063610D02*
Y275236D01*
X1048370Y284126D02*
X1050910Y286666D01*
X1053450D01*
X1055990Y284126D01*
Y277776D01*
X1053450Y275236D01*
X1050910D01*
X1048370Y277776D01*
X1044560Y275236D02*
Y286666D01*
Y281586D02*
X1036940D01*
Y275236D02*
Y286666D01*
X1030590Y275236D02*
X1028050D01*
X1029320D02*
Y286666D01*
X1030590D02*
X1028050D01*
X1021700Y275236D02*
Y286666D01*
X1014080Y275236D01*
Y286666D01*
X1002650Y285396D02*
X1003920Y286666D01*
X1007730D01*
X1010270Y284126D01*
Y277776D01*
X1007730Y275236D01*
X1003920D01*
X1002650Y276506D01*
Y280316D01*
X1006460D01*
X987410Y286666D02*
Y279046D01*
X983600Y275236D01*
X979790Y279046D01*
Y286666D01*
X975980Y276506D02*
X974710Y275236D01*
X969630D01*
X968360Y276506D01*
Y285396D01*
X969630Y286666D01*
X974710D01*
X975980Y285396D01*
Y276506D01*
X964550Y286666D02*
Y275236D01*
X956930D01*
X953120Y286666D02*
X945500D01*
X949310D02*
Y275236D01*
X941690D02*
Y282856D01*
X937880Y286666D01*
X934070Y282856D01*
Y280316D01*
X941690D01*
X934070D01*
Y275236D01*
X922640Y285396D02*
X923910Y286666D01*
X927720D01*
X930260Y284126D01*
Y277776D01*
X927720Y275236D01*
X923910D01*
X922640Y276506D01*
Y280316D01*
X926450D01*
X911210Y286666D02*
X918830D01*
Y275236D01*
X911210D01*
X918830Y281586D02*
X913750D01*
X895970Y276506D02*
X894700Y275236D01*
X889620D01*
X888350Y276506D01*
Y285396D01*
X889620Y286666D01*
X894700D01*
X895970Y285396D01*
Y276506D01*
X884540Y286666D02*
Y276506D01*
X883270Y275236D01*
X878190D01*
X876920Y276506D01*
Y286666D01*
X873110D02*
X865490D01*
X869300D02*
Y275236D01*
X861680D02*
Y286666D01*
X855330D01*
X854060Y285396D01*
Y282856D01*
X855330Y281586D01*
X861680D01*
X850250Y286666D02*
Y276506D01*
X848980Y275236D01*
X843900D01*
X842630Y276506D01*
Y286666D01*
X838820D02*
X831200D01*
X835010D02*
Y275236D01*
X814690Y284126D02*
X812150Y286666D01*
Y275236D01*
X814690D01*
X809610D01*
X793100Y276506D02*
X791830Y275236D01*
X786750D01*
X785480Y276506D01*
Y285396D01*
X786750Y286666D01*
X791830D01*
X793100Y285396D01*
Y276506D01*
X781670Y275236D02*
Y286666D01*
X774050Y275236D01*
Y286666D01*
X770240Y275236D02*
X762620Y284126D01*
X758810Y276506D02*
X757540Y275236D01*
X752460D01*
X751190Y276506D01*
Y285396D01*
X752460Y286666D01*
X757540D01*
X758810Y285396D01*
Y276506D01*
X739760Y286666D02*
X747380D01*
Y275236D01*
Y281586D02*
X742300D01*
X728330Y286666D02*
X735950D01*
Y275236D01*
Y281586D02*
X730870D01*
X1136000Y268632D02*
X1134730Y269902D01*
X1130920D01*
X1129650Y268632D01*
Y267362D01*
X1136000Y261012D01*
Y258472D01*
X1129650D01*
X1120760D02*
X1119490D01*
Y259742D01*
X1120760D01*
Y258472D01*
X1101710Y259742D02*
X1100440Y258472D01*
X1095360D01*
X1094090Y259742D01*
Y263552D01*
X1095360Y264822D01*
X1100440D01*
X1101710Y266092D01*
Y268632D01*
X1100440Y269902D01*
X1095360D01*
X1094090Y268632D01*
X1090280Y269902D02*
Y259742D01*
X1089010Y258472D01*
X1086470Y261012D01*
X1083930Y258472D01*
X1082660Y259742D01*
Y269902D01*
X1076310Y258472D02*
X1073770D01*
X1075040D02*
Y269902D01*
X1076310D02*
X1073770D01*
X1067420D02*
X1059800D01*
X1063610D02*
Y258472D01*
X1048370Y267362D02*
X1050910Y269902D01*
X1053450D01*
X1055990Y267362D01*
Y261012D01*
X1053450Y258472D01*
X1050910D01*
X1048370Y261012D01*
X1044560Y258472D02*
Y269902D01*
Y264822D02*
X1036940D01*
Y258472D02*
Y269902D01*
X1030590Y258472D02*
X1028050D01*
X1029320D02*
Y269902D01*
X1030590D02*
X1028050D01*
X1021700Y258472D02*
Y269902D01*
X1014080Y258472D01*
Y269902D01*
X1002650Y268632D02*
X1003920Y269902D01*
X1007730D01*
X1010270Y267362D01*
Y261012D01*
X1007730Y258472D01*
X1003920D01*
X1002650Y259742D01*
Y263552D01*
X1006460D01*
X987410Y269902D02*
Y262282D01*
X983600Y258472D01*
X979790Y262282D01*
Y269902D01*
X975980Y259742D02*
X974710Y258472D01*
X969630D01*
X968360Y259742D01*
Y268632D01*
X969630Y269902D01*
X974710D01*
X975980Y268632D01*
Y259742D01*
X964550Y269902D02*
Y258472D01*
X956930D01*
X953120Y269902D02*
X945500D01*
X949310D02*
Y258472D01*
X941690D02*
Y266092D01*
X937880Y269902D01*
X934070Y266092D01*
Y263552D01*
X941690D01*
X934070D01*
Y258472D01*
X922640Y268632D02*
X923910Y269902D01*
X927720D01*
X930260Y267362D01*
Y261012D01*
X927720Y258472D01*
X923910D01*
X922640Y259742D01*
Y263552D01*
X926450D01*
X911210Y269902D02*
X918830D01*
Y258472D01*
X911210D01*
X918830Y264822D02*
X913750D01*
X895970Y259742D02*
X894700Y258472D01*
X889620D01*
X888350Y259742D01*
Y268632D01*
X889620Y269902D01*
X894700D01*
X895970Y268632D01*
Y259742D01*
X884540Y269902D02*
Y259742D01*
X883270Y258472D01*
X878190D01*
X876920Y259742D01*
Y269902D01*
X873110D02*
X865490D01*
X869300D02*
Y258472D01*
X861680D02*
Y269902D01*
X855330D01*
X854060Y268632D01*
Y266092D01*
X855330Y264822D01*
X861680D01*
X850250Y269902D02*
Y259742D01*
X848980Y258472D01*
X843900D01*
X842630Y259742D01*
Y269902D01*
X838820D02*
X831200D01*
X835010D02*
Y258472D01*
X815960Y268632D02*
X814690Y269902D01*
X810880D01*
X809610Y268632D01*
Y267362D01*
X815960Y261012D01*
Y258472D01*
X809610D01*
X793100Y259742D02*
X791830Y258472D01*
X786750D01*
X785480Y259742D01*
Y268632D01*
X786750Y269902D01*
X791830D01*
X793100Y268632D01*
Y259742D01*
X781670Y258472D02*
Y269902D01*
X774050Y258472D01*
Y269902D01*
X770240Y258472D02*
X762620Y267362D01*
X758810Y259742D02*
X757540Y258472D01*
X752460D01*
X751190Y259742D01*
Y268632D01*
X752460Y269902D01*
X757540D01*
X758810Y268632D01*
Y259742D01*
X739760Y269902D02*
X747380D01*
Y258472D01*
Y264822D02*
X742300D01*
X728330Y269902D02*
X735950D01*
Y258472D01*
Y264822D02*
X730870D01*
X1136000Y251868D02*
X1134730Y253138D01*
X1130920D01*
X1129650Y251868D01*
Y248058D01*
X1133460D01*
X1129650D01*
Y242978D01*
X1130920Y241708D01*
X1134730D01*
X1136000Y242978D01*
X1120760Y241708D02*
X1119490D01*
Y242978D01*
X1120760D01*
Y241708D01*
X1101710D02*
Y253138D01*
X1097900Y249328D01*
X1094090Y253138D01*
Y241708D01*
X1090280Y242978D02*
X1089010Y241708D01*
X1083930D01*
X1082660Y242978D01*
Y251868D01*
X1083930Y253138D01*
X1089010D01*
X1090280Y251868D01*
Y242978D01*
X1078850Y253138D02*
X1073770D01*
X1071230Y250598D01*
Y244248D01*
X1073770Y241708D01*
X1078850D01*
X1077580Y253138D02*
Y241708D01*
X1059800Y253138D02*
X1067420D01*
Y241708D01*
X1059800D01*
X1067420Y248058D02*
X1062340D01*
X1050910Y249328D02*
Y250598D01*
X1052180D01*
Y249328D01*
X1050910D01*
Y244248D02*
Y245518D01*
X1052180D01*
Y244248D01*
X1050910D01*
X1028050Y253138D02*
X1030590Y250598D01*
Y244248D01*
X1028050Y241708D01*
X1021700Y242978D02*
X1020430Y241708D01*
X1015350D01*
X1014080Y242978D01*
Y251868D01*
X1015350Y253138D01*
X1020430D01*
X1021700Y251868D01*
Y242978D01*
X1010270Y241708D02*
Y253138D01*
X1002650Y241708D01*
Y253138D01*
X995030D02*
X992490Y250598D01*
Y244248D01*
X995030Y241708D01*
X979790Y253138D02*
X987410D01*
Y241708D01*
Y248058D02*
X982330D01*
X972170Y241708D02*
X970900D01*
Y242978D01*
X972170D01*
Y241708D01*
X956930Y250598D02*
X959470Y253138D01*
X962010D01*
X964550Y250598D01*
Y244248D01*
X962010Y241708D01*
X959470D01*
X956930Y244248D01*
X949310Y241708D02*
X948040D01*
Y242978D01*
X949310D01*
Y241708D01*
X934070Y253138D02*
X941690D01*
Y241708D01*
Y248058D02*
X936610D01*
X926450Y241708D02*
X925180D01*
Y242978D01*
X926450D01*
Y241708D01*
X918830Y242978D02*
X917560Y241708D01*
X912480D01*
X911210Y242978D01*
Y246788D01*
X912480Y248058D01*
X917560D01*
X918830Y249328D01*
Y251868D01*
X917560Y253138D01*
X912480D01*
X911210Y251868D01*
X903590Y241708D02*
X902320D01*
Y242978D01*
X903590D01*
Y241708D01*
X892160Y239168D02*
X890890Y240438D01*
Y242978D01*
X892160D01*
Y241708D01*
X890890D01*
X868030Y253138D02*
X870570Y250598D01*
Y244248D01*
X868030Y241708D01*
X861680Y242978D02*
X860410Y241708D01*
X855330D01*
X854060Y242978D01*
Y251868D01*
X855330Y253138D01*
X860410D01*
X861680Y251868D01*
Y242978D01*
X842630Y253138D02*
X850250D01*
Y241708D01*
Y248058D02*
X845170D01*
X831200Y253138D02*
X838820D01*
Y241708D01*
Y248058D02*
X833740D01*
X823580Y253138D02*
X821040Y250598D01*
Y244248D01*
X823580Y241708D01*
X815960D02*
Y253138D01*
X809610D01*
X808340Y251868D01*
Y249328D01*
X809610Y248058D01*
X815960D01*
X814690D02*
X808340Y241708D01*
X804530D02*
Y249328D01*
X800720Y253138D01*
X796910Y249328D01*
Y246788D01*
X804530D01*
X796910D01*
Y241708D01*
X793100D02*
Y253138D01*
X785480Y241708D01*
Y253138D01*
X781670Y241708D02*
Y253138D01*
X774050D02*
X781670Y248058D01*
X774050Y241708D01*
X758810D02*
Y253138D01*
X752460D01*
X751190Y251868D01*
Y249328D01*
X752460Y248058D01*
X758810D01*
X747380Y241708D02*
Y253138D01*
X741030D01*
X739760Y251868D01*
Y249328D01*
X741030Y248058D01*
X747380D01*
X746110D02*
X739760Y241708D01*
X733410D02*
X730870D01*
X732140D02*
Y253138D01*
X733410D02*
X730870D01*
X724520Y242978D02*
X723250Y241708D01*
X718170D01*
X716900Y242978D01*
Y251868D01*
X718170Y253138D01*
X723250D01*
X724520Y251868D01*
Y242978D01*
X713090Y241708D02*
Y253138D01*
X706740D01*
X705470Y251868D01*
Y249328D01*
X706740Y248058D01*
X713090D01*
X711820D02*
X705470Y241708D01*
X699120D02*
X696580D01*
X697850D02*
Y253138D01*
X699120D02*
X696580D01*
X690230D02*
X682610D01*
X686420D02*
Y241708D01*
X678800Y253138D02*
X674990Y249328D01*
X671180Y253138D01*
X674990Y249328D02*
Y241708D01*
X1129650Y230024D02*
X1136000D01*
Y231294D01*
X1130920Y236374D01*
Y224944D01*
X1120760D02*
X1119490D01*
Y226214D01*
X1120760D01*
Y224944D01*
X1099170D02*
X1096630D01*
X1097900D02*
Y236374D01*
X1099170D02*
X1096630D01*
X1090280D02*
X1085200D01*
X1082660Y233834D01*
Y227484D01*
X1085200Y224944D01*
X1090280D01*
X1089010Y236374D02*
Y224944D01*
X1078850Y236374D02*
Y224944D01*
X1071230D01*
X1059800Y236374D02*
X1067420D01*
Y224944D01*
X1059800D01*
X1067420Y231294D02*
X1062340D01*
X1050910Y232564D02*
Y233834D01*
X1052180D01*
Y232564D01*
X1050910D01*
Y227484D02*
Y228754D01*
X1052180D01*
Y227484D01*
X1050910D01*
X1028050Y236374D02*
X1030590Y233834D01*
Y227484D01*
X1028050Y224944D01*
X1021700Y226214D02*
X1020430Y224944D01*
X1015350D01*
X1014080Y226214D01*
Y235104D01*
X1015350Y236374D01*
X1020430D01*
X1021700Y235104D01*
Y226214D01*
X1010270Y224944D02*
Y236374D01*
X1002650Y224944D01*
Y236374D01*
X995030D02*
X992490Y233834D01*
Y227484D01*
X995030Y224944D01*
X987410Y236374D02*
X983600Y232564D01*
X979790Y236374D01*
X983600Y232564D02*
Y224944D01*
X968360Y236374D02*
X975980D01*
Y224944D01*
X968360D01*
X975980Y231294D02*
X970900D01*
X964550Y226214D02*
X963280Y224944D01*
X958200D01*
X956930Y226214D01*
Y230024D01*
X958200Y231294D01*
X963280D01*
X964550Y232564D01*
Y235104D01*
X963280Y236374D01*
X958200D01*
X956930Y235104D01*
X949310Y222404D02*
X948040Y223674D01*
Y226214D01*
X949310D01*
Y224944D01*
X948040D01*
X925180Y236374D02*
X927720Y233834D01*
Y227484D01*
X925180Y224944D01*
X918830Y226214D02*
X917560Y224944D01*
X912480D01*
X911210Y226214D01*
Y235104D01*
X912480Y236374D01*
X917560D01*
X918830Y235104D01*
Y226214D01*
X899780Y236374D02*
X907400D01*
Y224944D01*
Y231294D02*
X902320D01*
X888350Y236374D02*
X895970D01*
Y224944D01*
Y231294D02*
X890890D01*
X880730Y236374D02*
X878190Y233834D01*
Y227484D01*
X880730Y224944D01*
X873110D02*
Y236374D01*
X865490Y224944D01*
Y236374D01*
X854060D02*
X861680D01*
Y224944D01*
X854060D01*
X861680Y231294D02*
X856600D01*
X850250Y236374D02*
Y228754D01*
X846440Y224944D01*
X842630Y228754D01*
Y236374D01*
X831200D02*
X838820D01*
Y224944D01*
X831200D01*
X838820Y231294D02*
X833740D01*
X827390Y224944D02*
Y236374D01*
X821040D01*
X819770Y235104D01*
Y232564D01*
X821040Y231294D01*
X827390D01*
X826120D02*
X819770Y224944D01*
X802000Y334000D02*
X932000D01*
X1017000Y577430D02*
X1009380D01*
X1013190D02*
Y566000D01*
X1005570D02*
Y577430D01*
X999220D01*
X997950Y576160D01*
Y573620D01*
X999220Y572350D01*
X1005570D01*
X994140Y576160D02*
X992870Y577430D01*
X989060D01*
X987790Y576160D01*
Y574890D01*
X994140Y568540D01*
Y566000D01*
X987790D01*
X966000Y641000D02*
G03X966019I0J-11000D01*
G01X970000Y592000D02*
Y603430D01*
X966190Y599620D01*
X962380Y603430D01*
Y592000D01*
X1017000Y551430D02*
X1009380D01*
X1013190D02*
Y540000D01*
X1005570D02*
Y551430D01*
X999220D01*
X997950Y550160D01*
Y547620D01*
X999220Y546350D01*
X1005570D01*
X992870Y548890D02*
X990330Y551430D01*
Y540000D01*
X992870D01*
X987790D01*
X966000Y577000D02*
G03X966019I0J-11000D01*
G01X932000Y334000D02*
Y306000D01*
X918000Y332000D02*
G03X918021I0J-12000D01*
G54D100*
G01X172000Y124187D02*
X175387Y120800D01*
X188933D01*
X192320Y124187D01*
Y127573D01*
X188933Y130960D01*
X175387D01*
X172000Y134347D01*
Y137733D01*
X175387Y141120D01*
X188933D01*
X192320Y137733D01*
X222800D02*
X219413Y141120D01*
X209253D01*
X205867Y137733D01*
Y124187D01*
X209253Y120800D01*
X219413D01*
X222800Y124187D01*
X253280Y141120D02*
Y120800D01*
Y124187D01*
X249893Y120800D01*
X239733D01*
X236347Y124187D01*
Y137733D01*
X239733Y141120D01*
X249893D01*
X253280Y137733D01*
X266827Y120800D02*
Y141120D01*
Y137733D01*
X270213Y141120D01*
X280373D01*
X283760Y137733D01*
X304080Y147893D02*
Y124187D01*
X307467Y120800D01*
X297307Y141120D02*
X310853D01*
X327787Y134347D02*
X344720D01*
X354880Y120800D02*
Y141120D01*
X361653D01*
X365040Y137733D01*
X368427Y141120D01*
X371813D01*
X375200Y137733D01*
Y120800D01*
X365040Y137733D02*
Y124187D01*
X402293Y141120D02*
Y120800D01*
Y124187D01*
X398907Y120800D01*
X392133D01*
X388747Y124187D01*
Y141120D01*
X415840D02*
X436160Y120800D01*
X415840D02*
X436160Y141120D01*
X172000Y73387D02*
X175387Y70000D01*
X188933D01*
X192320Y73387D01*
Y83547D01*
X188933Y86933D01*
X175387D01*
X172000Y90320D01*
Y97093D01*
X175387Y100480D01*
X188933D01*
X192320Y97093D01*
X212640D02*
D01*
Y90320D02*
Y70000D01*
X243120Y100480D02*
Y70000D01*
X239733D02*
X246507D01*
X266827Y100480D02*
Y70000D01*
X280373Y90320D02*
X270213Y80160D01*
X280373Y70000D02*
X266827Y83547D01*
X293920Y73387D02*
X297307Y70000D01*
X310853D01*
X314240Y73387D01*
Y76773D01*
X310853Y80160D01*
X297307D01*
X293920Y83547D01*
Y86933D01*
X297307Y90320D01*
X310853D01*
X314240Y86933D01*
X344720D02*
X341333Y90320D01*
X331173D01*
X327787Y86933D01*
Y73387D01*
X331173Y70000D01*
X341333D01*
X344720Y73387D01*
X358267Y70000D02*
Y90320D01*
Y86933D01*
X361653Y90320D01*
X371813D01*
X375200Y86933D01*
X405680Y73387D02*
X402293Y70000D01*
X392133D01*
X388747Y73387D01*
Y86933D01*
X392133Y90320D01*
X402293D01*
X405680Y86933D01*
Y83547D01*
X402293Y80160D01*
X388747D01*
X436160Y73387D02*
X432773Y70000D01*
X422613D01*
X419227Y73387D01*
Y86933D01*
X422613Y90320D01*
X432773D01*
X436160Y86933D01*
Y83547D01*
X432773Y80160D01*
X419227D01*
X449707Y70000D02*
Y90320D01*
Y86933D01*
X453093Y90320D01*
X463253D01*
X466640Y86933D01*
Y70000D01*
X510667Y100480D02*
Y70000D01*
X524213D01*
X527600Y73387D01*
Y83547D01*
X524213Y86933D01*
X510667D01*
X541147Y73387D02*
Y86933D01*
X544533Y90320D01*
X554693D01*
X558080Y86933D01*
Y73387D01*
X554693Y70000D01*
X544533D01*
X541147Y73387D01*
X578400Y97093D02*
Y73387D01*
X581787Y70000D01*
X571627Y90320D02*
X585173D01*
X608880Y97093D02*
Y73387D01*
X612267Y70000D01*
X602107Y90320D02*
X615653D01*
X632587Y73387D02*
Y86933D01*
X635973Y90320D01*
X646133D01*
X649520Y86933D01*
Y73387D01*
X646133Y70000D01*
X635973D01*
X632587Y73387D01*
X659680Y70000D02*
Y90320D01*
X666453D01*
X669840Y86933D01*
X673227Y90320D01*
X676613D01*
X680000Y86933D01*
Y70000D01*
X669840Y86933D02*
Y73387D01*
X734187Y100480D02*
X727413Y93707D01*
Y76773D01*
X734187Y70000D01*
X754507D02*
Y90320D01*
Y86933D01*
X757893Y90320D01*
X768053D01*
X771440Y86933D01*
X801920Y73387D02*
X798533Y70000D01*
X788373D01*
X784987Y73387D01*
Y86933D01*
X788373Y90320D01*
X798533D01*
X801920Y86933D01*
Y83547D01*
X798533Y80160D01*
X784987D01*
X829013Y97093D02*
X825627Y100480D01*
X818853D01*
X815467Y97093D01*
Y70000D01*
X812080Y86933D02*
X818853D01*
X812080Y70000D02*
X818853D01*
X842560Y73387D02*
X845947Y70000D01*
X859493D01*
X862880Y73387D01*
Y76773D01*
X859493Y80160D01*
X845947D01*
X842560Y83547D01*
Y86933D01*
X845947Y90320D01*
X859493D01*
X862880Y86933D01*
X883200Y100480D02*
X889973Y93707D01*
Y76773D01*
X883200Y70000D01*
X172000Y25973D02*
Y22587D01*
X175387Y19200D01*
X182160D01*
X188933D01*
Y49680D01*
X182160D02*
X188933D01*
X219413Y39520D02*
Y19200D01*
Y22587D01*
X216027Y19200D01*
X209253D01*
X205867Y22587D01*
Y39520D01*
X243120Y49680D02*
Y19200D01*
X239733D02*
X246507D01*
X266827Y39520D02*
Y22587D01*
X270213Y19200D01*
X283760D01*
Y39520D01*
Y12427D01*
X280373Y9040D01*
X270213D01*
X327787Y42907D02*
X334560Y49680D01*
Y19200D01*
X327787D01*
X341333D01*
X358267Y42907D02*
X365040Y49680D01*
Y19200D01*
X358267D01*
X371813D01*
X395520Y12427D02*
X398907Y15813D01*
Y22587D01*
X395520D01*
Y19200D01*
X398907D01*
X446320Y46293D02*
X449707Y49680D01*
X459867D01*
X463253Y46293D01*
Y42907D01*
X446320Y25973D01*
Y19200D01*
X463253D01*
X497120Y46293D02*
Y22587D01*
X493733Y19200D01*
X480187D01*
X476800Y22587D01*
Y46293D01*
X480187Y49680D01*
X493733D01*
X497120Y46293D01*
Y42907D01*
X476800Y22587D01*
X510667Y42907D02*
X517440Y49680D01*
Y19200D01*
X510667D01*
X524213D01*
X551307Y49680D02*
X544533D01*
X537760Y42907D01*
Y22587D01*
X541147Y19200D01*
X551307D01*
X554693Y22587D01*
Y32747D01*
X551307Y36133D01*
X537760D01*
X598720Y46293D02*
X602107Y49680D01*
X612267D01*
X615653Y46293D01*
Y42907D01*
X598720Y25973D01*
Y19200D01*
X615653D01*
X632587Y42907D02*
X639360Y49680D01*
Y19200D01*
X632587D01*
X646133D01*
X673227Y39520D02*
Y42907D01*
X669840D01*
Y39520D01*
X673227D01*
Y25973D02*
Y29360D01*
X669840D01*
Y25973D01*
X673227D01*
X710480Y46293D02*
Y22587D01*
X707093Y19200D01*
X693547D01*
X690160Y22587D01*
Y46293D01*
X693547Y49680D01*
X707093D01*
X710480Y46293D01*
Y42907D01*
X690160Y22587D01*
X737573Y32747D02*
X720640D01*
Y36133D01*
X734187Y49680D01*
Y19200D01*
X764667Y39520D02*
Y42907D01*
X761280D01*
Y39520D01*
X764667D01*
Y25973D02*
Y29360D01*
X761280D01*
Y25973D01*
X764667D01*
X798533Y32747D02*
X781600D01*
Y36133D01*
X795147Y49680D01*
Y19200D01*
X815467Y42907D02*
X822240Y49680D01*
Y19200D01*
X815467D01*
X829013D01*
M02*
