G04 SilkscreenBottom *
G04 Layout testing.pcb *
G04 Designed with PCB elegance 3.51 *
G04 *
G04 *
%FSLAX34Y34*%
%MOMM*%
G75*
G01*
%IPPOS*%
%ADD100C,0.0000*%
%ADD101C,0.2000*%
G54D100*
G54D101*
X463550Y146050D02*
X355600Y419100D01*
X393700Y908050D01*
X482600Y984250D02*
X1174750Y1352550D01*
X393700Y908050D02*
X482600Y984250D01*
X2139950Y127000D02*
X463550Y146050D01*
X1174750Y1352550D02*
X1631950Y1333500D01*
X1930400Y1219200D01*
X1560000Y982000D02*
Y993430D01*
Y988350D02*
X1567620D01*
Y982000D02*
Y993430D01*
X1579050Y983270D02*
X1577780Y982000D01*
X1573970D01*
X1572700Y983270D01*
Y988350D01*
X1573970Y989620D01*
X1577780D01*
X1579050Y988350D01*
Y987080D01*
X1577780Y985810D01*
X1572700D01*
X1586670Y993430D02*
Y982000D01*
X1585400D02*
X1587940D01*
X1598100Y993430D02*
Y982000D01*
X1596830D02*
X1599370D01*
X1606990Y983270D02*
Y988350D01*
X1608260Y989620D01*
X1612070D01*
X1613340Y988350D01*
Y983270D01*
X1612070Y982000D01*
X1608260D01*
X1606990Y983270D01*
X1620960Y979460D02*
X1622230Y980730D01*
Y983270D01*
X1620960D01*
Y982000D01*
X1622230D01*
X1643820Y992160D02*
Y983270D01*
X1645090Y982000D01*
X1641280Y989620D02*
X1646360D01*
X1652710Y993430D02*
Y982000D01*
Y989620D02*
X1657790D01*
X1659060Y988350D01*
Y982000D01*
X1666680Y992160D02*
D01*
Y989620D02*
Y982000D01*
X1674300Y983270D02*
X1675570Y982000D01*
X1680650D01*
X1681920Y983270D01*
Y984540D01*
X1680650Y985810D01*
X1675570D01*
X1674300Y987080D01*
Y988350D01*
X1675570Y989620D01*
X1680650D01*
X1681920Y988350D01*
X1700970Y992160D02*
D01*
Y989620D02*
Y982000D01*
X1708590Y983270D02*
X1709860Y982000D01*
X1714940D01*
X1716210Y983270D01*
Y984540D01*
X1714940Y985810D01*
X1709860D01*
X1708590Y987080D01*
Y988350D01*
X1709860Y989620D01*
X1714940D01*
X1716210Y988350D01*
X1739070Y989620D02*
Y982000D01*
Y983270D01*
X1737800Y982000D01*
X1733990D01*
X1732720Y983270D01*
Y988350D01*
X1733990Y989620D01*
X1737800D01*
X1739070Y988350D01*
X1758120Y993430D02*
Y982000D01*
X1756850D02*
X1759390D01*
X1769550Y992160D02*
D01*
Y989620D02*
Y982000D01*
X1778440D02*
Y989620D01*
Y988350D01*
X1779710Y989620D01*
X1783520D01*
X1784790Y988350D01*
Y982000D01*
X1796220Y983270D02*
X1794950Y982000D01*
X1791140D01*
X1789870Y983270D01*
Y988350D01*
X1791140Y989620D01*
X1794950D01*
X1796220Y988350D01*
Y987080D01*
X1794950Y985810D01*
X1789870D01*
X1812730Y983270D02*
Y988350D01*
X1814000Y989620D01*
X1817810D01*
X1819080Y988350D01*
Y983270D01*
X1817810Y982000D01*
X1814000D01*
X1812730Y983270D01*
X1829240Y992160D02*
X1827970Y993430D01*
X1825430D01*
X1824160Y992160D01*
Y982000D01*
X1822890Y988350D02*
X1825430D01*
X1822890Y982000D02*
X1825430D01*
X1849560Y992160D02*
Y983270D01*
X1850830Y982000D01*
X1847020Y989620D02*
X1852100D01*
X1864800Y983270D02*
X1863530Y982000D01*
X1859720D01*
X1858450Y983270D01*
Y988350D01*
X1859720Y989620D01*
X1863530D01*
X1864800Y988350D01*
Y987080D01*
X1863530Y985810D01*
X1858450D01*
X1868610Y989620D02*
X1876230Y982000D01*
X1868610D02*
X1876230Y989620D01*
X1883850Y992160D02*
Y983270D01*
X1885120Y982000D01*
X1881310Y989620D02*
X1886390D01*
X1930400Y1219200D02*
X2171700Y1016000D01*
X2317750Y552450D01*
X2298700Y165100D01*
X2139950Y127000D01*
G54D101*
X-9652Y77893D02*
Y54187D01*
X-6265Y50800D01*
X-16425Y71120D02*
X-2879D01*
X30988Y54187D02*
X27601Y50800D01*
X17441D01*
X14055Y54187D01*
Y67733D01*
X17441Y71120D01*
X27601D01*
X30988Y67733D01*
Y64347D01*
X27601Y60960D01*
X14055D01*
X41148Y54187D02*
X44535Y50800D01*
X58081D01*
X61468Y54187D01*
Y57573D01*
X58081Y60960D01*
X44535D01*
X41148Y64347D01*
Y67733D01*
X44535Y71120D01*
X58081D01*
X61468Y67733D01*
X81788Y77893D02*
Y54187D01*
X85175Y50800D01*
X75015Y71120D02*
X88561D01*
X112268Y77893D02*
D01*
Y71120D02*
Y50800D01*
X135975D02*
Y71120D01*
Y67733D01*
X139361Y71120D01*
X149521D01*
X152908Y67733D01*
Y50800D01*
X166455Y44027D02*
X169841Y40640D01*
X180001D01*
X183388Y44027D01*
Y71120D01*
X169841D01*
X166455Y67733D01*
Y54187D01*
X169841Y50800D01*
X183388D01*
X-19812Y3387D02*
X-16425Y0D01*
X-2879D01*
X508Y3387D01*
Y13547D01*
X-2879Y16933D01*
X-16425D01*
X-19812Y20320D01*
Y27093D01*
X-16425Y30480D01*
X-2879D01*
X508Y27093D01*
X20828D02*
D01*
Y20320D02*
Y0D01*
X51308Y30480D02*
Y0D01*
X47921D02*
X54695D01*
X75015Y30480D02*
Y0D01*
X88561Y20320D02*
X78401Y10160D01*
X88561Y0D02*
X75015Y13547D01*
X102108Y3387D02*
X105495Y0D01*
X119041D01*
X122428Y3387D01*
Y6773D01*
X119041Y10160D01*
X105495D01*
X102108Y13547D01*
Y16933D01*
X105495Y20320D01*
X119041D01*
X122428Y16933D01*
X152908D02*
X149521Y20320D01*
X139361D01*
X135975Y16933D01*
Y3387D01*
X139361Y0D01*
X149521D01*
X152908Y3387D01*
X166455Y0D02*
Y20320D01*
Y16933D01*
X169841Y20320D01*
X180001D01*
X183388Y16933D01*
X213868Y3387D02*
X210481Y0D01*
X200321D01*
X196935Y3387D01*
Y16933D01*
X200321Y20320D01*
X210481D01*
X213868Y16933D01*
Y13547D01*
X210481Y10160D01*
X196935D01*
X244348Y3387D02*
X240961Y0D01*
X230801D01*
X227415Y3387D01*
Y16933D01*
X230801Y20320D01*
X240961D01*
X244348Y16933D01*
Y13547D01*
X240961Y10160D01*
X227415D01*
X257895Y0D02*
Y20320D01*
Y16933D01*
X261281Y20320D01*
X271441D01*
X274828Y16933D01*
Y0D01*
X318855Y30480D02*
Y0D01*
X332401D01*
X335788Y3387D01*
Y13547D01*
X332401Y16933D01*
X318855D01*
X349335Y3387D02*
Y16933D01*
X352721Y20320D01*
X362881D01*
X366268Y16933D01*
Y3387D01*
X362881Y0D01*
X352721D01*
X349335Y3387D01*
X386588Y27093D02*
Y3387D01*
X389975Y0D01*
X379815Y20320D02*
X393361D01*
X417068Y27093D02*
Y3387D01*
X420455Y0D01*
X410295Y20320D02*
X423841D01*
X440775Y3387D02*
Y16933D01*
X444161Y20320D01*
X454321D01*
X457708Y16933D01*
Y3387D01*
X454321Y0D01*
X444161D01*
X440775Y3387D01*
X467868Y0D02*
Y20320D01*
X474641D01*
X478028Y16933D01*
X481415Y20320D01*
X484801D01*
X488188Y16933D01*
Y0D01*
X478028Y16933D02*
Y3387D01*
X-19812Y-44027D02*
Y-47413D01*
X-16425Y-50800D01*
X-9652D01*
X-2879D01*
Y-20320D01*
X-9652D02*
X-2879D01*
X27601Y-30480D02*
Y-50800D01*
Y-47413D01*
X24215Y-50800D01*
X17441D01*
X14055Y-47413D01*
Y-30480D01*
X44535Y-50800D02*
Y-30480D01*
Y-33867D01*
X47921Y-30480D01*
X58081D01*
X61468Y-33867D01*
Y-50800D01*
X91948Y-47413D02*
X88561Y-50800D01*
X78401D01*
X75015Y-47413D01*
Y-33867D01*
X78401Y-30480D01*
X88561D01*
X91948Y-33867D01*
Y-37253D01*
X88561Y-40640D01*
X75015D01*
X132588Y-23707D02*
X135975Y-20320D01*
X146135D01*
X149521Y-23707D01*
Y-27093D01*
X132588Y-44027D01*
Y-50800D01*
X149521D01*
X176615Y-20320D02*
X169841D01*
X163068Y-27093D01*
Y-47413D01*
X166455Y-50800D01*
X176615D01*
X180001Y-47413D01*
Y-37253D01*
X176615Y-33867D01*
X163068D01*
X203708Y-57573D02*
X207095Y-54187D01*
Y-47413D01*
X203708D01*
Y-50800D01*
X207095D01*
X254508Y-23707D02*
X257895Y-20320D01*
X268055D01*
X271441Y-23707D01*
Y-27093D01*
X254508Y-44027D01*
Y-50800D01*
X271441D01*
X305308Y-23707D02*
Y-47413D01*
X301921Y-50800D01*
X288375D01*
X284988Y-47413D01*
Y-23707D01*
X288375Y-20320D01*
X301921D01*
X305308Y-23707D01*
Y-27093D01*
X284988Y-47413D01*
X318855Y-27093D02*
X325628Y-20320D01*
Y-50800D01*
X318855D01*
X332401D01*
X359495Y-20320D02*
X352721D01*
X345948Y-27093D01*
Y-47413D01*
X349335Y-50800D01*
X359495D01*
X362881Y-47413D01*
Y-37253D01*
X359495Y-33867D01*
X345948D01*
X410295Y-27093D02*
X417068Y-20320D01*
Y-50800D01*
X410295D01*
X423841D01*
X454321Y-20320D02*
X437388D01*
Y-33867D01*
X450935D01*
X454321Y-37253D01*
Y-47413D01*
X450935Y-50800D01*
X440775D01*
X437388Y-47413D01*
X481415Y-30480D02*
Y-27093D01*
X478028D01*
Y-30480D01*
X481415D01*
Y-44027D02*
Y-40640D01*
X478028D01*
Y-44027D01*
X481415D01*
X518668Y-23707D02*
Y-47413D01*
X515281Y-50800D01*
X501735D01*
X498348Y-47413D01*
Y-23707D01*
X501735Y-20320D01*
X515281D01*
X518668Y-23707D01*
Y-27093D01*
X498348Y-47413D01*
X532215Y-27093D02*
X538988Y-20320D01*
Y-50800D01*
X532215D01*
X545761D01*
X572855Y-30480D02*
Y-27093D01*
X569468D01*
Y-30480D01*
X572855D01*
Y-44027D02*
Y-40640D01*
X569468D01*
Y-44027D01*
X572855D01*
X589788Y-23707D02*
X593175Y-20320D01*
X603335D01*
X606721Y-23707D01*
Y-33867D01*
X596561D01*
X606721D01*
Y-47413D01*
X603335Y-50800D01*
X593175D01*
X589788Y-47413D01*
X623655Y-27093D02*
X630428Y-20320D01*
Y-50800D01*
X623655D01*
X637201D01*
M02*
