G04 SolderMaskTop *
G04 Layout scart-mux.pcb *
G04 Designed with PCB elegance 3.51 *
G04 *
G04 *
%FSLAX34Y34*%
%MOMM*%
G75*
G01*
%IPPOS*%
%ADD100C,0.2000*%
%ADD200C,2.1000*%
%ADD201C,1.9000*%
%ADD202C,1.7000*%
%ADD203C,1.6000*%
%ADD400R,0.4500X1.7000*%
%ADD401R,1.0000X0.5500*%
%ADD402R,1.1000X1.4000*%
%ADD403R,0.9000X1.0000*%
%ADD404R,1.0000X0.9000*%
%ADD405R,1.7000X0.4500*%
%ADD406R,0.5500X1.0000*%
%ADD407R,0.9000X0.7000*%
%ADD408R,1.4000X1.1000*%
%ADD409R,1.9000X0.4500*%
%ADD410R,0.9144X1.0160*%
%ADD411R,1.1000X0.7500*%
%ADD412R,1.3700X0.8600*%
G54D200*
X395600Y348600D03*
X357500D03*
X414650Y399400D03*
X376550D03*
X395600Y760600D03*
X357500D03*
X414650Y811400D03*
X376550D03*
X509900Y760600D03*
X471800D03*
X433700D03*
X548000D03*
X586100D03*
X624200D03*
X528950Y811400D03*
X490850D03*
X452750D03*
X567050D03*
X605150D03*
X643250D03*
X482500Y580000D03*
X525500Y605000D03*
X490500Y620000D03*
X525500Y555000D03*
X490500Y540000D03*
X509900Y348600D03*
X471800D03*
X433700D03*
X548000D03*
X586100D03*
X624200D03*
X528950Y399400D03*
X490850D03*
X452750D03*
X567050D03*
X605150D03*
X643250D03*
X662300Y348600D03*
X700400D03*
X738500D03*
X681350Y399400D03*
X719450D03*
X746500Y580000D03*
X789500Y555000D03*
X754500Y540000D03*
X789500Y605000D03*
X754500Y620000D03*
X662300Y760600D03*
X700400D03*
X738500D03*
X681350Y811400D03*
X719450D03*
X1097700Y760600D03*
X1059600D03*
X1021500D03*
X1116750Y811400D03*
X1078650D03*
X1040550D03*
X1097700Y348600D03*
X1059600D03*
X1021500D03*
X1116750Y399400D03*
X1078650D03*
X1040550D03*
X1173900Y348600D03*
X1135800D03*
X1212000D03*
X1250100D03*
X1288200D03*
X1326300D03*
X1192950Y399400D03*
X1154850D03*
X1231050D03*
X1269150D03*
X1307250D03*
X1345350D03*
X1173900Y760600D03*
X1135800D03*
X1212000D03*
X1250100D03*
X1288200D03*
X1326300D03*
X1192950Y811400D03*
X1154850D03*
X1231050D03*
X1269150D03*
X1307250D03*
X1345350D03*
X1364400Y760600D03*
X1402500D03*
X1383450Y811400D03*
X1364400Y348600D03*
X1402500D03*
X1383450Y399400D03*
G54D400*
X1223250Y562000D03*
X1229750D03*
X1236250D03*
X1242750D03*
X1249250D03*
X1255750D03*
X1262250D03*
X1268750D03*
Y618000D03*
X1262250D03*
X1255750D03*
X1249250D03*
X1242750D03*
X1236250D03*
X1229750D03*
X1223250D03*
X1524750Y608000D03*
X1518250D03*
X1511750D03*
X1505250D03*
X1498750D03*
X1492250D03*
X1485750D03*
X1479250D03*
X1402750Y618000D03*
X1396250D03*
X1389750D03*
X1383250D03*
X1376750D03*
X1370250D03*
X1363750D03*
X1357250D03*
X1479250Y552000D03*
X1485750D03*
X1492250D03*
X1498750D03*
X1505250D03*
X1511750D03*
X1518250D03*
X1524750D03*
X1357250Y562000D03*
X1363750D03*
X1370250D03*
X1376750D03*
X1383250D03*
X1389750D03*
X1396250D03*
X1402750D03*
G54D401*
X848500Y232000D03*
Y240000D03*
Y248000D03*
Y256000D03*
X831500D03*
Y248000D03*
Y240000D03*
Y232000D03*
X1319500Y576000D03*
Y568000D03*
Y560000D03*
X1336500D03*
Y568000D03*
Y576000D03*
X1185500Y582000D03*
Y574000D03*
Y566000D03*
Y558000D03*
X1202500D03*
Y566000D03*
Y574000D03*
Y582000D03*
X1319500Y584000D03*
X1336500D03*
X1185500Y618000D03*
Y610000D03*
Y602000D03*
Y594000D03*
X1202500D03*
Y602000D03*
Y610000D03*
Y618000D03*
X1319500Y620000D03*
Y612000D03*
Y604000D03*
Y596000D03*
X1336500D03*
Y604000D03*
Y612000D03*
Y620000D03*
X1441500Y610000D03*
Y602000D03*
Y594000D03*
Y586000D03*
X1458500D03*
Y594000D03*
Y602000D03*
Y610000D03*
X1441500Y574000D03*
Y566000D03*
Y558000D03*
Y550000D03*
X1458500D03*
Y558000D03*
Y566000D03*
Y574000D03*
G54D201*
X218000Y567200D03*
Y541800D03*
X294000Y567200D03*
Y541800D03*
X218000Y618000D03*
Y592600D03*
X294000Y618000D03*
Y592600D03*
X452000Y592800D03*
Y618200D03*
X564000Y618000D03*
Y592600D03*
X452000Y542000D03*
Y567400D03*
X564000Y567200D03*
Y541800D03*
X867200Y320000D03*
X841800D03*
X816400D03*
X720000Y542000D03*
Y567400D03*
Y592800D03*
Y618200D03*
X918000Y320000D03*
X892600D03*
G54D202*
X852000Y904500D03*
Y879500D03*
X908000Y904500D03*
Y879500D03*
G54D402*
X380000Y248000D03*
X400000D03*
X384000Y912000D03*
X404000D03*
X638000D03*
X618000D03*
X444000D03*
X424000D03*
X444000Y248000D03*
X424000D03*
X626000Y250000D03*
X606000D03*
X648000D03*
X668000D03*
X680000Y912000D03*
X660000D03*
X1092000D03*
X1112000D03*
X916000Y610000D03*
X936000D03*
X1086000Y248000D03*
X1106000D03*
X1332000D03*
X1312000D03*
X1348000D03*
X1150000D03*
X1130000D03*
X1152000Y912000D03*
X1132000D03*
X1344000D03*
X1328000D03*
X1308000D03*
X1364000D03*
X1368000Y248000D03*
G54D403*
X380000Y268000D03*
X396000D03*
X348000D03*
X364000D03*
Y250000D03*
X348000D03*
X368000Y910000D03*
X352000D03*
Y892000D03*
X368000D03*
X384000D03*
X400000D03*
X618000D03*
X634000D03*
X424000D03*
X440000D03*
X424000Y268000D03*
X440000D03*
X606000Y270000D03*
X622000D03*
X648000D03*
X664000D03*
X688000Y252000D03*
X704000D03*
X688000Y270000D03*
X704000D03*
X720000Y252000D03*
X736000D03*
X720000Y270000D03*
X736000D03*
X786000Y272000D03*
X802000D03*
X832000D03*
X848000D03*
X878000D03*
X868000Y564000D03*
Y582000D03*
X696000Y656000D03*
X680000D03*
X696000Y674000D03*
X680000D03*
X712000Y656000D03*
X728000D03*
X712000Y674000D03*
X728000D03*
X822000Y684000D03*
X806000D03*
Y666000D03*
X822000D03*
X868000Y600000D03*
Y618000D03*
X660000Y892000D03*
X676000D03*
X772000Y910000D03*
X756000D03*
X724000Y892000D03*
X740000D03*
X772000D03*
X756000D03*
X724000Y910000D03*
X740000D03*
X1076000D03*
X1060000D03*
Y892000D03*
X1076000D03*
X1092000D03*
X1108000D03*
X1000000Y600000D03*
X1016000D03*
X1032000D03*
X1048000D03*
X1064000D03*
X1080000D03*
X1112000D03*
X1096000D03*
X884000Y582000D03*
Y600000D03*
Y618000D03*
X970000Y610000D03*
X954000D03*
X884000Y564000D03*
X938000Y510000D03*
X922000D03*
X938000Y564000D03*
X922000D03*
X938000Y546000D03*
X922000D03*
X938000Y528000D03*
X922000D03*
X906000Y492000D03*
X890000D03*
X906000Y510000D03*
X890000D03*
X906000Y528000D03*
X890000D03*
X906000Y546000D03*
X890000D03*
X922000Y492000D03*
X938000D03*
X1116000Y538000D03*
X1100000D03*
X954000Y492000D03*
X970000D03*
X1070000Y250000D03*
X1054000D03*
Y268000D03*
X1070000D03*
X1086000D03*
X1102000D03*
X894000Y272000D03*
X1312000Y268000D03*
X1328000D03*
X1348000D03*
X1130000D03*
X1146000D03*
X1144000Y600000D03*
X1128000D03*
X1132000Y892000D03*
X1148000D03*
X1344000D03*
X1308000D03*
X1324000D03*
X1360000D03*
X1442000Y912000D03*
X1426000D03*
X1394000Y894000D03*
X1410000D03*
X1442000D03*
X1426000D03*
X1394000Y912000D03*
X1410000D03*
X1364000Y268000D03*
X1438000D03*
X1422000D03*
X1390000Y250000D03*
X1406000D03*
X1438000D03*
X1422000D03*
X1390000Y268000D03*
X1406000D03*
G54D404*
X330000D03*
Y252000D03*
X334000Y894000D03*
Y910000D03*
X1042000Y892000D03*
Y908000D03*
X980000Y656000D03*
Y672000D03*
X998000Y656000D03*
Y672000D03*
X1016000Y624000D03*
Y640000D03*
Y672000D03*
Y656000D03*
X998000Y640000D03*
Y624000D03*
X1096000Y572000D03*
Y556000D03*
X1100000Y520000D03*
Y504000D03*
X1114000Y572000D03*
Y556000D03*
X1118000Y520000D03*
Y504000D03*
X1036000Y266000D03*
Y250000D03*
X1142000Y556000D03*
Y572000D03*
X1294000Y488000D03*
Y504000D03*
X1348000D03*
Y488000D03*
X1330000D03*
Y504000D03*
X1312000D03*
Y488000D03*
X1148000Y642000D03*
Y626000D03*
X1130000Y674000D03*
Y658000D03*
X1166000Y674000D03*
Y658000D03*
X1148000Y674000D03*
Y658000D03*
X1130000Y642000D03*
Y626000D03*
X1204000Y640000D03*
Y656000D03*
X1318000Y644000D03*
Y660000D03*
X1440000Y654000D03*
Y670000D03*
G54D405*
X852000Y681500D03*
Y675000D03*
Y668500D03*
Y662000D03*
Y655500D03*
Y649000D03*
Y642500D03*
X1044000Y659500D03*
Y653000D03*
Y646500D03*
Y640000D03*
Y633500D03*
Y627000D03*
Y620500D03*
X1100000D03*
Y627000D03*
Y633500D03*
Y640000D03*
Y646500D03*
Y653000D03*
Y659500D03*
X908000Y642500D03*
Y649000D03*
Y655500D03*
Y662000D03*
Y668500D03*
Y675000D03*
Y681500D03*
G54D406*
X1226000Y501500D03*
X1234000D03*
X1242000D03*
X1250000D03*
Y518500D03*
X1242000D03*
X1234000D03*
X1226000D03*
X1246000Y660500D03*
X1238000D03*
X1230000D03*
X1222000D03*
Y643500D03*
X1230000D03*
X1238000D03*
X1246000D03*
X1380000Y660500D03*
X1372000D03*
X1364000D03*
X1356000D03*
Y643500D03*
X1364000D03*
X1372000D03*
X1380000D03*
X1502000Y652500D03*
X1494000D03*
X1486000D03*
X1478000D03*
Y635500D03*
X1486000D03*
X1494000D03*
X1502000D03*
X1478000Y493500D03*
X1486000D03*
X1494000D03*
X1502000D03*
Y510500D03*
X1494000D03*
X1486000D03*
X1478000D03*
X1364000Y503500D03*
X1372000D03*
X1380000D03*
X1388000D03*
Y520500D03*
X1380000D03*
X1372000D03*
X1364000D03*
G54D407*
X932000Y648000D03*
X948000Y641500D03*
Y654500D03*
X932000Y674000D03*
X948000Y667500D03*
Y680500D03*
G54D408*
X222000Y674000D03*
Y694000D03*
X1138000Y524000D03*
Y504000D03*
X1452000Y514000D03*
Y494000D03*
G54D203*
X322500Y492000D03*
X297500D03*
X550500Y668000D03*
X525500D03*
X480500D03*
X455500D03*
X450500Y492000D03*
X425500D03*
X520500D03*
X495500D03*
X590500D03*
X565500D03*
X742500D03*
X717500D03*
X812500D03*
X787500D03*
G54D409*
X997000Y572250D03*
Y565750D03*
Y559250D03*
Y552750D03*
Y546250D03*
Y539750D03*
Y533250D03*
Y526750D03*
Y520250D03*
Y513750D03*
Y507250D03*
Y500750D03*
Y494250D03*
Y487750D03*
X1067000D03*
Y494250D03*
Y500750D03*
Y507250D03*
Y513750D03*
Y520250D03*
Y526750D03*
Y533250D03*
Y539750D03*
Y546250D03*
Y552750D03*
Y559250D03*
Y565750D03*
Y572250D03*
G54D410*
X1321840Y521680D03*
X1342160D03*
X1332000Y542000D03*
X1188160Y516320D03*
X1167840D03*
X1178000Y496000D03*
G54D411*
X782000Y251500D03*
Y242000D03*
Y232500D03*
X806000D03*
Y251500D03*
X874000D03*
Y242000D03*
Y232500D03*
X898000D03*
Y251500D03*
G54D412*
X998100Y232950D03*
Y245650D03*
Y258350D03*
Y271050D03*
X921900D03*
Y258350D03*
Y245650D03*
Y232950D03*
G54D100*
X172000Y124187D02*
X175387Y120800D01*
X188933D01*
X192320Y124187D01*
Y127573D01*
X188933Y130960D01*
X175387D01*
X172000Y134347D01*
Y137733D01*
X175387Y141120D01*
X188933D01*
X192320Y137733D01*
X222800D02*
X219413Y141120D01*
X209253D01*
X205867Y137733D01*
Y124187D01*
X209253Y120800D01*
X219413D01*
X222800Y124187D01*
X253280Y141120D02*
Y120800D01*
Y124187D01*
X249893Y120800D01*
X239733D01*
X236347Y124187D01*
Y137733D01*
X239733Y141120D01*
X249893D01*
X253280Y137733D01*
X266827Y120800D02*
Y141120D01*
Y137733D01*
X270213Y141120D01*
X280373D01*
X283760Y137733D01*
X304080Y147893D02*
Y124187D01*
X307467Y120800D01*
X297307Y141120D02*
X310853D01*
X327787Y134347D02*
X344720D01*
X354880Y120800D02*
Y141120D01*
X361653D01*
X365040Y137733D01*
X368427Y141120D01*
X371813D01*
X375200Y137733D01*
Y120800D01*
X365040Y137733D02*
Y124187D01*
X402293Y141120D02*
Y120800D01*
Y124187D01*
X398907Y120800D01*
X392133D01*
X388747Y124187D01*
Y141120D01*
X415840D02*
X436160Y120800D01*
X415840D02*
X436160Y141120D01*
X172000Y73387D02*
X175387Y70000D01*
X188933D01*
X192320Y73387D01*
Y83547D01*
X188933Y86933D01*
X175387D01*
X172000Y90320D01*
Y97093D01*
X175387Y100480D01*
X188933D01*
X192320Y97093D01*
X205867Y73387D02*
Y86933D01*
X209253Y90320D01*
X219413D01*
X222800Y86933D01*
Y73387D01*
X219413Y70000D01*
X209253D01*
X205867Y73387D01*
X243120Y100480D02*
Y70000D01*
X239733D02*
X246507D01*
X283760Y100480D02*
Y70000D01*
X270213D01*
X266827Y73387D01*
Y83547D01*
X270213Y86933D01*
X283760D01*
X314240Y73387D02*
X310853Y70000D01*
X300693D01*
X297307Y73387D01*
Y86933D01*
X300693Y90320D01*
X310853D01*
X314240Y86933D01*
Y83547D01*
X310853Y80160D01*
X297307D01*
X327787Y70000D02*
Y90320D01*
Y86933D01*
X331173Y90320D01*
X341333D01*
X344720Y86933D01*
X385360Y70000D02*
Y90320D01*
X392133D01*
X395520Y86933D01*
X398907Y90320D01*
X402293D01*
X405680Y86933D01*
Y70000D01*
X395520Y86933D02*
Y73387D01*
X436160Y90320D02*
Y70000D01*
Y73387D01*
X432773Y70000D01*
X422613D01*
X419227Y73387D01*
Y86933D01*
X422613Y90320D01*
X432773D01*
X436160Y86933D01*
X446320Y73387D02*
X449707Y70000D01*
X463253D01*
X466640Y73387D01*
Y76773D01*
X463253Y80160D01*
X449707D01*
X446320Y83547D01*
Y86933D01*
X449707Y90320D01*
X463253D01*
X466640Y86933D01*
X480187Y100480D02*
Y70000D01*
X493733Y90320D02*
X483573Y80160D01*
X493733Y70000D02*
X480187Y83547D01*
X547920Y97093D02*
Y73387D01*
X551307Y70000D01*
X541147Y90320D02*
X554693D01*
X571627Y73387D02*
Y86933D01*
X575013Y90320D01*
X585173D01*
X588560Y86933D01*
Y73387D01*
X585173Y70000D01*
X575013D01*
X571627Y73387D01*
X602107Y59840D02*
Y90320D01*
Y86933D01*
X605493Y90320D01*
X615653D01*
X619040Y86933D01*
Y73387D01*
X615653Y70000D01*
X605493D01*
X602107Y73387D01*
X172000Y25973D02*
Y22587D01*
X175387Y19200D01*
X182160D01*
X188933D01*
Y49680D01*
X182160D02*
X188933D01*
X219413Y39520D02*
Y19200D01*
Y22587D01*
X216027Y19200D01*
X209253D01*
X205867Y22587D01*
Y39520D01*
X243120Y49680D02*
Y19200D01*
X239733D02*
X246507D01*
X266827Y39520D02*
Y22587D01*
X270213Y19200D01*
X283760D01*
Y39520D01*
Y12427D01*
X280373Y9040D01*
X270213D01*
X327787Y42907D02*
X334560Y49680D01*
Y19200D01*
X327787D01*
X341333D01*
X358267Y42907D02*
X365040Y49680D01*
Y19200D01*
X358267D01*
X371813D01*
X395520Y12427D02*
X398907Y15813D01*
Y22587D01*
X395520D01*
Y19200D01*
X398907D01*
X446320Y46293D02*
X449707Y49680D01*
X459867D01*
X463253Y46293D01*
Y42907D01*
X446320Y25973D01*
Y19200D01*
X463253D01*
X497120Y46293D02*
Y22587D01*
X493733Y19200D01*
X480187D01*
X476800Y22587D01*
Y46293D01*
X480187Y49680D01*
X493733D01*
X497120Y46293D01*
Y42907D01*
X476800Y22587D01*
X510667Y42907D02*
X517440Y49680D01*
Y19200D01*
X510667D01*
X524213D01*
X551307Y49680D02*
X544533D01*
X537760Y42907D01*
Y22587D01*
X541147Y19200D01*
X551307D01*
X554693Y22587D01*
Y32747D01*
X551307Y36133D01*
X537760D01*
X598720Y46293D02*
X602107Y49680D01*
X612267D01*
X615653Y46293D01*
Y42907D01*
X598720Y25973D01*
Y19200D01*
X615653D01*
X632587Y42907D02*
X639360Y49680D01*
Y19200D01*
X632587D01*
X646133D01*
X673227Y39520D02*
Y42907D01*
X669840D01*
Y39520D01*
X673227D01*
Y25973D02*
Y29360D01*
X669840D01*
Y25973D01*
X673227D01*
X710480Y46293D02*
Y22587D01*
X707093Y19200D01*
X693547D01*
X690160Y22587D01*
Y46293D01*
X693547Y49680D01*
X707093D01*
X710480Y46293D01*
Y42907D01*
X690160Y22587D01*
X737573Y32747D02*
X720640D01*
Y36133D01*
X734187Y49680D01*
Y19200D01*
X764667Y39520D02*
Y42907D01*
X761280D01*
Y39520D01*
X764667D01*
Y25973D02*
Y29360D01*
X761280D01*
Y25973D01*
X764667D01*
X781600Y46293D02*
X784987Y49680D01*
X795147D01*
X798533Y46293D01*
Y36133D01*
X788373D01*
X798533D01*
Y22587D01*
X795147Y19200D01*
X784987D01*
X781600Y22587D01*
X815467Y19200D02*
X822240D01*
X829013Y25973D01*
Y46293D01*
X825627Y49680D01*
X815467D01*
X812080Y46293D01*
Y39520D01*
X815467Y36133D01*
X829013D01*
M02*
