M48
METRIC,TZ
T1C.762
T2C.900
T3C.700
%
M47, File: testing.ncd
M71
G90
G05
T1
X-10160Y1789430
Y1738630
Y1713230
Y1687830
Y1662430
Y1637030
Y1611630
Y1586230
Y1560830
X66040
Y1586230
Y1611630
Y1637030
Y1662430
Y1687830
Y1713230
Y1738630
Y1764030
Y1789430
X411480Y1145540
Y1094740
Y1069340
Y1043940
Y1018540
Y993140
Y967740
X487680
Y993140
Y1018540
Y1043940
Y1069340
Y1094740
Y1120140
Y1145540
X411480Y942340
Y916940
X487680
Y942340
T2
X374650Y1193800
X396000Y1514000
X406400Y1225550
X704850Y908050
X698500Y876300
X673100Y895350
X654050Y927100
X723900Y939800
Y908050
T3
X438150Y1206500
X736600Y908050
Y927100
M30
